<?xml version="1.0" encoding="utf-8"?>
<!-- Generator: Adobe Illustrator 25.1.0, SVG Export Plug-In . SVG Version: 6.00 Build 0)  -->
<svg version="1.1" id="Ebene_1" xmlns="http://www.w3.org/2000/svg" xmlns:xlink="http://www.w3.org/1999/xlink" x="0px" y="0px" width="483px" height="93.3px"
	 viewBox="0 0 483 93.3">
<path fill="#00245D" d="M53,83.9h1.5c0-8.8,7.3-16.1,16.1-16.1h12.7v-1.5H70.6C60.6,66.4,53,74.2,53,83.9z"/>
<path fill="#00245D" d="M83.3,17.9v-1.5h-4.2c1.2-5.2,1.8-10.3,1.8-15.5h-3.6c0,5.2-0.6,10.3-1.8,15.5h-4.8c-3,0-6.1,0.3-8.8,0.6
	c1.5-5.2,2.4-10.6,2.4-16.1V0.6h-3.3v0.3c0,5.8-0.9,11.2-3,16.7c-6.7,1.2-13.3,3.6-19.4,7c5.8-6.4,9.1-14.8,9.1-23.3V0.9h-3.6v0.3
	C43.9,18.8,29.7,33,12.1,33H0v3.3h12.1c4.5,0,9.1-0.9,13.3-2.7c-5.2,4.5-9.4,10-13,15.8H0.3v3.3h10.3C8.5,57,6.7,61.5,5.5,66.1H0.3
	v3.3h4.2C3.6,74.2,3,79.1,3,83.9h1.5c0-4.8,0.6-9.7,1.5-14.5h6.1c3.3,0,6.4-0.3,9.7-0.6c-1.5,4.8-2.1,10-2.1,15.2v0.3h1.5v-0.3
	c0-5.2,0.9-10.3,2.4-15.5c7.6-1.2,14.8-3.6,21.2-7.3c-5.5,6.4-8.5,14.2-8.5,22.7v0.3h1.5v-0.3c0-17.9,14.5-32.7,32.7-32.7h12.7v-1.5
	h-13c-4.2,0-8.8,0.9-12.7,2.4c5.8-5.2,10.6-10.9,14.2-17.6h11.5V33H72.7c2.4-4.8,4.5-10,5.8-15.2H83.3z M57,19.1
	c-7,17-23.3,29.4-42.7,30C23.6,33.9,38.8,23,57,19.1z M23,65.1c-3.6,0.6-7.3,0.9-10.9,0.9H6.7c1.2-4.5,3-9.1,5.5-13.3
	c7.9,0,15.5-1.8,22.4-5.2C29.4,52.4,25.5,58.5,23,65.1z M24.8,64.8c7.3-17,23.6-29.4,43-30.3C58.5,50,43,61.2,24.8,64.8z M68.8,33
	c-7,0.3-13.9,1.8-20.3,4.8c5.5-5.5,10-12.1,12.4-19.4c3-0.6,6.4-0.6,9.4-0.6h4.5C73.6,23,71.5,28.2,68.8,33z"/>
<path fill="#00245D" d="M30.6,0.9h-3.3c0,8.2-6.7,14.8-14.8,15.2H0.3v3.3h12.1C22.1,19.4,30.6,10.9,30.6,0.9z"/>
<path fill="#00245D" d="M134.2,49.7v16.1c-1.5-3.9-4.2-6.1-8.5-6.1c-3.3,0-5.8,1.5-7.6,3.9c-1.5,2.4-2.4,5.2-2.4,8.5
	c0,3.6,0.9,6.4,2.4,8.8c2.1,2.7,4.5,3.9,7.9,3.9c3.6,0,6.4-2.1,8.2-6.1V80v3.6v0.6h1.8V49.7H134.2z M132.4,79.1
	c-1.2,2.1-3.3,3.3-6.1,3.3s-4.8-0.9-6.4-3.3c-1.2-1.8-1.8-4.2-1.8-7.3s0.6-5.5,1.8-7.3c1.2-2.1,3.3-3.3,6.1-3.3
	c2.7,0,4.8,1.2,6.4,3.6c1.2,1.8,1.8,4.5,1.8,7.3C134.2,75.1,133.6,77.6,132.4,79.1z"/>
<path fill="#00245D" d="M151.5,82.7c-2.7,0-4.8-0.9-6.4-3c-1.5-1.8-2.1-4.2-2.1-7v-0.6h17.9l-0.6-0.9c0-3.3-0.6-5.8-1.8-7.9
	c-1.5-2.7-3.9-3.9-7.3-3.9s-6.1,1.2-7.9,3.9c-1.5,2.1-2.4,5.2-2.4,8.8c0,3.6,0.9,6.4,2.4,8.5c1.8,2.4,4.5,3.6,7.9,3.6
	c5.2,0,8.2-2.4,9.4-7.9h-1.8C157.9,80.6,155.4,82.7,151.5,82.7z M145.7,64.2c1.5-2.1,3.3-3,6.1-3c2.1,0,4.2,0.9,5.5,2.7
	c1.2,1.5,1.8,3.6,1.8,6.1v0.6h-15.8C143.6,68.2,144.5,66.1,145.7,64.2z"/>
<path fill="#00245D" d="M177,62.1c-0.3,0-0.9-0.3-1.8-0.3c-3.6,0-5.8,1.8-6.7,5.5c-0.3,0.9-0.3,1.8-0.3,3.3v13.6h-1.8v-20v-0.6V63
	v-2.7h1.8v4.8c1.8-3.3,4.2-4.8,7.6-4.8h1.5C177.3,60.3,177,62.1,177,62.1z"/>
<path fill="#00245D" d="M204.2,51.2h-1.8c-1.5,0-2.7,0.3-3,1.2c-0.9,0.3-0.9,1.5-0.9,3.3v4.5h5.2v1.5h-5.2v22.4h-1.8V61.8h-4.8v-1.5
	h4.8v-5.2c0-3.6,1.5-5.5,4.8-5.5h2.7V51.2z"/>
<rect x="209.1" y="49.7" fill="#00245D" width="1.8" height="34.5"/>
<path fill="#00245D" d="M235.1,63.3c-1.8-2.4-4.5-3.6-8.2-3.6c-3.6,0-6.4,1.2-8.2,3.6c-1.8,2.1-2.7,5.2-2.7,8.5s0.9,6.4,2.7,8.8
	c2.1,2.7,4.8,3.9,8.2,3.9c3.3,0,5.8-1.2,7.9-3.9c1.8-2.4,2.7-5.2,2.7-8.8C237.6,68.2,236.7,65.5,235.1,63.3z M233.6,79.4
	c-1.8,2.4-3.9,3.6-6.7,3.6s-5.2-1.2-6.7-3.6c-1.5-2.1-2.1-4.5-2.1-7.6c0-2.7,0.6-5.5,2.1-7.3c1.5-2.1,3.9-3.3,6.7-3.3
	c2.7,0,5.2,1.2,6.7,3.3c1.5,1.8,2.1,4.2,2.1,7.3S234.8,77.6,233.6,79.4z"/>
<path fill="#00245D" d="M251.2,83.9h-3c-3,0-4.5-1.5-4.5-4.8V61.2h-4.8v-1.5h4.8v-5.2l1.8-0.9v6.1h5.2v1.5h-5.2v17
	c0,1.2,0.3,2.4,0.6,3c0.6,0.9,1.5,1.2,2.7,1.2h2.1v1.5C250.9,83.9,251.2,83.9,251.2,83.9z"/>
<path fill="#00245D" d="M266,83.9h-3c-3,0-4.5-1.5-4.5-4.8V61.2h-4.8v-1.5h4.8v-5.2l1.8-0.9v6.1h5.2v1.5h-5.2v17
	c0,1.2,0.3,2.4,0.6,3c0.6,0.9,1.5,1.2,2.7,1.2h2.1C265.7,82.4,266,83.9,266,83.9z"/>
<path fill="#00245D" d="M278.2,82.7c-2.7,0-4.8-0.9-6.4-3c-1.5-1.8-2.1-4.2-2.1-7v-0.6h17.9l-0.6-0.9c0-3.3-0.6-5.8-1.8-7.9
	c-1.5-2.7-3.9-3.9-7.3-3.9s-6.1,1.2-7.9,3.9c-1.5,2.1-2.4,5.2-2.4,8.8c0,3.6,0.9,6.4,2.4,8.5c1.8,2.4,4.5,3.6,7.9,3.6
	c5.2,0,8.2-2.4,9.4-7.9h-1.8C284.5,80.6,282.1,82.7,278.2,82.7z M272.1,64.2c1.5-2.1,3.3-3,6.1-3c2.1,0,4.2,0.9,5.5,2.7
	c1.2,1.5,1.8,3.6,1.8,6.1v0.6c0,0-15.8,0-15.8,0C270,68.2,270.9,66.1,272.1,64.2z"/>
<path fill="#00245D" d="M310.9,84.2h-1.8V70.3c0-2.7-0.3-4.8-0.9-6.1c-0.9-1.8-2.7-2.7-5.5-2.7c-4.2,0-6.7,2.1-7.6,6.7
	c-0.3,1.2-0.3,2.1-0.3,3.3v12.4H293V66.7v-7h1.8v5.5c1.5-3.6,4.2-5.8,8.2-5.8c5.5,0,8.2,3,8.2,9.4C311.2,68.8,310.9,84.2,310.9,84.2
	z"/>
<path fill="#00245D" d="M335.4,63.6c-1.8-2.4-4.2-3.6-7.6-3.6c-3.9,0-7,2.1-8.5,6.1v-5.8h-1.8v7.3v25.8h1.8V78.8
	c1.5,3.9,4.2,5.8,8.2,5.8c3,0,5.8-1.5,7.6-3.9c1.5-2.1,2.4-5.2,2.4-8.5C337.6,68.5,336.9,65.8,335.4,63.6z M333.9,79.1
	c-1.5,2.1-3.6,3.3-6.4,3.3s-4.8-0.9-6.4-3.3c-1.2-1.8-1.8-4.2-1.8-7.3c0-2.7,0.6-5.5,1.8-7.3c1.5-2.1,3.6-3.3,6.4-3.3
	s4.8,1.2,6.4,3.6c1.2,1.8,1.8,4.2,1.8,7.3C335.7,75.1,335.1,77.6,333.9,79.1z"/>
<path fill="#00245D" d="M356.6,60.9c-1.5-0.9-3-1.2-5.5-1.2c-2.4,0-4.2,0.6-5.5,1.5c-1.5,1.2-2.4,2.7-2.4,4.8h1.8
	c0.3-3.3,2.4-4.8,6.1-4.8c4.2,0,6.4,2.1,6.4,6.7v1.8h-3.6c-8.5,0-12.7,2.7-12.7,7.9c0,2.4,0.9,4.2,2.7,5.5c1.2,0.9,3.3,1.5,5.5,1.5
	c3.9,0,7-1.8,8.2-5.5v5.2h1.8c0-1.8,0.3-3.6,0.3-5.2V68.2C359.7,64.5,358.5,62.1,356.6,60.9z M357.3,73c0,6.7-2.7,10-7.9,10
	c-1.8,0-3.3-0.3-4.5-1.2c-1.5-0.9-2.1-2.4-2.1-4.2c0-2.7,1.5-4.5,4.2-5.5c1.5-0.6,3.9-0.9,7.6-0.9h2.7V73z"/>
<path fill="#00245D" d="M376.3,62.1c-0.3,0-0.9-0.3-1.8-0.3c-3.6,0-5.8,1.8-6.7,5.5c-0.3,0.9-0.3,1.8-0.3,3.3v13.6h-1.8v-20v-0.6V63
	v-2.7h1.8v4.8c1.8-3.3,4.2-4.8,7.6-4.8h1.5C376.6,60.3,376.3,62.1,376.3,62.1z"/>
<path fill="#00245D" d="M390.9,83.9h-3c-3,0-4.5-1.5-4.5-4.8V61.2h-4.8v-1.5h4.8v-5.2l1.8-0.9v6.1h5.2v1.5h-5.2v17
	c0,1.2,0.3,2.4,0.6,3c0.6,0.9,1.5,1.2,2.7,1.2h2.1v1.5H390.9z"/>
<path fill="#00245D" d="M413.3,84.2h-1.8V70.3c0-2.7-0.3-4.8-0.9-6.1c-0.9-1.8-2.7-2.7-5.5-2.7c-4.2,0-6.7,2.1-7.6,6.7
	c-0.3,1.2-0.3,2.1-0.3,3.3v12.4h-1.8V66.7v-7h1.8v5.5c1.5-3.6,4.2-5.8,8.2-5.8c5.5,0,8.2,3,8.2,9.4v15.5
	C413.6,84.2,413.3,84.2,413.3,84.2z"/>
<path fill="#00245D" d="M428.8,82.7c-2.7,0-4.8-0.9-6.4-3c-1.5-1.8-2.1-4.2-2.1-7v-0.6h17.9l-0.6-0.9c0-3.3-0.6-5.8-1.8-7.9
	c-1.5-2.7-3.9-3.9-7.3-3.9c-3.3,0-6.1,1.2-7.9,3.9c-1.5,2.1-2.4,5.2-2.4,8.8c0,3.6,0.9,6.4,2.4,8.5c1.8,2.4,4.5,3.6,7.9,3.6
	c5.2,0,8.2-2.4,9.4-7.9H436C435.1,80.6,432.7,82.7,428.8,82.7z M422.7,64.2c1.5-2.1,3.3-3,6.1-3c2.1,0,4.2,0.9,5.5,2.7
	c1.2,1.5,1.8,3.6,1.8,6.1v0.6c0,0-15.8,0-15.8,0C420.6,68.2,421.5,66.1,422.7,64.2z"/>
<path fill="#00245D" d="M453.9,62.1c-0.3,0-0.9-0.3-1.8-0.3c-3.6,0-5.8,1.8-6.7,5.5c-0.3,0.9-0.3,1.8-0.3,3.3v13.6h-1.8v-20v-0.6V63
	v-2.7h1.8v4.8c1.8-3.3,4.2-4.8,7.6-4.8h1.5C454.2,60.3,453.9,62.1,453.9,62.1z"/>
<path fill="#00245D" d="M205.4,25.8h1.5c0.3,4.2,3,7.9,7,7.9c2.4,0,4.8-0.9,4.8-3.3c0-5.5-13-3-13-12.1c0-4.8,3.6-7.3,8.5-7.3
	c3.6,0,5.5,0.9,7.3,1.5v6.1H220c-0.3-3.3-3-6.4-6.4-6.4c-1.8,0-3.3,0.9-3.3,3c0,4.8,13,2.7,13,11.8c0,5.2-4.8,8.2-9.4,8.2
	c-3.6,0-6.7-0.9-8.5-1.5C205.4,33.6,205.4,25.8,205.4,25.8z"/>
<path fill="#00245D" d="M240,33.3c-5.2,0-6.1-5.2-6.1-9.4v-1.8h15.8c0-7-4.8-10.9-10.9-10.9c-7.3,0-12.4,5.2-12.4,12.1
	c0,7.3,5.2,12.1,12.4,12.1c4.8,0,8.8-2.4,10.6-7.3l-1.2-0.6C246.3,30.9,243.9,33.3,240,33.3z M238.5,12.1c3.3,0,3.9,3.3,3.9,6.1v2.1
	h-8.5C233.9,17.3,233.9,12.1,238.5,12.1z"/>
<path fill="#00245D" d="M251.5,33.3h3.3V13h-3.3v-1.5h3c2.4,0,4.8,0,7.3-0.3v3.9c0.9-2.4,3.3-4.2,6.1-4.2c3,0,4.5,2.1,4.5,4.8
	c0,1.8-0.9,3.3-3,3.3c-1.8,0-3-0.9-3-2.4v-2.1c0-0.6-0.3-0.9-0.9-0.9c-2.7,0-3.9,6.4-3.9,10v10h3.3v0.9h-13.6
	C251.2,34.5,251.5,33.3,251.5,33.3z"/>
<polygon fill="#00245D" points="276.6,12.7 273.9,12.7 273.9,11.2 287.9,11.2 287.9,12.7 284.5,12.7 290.3,26.7 296.3,12.7 
	293,12.7 293,11.2 300.9,11.2 300.9,12.7 298.2,12.7 288.2,35.1 287,35.1 "/>
<path fill="#00245D" d="M303,33.3h3.3V13H303v-1.5h3c2.4,0,4.8,0,7.3-0.3v22.1h3.3v1.2H303V33.3z"/>
<circle fill="#00245D" cx="309.7" cy="3.6" r="3.6"/>
<path fill="#00245D" d="M340.6,27.6c-1.5,4.5-4.5,7.6-10,7.6c-7.3,0-12.4-4.8-12.4-12.1c0-7,5.2-12.1,12.4-12.1
	c3.6,0,9.1,0.9,9.1,6.1c0,1.8-1.2,2.7-2.7,2.7c-2.7,0-3.3-1.5-3.3-3.9c0-2.1-0.9-3.3-3-3.3c-4.8,0-4.8,5.2-4.8,10.9
	c0,4.5,0.6,10.3,6.4,10.3c3.9,0,6.1-2.7,7.3-6.1H340.6z"/>
<path fill="#00245D" d="M357.3,33.3c-5.2,0-6.1-5.2-6.1-9.4v-1.8h15.8c0-7-4.8-10.9-10.9-10.9c-7.3,0-12.4,5.2-12.4,12.1
	c0,7.3,5.2,12.1,12.4,12.1c4.8,0,8.8-2.4,10.6-7.3l-1.2-0.6C363.6,30.9,361.2,33.3,357.3,33.3z M355.7,12.1c3.3,0,3.9,3.3,3.9,6.1
	v2.1h-8.5C351.2,17.3,351.2,12.1,355.7,12.1z"/>
<path fill="#00245D" d="M368.8,33.3h3.3V2.1h-3.3V0.6h3c2.4,0,4.8,0,7.3-0.3V33h3.3v1.5h-13.6V33.3z"/>
<path fill="#00245D" d="M397.6,33.3c-5.2,0-6.1-5.2-6.1-9.4v-1.8h15.8c0-7-4.8-10.9-10.9-10.9c-7.3,0-12.4,5.2-12.4,12.1
	c0,7.3,5.2,12.1,12.4,12.1c4.8,0,8.8-2.4,10.6-7.3l-1.2-0.6C403.9,30.9,401.5,33.3,397.6,33.3z M396,12.1c3.3,0,3.9,3.3,3.9,6.1v2.1
	h-8.5C391.5,17.3,391.5,12.1,396,12.1z"/>
<path fill="#00245D" d="M432.4,29.4l0.3-11.2c0-6.7-4.8-7.3-11.2-7.3c-3.3,0-9.1,0.9-9.1,5.2c0,1.8,1.2,2.4,2.7,2.4
	c5.2,0,0-6.4,6.4-6.4c3.6,0,4.2,1.5,4.2,3.6v3c-1.2,0.6-3.6,1.2-4.8,1.5c-6.1,1.2-10.3,1.5-10.3,7.3c0,4.5,2.4,7.6,7.3,7.6
	c3,0,6.7-0.6,7.6-3.6c0.6,2.7,2.1,3.3,4.8,3.3c1.8,0,3.6-0.3,5.5-0.3v-1.2C433,33.3,432.4,32.4,432.4,29.4z M421.2,33
	c-2.7,0-3.6-2.1-3.6-4.5c0-4.2,1.5-5.8,3.9-6.7l3.9-1.5c0,0,0.3,4.2,0.3,4.2C425.7,27.3,425.7,33,421.2,33z"/>
<path fill="#00245D" d="M438.5,25.8h1.5c0.3,4.2,3,7.9,7,7.9c2.4,0,4.8-0.9,4.8-3.3c0-5.5-13-3-13-12.1c0-4.8,3.6-7.3,8.5-7.3
	c3.6,0,5.5,0.9,7.3,1.5v6.1H453c-0.3-3.3-3-6.4-6.4-6.4c-1.8,0-3.3,0.9-3.3,3c0,4.8,13,2.7,13,11.8c0,5.2-4.8,8.2-9.4,8.2
	c-3.6,0-6.7-0.9-8.5-1.5C438.5,33.6,438.5,25.8,438.5,25.8z"/>
<path fill="#00245D" d="M473.3,33.3c-5.2,0-6.1-5.2-6.1-9.4v-1.8H483c0-7-4.8-10.9-10.9-10.9c-7.3,0-12.4,5.2-12.4,12.1
	c0,7.3,5.2,12.1,12.4,12.1c4.8,0,8.8-2.4,10.6-7.3l-1.2-0.6C479.7,30.9,477.2,33.3,473.3,33.3z M471.8,12.1c3.3,0,3.9,3.3,3.9,6.1
	v2.1h-8.5C467.2,17.3,467.2,12.1,471.8,12.1z"/>
<path fill="#00245D" d="M137.6,29.4V18.2c0-6.7-4.8-7.3-11.2-7.3c-3.3,0-9.1,0.9-9.1,5.2c0,1.8,1.2,2.4,2.7,2.4
	c5.5,0,0.3-6.4,6.7-6.4c3.6,0,4.2,1.5,4.2,3.6v3c-1.2,0.6-3.6,1.2-4.8,1.5c-6.1,1.2-10.3,1.5-10.3,7.3c0,4.5,2.4,7.6,7.3,7.6
	c3,0,6.7-0.6,7.6-3.6c0.6,2.7,2.1,3.3,4.8,3.3c1.8,0,3.6-0.3,5.5-0.3v-1.2C138.2,33.3,137.6,32.4,137.6,29.4z M126.4,33
	c-2.7,0-3.6-2.1-3.6-4.5c0-4.2,1.2-5.8,3.6-6.7l4.2-1.5l0.3,4.2C130.9,27.3,130.9,33,126.4,33z"/>
<path fill="#00245D" d="M142.7,33.3h3.3V2.1h-3.3V0.6h3c2.4,0,4.8,0,7.3-0.3v21.5h3l5.5-9.1h-3.6v-1.5h9.7v1.5h-3.9l-3.3,5.8
	l10,14.8h2.4v1.2h-13.6V33h3l-6.7-9.7H153V33h3.3v1.5h-13.6V33.3z"/>
<path fill="#00245D" d="M174.8,33.3h3.3V13h-3.3v-1.5h3.3v-3c0-5.2,2.7-8.5,9.4-8.5c2.1,0,7.6,0.9,7.6,5.2c0,2.4-1.2,3.3-3,3.3
	c-2.4,0-3-1.2-3-3s0-3.9-2.1-3.9s-2.4,1.8-2.4,3.6v6.4h3.9V13h-3.9v20.3h3.9v1.2h-14.2C174.2,34.5,174.8,33.3,174.8,33.3z"/>
</svg>
