<?xml version="1.0" encoding="utf-8"?>
<!-- Generator: Adobe Illustrator 25.1.0, SVG Export Plug-In . SVG Version: 6.00 Build 0)  -->
<svg version="1.1"
	 id="svg2" xmlns="http://www.w3.org/2000/svg" xmlns:xlink="http://www.w3.org/1999/xlink" x="0px" y="0px" width="480px" height="366.6px"
	 viewBox="0 0 480 366.6">
<g id="layer1" transform="translate(-262.00236,-401.62718)">
	<g id="g11155" transform="matrix(3.3168355,0,0,3.3168355,-502.08545,-1860.3616)">
		<path id="path6192" fill="#231F20" d="M233.4,776.2l5.4,12.5l5.4-12.5l3,15.7h-1.7l-1.9-10.1h0l-4.8,10.7l-4.8-10.7h0l-1.9,10.1
			h-1.7L233.4,776.2"/>
		<path id="path6194" fill="#231F20" d="M250.4,777h7.7v1.5H252v4.4h5.9v1.5H252v5.8h6.1v1.5h-7.7V777"/>
		<path id="path6196" fill="#231F20" d="M265,790.3c1.8,0,3.3-0.3,4.7-1.5c1.2-1.1,1.9-2.7,1.9-4.4c0-1.7-0.7-3.3-1.9-4.5
			c-1.4-1.2-2.9-1.4-4.6-1.4h-1.2v11.8H265z M262.1,777h2.8c2.2,0,4,0.3,5.8,1.8c1.7,1.5,2.5,3.5,2.5,5.7c0,2.2-0.8,4.1-2.4,5.5
			c-1.8,1.6-3.6,1.9-5.9,1.9h-2.8V777"/>
		<path id="path6198" fill="#231F20" d="M276.8,791.9h1.7V777h-1.7V791.9z"/>
		<path id="path6200" fill="#231F20" d="M288.1,780.2l-2.5,6h5L288.1,780.2z M284.9,787.7l-1.8,4.2h-1.8l6.9-15.6l6.7,15.6H293
			l-1.8-4.2H284.9"/>
		<path id="path6202" fill="#231F20" d="M318.8,784.4c0,2-0.2,3.7-1.5,5.2c-1.4,1.6-3.4,2.5-5.5,2.5c-4.2,0-7.7-3.5-7.7-7.7
			c0-4.3,3.5-7.7,7.8-7.7c2.6,0,4.7,1.2,6.3,3.2l-1.2,1.1c-1.2-1.8-2.9-2.8-5.1-2.8c-3.4,0-6.1,2.9-6.1,6.2c0,1.6,0.6,3.1,1.7,4.2
			c1.1,1.1,2.7,1.9,4.2,1.9c2.6,0,5.3-1.9,5.3-4.7h-4.4v-1.5H318.8"/>
		<path id="path6204" fill="#231F20" d="M324,783.9h0.5c1.9,0,3.8-0.4,3.8-2.7c0-2.4-1.8-2.7-3.8-2.7H324V783.9z M324,791.9h-1.7
			V777h2.2c2.8,0,5.4,0.8,5.4,4.1c0,2.3-1.4,3.9-3.7,4.1l4.7,6.7h-2l-4.5-6.5H324V791.9"/>
		<path id="path6206" fill="#231F20" d="M335.2,784.4c0,3.4,2.7,6.2,6.1,6.2c3.4,0,6.1-2.8,6.1-6.2c0-3.4-2.7-6.2-6.1-6.2
			C337.9,778.3,335.2,781.1,335.2,784.4z M349.1,784.5c0,4.3-3.5,7.7-7.8,7.7c-4.2,0-7.8-3.4-7.8-7.7c0-4.3,3.5-7.7,7.8-7.7
			C345.5,776.7,349.1,780.2,349.1,784.5"/>
		<path id="path6208" fill="#231F20" d="M354.1,785.9c0,1.1,0,2.4,0.7,3.3c0.7,0.9,1.9,1.4,3,1.4c1.1,0,2.2-0.5,2.9-1.3
			c0.8-0.9,0.7-2.2,0.7-3.4V777h1.7v9.3c0,1.6-0.1,2.9-1.3,4.1c-1,1.1-2.5,1.7-4,1.7c-1.4,0-2.8-0.5-3.8-1.5
			c-1.3-1.2-1.5-2.6-1.5-4.3V777h1.7V785.9"/>
		<path id="path6210" fill="#231F20" d="M368.9,783.8h1.1c1.8,0,3.4-0.6,3.4-2.7c0-2.4-2-2.6-3.9-2.6h-0.6V783.8z M368.9,791.9h-1.7
			V777h2.4c1.3,0,2.6,0,3.7,0.8c1.1,0.8,1.7,2.1,1.7,3.4c0,1.2-0.5,2.4-1.4,3.2c-1,0.8-2.3,1-3.5,1h-1.2V791.9"/>
		<path id="path6212" fill="#0054A6" d="M261.7,761.9h79.9V682h-79.9V761.9z"/>
		<path id="path6214" fill="#C6C8CA" d="M292.1,687.6h43.9v43.9L292.1,687.6"/>
		<path id="path6216" fill="#FFFFFF" d="M271.6,752.3h0.5c1.2,0,3.3,0.1,3.3-1.7c0-1.9-2.1-1.7-3.4-1.7h-0.4V752.3z M271.6,745.8
			h0.5c1.1,0,2.2-0.2,2.2-1.5c0-1.5-1.3-1.5-2.4-1.5h-0.3V745.8z M267.4,755.5v-15.9h5.9c2.8,0,4.7,1.1,4.7,4.1
			c0,1.4-0.5,2.6-1.8,3.3v0c2.3,0.3,3.3,1.8,3.3,4.1c0,3.3-2.9,4.4-5.8,4.4H267.4"/>
		<path id="path6218" fill="#FFFFFF" d="M288.1,744.5L288.1,744.5l-1.8,5.1h3.4L288.1,744.5z M285.2,752.7l-1.1,2.8h-4.4l6.1-15.9
			h4.5l6,15.9h-4.4l-1-2.8H285.2"/>
		<path id="path6220" fill="#FFFFFF" d="M310.5,739.6v9c0,2-0.1,4.1-1.7,5.6c-1.3,1.3-3.4,1.8-5.3,1.8c-1.9,0-4-0.5-5.3-1.8
			c-1.6-1.5-1.7-3.6-1.7-5.6v-9h4.1v8.4c0,2.1,0.1,4.3,2.8,4.3c2.7,0,2.8-2.3,2.8-4.3v-8.4H310.5"/>
		<path id="path6222" fill="#FFFFFF" d="M317.1,743.1v2.7h4.7v3.5h-4.7v2.7h4.9v3.5h-9.1v-15.9h9.1v3.5H317.1"/>
		<path id="path6232" fill="#FFFFFF" d="M328.5,746.7h0.4c1.4,0,2.9-0.3,2.9-2c0-1.7-1.5-2-2.9-2h-0.4V746.7z M337.6,755.5h-5.2
			l-3.9-6.1h0v6.1h-4.1v-15.9h6.2c3.1,0,5.5,1.5,5.5,4.9c0,2.2-1.2,4.1-3.5,4.5L337.6,755.5"/>
	</g>
</g>
</svg>
