<?xml version="1.0" encoding="utf-8"?>
<!-- Generator: Adobe Illustrator 26.0.3, SVG Export Plug-In . SVG Version: 6.00 Build 0)  -->
<svg version="1.1" id="Ebene_1" xmlns="http://www.w3.org/2000/svg" xmlns:xlink="http://www.w3.org/1999/xlink" x="0px" y="0px"
	 viewBox="0 0 370 50" style="enable-background:new 0 0 370 50;">
<style type="text/css">
	.st0{clip-path:url(#SVGID_00000137099555421771645100000016535861170160005044_);}
	.st1{fill:#00C8D6;}
	.st2{fill:#FFFFFF;}
	.st3{opacity:0.4;}
</style>
<g>
	<defs>
		<rect id="SVGID_1_" x="0.4" y="0" width="370" height="50"/>
	</defs>
	<clipPath id="SVGID_00000172410456112141982650000002465884315732173196_">
		<use xlink:href="#SVGID_1_"  style="overflow:visible;"/>
	</clipPath>
	<g style="clip-path:url(#SVGID_00000172410456112141982650000002465884315732173196_);">
		<g id="chocfair-gender-logo">
			<path id="Pfad_1" class="st1" d="M61.5,27.7c0-2,0.4-3.9,1.3-5.7c0.8-1.6,2.1-2.9,3.6-3.8c1.6-0.9,3.4-1.4,5.3-1.3
				c2.6,0,4.7,0.6,6.3,1.9c1.7,1.3,2.9,3.1,3.3,5.2h-3.7c-0.3-1.2-1.1-2.3-2.1-3c-1.1-0.8-2.5-1.2-3.8-1.1c-1.8-0.1-3.6,0.7-4.8,2
				c-1.2,1.4-1.8,3.3-1.8,5.8s0.6,4.4,1.8,5.8c1.2,1.4,3,2.1,4.8,2.1c1.4,0,2.7-0.3,3.8-1.1c1-0.7,1.8-1.8,2.1-3h3.7
				c-0.5,2-1.7,3.8-3.4,5.1c-1.8,1.3-4,2-6.3,1.9c-1.8,0-3.7-0.4-5.3-1.3c-1.5-0.9-2.8-2.2-3.6-3.8C61.9,31.7,61.5,29.7,61.5,27.7z
				 M96.3,17c1.5,0,2.9,0.3,4.3,1c1.3,0.7,2.3,1.7,3,3c0.8,1.5,1.1,3.2,1.1,4.9v12.3h-3.4V26.4c0-2.1-0.5-3.7-1.6-4.8
				c-1.1-1.1-2.7-1.7-4.3-1.7c-1.6-0.1-3.2,0.5-4.4,1.7c-1.1,1.1-1.6,2.8-1.6,5v11.5h-3.5V10h3.5v10.3c0.7-1.1,1.7-1.9,2.8-2.5
				C93.5,17.2,94.9,16.9,96.3,17z M119.4,38.6c-1.9,0-3.7-0.4-5.3-1.3c-1.6-0.9-2.9-2.2-3.7-3.8c-0.9-1.8-1.4-3.7-1.3-5.7
				c0-2,0.4-3.9,1.4-5.7c0.9-1.6,2.2-2.9,3.8-3.8c3.4-1.7,7.4-1.7,10.7,0c1.6,0.9,2.9,2.2,3.8,3.8c1,1.7,1.4,3.7,1.4,5.7
				c0,2-0.5,4-1.4,5.7c-0.9,1.6-2.3,2.9-3.9,3.8C123.2,38.1,121.3,38.6,119.4,38.6L119.4,38.6z M119.4,35.5c1.2,0,2.4-0.3,3.5-0.9
				c1.1-0.6,2-1.5,2.6-2.6c0.7-1.3,1.1-2.8,1-4.3c0-1.5-0.3-3-1-4.3c-0.6-1.1-1.5-2-2.6-2.6c-2.2-1.1-4.8-1.1-7,0
				c-1.1,0.6-2,1.5-2.5,2.6c-0.7,1.3-1,2.8-1,4.3c0,1.5,0.3,3,0.9,4.3c0.6,1.1,1.4,2,2.5,2.6C117,35.2,118.2,35.5,119.4,35.5
				L119.4,35.5z M133.4,27.8c0-2,0.4-3.9,1.3-5.7c0.8-1.6,2.1-2.9,3.6-3.8c1.6-0.9,3.4-1.4,5.3-1.3c2.6,0,4.7,0.6,6.3,1.9
				c1.7,1.3,2.9,3.1,3.3,5.2h-3.7c-0.3-1.2-1-2.3-2.1-3c-1.1-0.8-2.5-1.2-3.8-1.1c-1.8-0.1-3.6,0.7-4.8,2c-1.2,1.3-1.8,3.3-1.8,5.8
				s0.6,4.4,1.8,5.8c1.2,1.4,3,2.1,4.8,2.1c1.4,0.1,2.7-0.3,3.8-1.1c1-0.7,1.8-1.8,2.1-3h3.7c-0.5,2.1-1.7,3.9-3.4,5.1
				c-1.8,1.3-4,2-6.3,1.9c-1.8,0-3.7-0.4-5.3-1.3c-1.5-0.9-2.8-2.2-3.6-3.8C133.8,31.7,133.4,29.7,133.4,27.8L133.4,27.8z
				 M167.9,22.4h-3.5v15.8h-6.5V22.4h-2.4V17h2.4v-0.6c0-2.6,0.7-4.6,2.2-6s3.7-2,6.6-2c0.4,0,0.7,0,1.1,0v5.5
				c-1.2-0.1-2.1,0.1-2.6,0.5c-0.5,0.4-0.8,1.2-0.8,2.3v0.2h3.5L167.9,22.4z M169.7,27.6c0-2,0.4-4,1.2-5.8c0.7-1.6,1.9-2.9,3.4-3.8
				c1.4-0.9,3.1-1.4,4.8-1.3c1.4,0,2.7,0.3,3.9,0.9c1.1,0.6,2,1.4,2.6,2.4v-3h6.5v21.3h-6.5v-3c-0.7,1-1.6,1.8-2.7,2.4
				c-1.2,0.6-2.6,0.9-3.9,0.9c-1.7,0-3.3-0.5-4.7-1.4c-1.5-0.9-2.6-2.2-3.4-3.8C170.1,31.5,169.6,29.6,169.7,27.6z M185.6,27.6
				c0.1-1.4-0.4-2.8-1.4-3.9c-1.8-1.8-4.7-1.9-6.5-0.1c0,0-0.1,0.1-0.1,0.1c-0.9,1-1.4,2.4-1.4,3.8c-0.1,1.4,0.4,2.8,1.4,3.9
				c0.8,0.9,2,1.4,3.3,1.4c1.2,0,2.4-0.5,3.3-1.4C185.2,30.4,185.7,29,185.6,27.6L185.6,27.6z M200.1,14.8c-1,0-2-0.3-2.8-1
				c-0.7-0.6-1.1-1.5-1.1-2.5c0-1,0.4-1.9,1.1-2.5c1.6-1.3,3.9-1.3,5.6,0c0.7,0.6,1.1,1.6,1.1,2.5c0,1-0.4,1.9-1.1,2.5
				C202.1,14.4,201.1,14.8,200.1,14.8L200.1,14.8z M203.3,17v21.3h-6.5V17H203.3z M214.6,20.5c0.7-1.1,1.7-2.1,2.9-2.8
				c1.2-0.7,2.5-1,3.8-1v6.9h-1.8c-1.6,0-2.8,0.3-3.7,1c-0.8,0.7-1.2,1.9-1.2,3.7v9.9h-6.5V17h6.5V20.5z M240.5,16.6
				c1.4,0,2.7,0.3,3.9,0.9c1.1,0.6,2,1.4,2.6,2.4v-3h6.5v21.2c0,1.8-0.4,3.7-1.2,5.3c-0.8,1.6-2,2.9-3.5,3.8c-1.8,1-3.9,1.5-5.9,1.5
				c-3.1,0-5.7-0.7-7.7-2.2c-1.9-1.4-3.2-3.6-3.4-6.1h6.4c0.2,0.8,0.7,1.5,1.4,1.9c0.9,0.5,1.8,0.7,2.8,0.7c1.2,0.1,2.3-0.4,3.2-1.2
				c0.8-0.8,1.2-2,1.2-3.7v-3c-0.7,1-1.6,1.8-2.6,2.4c-1.2,0.6-2.6,1-3.9,0.9c-1.7,0-3.3-0.4-4.8-1.4c-1.5-0.9-2.6-2.2-3.4-3.8
				c-0.9-1.8-1.3-3.8-1.2-5.8c0-2,0.4-4,1.2-5.8c0.7-1.6,1.9-2.9,3.4-3.8C237.2,17.1,238.8,16.7,240.5,16.6L240.5,16.6z M247.1,27.6
				c0.1-1.4-0.4-2.8-1.3-3.8c-1.8-1.8-4.7-1.9-6.5-0.1c0,0-0.1,0.1-0.1,0.1c-0.9,1-1.4,2.4-1.4,3.8c-0.1,1.4,0.4,2.8,1.4,3.9
				c0.8,0.9,2,1.4,3.3,1.4c1.3,0,2.5-0.5,3.3-1.4C246.7,30.4,247.2,29,247.1,27.6L247.1,27.6z M278.4,27.2c0,0.6,0,1.3-0.1,1.9
				h-14.8c0,1.1,0.5,2.2,1.3,3c0.7,0.7,1.7,1.1,2.8,1c1.5,0.1,2.8-0.7,3.4-2.1h6.9c-0.4,1.4-1,2.7-1.9,3.8c-0.9,1.1-2.1,2-3.5,2.6
				c-1.5,0.7-3.1,1-4.7,0.9c-1.9,0-3.8-0.4-5.6-1.3c-1.6-0.9-2.9-2.2-3.8-3.8c-0.9-1.8-1.4-3.8-1.4-5.8c-0.1-2,0.4-4,1.3-5.8
				c0.9-1.6,2.2-2.9,3.8-3.8c1.7-0.9,3.7-1.4,5.6-1.3c1.9,0,3.8,0.4,5.5,1.3c1.6,0.8,2.9,2.1,3.8,3.7
				C277.9,23.4,278.4,25.3,278.4,27.2L278.4,27.2z M271.7,25.5c0-1-0.4-2-1.1-2.7c-0.8-0.7-1.8-1-2.9-1c-1,0-2,0.3-2.8,1
				c-0.8,0.7-1.3,1.7-1.4,2.7L271.7,25.5z M294.8,16.7c2.5,0,4.5,0.8,6,2.4s2.2,3.8,2.2,6.6v12.4h-6.5V26.7c0.1-1.2-0.3-2.4-1.1-3.3
				c-1.7-1.6-4.3-1.6-5.9,0c-0.8,0.9-1.2,2.1-1.1,3.3v11.5h-6.5V17h6.5v2.8c0.7-1,1.6-1.7,2.7-2.2C292.2,17,293.4,16.7,294.8,16.7
				L294.8,16.7z M306.2,27.5c0-2,0.4-4,1.2-5.8c0.7-1.6,1.9-2.9,3.4-3.8c1.4-0.9,3.1-1.4,4.8-1.3c1.3,0,2.6,0.3,3.8,0.9
				c1.1,0.5,2,1.3,2.7,2.4V10h6.5v28.2h-6.5v-3c-0.6,1-1.5,1.9-2.6,2.4c-1.2,0.6-2.6,0.9-3.9,0.9c-1.7,0-3.3-0.4-4.8-1.4
				c-1.5-0.9-2.6-2.3-3.4-3.8C306.6,31.5,306.1,29.6,306.2,27.5L306.2,27.5z M322.1,27.6c0.1-1.4-0.4-2.8-1.4-3.8
				c-0.8-0.9-2-1.4-3.3-1.4c-1.2,0-2.4,0.5-3.3,1.4c-0.9,1-1.4,2.4-1.4,3.8c-0.1,1.4,0.4,2.8,1.4,3.9c1.7,1.8,4.6,1.9,6.4,0.2
				c0.1-0.1,0.1-0.1,0.2-0.2C321.7,30.4,322.2,29,322.1,27.6L322.1,27.6z M353.4,27.2c0,0.6,0,1.3-0.1,1.9h-14.8
				c0,1.1,0.5,2.2,1.3,3c0.7,0.7,1.7,1.1,2.8,1c1.5,0.1,2.8-0.7,3.4-2.1h6.9c-0.3,1.4-1,2.7-1.9,3.8c-0.9,1.1-2.1,2-3.5,2.6
				c-1.5,0.7-3.1,1-4.7,1c-1.9,0-3.8-0.4-5.6-1.3c-1.6-0.9-2.9-2.2-3.8-3.8c-0.9-1.8-1.4-3.8-1.4-5.8c0-2,0.4-4,1.4-5.8
				c0.9-1.6,2.2-2.9,3.8-3.8c3.5-1.8,7.6-1.8,11.1,0c1.6,0.8,2.9,2.1,3.8,3.7C353,23.4,353.5,25.3,353.4,27.2L353.4,27.2z
				 M346.7,25.5c0-1-0.4-2-1.1-2.7c-0.8-0.7-1.8-1-2.9-1c-1,0-2,0.3-2.8,1c-0.8,0.7-1.3,1.7-1.4,2.7L346.7,25.5z M363.3,20.5
				c0.7-1.1,1.7-2.1,2.9-2.8c1.2-0.7,2.5-1,3.8-1v6.9h-1.8c-1.6,0-2.8,0.3-3.7,1c-0.8,0.7-1.2,1.9-1.2,3.7v9.9h-6.5V17h6.5
				L363.3,20.5z"/>
			<path id="Vereinigungsmenge_1" class="st1" d="M44.3,0H6.6C3.2,0,0.4,2.8,0.4,6.2v37.7c0,3.4,2.7,6.1,6.1,6.1H23
				c0.5-5,4.9-8.6,9.9-8.1c1.2,0.1,2.3,0.5,3.3,1c0-0.1,0-0.3,0-0.4c0-5,4-9,9-9c1.8,0,3.6,0.6,5.1,1.6V6.2C50.4,2.8,47.7,0,44.3,0z
				"/>
			<g id="Gruppe_1">
				<g id="Gruppe_1-2">
					<path id="Pfad_1-2" class="st2" d="M10.7,7.4c0.8,0,1.5,0.2,2.2,0.5c0.7,0.3,1.3,0.8,1.8,1.4c1.2,1.5,1.8,3.5,1.7,5.4
						c0,1.4-0.2,2.7-0.7,4c-0.4,1.4-1,2.8-1.7,4c-1.2,2-2.4,2.9-3.7,2.9c-0.6,0-1.1-0.2-1.5-0.5C8.3,25,8.1,24.6,8,24.1
						c0.2-0.6,0.5-1.2,0.9-1.7c0.4-0.6,0.7-1.2,0.9-1.8c0.2-0.5,0.3-1,0.4-1.5c0-0.5-0.3-1-0.8-1.1c-0.8-0.3-1.5-0.6-2.1-1.1
						c-1.2-1-1.9-2.6-1.9-4.2c0-1.3,0.5-2.5,1.3-3.5C7.7,8,9.2,7.4,10.7,7.4z"/>
				</g>
				<g id="Gruppe_2" class="st3">
					<path id="Pfad_2" class="st2" d="M18.5,5c1,0,1.9,0.2,2.7,0.7c0.9,0.4,1.7,1,2.3,1.8c1.4,1.8,2.2,4,2.2,6.8
						c0,1.7-0.3,3.4-0.8,5.1c-0.5,1.8-1.3,3.5-2.2,5.1c-1.5,2.5-3,3.7-4.7,3.7c-0.7,0-1.4-0.2-1.9-0.7c-0.5-0.3-0.8-0.9-0.9-1.5
						c0-0.3,0.4-1,1.1-2.2c0.5-0.7,0.8-1.5,1.1-2.3c0.3-0.6,0.4-1.3,0.5-1.9c0-0.6-0.4-1.2-1-1.4c-1-0.3-1.9-0.8-2.7-1.4
						c-1.5-1.3-2.4-3.2-2.4-5.2c0-1.6,0.6-3.2,1.7-4.4C14.8,5.8,16.6,5,18.5,5z"/>
				</g>
			</g>
		</g>
	</g>
</g>
</svg>
