<?xml version="1.0" encoding="utf-8"?>
<!-- Generator: Adobe Illustrator 26.0.3, SVG Export Plug-In . SVG Version: 6.00 Build 0)  -->
<svg version="1.1" id="Ebene_1" xmlns="http://www.w3.org/2000/svg" xmlns:xlink="http://www.w3.org/1999/xlink" x="0px" y="0px"
	 viewBox="0 0 370 50" style="enable-background:new 0 0 370 50;">
<style type="text/css">
	.st0{fill:#0079D6;}
	.st1{fill:#FFFFFF;}
</style>
<g transform="matrix(1,0,0,1,285,49.5)">
	<g id="chocfair-cal-logo.svg" transform="matrix(1,0,0,1,-285,-49.5)">
		<g>
			<g id="chocfair-cal-logo">
				<path id="Pfad_1" class="st0" d="M60.6,27.4c-0.1-2,0.4-3.8,1.3-5.6c0.8-1.6,2.1-2.8,3.5-3.7c1.6-0.9,3.4-1.4,5.3-1.3
					c2.5,0,4.7,0.6,6.3,1.9c1.7,1.3,2.8,3.1,3.2,5.2h-3.7c-0.3-1.2-1.1-2.3-2.1-3c-1.1-0.8-2.4-1.2-3.8-1.1c-1.8-0.1-3.5,0.7-4.8,2
					c-1.2,1.4-1.8,3.2-1.8,5.7s0.6,4.4,1.8,5.8c1.2,1.4,2.9,2.1,4.8,2.1c1.4,0.1,2.6-0.3,3.7-1.1c1.1-0.8,1.8-1.8,2.1-3h3.7
					c-0.5,2-1.7,3.8-3.3,5.1c-1.8,1.3-4,2-6.3,1.9c-1.9,0.1-3.6-0.4-5.3-1.3c-1.5-0.9-2.7-2.2-3.5-3.7C61,31.3,60.6,29.3,60.6,27.4z
					 M95.1,16.6c1.5,0,2.9,0.3,4.3,1c1.3,0.7,2.3,1.7,2.9,3c0.8,1.5,1.2,3.2,1.1,4.9v12.2H100V26c0-2.1-0.5-3.6-1.6-4.8
					c-1.1-1.2-2.6-1.7-4.3-1.7c-1.6-0.1-3.2,0.6-4.3,1.7c-1.1,1.2-1.6,2.8-1.6,5v11.5h-3.4v-28h3.4V20c0.7-1.1,1.7-1.9,2.8-2.4
					C92.4,16.9,93.8,16.6,95.1,16.6z M118.1,38c-1.9,0-3.6-0.5-5.3-1.3c-1.6-0.9-2.8-2.2-3.7-3.7c-0.9-1.8-1.4-3.7-1.4-5.7
					c-0.1-2,0.5-3.9,1.4-5.6c0.9-1.6,2.2-2.8,3.7-3.7c1.7-0.9,3.4-1.4,5.3-1.3c1.9-0.1,3.7,0.4,5.3,1.3c1.6,0.9,2.9,2.2,3.7,3.7
					c1,1.7,1.4,3.6,1.4,5.6c0.1,2-0.5,3.9-1.4,5.7c-0.9,1.6-2.3,2.9-3.8,3.7C121.8,37.7,120,38.1,118.1,38z M118.1,35
					c1.2,0,2.4-0.3,3.4-0.9c1.1-0.6,2-1.5,2.6-2.6c0.7-1.3,1.1-2.7,1-4.3c0.1-1.5-0.3-2.9-1-4.3c-0.6-1.1-1.5-2-2.5-2.6
					c-1.1-0.6-2.3-0.9-3.4-0.9c-1.2,0-2.4,0.3-3.4,0.9c-1.1,0.6-2,1.5-2.5,2.6c-0.7,1.3-1,2.7-1,4.3c-0.1,1.5,0.3,2.9,0.9,4.3
					c0.6,1.1,1.4,2,2.4,2.6C115.7,34.7,117,35,118.1,35z M132,27.4c-0.1-2,0.4-3.8,1.3-5.6c0.8-1.6,2.1-2.8,3.5-3.7
					c1.6-0.9,3.4-1.4,5.3-1.3c2.5,0,4.7,0.6,6.3,1.9c1.7,1.3,2.8,3.1,3.2,5.2H148c-0.3-1.2-1.1-2.3-2.1-3c-1.1-0.8-2.4-1.2-3.8-1.1
					c-1.8-0.1-3.5,0.7-4.8,2c-1.2,1.4-1.8,3.2-1.8,5.7s0.6,4.4,1.8,5.8c1.2,1.4,2.9,2.1,4.8,2.1c1.4,0.1,2.6-0.3,3.7-1.1
					c1.1-0.8,1.8-1.8,2.1-3h3.7c-0.5,2-1.7,3.8-3.3,5.1c-1.8,1.3-4,2-6.3,1.9c-1.9,0.1-3.6-0.4-5.3-1.3c-1.5-0.9-2.7-2.2-3.5-3.7
					C132.4,31.3,131.9,29.3,132,27.4z M166.3,22h-3.4v15.8h-6.5V22H154v-5.4h2.4V16c0-2.6,0.8-4.6,2.3-5.9s3.6-2,6.6-2
					c0.5,0,0.9,0,1.1,0.1v5.5c-1.3-0.1-2.1,0.1-2.6,0.6c-0.5,0.5-0.8,1.2-0.8,2.3v0.2h3.4L166.3,22z M168,27.1
					c-0.1-2,0.4-3.9,1.3-5.7c0.8-1.6,1.9-2.8,3.3-3.7c1.4-0.9,3-1.4,4.7-1.3c1.4-0.1,2.7,0.3,3.9,0.9c1.1,0.6,2,1.4,2.6,2.4v-3h6.5
					v21.1h-6.4v-3c-0.7,1-1.6,1.8-2.6,2.4c-1.2,0.6-2.5,1-3.9,0.9c-1.7,0-3.3-0.5-4.7-1.4c-1.5-1-2.6-2.3-3.3-3.8
					C168.4,31.1,168,29.1,168,27.1z M183.8,27.2c0.1-1.4-0.4-2.7-1.4-3.8c-0.9-0.9-2.1-1.4-3.2-1.4c-1.3,0-2.4,0.5-3.2,1.4
					c-1,1.1-1.4,2.4-1.4,3.8c-0.1,1.4,0.4,2.8,1.4,3.8c0.9,0.9,2,1.5,3.2,1.4c1.3,0,2.4-0.5,3.2-1.4
					C183.4,29.9,183.9,28.6,183.8,27.2z M198.2,14.4c-1,0.1-2-0.3-2.7-1c-0.7-0.7-1.1-1.6-1.1-2.4c0-1,0.4-1.9,1.1-2.5
					c0.8-0.7,1.8-1.1,2.7-1c1-0.1,2,0.3,2.7,1c0.7,0.7,1.1,1.6,1.1,2.5c0,0.9-0.4,1.9-1.1,2.4C200.3,14.1,199.3,14.4,198.2,14.4z
					 M201.5,16.6v21.1H195V16.6H201.5z M212.6,20.1c0.7-1.1,1.7-2.1,2.8-2.7c1.2-0.7,2.4-1,3.7-1v6.9h-1.8c-1.6,0-2.8,0.4-3.6,1.1
					c-0.8,0.7-1.2,1.9-1.2,3.6v9.8h-6.5V16.6h6.5V20.1z M229.1,27.2c-0.1-2,0.4-4,1.4-5.8c0.9-1.6,2.2-2.9,3.7-3.7
					c1.7-0.9,3.6-1.4,5.5-1.3c2.4-0.1,4.7,0.7,6.6,2.1c1.9,1.5,3,3.5,3.5,5.9H243c-0.4-1.5-1.8-2.5-3.3-2.4
					c-1.1-0.1-2.2,0.5-2.8,1.4c-0.7,0.9-1.1,2.3-1.1,4s0.4,3,1.1,4c0.7,0.9,1.7,1.4,2.8,1.4c1.6,0.1,2.9-0.9,3.3-2.4h6.9
					c-0.5,2.3-1.7,4.4-3.5,5.8c-1.9,1.5-4.2,2.2-6.6,2.1c-1.9,0.1-3.8-0.4-5.5-1.3c-1.6-0.9-2.9-2.2-3.7-3.7
					C229.5,31.1,229,29.2,229.1,27.2z M252,27.1c-0.1-2,0.4-3.9,1.3-5.7c0.8-1.6,1.9-2.8,3.3-3.7c1.4-0.9,3-1.4,4.7-1.3
					c1.4-0.1,2.7,0.3,3.9,0.9c1.1,0.6,2,1.4,2.6,2.4v-3h6.5v21.1h-6.5v-3c-0.7,1-1.6,1.8-2.6,2.4c-1.2,0.6-2.5,1-3.9,0.9
					c-1.7,0-3.3-0.5-4.7-1.4c-1.5-1-2.6-2.3-3.3-3.8C252.3,31.1,251.9,29.1,252,27.1z M267.8,27.2c0.1-1.4-0.4-2.7-1.4-3.8
					c-0.9-0.9-2.1-1.4-3.2-1.4c-1.3,0-2.4,0.5-3.2,1.4c-1,1.1-1.4,2.4-1.4,3.8c-0.1,1.4,0.4,2.8,1.4,3.8c0.9,0.9,2,1.5,3.2,1.4
					c1.3,0,2.4-0.5,3.2-1.4C267.4,29.9,267.9,28.6,267.8,27.2z M285.4,9.7v28h-6.5v-28H285.4z"/>
				<g id="Gruppe_1" transform="matrix(1,0,0,1,-229,-758)">
					<path id="Vereinigungsmenge_7" class="st0" d="M272.5,758h-37.4c-3.3,0-6.1,2.7-6.1,6.1v37.4c0,3.3,2.7,6.1,6.1,6.1h16.4
						c0.5-4.9,4.9-8.6,9.8-8.1c1.2,0.1,2.3,0.5,3.3,1v-0.5c0-5,4-9,9-9c1.8,0,3.6,0.6,5.1,1.6v-28.7
						C278.6,760.7,275.9,758,272.5,758z"/>
					<path id="Vereinigungsmenge_14" class="st1" d="M237.5,782.3c-2,0-3.5-1.6-3.5-3.5v-9.2c0-1.9,1.4-3.3,3.2-3.5v-1.4
						c0-1,0.8-1.7,1.7-1.7c1,0,1.7,0.8,1.7,1.7v1.4h6.7v-1.4c0-1,0.8-1.7,1.7-1.7c1,0,1.7,0.8,1.7,1.7v1.4c1.9,0.1,3.3,1.7,3.3,3.5
						v9.2c0,2-1.6,3.5-3.5,3.5H237.5z"/>
				</g>
			</g>
		</g>
	</g>
	<g id="chocfair-cal-logo.svg1">
	</g>
</g>
</svg>
