<?xml version="1.0" encoding="utf-8"?>
<!-- Generator: Adobe Illustrator 25.1.0, SVG Export Plug-In . SVG Version: 6.00 Build 0)  -->
<svg version="1.1" id="Ebene_1" xmlns="http://www.w3.org/2000/svg" xmlns:xlink="http://www.w3.org/1999/xlink" x="0px" y="0px" width="39.9px" height="4.9px"
	 viewBox="0 0 39.9 4.9">
<path d="M4.4,0.8L3.8,1.6C3.5,1.2,3,1,2.6,1C1.8,1,1.2,1.6,1.2,2.4s0.6,1.5,1.4,1.5c0.4,0,0.9-0.2,1.2-0.6L4.4,4
	C3.9,4.5,3.2,4.8,2.5,4.8C1.1,4.8,0,3.7,0,2.4S1.1,0,2.5,0C3.2,0.1,3.9,0.4,4.4,0.8z"/>
<path d="M9.7,2.5c0,1.4-1.1,2.4-2.6,2.4s-2.5-1-2.5-2.4s1.1-2.4,2.5-2.4C8.6,0.1,9.7,1.1,9.7,2.5z M5.7,2.5C5.7,3.3,6.4,4,7.2,4
	s1.4-0.7,1.4-1.5S8,1,7.2,1S5.7,1.6,5.7,2.5z"/>
<path d="M14.6,4.8V1.6l-1.3,2.7h-0.7l-1.3-2.7v3.2h-1V0.1h1.2L12.9,3l1.4-2.9h1.2v4.7C15.5,4.8,14.6,4.8,14.6,4.8z"/>
<path d="M21.3,2.5c0,1.4-1.1,2.4-2.6,2.4c-1.4,0-2.5-1-2.5-2.4s1.1-2.4,2.5-2.4C20.2,0.1,21.3,1.1,21.3,2.5z M17.3,2.5
	C17.3,3.3,18,4,18.8,4s1.4-0.7,1.4-1.5S19.6,1,18.8,1S17.3,1.6,17.3,2.5z"/>
<path d="M25.6,0.6l-0.4,0.9C24.7,1.2,24.1,1,23.7,1s-0.6,0.1-0.6,0.4c0,0.9,2.5,0.4,2.5,2.1c0,0.9-0.8,1.4-1.9,1.4
	c-0.8,0-1.6-0.3-2.1-0.7L22,3.3C22.5,3.7,23.2,4,23.7,4c0.4,0,0.7-0.2,0.7-0.5c0-0.9-2.5-0.4-2.5-2.1c0-0.9,0.7-1.4,1.8-1.4
	C24.4,0,25.1,0.2,25.6,0.6z"/>
<path d="M31.1,2.5c0,1.4-1.1,2.4-2.6,2.4c-1.4,0-2.5-1-2.5-2.4s1.1-2.4,2.6-2.4C30,0.1,31.1,1.1,31.1,2.5z M27.1,2.5
	c0,0.8,0.7,1.5,1.5,1.5S30,3.3,30,2.5S29.4,1,28.6,1C27.8,1,27.1,1.6,27.1,2.5z"/>
<path d="M32.9,1v1.2h1.9v0.9h-1.9v1.8h-1.1V0.2h3.4l-0.5,0.9C34.7,1,32.9,1,32.9,1z"/>
<path d="M38.4,1v3.8h-1.1V1h-1.4V0.1h4V1C39.8,1,38.4,1,38.4,1z"/>
</svg>
