<?xml version="1.0" encoding="utf-8"?>
<!-- Generator: Adobe Illustrator 27.2.0, SVG Export Plug-In . SVG Version: 6.00 Build 0)  -->
<svg version="1.1" id="Ebene_1" xmlns="http://www.w3.org/2000/svg" xmlns:xlink="http://www.w3.org/1999/xlink" x="0px" y="0px"
	 width="114px" height="114px" viewBox="0 0 114 114" style="enable-background:new 0 0 114 114;" xml:space="preserve">
<style type="text/css">
	.st0{fill:#0000FF;}
	.st1{fill:#FFFFFF;}
	.st2{fill:none;}
</style>
<path class="st0" d="M19.7,19.7h74.6v74.6H19.7V19.7z"/>
<g>
	<path class="st1" d="M31.8,29.4h-3.7v10.3c0,0.1,3.7,0.1,3.7,0.1c2.9,0,5.1-1.9,5.1-5.2S34.8,29.4,31.8,29.4z M31.8,37.8l-1.6,0.1
		v-6.6h1.6c1.7,0,3.1,1,3.1,3.3C34.9,36.8,33.4,37.8,31.8,37.8z M38.5,32.6h2v7.1h-2V32.6z"/>
	<circle class="st1" cx="39.5" cy="30.2" r="1.2"/>
	<path class="st1" d="M47.4,32.7v0.8c-0.3-0.5-0.9-1-2-1c-2,0-3.3,1.6-3.3,3.5c0,2,1.4,3.5,3.3,3.5c1,0,1.7-0.5,2-0.9V39
		c0,1.4-0.7,2-1.9,2c-0.9,0-1.6-0.6-1.7-1.4L42,40.1c0.2,1.4,1.5,2.6,3.5,2.6c2.7,0,3.7-1.8,3.7-3.7v-6.3
		C49.2,32.7,47.4,32.7,47.4,32.7z M45.7,37.8c-1,0-1.7-0.7-1.7-1.8c0-1.1,0.8-1.8,1.7-1.8c0.9,0,1.7,0.7,1.7,1.8
		C47.3,37,46.7,37.8,45.7,37.8z M51.1,32.6h2v7.1h-2V32.6z"/>
	<circle class="st1" cx="52.1" cy="30.2" r="1.2"/>
	<path class="st1" d="M57.5,30.4h-1.8v1c0,0.7-0.3,1.1-1.1,1.1h-0.4v1.7h1.3v3.3c0,1.4,0.9,2.2,2.3,2.2c0.6,0,0.9-0.1,1.1-0.2V38
		c-0.1,0-0.4,0.1-0.6,0.1c-0.5,0-0.9-0.2-0.9-0.9v-3H59v-1.7h-1.4V30.4z M66.6,38.6v-3.5c0-1.4-0.9-2.7-3.1-2.7
		c-1.9,0-2.9,1.2-3.1,2.4l1.7,0.4c0.1-0.7,0.5-1.2,1.4-1.2c0.8,0,1.2,0.4,1.2,0.9c0,0.3-0.1,0.5-0.5,0.5l-1.8,0.3
		c-1.1,0.2-2.1,0.9-2.1,2.2c0,1.1,0.9,2.2,2.5,2.2c1,0,1.8-0.5,2.1-1c0,0.3,0,0.7,0.1,0.9h1.8C66.6,39.3,66.6,38.9,66.6,38.6z
		 M64.7,36.8c-0.1,1.3-0.8,1.7-1.6,1.7c-0.7,0-0.9-0.4-0.9-0.9c0-0.5,0.4-0.9,0.9-0.9l1.6-0.3C64.7,36.5,64.7,36.8,64.7,36.8z
		 M70.4,39.7V29.2h-2v10.5H70.4z"/>
</g>
<g>
	<path class="st1" d="M35.1,45.6c-0.3-1.2-1.2-2.7-3.7-2.7c-2,0-3.6,1.4-3.6,3.2c0,1.6,1,2.6,2.7,2.9l1.4,0.3
		c0.8,0.1,1.2,0.7,1.2,1.2c0,0.7-0.6,1.2-1.7,1.2c-1.4,0-2.2-0.9-2.2-2l-1.8,0.6c0.1,1.4,1.4,3.2,4.1,3.2c2.4,0,3.7-1.6,3.7-3.2
		c0-1.4-1-2.7-2.9-3l-1.5-0.3c-0.8-0.1-1.1-0.6-1.1-1.2c0-0.7,0.7-1.3,1.6-1.3c1.3,0,1.8,0.9,1.9,1.4C33.2,46.2,35.1,45.6,35.1,45.6
		L35.1,45.6z M43.1,49.8c0-2.3-1.3-3.7-3.5-3.7c-1.8,0-3.5,1.5-3.5,3.8c0,2.4,1.7,3.8,3.7,3.8c1.8,0,2.9-1,3.3-2.3l-1.5-0.5
		c-0.3,0.7-0.7,1.1-1.6,1.1c-1,0-1.8-0.7-1.8-1.6h5.1V49.8z M38.1,49.1c0.1-0.7,0.6-1.4,1.6-1.4c1.1,0,1.6,0.7,1.6,1.4H38.1z
		 M49.1,46.3h-0.5c-0.6,0-1.6,0.2-2,1.1v-1h-1.9v7.1h2v-3.3c0-1.6,0.9-2,1.8-2c0.2,0,0.4,0,0.6,0.1V46.3z M57.4,46.3h-2l-1.7,4.8
		l-1.8-4.8h-2.1l2.9,7.1h2C54.6,53.5,57.4,46.3,57.4,46.3z M58.6,46.3h2v7.1h-2V46.3z"/>
	<circle class="st1" cx="59.5" cy="44" r="1.2"/>
	<path class="st1" d="M65.8,47.9c1,0,1.4,0.6,1.6,1.2l1.7-0.6c-0.3-1.2-1.4-2.4-3.3-2.4c-2.1,0-3.7,1.6-3.7,3.8
		c0,2.2,1.6,3.8,3.8,3.8c1.9,0,3-1.2,3.3-2.4l-1.7-0.6c-0.1,0.5-0.7,1.2-1.6,1.2c-1,0-1.8-0.7-1.8-2C63.9,48.6,64.8,47.9,65.8,47.9z
		 M76.9,49.8c0-2.3-1.3-3.7-3.5-3.7c-1.8,0-3.5,1.5-3.5,3.8c0,2.4,1.7,3.8,3.7,3.8c1.8,0,2.9-1,3.3-2.3c-0.1,0-1.5-0.5-1.5-0.5
		C75,51.6,74.5,52,73.6,52c-1,0-1.8-0.7-1.8-1.6h5.1C76.9,50.4,76.9,49.8,76.9,49.8z M71.9,49.1c0.1-0.7,0.6-1.4,1.6-1.4
		c1.1,0,1.6,0.7,1.6,1.4H71.9z"/>
</g>
<path class="st2" d="M27.4,29.1h43v11.8h-43V29.1z M27.4,44.9h49.5v10.7H27.4V44.9z"/>
</svg>
