<svg xmlns="http://www.w3.org/2000/svg" xmlns:xlink="http://www.w3.org/1999/xlink" width="288" height="265" viewBox="0 0 288 265">
  <defs>
    <linearGradient id="linear-gradient" x1="0.206" y1="0.09" x2="0.667" y2="0.941" gradientUnits="objectBoundingBox">
      <stop offset="0" stop-color="#dc0006"/>
      <stop offset="1" stop-color="#7f01fd"/>
    </linearGradient>
    <filter id="Ellipse_5" x="0" y="0" width="155" height="155" filterUnits="userSpaceOnUse">
      <feOffset dy="3"/>
      <feGaussianBlur stdDeviation="3" result="blur"/>
      <feFlood flood-opacity="0.161"/>
      <feComposite operator="in" in2="blur"/>
      <feComposite in="SourceGraphic"/>
    </filter>
    <linearGradient id="linear-gradient-2" x1="0.17" y1="0.045" x2="0.687" y2="1" xlink:href="#linear-gradient"/>
    <filter id="Ellipse_6" x="153" y="32" width="135" height="135" filterUnits="userSpaceOnUse">
      <feOffset dy="3"/>
      <feGaussianBlur stdDeviation="3" result="blur-2"/>
      <feFlood flood-opacity="0.161"/>
      <feComposite operator="in" in2="blur-2"/>
      <feComposite in="SourceGraphic"/>
    </filter>
    <linearGradient id="linear-gradient-3" x1="0.223" y1="0.069" x2="0.745" y2="1" xlink:href="#linear-gradient"/>
    <filter id="Pfad_75" x="71" y="134" width="131" height="131" filterUnits="userSpaceOnUse">
      <feOffset dy="3"/>
      <feGaussianBlur stdDeviation="3" result="blur-3"/>
      <feFlood flood-opacity="0.161"/>
      <feComposite operator="in" in2="blur-3"/>
      <feComposite in="SourceGraphic"/>
    </filter>
  </defs>
  <g id="Gruppe_93" data-name="Gruppe 93" transform="translate(-1226 -424)">
    <circle id="Ellipse_10" data-name="Ellipse 10" cx="107" cy="107" r="107" transform="translate(1265 430)" fill="#efefef"/>
    <g id="Gruppe_89" data-name="Gruppe 89" transform="translate(-112.18 40.82)">
      <g transform="matrix(1, 0, 0, 1, 1338.18, 383.18)" filter="url(#Ellipse_5)">
        <circle id="Ellipse_5-2" data-name="Ellipse 5" cx="68.5" cy="68.5" r="68.5" transform="translate(9 6)" fill="url(#linear-gradient)"/>
      </g>
      <g id="keyboard-mouse" transform="translate(1381.696 430.584)">
        <path id="Pfad_70" data-name="Pfad 70" d="M66.428,2H2.143A2.142,2.142,0,0,0,0,4.143V38.428a2.142,2.142,0,0,0,2.143,2.143H36.428V38.428a17.136,17.136,0,0,1,32.143-8.28V4.143A2.142,2.142,0,0,0,66.428,2ZM19.286,29.857H10.714V25.571h8.571Zm0-12.857H10.714V12.714h8.571ZM32.143,29.857H23.571V25.571h8.571Zm0-12.857H23.571V12.714h8.571ZM45,17H36.428V12.714H45Zm12.857,0H49.286V12.714h8.571Z" transform="translate(0 -2)" fill="#fff"/>
        <path id="Pfad_71" data-name="Pfad 71" d="M31.857,13A12.87,12.87,0,0,0,19,25.857V36.571a12.857,12.857,0,0,0,25.714,0V25.857A12.87,12.87,0,0,0,31.857,13ZM34,30.143H29.714V23.714H34Z" transform="translate(21.714 10.571)" fill="#fff"/>
      </g>
    </g>
    <g id="Gruppe_90" data-name="Gruppe 90" transform="translate(198 25.363)">
      <g transform="matrix(1, 0, 0, 1, 1028, 398.64)" filter="url(#Ellipse_6)">
        <circle id="Ellipse_6-2" data-name="Ellipse 6" cx="58.5" cy="58.5" r="58.5" transform="translate(162 38)" fill="url(#linear-gradient-2)"/>
      </g>
      <g id="laptop" transform="translate(1222.265 471.734)">
        <path id="Pfad_72" data-name="Pfad 72" d="M52.21,44.263,48.15,33.439V5.341A3.34,3.34,0,0,0,44.809,2H8.056A3.34,3.34,0,0,0,4.715,5.341v28.1L.655,44.263a3.34,3.34,0,0,0,3.129,4.514h45.3a3.34,3.34,0,0,0,3.129-4.514ZM44.809,30.4H8.056V7.012A1.671,1.671,0,0,1,9.727,5.341H43.139a1.671,1.671,0,0,1,1.671,1.671Z" transform="translate(-0.443 -2)" fill="#fff"/>
      </g>
    </g>
    <g transform="matrix(1, 0, 0, 1, 1226, 424)" filter="url(#Pfad_75)">
      <path id="Pfad_75-2" data-name="Pfad 75" d="M56.5,0A56.5,56.5,0,1,1,0,56.5,56.5,56.5,0,0,1,56.5,0Z" transform="translate(80 140)" fill="url(#linear-gradient-3)"/>
    </g>
    <g id="server" transform="translate(1337.16 595.16)">
      <path id="Pfad_73" data-name="Pfad 73" d="M2.665,1A1.665,1.665,0,0,0,1,2.665V49.275A1.665,1.665,0,0,0,2.665,50.94H24.305V1ZM19.311,29.3H5.994V25.97H19.311Zm0-8.323H5.994V17.647H19.311Zm0-8.323H5.994V9.323H19.311Z" transform="translate(-1 -1)" fill="#fff"/>
      <path id="Pfad_74" data-name="Pfad 74" d="M38.641,1H17V50.94H38.641a1.665,1.665,0,0,0,1.665-1.665V2.665A1.665,1.665,0,0,0,38.641,1ZM35.311,29.3H21.994V25.97H35.311Zm0-8.323H21.994V17.647H35.311Zm0-8.323H21.994V9.323H35.311Z" transform="translate(9.635 -1)" fill="#fff"/>
    </g>
  </g>
</svg>
