<?xml version="1.0" encoding="UTF-8" standalone="no"?>
<svg width="136px" height="42px" viewBox="0 0 136 42" version="1.1" xmlns="http://www.w3.org/2000/svg" xmlns:xlink="http://www.w3.org/1999/xlink">
    <!-- Generator: Sketch 3.8.2 (29753) - http://www.bohemiancoding.com/sketch -->
    <title>Logo</title>
    <desc>Created with Sketch.</desc>
    <defs>
        <polygon id="path-1" points="0.398111482 29.1070111 5.86170505 29.1070111 5.86170505 0.280041043 0.398111482 0.280041043 0.398111482 29.1070111"></polygon>
    </defs>
    <g id="Page-1" stroke="none" stroke-width="1" fill="none" fill-rule="evenodd">
        <g id="Logo">
            <path d="M130.482565,35.6717963 L130.482565,34.248062 C130.482565,27.8660989 130.48106,21.4846376 130.483569,15.1026745 C130.484573,13.1821137 131.16106,12.5161653 133.094669,12.5101432 C135.242063,12.5036192 135.92658,13.1213904 135.928587,15.1428221 C135.936617,22.9690952 135.936115,30.7958701 135.929089,38.622645 C135.927584,40.3399587 135.153739,41.1133018 133.42689,41.1163129 C127.446905,41.1268517 121.465916,41.1589697 115.486432,41.1092871 C109.98872,41.0636192 105.659303,36.6754863 105.63923,31.1983498 C105.620159,25.8200768 105.631702,20.4418037 105.637222,15.0635306 C105.63923,13.1213904 106.31672,12.504121 108.395864,12.5096413 C110.365606,12.5146598 111.006964,13.1394568 111.008469,15.0745712 C111.01148,20.2521063 111.00596,25.4296413 111.010477,30.6071764 C111.013488,33.6634125 113.003303,35.6642686 116.032942,35.6712945 C116.954329,35.6733018 117.875717,35.6717963 118.713296,35.6717963 C117.263466,28.6986598 118.288735,21.6838701 118.011717,14.7187631 C117.95551,13.3090804 118.857827,12.5437668 120.291599,12.5101432 C122.892661,12.4489181 123.463259,13.01249 123.463259,15.6456708 C123.463761,20.7027631 123.461754,25.7598554 123.463259,30.8169476 C123.464263,33.7582613 125.397872,35.6687852 128.371805,35.6717963 C129.012159,35.6722982 129.653015,35.6717963 130.482565,35.6717963" id="Fill-1" fill="#A1B82B"></path>
            <g id="Group-5" transform="translate(45.166052, 0.165559)" fill="#A1B82B">
                <path d="M5.97476605,24.2527646 C7.97210923,24.1333255 8.95020517,22.9946391 9.78678081,21.4579897 C11.3570539,18.5733845 13.1205373,15.7941668 14.7675926,12.9502111 C15.1781018,12.2406022 15.6774376,11.9008531 16.5094967,11.9806465 C17.1458362,12.0413697 17.7927144,11.9876723 18.4345742,11.9921889 C20.1533934,12.0042332 20.7184708,12.9712886 19.8462642,14.4958937 C18.6915188,16.5138125 17.4855852,18.5016207 16.3062494,20.5054878 C15.6413048,21.635141 14.9853934,22.7708162 14.3535705,23.856307 C15.4054376,24.5794657 16.4266923,25.1475542 17.2883601,25.8993181 C19.7223085,28.023628 20.8594893,30.7747424 20.9051572,33.9855469 C20.9262347,35.4700044 20.9337624,36.9554657 20.902648,38.4394214 C20.8640059,40.2741668 20.0490096,40.9672148 18.0240649,40.9546686 C16.18129,40.943628 15.4506037,40.2490745 15.427017,38.4333993 C15.4064413,36.8686465 15.4475926,35.3033919 15.4164782,33.7386391 C15.3713122,31.478831 14.1387808,29.6400708 12.2403011,28.9219306 C10.4396812,28.2404251 8.42627897,28.6122923 7.23891365,30.1765432 C6.58049299,31.0432295 6.16195424,32.2315985 6.02745978,33.3231114 C5.82722362,34.9440708 5.99283247,36.6076871 5.97075129,38.2527351 C5.93863321,40.6339897 3.58648561,41.8981373 1.51587306,40.6530598 C0.656212546,40.1361594 0.47755572,39.3141373 0.480064945,38.3721742 C0.49562214,32.152307 0.48759262,25.931938 0.48759262,19.7120708 C0.48759262,14.1742111 0.485083395,8.63685314 0.489098155,3.09899336 C0.49060369,1.05748782 1.1640797,0.345369742 3.07309815,0.336336531 C5.20292841,0.326299631 5.96372546,1.01432915 5.96824207,3.07590849 C5.98430111,9.69725166 5.97476605,16.3185948 5.97476605,22.9394362 L5.97476605,24.2527646" id="Fill-3"></path>
            </g>
            <path d="M76.385228,26.3980015 C76.4926229,24.1206288 76.3571247,21.7995956 76.76111,19.5759203 C77.4963129,15.5255292 80.8917963,12.4386804 84.8222465,11.8269314 C89.0839144,11.1639941 93.0444753,12.9545771 95.2325196,16.5327321 C96.196062,18.1090273 96.0711026,18.7082303 94.5475011,19.8092782 C94.4822613,19.8559498 94.4180251,19.9036251 94.3527852,19.9507985 C92.0237225,21.6440236 92.0237225,21.6440236 90.5929624,19.2341638 C89.6183793,17.5931306 87.6657004,16.6391232 85.9072354,16.9452487 C83.9118996,17.2925255 82.1820399,18.7373373 82.0701284,20.7161122 C81.8668812,24.3098244 81.9602244,27.9200974 81.9376413,31.5233446 C81.9366376,31.6789166 82.0023793,31.8364959 82.0465417,31.9905624 C82.5970657,33.9121269 83.7668664,35.26209 85.7617004,35.6741048 C87.7249181,36.0800974 89.1647114,35.1376325 90.2973756,33.6155365 C90.5121653,33.3264738 90.6998554,33.014828 90.9357225,32.7443336 C91.8425565,31.703507 92.3574494,31.6457948 93.4901137,32.432186 C93.819324,32.6605255 94.1455232,32.8928797 94.4722244,33.1252339 C96.2848886,34.4119646 96.3646819,34.6990199 95.0322834,36.5593594 C92.53711,40.0431675 89.1908074,41.7991232 84.8709255,41.0297948 C80.43311,40.2398908 77.580121,37.4947985 76.7139365,33.1136915 C76.2873683,30.9562598 76.6401653,28.6447616 76.6401653,26.4030199 C76.5548517,26.4010125 76.4700399,26.399507 76.385228,26.3980015" id="Fill-6" fill="#A0B82A"></path>
            <path d="M0.00948487085,26.7605845 C0.00948487085,22.9069166 0.0230346863,19.0527469 0.000451660517,15.199079 C-0.00607232472,14.1707985 0.12842214,13.0476694 1.15921181,12.7912266 C2.21509373,12.5287616 3.45063616,12.6221048 4.51053284,12.9126731 C4.95667306,13.0351232 5.42138155,14.0608945 5.42589815,14.6791675 C5.4866214,22.7478317 5.47507897,30.8169978 5.45801624,38.8861638 C5.45500517,40.4519203 4.57276162,41.1304148 2.70790554,41.1274037 C0.893233948,41.1243926 0.0310642066,40.4243188 0.0195217712,38.8038613 C-0.0100870849,34.789603 0.00948487085,30.7748428 0.00948487085,26.7605845" id="Fill-8" fill="#5677BB"></path>
            <g id="Group-12" transform="translate(12.044280, 12.209839)">
                <mask id="mask-2" fill="white">
                    <use xlink:href="#path-1"></use>
                </mask>
                <g id="Clip-11"></g>
                <path d="M5.8602952,14.668428 C5.8602952,18.4819483 5.86430996,22.2959705 5.85878967,26.1094908 C5.85527675,28.5444428 3.6441476,29.884369 1.53539483,28.6262435 C0.989387454,28.3000443 0.457431734,27.4263321 0.451911439,26.7990258 C0.379645756,18.6505683 0.394701107,10.5006052 0.414273063,2.35114391 C0.417284133,1.09602952 1.2061845,0.372369004 2.46380812,0.301608856 C5.18732103,0.14804428 5.8602952,0.774848708 5.8602952,3.46825092 L5.8602952,14.668428" id="Fill-10" fill="#5677BB" mask="url(#mask-2)"></path>
            </g>
            <path d="M24.9733638,26.7531572 C24.9733638,22.8191941 24.9688472,18.885231 24.9753712,14.9512679 C24.9778804,13.2409801 25.6824708,12.5313712 27.3641535,12.5097919 C29.5632384,12.4816886 30.4163749,13.1130096 30.4208915,14.9266775 C30.4414672,22.8748989 30.4429727,30.8236221 30.4188841,38.7718435 C30.4138657,40.5072236 29.5015114,41.1681535 27.391755,41.1270022 C25.7251277,41.0948841 24.9798878,40.3531572 24.9763749,38.6754893 C24.9673417,34.7013786 24.9733638,30.7272679 24.9733638,26.7531572" id="Fill-13" fill="#5677BB"></path>
        </g>
    </g>
</svg>