<svg version="1.1" id="Ebene_1" xmlns="http://www.w3.org/2000/svg" xmlns:xlink="http://www.w3.org/1999/xlink" x="0px" y="0px"
	 width="4088.18px" height="430px" viewBox="0 0 4088.18 430" enable-background="new 0 0 4088.18 430" xml:space="preserve">
<g>
	<path fill="#05164D" d="M2393.079,145.163c-60.335,0-89.493,23.083-91.921,66.412h59.527c0.811-11.34,7.287-19.841,32.394-19.841
		c22.273,0,32.802,7.288,32.802,18.222c0,9.718-6.074,13.362-21.058,14.981l-38.874,4.049
		c-52.643,5.672-76.537,27.537-76.537,67.225c0,36.85,22.678,65.193,70.868,65.193c32.799,0,52.239-10.527,69.245-31.588v25.516
		h55.883V221.292C2485.408,165.008,2452.607,145.163,2393.079,145.163 M2427.098,275.962c0,22.271-21.062,38.875-53.455,38.875
		c-15.793,0-25.108-7.291-25.108-21.059c0-10.529,6.479-19.438,27.131-22.271l35.235-4.861c6.07-0.807,12.551-2.023,16.197-3.238
		V275.962z M2196.278,227.367c51.833,6.885,77.749,23.084,77.749,65.602c0,42.926-30.371,68.438-94.759,68.438
		c-70.057,0-94.759-27.941-95.972-68.844h60.334c1.623,14.984,12.15,22.275,35.638,22.275c23.892,0,33.61-5.672,33.61-17.008
		c0-10.529-8.097-15.389-29.156-18.223l-21.463-2.838c-44.948-6.072-70.864-23.482-70.864-63.98
		c0-38.875,28.751-67.626,89.091-67.626c55.879,0,85.846,22.272,88.679,66.412h-59.526c-2.024-11.742-8.504-19.033-29.152-19.033
		c-20.25,0-27.945,6.885-27.945,15.795c0,8.907,4.862,13.766,22.272,16.198L2196.278,227.367 M1987.104,145.163
		c53.051,0,80.183,23.485,80.183,90.708v119.461h-61.15V238.705c0-27.13-11.743-39.278-37.255-39.278
		c-23.083,0-36.849,12.148-36.849,39.278v116.627h-61.147V151.237h57.502v23.489
		C1936.893,158.931,1954.303,145.163,1987.104,145.163 M1753.385,145.163c-60.338,0-89.495,23.083-91.924,66.412h59.527
		c0.81-11.34,7.29-19.844,32.397-19.844c22.272,0,32.8,7.291,32.8,18.222c0,9.721-6.076,13.365-21.058,14.984l-38.874,4.049
		c-52.645,5.668-76.537,27.537-76.537,67.225c0,36.85,22.677,65.193,70.865,65.193c32.803,0,52.24-10.527,69.248-31.588v25.516
		h55.883V221.292C1845.713,165.005,1812.913,145.163,1753.385,145.163 M1787.4,275.96c0,22.271-21.059,38.877-53.453,38.877
		c-15.795,0-25.108-7.291-25.108-21.059c0-10.529,6.48-19.438,27.132-22.271l35.231-4.861c6.074-0.811,12.553-2.023,16.198-3.238
		V275.96z M1552.53,145.163c51.834,0,78.966,23.485,78.966,90.708v119.461h-61.15V238.705c0-27.13-11.743-39.278-37.254-39.278
		c-23.083,0-36.85,12.148-36.85,39.278v116.627h-61.147V72.271h61.551v98.808C1507.176,156.095,1523.779,145.163,1552.53,145.163
		 M1370.579,151.236h46.569v49.809h-46.569v79.371c0,21.867,11.339,27.537,29.157,27.537c7.288,0,17.412-1.215,17.412-1.215v48.998
		c0,0-14.172,3.238-29.155,3.238c-48.998,0-78.56-22.271-78.56-71.674v-86.255h-30.776v-49.809h30.776V91.709h61.146V151.236z
		 M1156.77,143.543c0-49.402,31.183-75.727,80.181-75.727c15.795,0,25.918,2.431,25.918,2.431v49.402c0,0-8.504-0.807-15.795-0.807
		c-19.033,0-29.158,6.479-29.158,24.297v8.097h44.953v49.809h-44.953v154.287h-61.146V201.045h-30.775v-49.809h30.775V143.543
		 M1048.647,151.236h61.146v204.096h-57.501v-23.488c-8.505,15.795-25.916,29.561-57.909,29.561
		c-52.236,0-79.368-23.486-79.368-90.707V151.236h61.146v116.625c0,27.133,11.745,39.279,36.446,39.279
		c22.272,0,36.039-12.146,36.039-39.279V151.236z M779.355,298.232h121.89v57.1H713.754V71.866h65.602V298.232z M217.691,426.197
		c117.78,0,212.599-95.244,212.599-212.598C430.29,95.819,335.471,1,217.691,1C100.337,1,5.092,95.819,5.092,213.599
		C5.092,330.953,100.337,426.197,217.691,426.197 M313.361,305.439l17.856-17.002h-4.248c-45.072,0-85.47-14.887-108.851-39.973
		c19.559-11.904,43.794-17.43,77.381-17.43c8.936,0,21.69,0.846,33.594,2.125l10.206-9.781c-17.436-2.123-34.02-2.975-48.048-2.975
		c-11.482,0-21.684,0.426-32.314,1.278l7.655-9.354c5.952-0.427,18.708-0.852,27.21-0.852c22.536,0,37.416,0.852,54.427,3.402
		l9.779-9.355c-17.862-2.975-42.522-4.679-65.058-4.679c-4.674,0-10.626,0-18.282,0.426l5.526-9.354h8.934
		c31.884,0,55.699,1.698,77.382,5.525l9.781-9.353c-24.235-4.248-53.575-6.804-83.341-6.804h-7.223l4.673-8.929h8.082
		c31.039,0,59.101,2.551,86.31,7.657l10.207-9.781c-30.613-5.951-63.354-8.927-98.646-8.927c-15.308,0-30.613,0.845-45.073,2.124
		c-17.004,36.564-44.219,57.829-74.832,57.403c-11.904-0.426-26.79-5.527-45.924-15.733l-17.856-10.206l5.526-5.1l41.244,17.855
		l8.935-6.803l-83.341-37.842l-12.757,9.78l-29.766-12.33l0.428,12.33c39.964,18.281,56.548,28.488,98.646,58.68
		C196.435,270.576,245.328,291.839,313.361,305.439 M217.691,410.89c-108.425,0-197.292-88.867-197.292-197.292
		c0-108.853,88.867-197.292,197.292-197.292c108.852,0,197.292,88.439,197.292,197.292
		C414.983,322.023,326.543,410.89,217.691,410.89 M2740.745,65.79c87.874,0,127.964,42.113,137.277,102.453h-68.03
		c-8.1-28.752-27.537-44.14-69.247-44.14c-51.834,0-74.106,33.206-74.106,89.495s22.272,89.494,74.106,89.494
		c41.71,0,61.147-15.387,69.247-44.139h68.03c-9.313,60.338-49.403,102.453-137.277,102.453
		c-102.454,0-142.14-62.768-142.14-147.808C2598.605,128.558,2638.291,65.79,2740.745,65.79 M2959.01,124.102h-61.148V71.864h61.148
		V124.102z M2959.01,355.332h-61.148V151.233h61.148V355.332z M3069.156,201.043v79.373c0,21.867,11.338,27.535,29.155,27.535
		c7.288,0,17.413-1.215,17.413-1.215v49c0,0-14.174,3.24-29.156,3.24c-48.999,0-78.562-22.273-78.562-71.678v-86.255h-30.775v-49.81
		h30.775V91.707h61.149v59.526h46.568v49.81H3069.156z M3349.379,151.234l-117.031,275.369h-64.793L3204,346.421l-81.8-195.188
		h67.628l44.545,122.701l47.378-122.701H3349.379z M3548.206,298.232v57.1h-187.494V71.863h65.604v226.369H3548.206z
		 M3631.624,124.102h-61.147V71.864h61.147V124.102z M3631.624,355.332h-61.147V151.233h61.147V355.332z M3772.143,145.16
		c53.049,0,80.181,23.486,80.181,90.711v119.461h-61.148V238.705c0-27.133-11.743-39.281-37.257-39.281
		c-23.082,0-36.849,12.148-36.849,39.281v116.627h-61.149V151.234h57.504v23.488C3721.928,158.929,3739.341,145.16,3772.143,145.16
		 M4078.281,269.886h-145.783c2.834,30.775,15.792,42.52,46.164,42.52c23.083,0,32.396-6.479,36.041-19.844h60.338
		c-3.645,39.688-35.636,68.844-96.379,68.844c-76.941,0-106.908-43.33-106.908-108.123c0-54.669,24.703-108.123,103.668-108.123
		c74.107,0,103.668,42.925,103.668,107.719C4079.09,257.738,4079.09,264.216,4078.281,269.886 M4016.729,227.769
		c-2.432-21.057-11.34-35.229-41.307-35.229c-26.322,0-38.064,10.933-42.115,35.229H4016.729z"/>
</g>
</svg>
