<svg xmlns="http://www.w3.org/2000/svg" width="176.8" height="77.9" viewBox="0 0 176.8 77.9"><path fill="#5F77B2" d="M48.5 74.5h-.7v3.4h-1.2V69c.6 0 1.4-.1 2.2-.1 2 0 3.1 1 3.1 2.6 0 1.8-1.4 3-3.4 3zm.1-4.5h-.8v3.5c.2 0 .5.1.7.1 1.3 0 2.1-.7 2.1-1.8 0-1.2-.6-1.8-2-1.8zM57 72.4c-1.4-.2-2 .8-2 2.8v2.6h-1.2v-6.5h1.1c0 .4 0 1-.1 1.5.3-.9.9-1.8 2.2-1.7v1.3zM60.9 77.9c-1.8 0-2.9-1-2.9-3.3 0-1.9 1.2-3.4 3.1-3.4 1.7 0 2.9.9 2.9 3.2.1 2-1.2 3.5-3.1 3.5zm.1-5.7c-.9 0-1.8.7-1.8 2.3 0 1.6.6 2.4 1.8 2.4 1 0 1.8-.8 1.8-2.4 0-1.4-.6-2.3-1.8-2.3zM67.1 77.9c-.5 0-1 0-1.4-.1v-1c.4.1.9.2 1.4.2.9 0 1.4-.4 1.4-1 0-1.4-3-.6-3-2.8 0-1.1.9-1.9 2.6-1.9.4 0 .8.1 1.2.1v1c-.4-.1-.9-.2-1.3-.2-.9 0-1.3.4-1.3.9 0 1.4 3 .6 3 2.8.1 1.1-.9 2-2.6 2zM74 77.9c-1.3 0-1.7-.5-1.7-1.9v-3.7H71v-.9h1.3v-2.1l1.2-.3v2.4h1.8v.9h-1.8v3.3c0 1.1.2 1.4.9 1.4.3 0 .6-.1.9-.1v1H74zM80.6 77.8c0-.5 0-.9.1-1.3-.3.8-1.1 1.4-2.2 1.4s-1.8-.6-1.8-1.6c0-1.4 1.4-2.3 3.9-2.3v-.5c0-.9-.4-1.4-1.4-1.4-.6 0-1.4.2-2 .5l-.1-1c.6-.3 1.4-.5 2.3-.5 1.9 0 2.4.9 2.4 2.2v4.6h-1.2zm-.1-3c-2.2 0-2.7.7-2.7 1.3 0 .5.4.9 1 .9 1.1 0 1.8-1 1.8-2.1v-.1zM86.1 77.9c-1.3 0-1.7-.5-1.7-1.9v-3.7h-1.3v-.9h1.3v-2.1l1.2-.3v2.4h1.8v.9h-1.8v3.3c0 1.1.2 1.4.9 1.4.3 0 .6-.1.9-.1v1h-1.3zM92.8 77.8c0-.5 0-.9.1-1.3-.3.8-1.1 1.4-2.2 1.4s-1.8-.6-1.8-1.6c0-1.4 1.4-2.3 3.9-2.3v-.5c0-.9-.4-1.4-1.4-1.4-.6 0-1.4.2-1.9.5l-.1-1c.6-.3 1.4-.5 2.3-.5 1.9 0 2.4.9 2.4 2.2v4.6h-1.3zm-.1-3c-2.2 0-2.7.7-2.7 1.3 0 .5.4.9 1 .9 1.1 0 1.8-1 1.8-2.1v-.1zM100.1 77.8l-2.4-3.3v3.3h-1.2v-9.5h1.2v5.9l2.3-2.8h1.4l-2.5 3 2.7 3.5h-1.5zM106.5 72.4c-1.4-.2-2 .8-2 2.8v2.6h-1.2v-6.5h1.1c0 .4 0 1-.1 1.5.3-.9.9-1.8 2.2-1.7v1.3zM113 74.5h-4.2c-.1 1.7.7 2.5 2 2.5.7 0 1.4-.2 1.9-.4l.1.9c-.6.3-1.4.4-2.2.4-2 0-3.1-1-3.1-3.3 0-1.9 1.1-3.4 2.9-3.4 1.8 0 2.6 1.2 2.6 2.7v.6zm-2.6-2.4c-.8 0-1.4.6-1.6 1.6h3c0-1-.5-1.6-1.4-1.6zM117.3 77.9c-.9 0-1.5-.1-2.2-.3v-9.3h1.2v3.1c0 .4 0 .9-.1 1.2.4-.9 1.2-1.4 2.1-1.4 1.5 0 2.4 1.1 2.4 3 0 2.3-1.3 3.7-3.4 3.7zm.7-5.7c-1.2 0-1.8 1.4-1.8 2.5v2.1c.3.1.7.2 1.1.2 1.2 0 2.1-.7 2.1-2.6.1-1.4-.4-2.2-1.4-2.2zM123.7 77.9c-.5 0-1 0-1.4-.1v-1c.4.1.9.2 1.4.2.9 0 1.4-.4 1.4-1 0-1.4-3-.6-3-2.8 0-1.1.9-1.9 2.6-1.9.4 0 .8.1 1.2.1v1c-.4-.1-.9-.2-1.3-.2-.9 0-1.3.4-1.3.9 0 1.4 3 .6 3 2.8.2 1.1-.8 2-2.6 2zM128.1 77.8V77l3.1-4.6h-3v-1h4.4v.8l-3.1 4.6h3.2v1.1h-4.6zM139.6 74.5h-4.2c-.1 1.7.7 2.5 2 2.5.7 0 1.4-.2 1.9-.4l.1.9c-.6.3-1.4.4-2.2.4-2 0-3.1-1-3.1-3.3 0-1.9 1.1-3.4 2.9-3.4 1.8 0 2.6 1.2 2.6 2.7v.6zm-2.6-2.4c-.8 0-1.4.6-1.6 1.6h3c0-1-.5-1.6-1.4-1.6zM145.8 77.8v-4.2c0-.9-.2-1.4-1.1-1.4-1.1 0-1.8 1.1-1.8 2.5v3.1h-1.2v-6.5h1.1c0 .4 0 1-.1 1.4.4-.9 1.2-1.5 2.3-1.5 1.5 0 1.9.9 1.9 2.1v4.5h-1.1zM151.4 77.9c-1.3 0-1.7-.5-1.7-1.9v-3.7h-1.3v-.9h1.3v-2.1l1.2-.3v2.4h1.8v.9h-1.8v3.3c0 1.1.2 1.4.9 1.4.3 0 .6-.1.9-.1v1h-1.3zM157.8 72.4c-1.4-.2-2 .8-2 2.8v2.6h-1.2v-6.5h1.1c0 .4 0 1-.1 1.5.3-.9.9-1.8 2.2-1.7v1.3zM163.7 77.8c0-.4 0-1 .1-1.4-.4.9-1.2 1.5-2.3 1.5-1.5 0-1.9-.9-1.9-2.1v-4.5h1.2v4.2c0 .9.3 1.4 1.1 1.4 1.1 0 1.8-1.1 1.8-2.5v-3.1h1.2v6.5h-1.2zM175.5 77.8v-4.1c0-.9-.2-1.5-1.1-1.5-.9 0-1.8 1-1.8 2.5v3.1h-1.2v-4.2c0-.8-.2-1.5-1.1-1.5-1 0-1.8 1.1-1.8 2.5v3.1h-1.2v-6.5h1.1c0 .4 0 1-.1 1.4.4-.9 1.2-1.5 2.2-1.5 1.4 0 1.7.9 1.8 1.5.3-.6 1-1.5 2.2-1.5 1.2 0 1.9.7 1.9 2.1v4.5h-.9z"/><g fill="#2A4998"><path d="M63.7 60.3l-2.2-15h-2.2l-3.5 10.3c-.3.9-.5 1.7-.8 2.7-.2-1-.6-2.2-.8-2.9l-3.4-10.1h-2.1l-2.1 15h1.8l1.1-9.1c.2-1.5.3-2.8.4-3.9.2 1 .6 2 1 3.2l3.3 9.8h1.9l3.5-10.5c.4-1 .6-1.9.7-2.5.1.8.2 2.1.5 3.8l1.3 9.2h1.6zM74.5 60.3v-7.6c0-2.1-.9-3.6-3.9-3.6-1.4 0-2.8.3-3.9.8l.4 1.4c.9-.5 2.2-.8 3.2-.8 1.9 0 2.5.9 2.5 2.6v.8c-4.3 0-6.7 1.5-6.7 3.8 0 1.8 1.3 2.9 3 2.9 1.9 0 3.3-1.1 3.8-2.5-.1.6-.1 1.5-.1 2.3h1.7v-.1zm-1.7-5c0 1.9-1.3 3.8-3.3 3.8-1.1 0-1.8-.8-1.8-1.8 0-1.2 1.1-2.3 5.1-2.3v.3zM83.8 49.1c-2.3-.3-3.5 1.3-3.9 3 .2-1 .3-2 .3-2.8h-1.6v11h1.7v-4.4c0-3.7 1.2-5.6 3.6-5.1l-.1-1.7zM91.8 60.2l-.2-1.4c-.4.1-.9.2-1.5.2-1.3 0-1.7-.5-1.7-2.5v-5.9h3.2v-1.3h-3.2v-4.1l-1.7.5v3.7h-2.4v1.3h2.4v6.6c0 2.3.6 3.3 2.9 3.3.7-.2 1.5-.3 2.2-.4zM96.5 45.7c0-.6-.5-1.1-1.1-1.1-.6 0-1.2.5-1.2 1.1 0 .6.5 1.1 1.2 1.1.6 0 1.1-.5 1.1-1.1zm-.3 14.6v-11h-1.7v11h1.7zM109 60.3v-7.7c0-2-.8-3.5-3.3-3.5-1.9 0-3.3 1.1-3.9 2.7.1-.7.2-1.7.2-2.5h-1.6v11h1.7V55c0-2.6 1.4-4.6 3.4-4.6 1.6 0 2.1 1 2.1 2.7v7.1h1.4v.1zM115 45.7c0-.6-.5-1.1-1.2-1.1-.6 0-1.2.5-1.2 1.1 0 .6.5 1.1 1.2 1.1s1.2-.5 1.2-1.1zm-.3 14.6v-11H113v11h1.7zM122.9 54.5v-1.4h-5.2v1.4h5.2zM136.4 60.3l-6.9-7.8 6.7-7.2h-2.1l-6.4 7.2v-7.2H126v15h1.7v-7.6l6.3 7.6h2.4zM140.5 60.3V44.1h-1.7v16.2h1.7zM146.5 45.7c0-.6-.5-1.1-1.2-1.1-.6 0-1.2.5-1.2 1.1 0 .6.5 1.1 1.2 1.1.6 0 1.2-.5 1.2-1.1zm-.4 14.6v-11h-1.7v11h1.7zM158.9 60.3v-7.7c0-2-.8-3.5-3.3-3.5-1.9 0-3.3 1.1-3.9 2.7.1-.7.2-1.7.2-2.5h-1.6v11h1.7V55c0-2.6 1.4-4.6 3.4-4.6 1.6 0 2.1 1 2.1 2.7v7.1h1.4v.1zM165 45.7c0-.6-.5-1.1-1.2-1.1-.6 0-1.2.5-1.2 1.1 0 .6.5 1.1 1.2 1.1.6 0 1.2-.5 1.2-1.1zm-.4 14.6v-11H163v11h1.6zM176.8 60.3l-4.7-6 4.4-5.1h-2l-4.2 5V44.1h-1.7v16.2h1.7v-5.8l4.4 5.8h2.1z"/></g><path fill="#2A4998" d="M30.3 38.7v21.6h6.1V38.7h-6.1z"/><path fill="#94A4CC" d="M7 55.5c.7 1.9-.2 4-2 4.7-1.9.7-4-.2-4.7-2-.7-1.9.2-4 2-4.7 1.9-.8 4 .1 4.7 2zM18.2 36c1.1 2.8-.3 6-3.1 7.1-2.8 1.1-6-.3-7.1-3.1-1.1-2.8.3-6 3.1-7.1 2.8-1 6 .3 7.1 3.1z"/><path fill="#2A4998" d="M41.2 18.8c1.7 4.2-.4 9-4.6 10.7-4.2 1.7-9-.4-10.7-4.6-1.7-4.2.4-9 4.6-10.7 4.2-1.6 9 .4 10.7 4.6z"/><path fill="#94A4CC" d="M72 6.6c2.1 5.4-.5 11.5-5.9 13.7-5.4 2.1-11.5-.5-13.7-5.9C50.3 9 52.9 2.9 58.3.7c5.4-2.1 11.6.5 13.7 5.9z"/></svg>