<?xml version="1.0" encoding="utf-8"?>
<!-- Generator: Adobe Illustrator 23.0.2, SVG Export Plug-In . SVG Version: 6.00 Build 0)  -->
<svg version="1.1" id="Ebene_1" xmlns="http://www.w3.org/2000/svg" xmlns:xlink="http://www.w3.org/1999/xlink" x="0px" y="0px"
	 viewBox="0 0 212.1 38.2" enable-background="new 0 0 212.1 38.2" xml:space="preserve">
<g>
	<path d="M114.5,14.2c-3.1,0-5.6,2.5-5.6,5.6s2.5,5.6,5.6,5.6s5.6-2.5,5.6-5.6S117.6,14.2,114.5,14.2 M114.5,28.9
		c-5.1,0-9.2-4.1-9.2-9.2s4.1-9.2,9.2-9.2c5.1,0,9.2,4.1,9.2,9.2C123.7,24.8,119.5,28.9,114.5,28.9"/>
	<path d="M60.1,14.2c-3.1,0-5.6,2.5-5.6,5.6s2.5,5.6,5.6,5.6c3.1,0,5.6-2.5,5.6-5.6C65.7,16.7,63.2,14.2,60.1,14.2 M60.1,28.9
		c-5.1,0-9.2-4.1-9.2-9.2s4.1-9.2,9.2-9.2s9.2,4.1,9.2,9.2C69.3,24.8,65.2,28.9,60.1,28.9"/>
	<path d="M82.9,18.6c-0.4,0.5-1,0.7-1.8,0.7h-4.3v-5.2H81c0.8,0,1.4,0.2,1.8,0.7c0.4,0.4,0.6,1.1,0.6,1.9
		C83.5,17.5,83.3,18.2,82.9,18.6 M85.8,12.4c-1-1-2.5-1.5-4.4-1.5H73v17.6h3.7v-6.1h4.4c2.1,0,3.6-0.5,4.6-1.5c1-1,1.6-2.4,1.6-4.3
		C87.3,14.9,86.8,13.4,85.8,12.4"/>
	<path d="M145.4,28.5h2.5l1.7-4.7h8.2l1.8,4.7h2.6l-6.8-17.6h-3.1L145.4,28.5z M150.4,21.7l2.1-5.5l1.1-3.1h0.1l1.2,3.2l2.1,5.5
		H150.4z"/>
	<polygon points="94.7,28.5 98.4,28.5 98.4,14.1 103.9,14.1 103.9,10.9 89.3,10.9 89.3,14.1 94.7,14.1 	"/>
	<polygon points="199,10.9 199,28.5 210.5,28.5 210.5,26.4 201.4,26.4 201.4,10.9 	"/>
	<path d="M183.7,21.7l2.1-5.5l1.2-3.1h0.1l1.2,3.2l2.1,5.5H183.7z M188.6,10.9h-3.1l-6.8,17.6h2.5l1.7-4.7h8.2l1.8,4.7h2.6
		L188.6,10.9z"/>
	<polygon points="168.8,28.5 172,28.5 178.5,10.9 176,10.9 171.4,23.7 170.5,26.1 170.4,26.1 169.5,23.8 164.9,10.9 162.2,10.9 	"/>
	<polygon points="127.8,28.5 130.1,28.5 130.1,16.5 130.1,15.3 130.2,15.2 130.9,16.1 140.2,28.5 142.3,28.5 142.3,10.9 140,10.9 
		140,22.8 140,24 139.9,24 139.3,23.2 130,10.9 127.8,10.9 	"/>
	<path fill="#A6A6A6" d="M25.2,30.2c-1.9,1-4.1,1.6-6.5,1.5c-3.3-0.1-6.2-1.5-8.3-3.7l-4,3.4c3.1,3.2,7.3,5.3,12.1,5.5
		c4.9,0.2,9.4-1.7,12.8-4.8C30.4,32.1,28.2,31.8,25.2,30.2"/>
	<path d="M36.5,15C36.5,15,36.5,14.9,36.5,15c-0.1-0.3-0.1-0.5-0.2-0.8c0-0.1-0.1-0.2-0.1-0.3c-0.1-0.3-0.2-0.5-0.3-0.8
		c0-0.1-0.1-0.2-0.1-0.3c-0.4-1-0.8-1.9-1.3-2.8l0,0c-0.5-0.8-1-1.5-1.5-2.2l-4,3.4c0.6,0.8,1.2,1.6,1.6,2.6c0,0,0,0,0,0
		c0.3,0.6,0.5,1.3,0.7,1.9c0.3,1.2,0.5,2.5,0.4,3.9c-0.1,1.8-0.6,3.7-1.4,5.3c-0.5-0.2-1-0.4-1.7-0.8c-1.8-0.9-4.6-2.9-7.7-6.8
		c-7.1-8.9-13.3-9.5-14-9.5l-0.4,0v0c0,0,0,0,0,0c-0.7,0-1.3,0.3-1.6,0.8l0,0L4.7,9c-1.9,2.8-3,6.1-3.2,9.5c0,0.9,0,1.9,0.1,2.8l0,0
		c0,0.3,0.1,0.5,0.1,0.8c0,0.1,0,0.3,0.1,0.4c0,0.3,0.1,0.5,0.2,0.8c0,0.2,0.1,0.3,0.1,0.5c0,0.2,0.1,0.4,0.2,0.5
		c0.1,0.2,0.2,0.5,0.2,0.7c0,0.1,0.1,0.2,0.1,0.3C2.7,25.7,2.8,26,3,26.3c0,0.1,0.1,0.1,0.1,0.2c0.2,0.3,0.3,0.7,0.5,1
		c0,0,0,0.1,0,0.1c0.1,0.2,0.2,0.4,0.3,0.5h0c0.4,0.7,0.9,1.4,1.4,2l4-3.4c-0.6-0.8-1.1-1.6-1.5-2.5c0,0,0,0,0,0
		c-0.1-0.2-0.2-0.5-0.3-0.7c0,0,0-0.1,0-0.1c-0.1-0.2-0.2-0.5-0.2-0.7c0,0,0-0.1-0.1-0.2C7.1,22.4,7.1,22.2,7,22
		c0-0.1,0-0.2-0.1-0.2c0-0.2-0.1-0.4-0.1-0.6c-0.1-0.8-0.2-1.7-0.2-2.5c0.1-1.8,0.5-3.6,1.3-5.2c0.4,0.2,0.9,0.4,1.5,0.7
		c1.7,0.9,4.4,2.8,7.3,6.5c7.4,9.2,13.9,9.8,14.6,9.8l0.4,0l0,0c0,0,0,0,0,0c0.7,0,1.3-0.3,1.6-0.8h0l0.2-0.3c2-2.8,3.1-6.1,3.2-9.6
		C37,18.2,36.8,16.5,36.5,15L36.5,15"/>
	<path fill="#A6A6A6" d="M13.1,8.2c1.9-1.1,4.2-1.7,6.6-1.6c3.2,0.1,6,1.4,8.1,3.5l4-3.4c-3-3.1-7.2-5.1-11.9-5.3
		C15,1.1,10.4,3,7.1,6.2C7.8,6.2,10.1,6.5,13.1,8.2"/>
</g>
</svg>
