<svg xmlns="http://www.w3.org/2000/svg" id="Ebene_1" width="366.37" height="63.32"><defs><clipPath id="clippath"><path d="M28.85 61.54a5.21 5.21 0 0 1-2.36-4.1c0-.84.95-2.79 2.91-5.97 1.25-1.98 2.29-4.08 3.1-6.27.74-1.67 1.2-3.45 1.36-5.27.09-1.55-.78-3-2.2-3.63.87-3.3 1.35-6.68 1.43-10.09A25.13 25.13 0 0 0 27.8 9.82a15.94 15.94 0 0 0-5.27-4.2C25.89 2.05 30.57.01 35.47 0h.12c2.59.03 5.14.65 7.46 1.81 2.4 1.15 4.5 2.83 6.15 4.9 1.95 2.48 3.44 5.3 4.38 8.31 1.01 3.32 1.51 6.78 1.47 10.25-.09 4.71-.85 9.39-2.27 13.88a62.159 62.159 0 0 1-5.97 13.96 28.484 28.484 0 0 1-6.21 7.65c-1.8 1.57-4.1 2.48-6.49 2.55h-.09c-1.87 0-3.7-.63-5.18-1.78ZM9.02 55.36a4.058 4.058 0 0 1-1.86-3.26c.48-1.7 1.27-3.3 2.33-4.71.98-1.57 1.81-3.23 2.47-4.96.59-1.32.95-2.74 1.05-4.19.08-1.36-.78-2.6-2.08-3.01-2.08-.69-4.04-1.7-5.79-3.01A14.377 14.377 0 0 1 0 20.87c-.07-3.5 1.22-6.89 3.61-9.45 2.7-3.11 6.63-4.89 10.75-4.88 2.06 0 4.08.51 5.91 1.45 1.9.92 3.57 2.25 4.88 3.9 3.2 4.22 4.83 9.42 4.63 14.72-.08 3.74-.69 7.44-1.8 11.01-1.11 3.87-2.7 7.58-4.71 11.07-3.22 5.38-6.57 8.07-10.06 8.08h-.05c-1.5 0-2.95-.5-4.14-1.42Z" style="fill:none"/></clipPath><style>.sg-cls-2{fill:#222}</style></defs><g style="clip-path:url(#clippath);fill:none"><g id="Gruppe_maskieren_11" style="fill:none;opacity:.7"><g id="Gruppe_95"><g id="Gruppe_94"><path id="Rechteck_143" d="M0 0h64.3v11.41H0z" style="fill:#8900bc"/><path id="Rechteck_144" d="M0 9.56h64.3v11.95H0z" style="fill:#00f"/><path id="Rechteck_145" d="M0 21.5h64.3v10.75H0z" style="fill:#66bc42"/><path id="Rechteck_146" d="M0 32.26h64.3v9.56H0z" style="fill:#fe0"/><path id="Rechteck_147" d="M0 41.81h64.3v10.75H0z" style="fill:#ff4209"/><path id="Rechteck_148" d="M0 52.57h64.3v10.75H0z" style="fill:red"/></g></g></g></g><path d="M77.13 43.45c-1.61-.7-2.87-1.67-3.8-2.89a7.573 7.573 0 0 1-1.56-4.12h7.14c.08.82.46 1.48 1.14 1.99.68.51 1.51.76 2.49.76.9 0 1.6-.18 2.09-.53s.74-.81.74-1.37c0-.68-.35-1.18-1.06-1.5-.7-.32-1.84-.68-3.42-1.08-1.69-.39-3.1-.81-4.22-1.25a7.28 7.28 0 0 1-2.91-2.07c-.82-.94-1.22-2.22-1.22-3.82 0-1.35.37-2.58 1.12-3.7.75-1.11 1.84-1.99 3.29-2.64 1.45-.65 3.17-.97 5.17-.97 2.96 0 5.29.73 6.99 2.2 1.7 1.46 2.68 3.41 2.94 5.83h-6.67c-.11-.82-.47-1.46-1.08-1.94s-1.4-.72-2.39-.72c-.85 0-1.49.16-1.94.49-.45.32-.68.77-.68 1.33 0 .68.36 1.18 1.08 1.52.72.34 1.84.68 3.36 1.01 1.75.45 3.17.89 4.27 1.33 1.1.44 2.06 1.14 2.89 2.11.83.97 1.26 2.27 1.29 3.91 0 1.38-.39 2.61-1.16 3.7-.77 1.08-1.89 1.94-3.34 2.56-1.45.62-3.13.93-5.05.93-2.06 0-3.89-.35-5.49-1.06ZM96.66 25.96c1-1.83 2.39-3.24 4.18-4.22 1.79-.99 3.84-1.48 6.15-1.48 2.96 0 5.43.77 7.41 2.32 1.99 1.55 3.29 3.73 3.91 6.55h-7.69c-.65-1.8-1.9-2.7-3.76-2.7-1.32 0-2.38.51-3.17 1.54s-1.18 2.5-1.18 4.41.39 3.39 1.18 4.41 1.84 1.54 3.17 1.54c1.86 0 3.11-.9 3.76-2.7h7.69c-.62 2.76-1.93 4.93-3.93 6.5-2 1.58-4.46 2.37-7.39 2.37-2.31 0-4.36-.49-6.15-1.48s-3.18-2.39-4.18-4.22c-1-1.83-1.5-3.97-1.5-6.42s.5-4.59 1.5-6.42ZM143.15 23.03c1.63 1.79 2.45 4.24 2.45 7.37v13.77h-7.18v-12.8c0-1.58-.41-2.8-1.22-3.68-.82-.87-1.92-1.31-3.29-1.31s-2.48.44-3.29 1.31c-.82.87-1.22 2.1-1.22 3.68v12.8h-7.22V12.91h7.22v10.86c.73-1.04 1.73-1.87 3-2.49 1.27-.62 2.69-.93 4.27-.93 2.7 0 4.87.89 6.5 2.68ZM155.12 43.03c-1.85-.99-3.29-2.39-4.35-4.22-1.06-1.83-1.58-3.97-1.58-6.42s.53-4.56 1.61-6.4c1.07-1.84 2.53-3.26 4.39-4.24 1.86-.99 3.94-1.48 6.25-1.48s4.39.49 6.25 1.48c1.86.99 3.32 2.4 4.39 4.24 1.07 1.84 1.61 3.98 1.61 6.4s-.54 4.56-1.63 6.4a11.007 11.007 0 0 1-4.44 4.25c-1.87.99-3.96 1.48-6.27 1.48s-4.39-.49-6.23-1.48Zm9.76-6.29c.97-1.01 1.46-2.46 1.46-4.35s-.47-3.34-1.41-4.35c-.94-1.01-2.11-1.52-3.48-1.52s-2.58.5-3.51 1.5-1.39 2.46-1.39 4.37.46 3.34 1.37 4.35c.91 1.01 2.06 1.52 3.44 1.52s2.56-.51 3.53-1.52ZM191.93 44.17l-7.18-9.88v9.88h-7.22V12.91h7.22v17.28l7.14-9.59h8.91L191 32.43l9.88 11.74h-8.95ZM204.16 17.03c-.8-.75-1.2-1.67-1.2-2.77s.4-2.06 1.2-2.81 1.84-1.12 3.11-1.12 2.26.37 3.06 1.12 1.2 1.68 1.2 2.81-.4 2.02-1.2 2.77c-.8.75-1.82 1.12-3.06 1.12s-2.3-.37-3.11-1.12Zm6.7 3.57v23.57h-7.22V20.6h7.22ZM233.33 21.95c1.51.87 2.63 1.97 3.36 3.29v-4.22h3.89v23.65c0 2.11-.45 3.99-1.35 5.64-.9 1.65-2.19 2.94-3.86 3.86-1.68.93-3.63 1.39-5.85 1.39-3.04 0-5.58-.72-7.6-2.15-2.03-1.44-3.22-3.39-3.59-5.87h3.8c.42 1.41 1.29 2.54 2.62 3.4 1.32.86 2.91 1.29 4.77 1.29 2.11 0 3.84-.66 5.17-1.99s2.01-3.18 2.01-5.58V39.8c-.76 1.35-1.89 2.48-3.38 3.38-1.49.9-3.24 1.35-5.24 1.35s-3.92-.51-5.6-1.52c-1.68-1.01-2.99-2.44-3.95-4.27-.96-1.83-1.44-3.91-1.44-6.25s.48-4.44 1.44-6.23 2.27-3.17 3.95-4.16c1.68-.99 3.54-1.48 5.6-1.48s3.75.44 5.26 1.31Zm2.3 6.04c-.7-1.3-1.65-2.29-2.85-2.98-1.2-.69-2.51-1.04-3.95-1.04s-2.75.34-3.93 1.01c-1.18.68-2.13 1.66-2.83 2.96-.7 1.3-1.06 2.82-1.06 4.56s.35 3.32 1.06 4.62c.7 1.31 1.65 2.31 2.83 3s2.49 1.04 3.93 1.04 2.75-.34 3.95-1.04 2.15-1.69 2.85-3c.7-1.31 1.06-2.84 1.06-4.58s-.35-3.27-1.06-4.56ZM268.08 34.03h-18.5c.14 2.28.92 4.06 2.34 5.34 1.42 1.28 3.15 1.92 5.17 1.92 1.66 0 3.05-.39 4.16-1.16 1.11-.77 1.89-1.81 2.34-3.11h4.14c-.62 2.23-1.86 4.03-3.72 5.43-1.86 1.39-4.17 2.09-6.93 2.09-2.2 0-4.16-.49-5.89-1.48-1.73-.99-3.09-2.39-4.08-4.2-.99-1.82-1.48-3.92-1.48-6.31s.48-4.49 1.44-6.29c.96-1.8 2.3-3.19 4.03-4.16 1.73-.97 3.72-1.46 5.98-1.46s4.14.48 5.83 1.44c1.69.96 2.99 2.27 3.91 3.95.91 1.68 1.37 3.57 1.37 5.68 0 .73-.04 1.51-.13 2.32Zm-4.82-6.91a6.33 6.33 0 0 0-2.64-2.41c-1.11-.55-2.34-.82-3.7-.82-1.94 0-3.6.62-4.96 1.86-1.37 1.24-2.15 2.96-2.34 5.15h14.62c0-1.46-.32-2.72-.97-3.78ZM291.39 23.16c1.75 1.7 2.62 4.16 2.62 7.37v13.64h-3.8V31.08c0-2.31-.58-4.08-1.73-5.3-1.16-1.23-2.73-1.84-4.73-1.84s-3.64.63-4.84 1.9c-1.2 1.27-1.79 3.11-1.79 5.53v12.8h-3.84V21.02h3.84v3.29c.76-1.18 1.79-2.1 3.1-2.75 1.31-.65 2.75-.97 4.33-.97 2.82 0 5.1.85 6.84 2.56ZM300.3 26.28c.96-1.79 2.27-3.17 3.95-4.16 1.68-.99 3.56-1.48 5.64-1.48 1.8 0 3.48.42 5.03 1.25 1.55.83 2.73 1.92 3.55 3.27V12.91h3.89v31.26h-3.89v-4.35c-.76 1.38-1.89 2.51-3.38 3.4-1.49.89-3.24 1.33-5.24 1.33s-3.92-.51-5.6-1.52c-1.68-1.01-2.99-2.44-3.95-4.27-.96-1.83-1.44-3.91-1.44-6.25s.48-4.44 1.44-6.23Zm17.11 1.71c-.7-1.3-1.65-2.29-2.85-2.98-1.2-.69-2.51-1.04-3.95-1.04s-2.75.34-3.93 1.01c-1.18.68-2.13 1.66-2.83 2.96-.7 1.3-1.06 2.82-1.06 4.56s.35 3.32 1.06 4.62c.7 1.31 1.65 2.31 2.83 3s2.49 1.04 3.93 1.04 2.75-.34 3.95-1.04 2.15-1.69 2.85-3c.7-1.31 1.06-2.84 1.06-4.58s-.35-3.27-1.06-4.56ZM349.85 34.03h-18.5c.14 2.28.92 4.06 2.34 5.34 1.42 1.28 3.15 1.92 5.17 1.92 1.66 0 3.05-.39 4.16-1.16 1.11-.77 1.89-1.81 2.34-3.11h4.14c-.62 2.23-1.86 4.03-3.72 5.43-1.86 1.39-4.17 2.09-6.93 2.09-2.2 0-4.16-.49-5.89-1.48-1.73-.99-3.09-2.39-4.08-4.2-.99-1.82-1.48-3.92-1.48-6.31s.48-4.49 1.44-6.29c.96-1.8 2.3-3.19 4.03-4.16 1.73-.97 3.72-1.46 5.98-1.46s4.14.48 5.83 1.44c1.69.96 2.99 2.27 3.91 3.95.91 1.68 1.37 3.57 1.37 5.68 0 .73-.04 1.51-.13 2.32Zm-4.82-6.91a6.33 6.33 0 0 0-2.64-2.41c-1.11-.55-2.34-.82-3.7-.82-1.94 0-3.6.62-4.96 1.86-1.37 1.24-2.15 2.96-2.34 5.15h14.62c0-1.46-.32-2.72-.97-3.78ZM361.78 21.7c1.25-.73 2.78-1.1 4.58-1.1v3.97h-1.01c-4.31 0-6.46 2.34-6.46 7.01v12.59h-3.84V21.02h3.84v3.76c.68-1.32 1.64-2.35 2.89-3.08Z" class="sg-cls-2"/></svg>