<?xml version="1.0" encoding="UTF-8"?><svg id="Ebene_1" xmlns="http://www.w3.org/2000/svg" width="272.41" height="56.9" viewBox="0 0 272.41 56.9"><defs><style>.cls-1{fill:#fff;}.sc-cls-2{fill:#222;}.sc-cls-3{fill:#0079d6;}</style></defs><g id="Gruppe_1"><path id="Vereinigungsmenge_7" class="sc-cls-3" d="m49.93,0H6.97C3.12,0,0,3.12,0,6.97v42.96c0,3.85,3.12,6.97,6.97,6.97h18.74,0c.55-5.66,5.59-9.8,11.25-9.25,1.33.13,2.63.52,3.81,1.15-.01-.16-.01-.33-.01-.51,0-5.69,4.61-10.29,10.3-10.29,2.09,0,4.13.64,5.85,1.82V6.97c0-3.85-3.12-6.97-6.97-6.97Z"/><path id="Vereinigungsmenge_14" class="cls-1" d="m9.77,27.9c-2.22,0-4.02-1.8-4.02-4.02v-10.6c0-2.11,1.63-3.86,3.74-4.01v-1.59c0-1.06.86-1.93,1.93-1.93s1.93.86,1.93,1.93v1.58h7.71v-1.58c0-1.06.86-1.93,1.93-1.93,1.06,0,1.93.86,1.93,1.93v1.59c2.15.1,3.83,1.87,3.83,4.02v10.6c0,2.22-1.8,4.02-4.02,4.02h-14.94Z"/></g><path class="sc-cls-2" d="m79.51,42.98c-1.55-.68-2.78-1.62-3.68-2.8s-1.4-2.51-1.51-3.99h6.91c.08.79.45,1.43,1.1,1.92.65.49,1.46.74,2.41.74.87,0,1.55-.17,2.02-.51.48-.34.72-.78.72-1.33,0-.65-.34-1.14-1.02-1.45-.68-.31-1.79-.66-3.31-1.04-1.64-.38-3-.78-4.09-1.21-1.09-.42-2.03-1.09-2.82-2-.79-.91-1.19-2.15-1.19-3.7,0-1.31.36-2.5,1.08-3.58.72-1.08,1.78-1.93,3.19-2.56,1.4-.63,3.07-.94,5.01-.94,2.86,0,5.12.71,6.77,2.13,1.65,1.42,2.6,3.3,2.84,5.64h-6.46c-.11-.79-.46-1.42-1.04-1.88-.59-.46-1.36-.7-2.31-.7-.82,0-1.45.16-1.88.47-.44.31-.65.74-.65,1.29,0,.65.35,1.14,1.04,1.47s1.78.65,3.25.98c1.69.44,3.07.87,4.13,1.29,1.06.42,2,1.1,2.8,2.04.8.94,1.22,2.2,1.25,3.78,0,1.34-.38,2.53-1.12,3.58-.75,1.05-1.83,1.87-3.23,2.47-1.4.6-3.03.9-4.89.9-1.99,0-3.76-.34-5.32-1.02Z"/><path class="sc-cls-2" d="m98.41,26.05c.97-1.77,2.32-3.13,4.05-4.09,1.73-.95,3.71-1.43,5.95-1.43,2.86,0,5.25.75,7.18,2.25,1.92,1.5,3.18,3.61,3.78,6.34h-7.44c-.63-1.74-1.84-2.62-3.64-2.62-1.28,0-2.3.5-3.07,1.49-.76,1-1.14,2.42-1.14,4.27s.38,3.28,1.14,4.27c.76,1,1.78,1.49,3.07,1.49,1.8,0,3.01-.87,3.64-2.62h7.44c-.6,2.67-1.87,4.77-3.8,6.3-1.94,1.53-4.32,2.29-7.15,2.29-2.24,0-4.22-.48-5.95-1.43-1.73-.95-3.08-2.32-4.05-4.09-.97-1.77-1.45-3.84-1.45-6.21s.48-4.44,1.45-6.21Z"/><path class="sc-cls-2" d="m143.41,23.21c1.58,1.73,2.37,4.11,2.37,7.13v13.33h-6.95v-12.39c0-1.53-.4-2.71-1.19-3.56-.79-.84-1.85-1.27-3.19-1.27s-2.4.42-3.19,1.27c-.79.85-1.19,2.03-1.19,3.56v12.39h-6.99V13.42h6.99v10.51c.71-1.01,1.68-1.81,2.9-2.41,1.23-.6,2.6-.9,4.13-.9,2.62,0,4.72.87,6.3,2.6Z"/><path class="sc-cls-2" d="m155,42.57c-1.79-.95-3.19-2.32-4.21-4.09-1.02-1.77-1.53-3.84-1.53-6.21s.52-4.41,1.55-6.19c1.04-1.78,2.45-3.15,4.25-4.11,1.8-.95,3.82-1.43,6.05-1.43s4.25.48,6.05,1.43c1.8.95,3.22,2.32,4.25,4.11,1.04,1.79,1.55,3.85,1.55,6.19s-.53,4.41-1.57,6.19c-1.05,1.79-2.48,3.16-4.29,4.11-1.81.95-3.84,1.43-6.07,1.43s-4.25-.48-6.03-1.43Zm9.44-6.09c.94-.98,1.41-2.38,1.41-4.21s-.46-3.23-1.37-4.21c-.91-.98-2.04-1.47-3.37-1.47s-2.49.48-3.39,1.45c-.9.97-1.35,2.38-1.35,4.23s.44,3.23,1.33,4.21c.89.98,2,1.47,3.33,1.47s2.47-.49,3.41-1.47Z"/><path class="sc-cls-2" d="m190.63,43.67l-6.95-9.57v9.57h-6.99V13.42h6.99v16.72l6.91-9.28h8.63l-9.49,11.45,9.57,11.37h-8.67Z"/><path class="sc-cls-2" d="m202.47,17.4c-.78-.72-1.17-1.62-1.17-2.68s.39-2,1.17-2.72c.78-.72,1.78-1.08,3.01-1.08s2.19.36,2.96,1.08c.78.72,1.17,1.63,1.17,2.72s-.39,1.96-1.17,2.68c-.78.72-1.76,1.08-2.96,1.08s-2.23-.36-3.01-1.08Zm6.48,3.45v22.81h-6.99v-22.81h6.99Z"/><path class="sc-cls-2" d="m216.23,26.36c.93-1.73,2.21-3.07,3.86-4.03,1.65-.95,3.54-1.43,5.66-1.43,2.75,0,5.02.67,6.81,2,1.78,1.34,2.96,3.19,3.54,5.56h-4.01c-.38-1.36-1.12-2.44-2.23-3.23-1.1-.79-2.47-1.19-4.11-1.19-2.13,0-3.84.73-5.15,2.19-1.31,1.46-1.96,3.52-1.96,6.19s.65,4.78,1.96,6.26c1.31,1.47,3.03,2.21,5.15,2.21,1.64,0,3-.38,4.09-1.14,1.09-.76,1.84-1.85,2.25-3.27h4.01c-.6,2.29-1.8,4.12-3.6,5.5-1.8,1.38-4.05,2.06-6.75,2.06-2.13,0-4.01-.48-5.66-1.43-1.65-.95-2.94-2.3-3.86-4.05-.93-1.74-1.39-3.79-1.39-6.13s.46-4.34,1.39-6.07Z"/><path class="sc-cls-2" d="m241.05,26.36c.93-1.73,2.2-3.07,3.82-4.03,1.62-.95,3.43-1.43,5.42-1.43s3.67.42,5.11,1.27c1.44.85,2.52,1.91,3.23,3.19v-4.09h3.76v22.41h-3.76v-4.17c-.74,1.31-1.83,2.39-3.29,3.25-1.46.86-3.16,1.29-5.09,1.29s-3.79-.49-5.4-1.47c-1.61-.98-2.88-2.36-3.8-4.13-.93-1.77-1.39-3.79-1.39-6.05s.46-4.3,1.39-6.03Zm16.56,1.66c-.68-1.25-1.6-2.21-2.76-2.88-1.16-.67-2.43-1-3.82-1s-2.66.33-3.8.98c-1.15.65-2.06,1.61-2.74,2.86-.68,1.25-1.02,2.73-1.02,4.42s.34,3.21,1.02,4.48c.68,1.27,1.59,2.24,2.74,2.9,1.14.67,2.41,1,3.8,1s2.66-.33,3.82-1,2.08-1.64,2.76-2.9c.68-1.27,1.02-2.75,1.02-4.44s-.34-3.16-1.02-4.42Z"/><path class="sc-cls-2" d="m272.41,13.42v30.26h-3.72V13.42h3.72Z"/></svg>