<?xml version="1.0" encoding="UTF-8"?><svg id="Ebene_1" xmlns="http://www.w3.org/2000/svg" width="348.57" height="57.19" viewBox="0 0 348.57 57.19"><defs><style>.cls-1{fill:#fff;}.sco-cls-2{fill:#222;}.cls-3{fill:#f8b600;}</style></defs><g id="chocfair-cookie"><path id="Vereinigungsmenge_1" class="cls-3" d="m50.2,0H6.99C3.12,0,0,3.12,0,6.99v43.15c0,3.93,3.12,7.05,6.99,7.05h18.83c.58-5.66,5.6-9.88,11.32-9.3,1.33.12,2.66.52,3.81,1.16v-.52c0-5.72,4.62-10.34,10.34-10.34,2.08,0,4.16.64,5.89,1.85V6.99c0-3.87-3.12-6.99-6.99-6.99Z"/><g id="Gruppe_1"><path id="Rechteck_23" class="cls-1" d="m9.82,5.77h15.02c2.25,0,4.04,1.79,4.04,4.04v15.02c0,2.25-1.79,4.04-4.04,4.04h-15.02c-2.25,0-4.04-1.79-4.04-4.04v-15.02c0-2.25,1.79-4.04,4.04-4.04Z"/><g id="check"><path id="Pfad_31" class="cls-3" d="m15.9,22.92l-6.18-6.18,2.2-2.2,4.04,4.04,6.99-6.87,2.14,2.2-9.18,9.01Z"/></g></g></g><path class="sco-cls-2" d="m89.9,31.39c-1.08-.43-2.48-.86-4.19-1.31-1.49-.33-2.59-.66-3.3-1-.71-.33-1.06-.83-1.06-1.49,0-.55.22-.99.66-1.31.44-.32,1.08-.48,1.91-.48.97,0,1.75.24,2.34.71.59.47.95,1.11,1.06,1.91h6.55c-.25-2.38-1.21-4.29-2.88-5.72-1.67-1.44-3.96-2.16-6.86-2.16-1.96,0-3.66.32-5.08.95-1.42.64-2.5,1.5-3.24,2.59-.73,1.09-1.1,2.3-1.1,3.63,0,1.58.4,2.83,1.2,3.75.8.93,1.76,1.6,2.86,2.03,1.11.43,2.49.84,4.15,1.22,1.55.39,2.67.74,3.36,1.06.69.32,1.04.81,1.04,1.47,0,.55-.24,1-.73,1.35-.48.35-1.17.52-2.05.52-.97,0-1.78-.25-2.45-.75-.66-.5-1.04-1.15-1.12-1.95h-7.01c.11,1.49.62,2.84,1.53,4.04.91,1.2,2.16,2.15,3.73,2.84,1.58.69,3.37,1.04,5.39,1.04,1.88,0,3.53-.3,4.96-.91,1.42-.61,2.52-1.44,3.28-2.51.76-1.06,1.14-2.27,1.14-3.63-.03-1.6-.45-2.88-1.27-3.84-.82-.95-1.76-1.65-2.84-2.07Z"/><path class="sco-cls-2" d="m108.44,26.6c1.83,0,3.06.89,3.69,2.65h7.55c-.61-2.76-1.89-4.91-3.84-6.43-1.95-1.52-4.38-2.28-7.28-2.28-2.27,0-4.28.48-6.03,1.45-1.76.97-3.13,2.35-4.11,4.15-.98,1.8-1.47,3.9-1.47,6.3s.49,4.51,1.47,6.3c.98,1.8,2.35,3.18,4.11,4.15,1.76.97,3.77,1.45,6.03,1.45,2.88,0,5.29-.77,7.26-2.32,1.96-1.55,3.25-3.68,3.86-6.39h-7.55c-.64,1.77-1.87,2.65-3.69,2.65-1.3,0-2.34-.5-3.11-1.51-.77-1.01-1.16-2.45-1.16-4.33s.39-3.32,1.16-4.33c.77-1.01,1.81-1.51,3.11-1.51Z"/><path class="sco-cls-2" d="m137.68,20.63c-1.55,0-2.94.3-4.19.91-1.24.61-2.23,1.42-2.94,2.45v-10.66h-7.09v30.69h7.09v-12.57c0-1.55.4-2.75,1.2-3.61.8-.86,1.88-1.29,3.23-1.29s2.43.43,3.24,1.29c.8.86,1.2,2.06,1.2,3.61v12.57h7.05v-13.52c0-3.07-.8-5.48-2.41-7.24-1.6-1.76-3.73-2.63-6.39-2.63Z"/><path class="sco-cls-2" d="m168.17,21.99c-1.82-.97-3.87-1.45-6.14-1.45s-4.31.48-6.14,1.45c-1.83.97-3.26,2.36-4.31,4.17-1.05,1.81-1.58,3.91-1.58,6.28s.52,4.51,1.56,6.3c1.04,1.8,2.46,3.18,4.27,4.15,1.81.97,3.85,1.45,6.12,1.45s4.32-.48,6.16-1.45c1.84-.97,3.29-2.36,4.35-4.17,1.06-1.81,1.6-3.91,1.6-6.28s-.53-4.47-1.58-6.28c-1.05-1.81-2.49-3.2-4.31-4.17Zm-2.76,14.72c-.95,1-2.11,1.49-3.46,1.49s-2.48-.5-3.38-1.49c-.9-1-1.35-2.42-1.35-4.27s.46-3.31,1.37-4.29,2.06-1.47,3.44-1.47,2.5.5,3.42,1.49c.93,1,1.39,2.42,1.39,4.27s-.48,3.28-1.43,4.27Z"/><polygon class="sco-cls-2" points="200.68 20.87 191.93 20.87 184.92 30.29 184.92 13.33 177.83 13.33 177.83 44.02 184.92 44.02 184.92 34.31 191.97 44.02 200.77 44.02 191.06 32.49 200.68 20.87"/><rect class="sco-cls-2" x="203.46" y="20.87" width="7.09" height="23.14"/><path class="sco-cls-2" d="m207.03,10.8c-1.24,0-2.26.37-3.05,1.1-.79.73-1.18,1.65-1.18,2.76s.39,1.98,1.18,2.72c.79.73,1.8,1.1,3.05,1.1s2.22-.37,3.01-1.1c.79-.73,1.18-1.64,1.18-2.72s-.39-2.03-1.18-2.76c-.79-.73-1.79-1.1-3.01-1.1Z"/><path class="sco-cls-2" d="m227.67,24.11c1.66,0,3.05.4,4.17,1.2,1.12.8,1.87,1.89,2.26,3.28h4.06c-.58-2.41-1.78-4.29-3.59-5.64-1.81-1.35-4.11-2.03-6.91-2.03-2.16,0-4.07.48-5.74,1.45-1.67.97-2.98,2.33-3.92,4.09-.94,1.76-1.41,3.81-1.41,6.16s.47,4.45,1.41,6.22c.94,1.77,2.25,3.14,3.92,4.11,1.67.97,3.59,1.45,5.74,1.45,2.74,0,5.02-.7,6.84-2.09,1.82-1.4,3.04-3.26,3.65-5.58h-4.06c-.41,1.44-1.18,2.54-2.28,3.32s-2.49,1.16-4.15,1.16c-2.16,0-3.9-.75-5.23-2.24s-1.99-3.61-1.99-6.35.66-4.8,1.99-6.28c1.33-1.48,3.07-2.22,5.23-2.22Z"/><path class="sco-cls-2" d="m259.11,22.35c-1.74-.95-3.69-1.43-5.85-1.43s-4.11.48-5.85,1.43c-1.74.95-3.12,2.32-4.13,4.11-1.01,1.78-1.51,3.84-1.51,6.16s.49,4.42,1.47,6.2c.98,1.78,2.34,3.16,4.06,4.13,1.73.97,3.66,1.45,5.79,1.45s4.12-.48,5.89-1.45c1.77-.97,3.17-2.34,4.21-4.13,1.04-1.78,1.56-3.85,1.56-6.2s-.5-4.41-1.51-6.18c-1.01-1.77-2.38-3.13-4.13-4.09Zm.68,14.91c-.73,1.27-1.69,2.23-2.88,2.86s-2.46.95-3.82.95-2.6-.31-3.73-.93c-1.13-.62-2.04-1.57-2.72-2.84-.68-1.27-1.02-2.83-1.02-4.69s.35-3.37,1.04-4.65c.69-1.27,1.61-2.22,2.76-2.84,1.15-.62,2.41-.93,3.79-.93s2.61.31,3.77.93c1.16.62,2.1,1.57,2.82,2.84.72,1.27,1.08,2.82,1.08,4.65s-.37,3.37-1.1,4.65Z"/><path class="sco-cls-2" d="m285.65,22.35c-1.74-.95-3.69-1.43-5.85-1.43s-4.11.48-5.85,1.43c-1.74.95-3.12,2.32-4.13,4.11-1.01,1.78-1.51,3.84-1.51,6.16s.49,4.42,1.47,6.2c.98,1.78,2.34,3.16,4.06,4.13,1.73.97,3.66,1.45,5.79,1.45s4.12-.48,5.89-1.45c1.77-.97,3.17-2.34,4.21-4.13,1.04-1.78,1.56-3.85,1.56-6.2s-.5-4.41-1.51-6.18c-1.01-1.77-2.38-3.13-4.13-4.09Zm.68,14.91c-.73,1.27-1.69,2.23-2.88,2.86s-2.46.95-3.82.95-2.6-.31-3.73-.93c-1.13-.62-2.04-1.57-2.72-2.84-.68-1.27-1.02-2.83-1.02-4.69s.35-3.37,1.04-4.65c.69-1.27,1.61-2.22,2.76-2.84,1.15-.62,2.41-.93,3.79-.93s2.61.31,3.77.93c1.16.62,2.1,1.57,2.82,2.84.72,1.27,1.08,2.82,1.08,4.65s-.37,3.37-1.1,4.65Z"/><polygon class="sco-cls-2" points="314.06 21.29 308.8 21.29 300.04 31.37 300.04 13.33 296.27 13.33 296.27 44.02 300.04 44.02 300.04 33.98 308.96 44.02 314.1 44.02 303.36 32.61 314.06 21.29"/><rect class="sco-cls-2" x="317.63" y="21.29" width="3.77" height="22.73"/><path class="sco-cls-2" d="m319.58,12.45c-.72,0-1.33.25-1.82.75-.5.5-.75,1.11-.75,1.83s.25,1.33.75,1.82c.5.5,1.11.75,1.82.75s1.28-.25,1.76-.75c.48-.5.73-1.11.73-1.82s-.24-1.33-.73-1.83c-.48-.5-1.07-.75-1.76-.75Z"/><path class="sco-cls-2" d="m343.39,22.33c-1.66-.94-3.57-1.41-5.72-1.41s-4.17.48-5.87,1.43c-1.7.95-3.02,2.32-3.96,4.09-.94,1.77-1.41,3.83-1.41,6.18s.48,4.42,1.45,6.2c.97,1.78,2.3,3.16,4,4.13s3.63,1.45,5.79,1.45c2.71,0,4.98-.68,6.8-2.05,1.82-1.37,3.04-3.15,3.65-5.33h-4.06c-.44,1.27-1.21,2.29-2.3,3.05-1.09.76-2.45,1.14-4.09,1.14-1.99,0-3.69-.63-5.08-1.89-1.4-1.26-2.16-3.01-2.3-5.25h18.17c.08-.8.12-1.56.12-2.28,0-2.07-.45-3.93-1.35-5.58-.9-1.64-2.18-2.94-3.84-3.88Zm-13.07,8.67c.19-2.16.96-3.84,2.3-5.06,1.34-1.22,2.97-1.82,4.87-1.82,1.33,0,2.54.27,3.63.81,1.09.54,1.96,1.33,2.59,2.36.64,1.04.96,2.27.96,3.71h-14.35Z"/></svg>