<?xml version="1.0" encoding="utf-8"?>
<!-- Generator: Adobe Illustrator 25.1.0, SVG Export Plug-In . SVG Version: 6.00 Build 0)  -->
<svg version="1.1" id="Ebene_1" xmlns="http://www.w3.org/2000/svg" xmlns:xlink="http://www.w3.org/1999/xlink" x="0px" y="0px" width="40.1px" height="18.5px"
	 viewBox="0 0 40.1 18.5">
<path fill="#FFE32B" d="M19,9.4c-0.4,0-0.8-0.1-1-0.3c-0.2-0.2-0.4-0.4-0.5-0.7c-0.1-0.3-0.1-0.7-0.1-1.1V3.2h0.8v4.1
	c0,0.3,0,0.5,0.1,0.7c0,0.2,0.1,0.4,0.2,0.5s0.3,0.2,0.5,0.2s0.4-0.1,0.5-0.2s0.2-0.3,0.2-0.5c0-0.2,0.1-0.5,0.1-0.7V3.2h0.8v4.1
	c0,0.4,0,0.8-0.1,1.1C20.4,8.7,20.3,9,20,9.1C19.8,9.3,19.4,9.4,19,9.4z"/>
<path fill="#FFE32B" d="M21.4,9.3V3.2H22l1.7,4.1V3.2h0.7v6.1h-0.5l-1.8-4.1v4.2h-0.7V9.3z"/>
<rect x="25.2" y="3.2" fill="#FFE32B" width="0.8" height="6.1"/>
<path fill="#FFE32B" d="M27.7,9.3V3.8h-1V3.2h2.9v0.6h-1v5.5H27.7z"/>
<path fill="#FFE32B" d="M30.1,9.3V3.2h2.4v0.6H31v2h1.2v0.6H31v2.2h1.5v0.6C32.5,9.3,30.1,9.3,30.1,9.3z"/>
<path fill="#FFE32B" d="M34.1,8.7h0.5c0.3,0,0.5-0.1,0.7-0.2c0.1-0.1,0.2-0.3,0.2-0.5c0-0.2,0-0.5,0-0.8v-2c0-0.3,0-0.6-0.1-0.8
	c0-0.2-0.1-0.3-0.3-0.4s-0.3-0.1-0.6-0.1H34C34.1,3.9,34.1,8.7,34.1,8.7z M33.2,9.3V3.2h1.3c0.5,0,0.8,0.1,1.1,0.2
	c0.3,0.1,0.5,0.3,0.6,0.6s0.2,0.6,0.2,1l-0.1,0.5l-0.4,1.3V8h0.5c0,0,0,0.2-0.1,0.3C36.2,8.6,36,8.8,35.7,9s-0.6,0.2-1,0.2
	C34.6,9.3,33.2,9.3,33.2,9.3z"/>
<path fill="#FFE32B" d="M18.2,12.6h0.3c0.2,0,0.5,0,0.6-0.1c0.2-0.1,0.3-0.2,0.3-0.3c0.1-0.2,0.1-0.4,0.1-0.6c0-0.4-0.1-0.6-0.2-0.8
	c-0.1-0.2-0.4-0.2-0.8-0.2h-0.4C18.2,10.5,18.2,12.6,18.2,12.6z M17.4,16.2V9.9h1.3c0.4,0,0.8,0.1,1,0.2c0.3,0.1,0.5,0.3,0.6,0.5
	s0.2,0.6,0.2,1c0,0.2,0,0.5-0.1,0.7s-0.1,0.4-0.2,0.5s-0.3,0.2-0.5,0.3l0.9,3.2h-0.9l-0.8-3h-0.7v3h-0.8V16.2z"/>
<path fill="#FFE32B" d="M21.4,16.2V9.9h2.5v0.7h-1.6v2.1h1.3v0.6h-1.3v2.3h1.6v0.6H21.4z"/>
<path fill="#FFE32B" d="M26.1,16.3c-0.4,0-0.7-0.1-0.9-0.2c-0.2-0.2-0.4-0.4-0.6-0.6c-0.1-0.3-0.2-0.6-0.2-1l0.8-0.2
	c0,0.2,0.1,0.4,0.1,0.6c0.1,0.2,0.1,0.4,0.3,0.5c0.1,0.1,0.3,0.2,0.5,0.2s0.4-0.1,0.5-0.2s0.2-0.3,0.2-0.6c0-0.3-0.1-0.5-0.2-0.7
	s-0.3-0.4-0.5-0.5L25,12.7c-0.2-0.2-0.4-0.4-0.5-0.6s-0.1-0.5-0.1-0.8c0-0.5,0.1-0.8,0.4-1.1c0.3-0.3,0.6-0.4,1.1-0.4
	c0.2,0,0.5,0,0.7,0.1s0.3,0.2,0.5,0.3c0.1,0.1,0.2,0.3,0.3,0.5c0.1,0.2,0.1,0.4,0.2,0.7l-0.7,0.2c0-0.2,0-0.4-0.1-0.6
	c0-0.2-0.1-0.3-0.2-0.4s-0.3-0.2-0.5-0.2s-0.4,0.1-0.5,0.2s-0.2,0.3-0.2,0.5s0,0.4,0.1,0.5s0.2,0.3,0.3,0.4l1.1,0.9
	c0.2,0.2,0.5,0.5,0.6,0.7c0.2,0.3,0.3,0.6,0.3,1c0,0.3-0.1,0.6-0.2,0.8c-0.1,0.2-0.3,0.4-0.5,0.5C26.6,16.2,26.4,16.3,26.1,16.3z"/>
<path fill="#FFE32B" d="M29.9,16.3c-0.4,0-0.8-0.1-1-0.3c-0.2-0.2-0.4-0.4-0.5-0.8c-0.1-0.3-0.1-0.7-0.1-1.1v-2.2
	c0-0.4,0-0.8,0.1-1.1c0.1-0.3,0.3-0.6,0.5-0.7c0.2-0.2,0.6-0.3,1-0.3s0.7,0.1,0.9,0.2c0.2,0.1,0.4,0.4,0.5,0.6
	c0.1,0.3,0.2,0.6,0.2,1v0.6h-0.8v-0.4c0-0.2,0-0.4,0-0.6s-0.1-0.3-0.2-0.4s-0.3-0.1-0.5-0.1s-0.4,0.1-0.5,0.2s-0.2,0.3-0.2,0.5
	s-0.1,0.4-0.1,0.7v2.5c0,0.3,0,0.6,0.1,0.8c0.1,0.2,0.1,0.3,0.3,0.4c0.1,0.1,0.3,0.1,0.5,0.1s0.4-0.1,0.5-0.2s0.2-0.3,0.2-0.4
	c0-0.2,0-0.4,0-0.7v-0.5h0.8v0.5c0,0.4,0,0.7-0.1,1s-0.3,0.5-0.5,0.7C30.6,16.2,30.3,16.3,29.9,16.3z"/>
<path fill="#FFE32B" d="M33.9,16.3c-0.5,0-0.8-0.1-1.1-0.3c-0.2-0.2-0.4-0.4-0.5-0.8c-0.1-0.3-0.1-0.7-0.1-1.2V9.8H33V14
	c0,0.3,0,0.5,0.1,0.7c0,0.2,0.1,0.4,0.2,0.5c0.1,0.1,0.3,0.2,0.6,0.2c0.2,0,0.4-0.1,0.6-0.2c0.1-0.1,0.2-0.3,0.2-0.5
	s0.1-0.5,0.1-0.7V9.8h0.8V14c0,0.4,0,0.8-0.1,1.2c-0.1,0.3-0.3,0.6-0.5,0.8C34.7,16.2,34.4,16.3,33.9,16.3z"/>
<path fill="#FFE32B" d="M36.5,16.2V9.9H39v0.7h-1.6v2.1h1.3v0.6h-1.3v2.3H39v0.6H36.5z"/>
<path fill="none" stroke="#FFE32B" stroke-width="0.2767" stroke-linecap="round" stroke-linejoin="round" stroke-miterlimit="10" d="
	M36.9,7h0.9V4.5L36.9,7z M37.9,9.2V8.1h-2V6.9l1.2-3.5h2V7h0.8v1.1H39v1.1H37.9z"/>
<path fill="none" stroke="#FFE32B" stroke-width="0.4612" stroke-linecap="round" stroke-linejoin="round" stroke-miterlimit="10" d="
	M16.3,9.9V0.3l-3.6,8.8L16.3,9.9z"/>
<path fill="none" stroke="#FFE32B" stroke-width="0.4612" stroke-linecap="round" stroke-linejoin="round" stroke-miterlimit="10" d="
	M4.9,16l11.4-6.1l-2.5,3.3C13.8,13.1,4.9,16,4.9,16z"/>
<path fill="none" stroke="#FFE32B" stroke-width="0.4612" stroke-linecap="round" stroke-linejoin="round" stroke-miterlimit="10" d="
	M16.3,9.9L0.2,6.4L4.9,16C4.9,16,16.3,9.9,16.3,9.9z"/>
<path fill="none" stroke="#FFE32B" stroke-width="0.4612" stroke-linecap="round" stroke-linejoin="round" stroke-miterlimit="10" d="
	M7.6,8l1.2-3l1.7-4l0.7,2.4l1.5,5.5C12.7,9,7.6,8,7.6,8z"/>
<path fill="none" stroke="#FFE32B" stroke-width="0.4612" stroke-linecap="round" stroke-linejoin="round" stroke-miterlimit="10" d="
	M8.8,5L5,7.4L7.6,8C7.6,8,8.8,5,8.8,5z"/>
<path fill="none" stroke="#FFE32B" stroke-width="0.4612" stroke-linecap="round" stroke-linejoin="round" stroke-miterlimit="10" d="
	M16.3,0.2L12.7,9l-1.5-5.5C11.2,3.5,16.3,0.2,16.3,0.2z"/>
<path fill="#FFE32B" d="M18.1,17.1c0.1,0,0.1,0.1,0.2,0.1l-0.1,0.1l-0.1-0.1c0,0-0.1,0-0.2,0s-0.1,0-0.2,0.1c-0.1,0-0.1,0.1-0.1,0.2
	s-0.1,0.2-0.1,0.3c0,0.2,0,0.3,0.1,0.4s0.2,0.1,0.3,0.1c0.1,0,0.2,0,0.3-0.1v-0.4H18v-0.1h0.4v0.6c-0.1,0.1-0.3,0.1-0.4,0.1
	c-0.2,0-0.3-0.1-0.4-0.2s-0.1-0.3-0.1-0.5c0-0.1,0-0.3,0.1-0.4s0.1-0.2,0.2-0.2C17.9,17,18,17,18.1,17C17.9,17,18,17.1,18.1,17.1z"
	/>
<path fill="#FFE32B" d="M19.2,17.8c0-0.1,0-0.2-0.1-0.2c0-0.1-0.1-0.1-0.2-0.1s-0.2,0.1-0.2,0.3L19.2,17.8L19.2,17.8z M19.3,17.9
	h-0.6c0,0.1,0,0.2,0.1,0.2c0,0.1,0.1,0.1,0.2,0.1h0.1c0,0,0.1,0,0.1-0.1l0.1,0.1c-0.1,0.1-0.2,0.1-0.4,0.1c-0.1,0-0.3,0-0.3-0.1
	c-0.1-0.1-0.1-0.2-0.1-0.4c0-0.1,0-0.2,0.1-0.3c0-0.1,0.1-0.1,0.1-0.2c0.1,0,0.1-0.1,0.2-0.1s0.2,0,0.3,0.1
	C19.3,17.6,19.3,17.7,19.3,17.9L19.3,17.9z"/>
<path fill="#FFE32B" d="M20.8,17.4c0,0.1,0.1,0.1,0.1,0.2v0.7h-0.2v-0.7c0-0.1,0-0.2-0.1-0.2h-0.1l-0.1,0.1v0.7h-0.2v-0.7
	c0-0.1,0-0.2-0.1-0.2s-0.1,0-0.1,0l-0.1,0.1v0.7h-0.2v-1h0.2v0.1c0.1-0.1,0.2-0.2,0.3-0.2c0.1,0,0.1,0,0.2,0l0.1,0.1
	c0-0.1,0.1-0.1,0.1-0.1s0.1,0,0.2,0C20.7,17.4,20.8,17.4,20.8,17.4z"/>
<path fill="#FFE32B" d="M21.9,17.8c0-0.1,0-0.2-0.1-0.2c0-0.1-0.1-0.1-0.2-0.1s-0.2,0.1-0.2,0.3L21.9,17.8L21.9,17.8z M22,17.9h-0.6
	c0,0.1,0,0.2,0.1,0.2c0,0.1,0.1,0.1,0.2,0.1h0.1c0,0,0.1,0,0.1-0.1l0.1,0.1c-0.1,0.1-0.2,0.1-0.4,0.1c-0.1,0-0.3,0-0.3-0.1
	c-0.1-0.1-0.1-0.2-0.1-0.4c0-0.1,0-0.2,0.1-0.3c0-0.1,0.1-0.1,0.1-0.2c0.1,0,0.1-0.1,0.2-0.1s0.2,0,0.3,0.1C22,17.6,22,17.7,22,17.9
	L22,17.9z"/>
<path fill="#FFE32B" d="M22.5,17.4v1h-0.2v-1H22.5z M22.5,16.9C22.5,16.9,22.5,17,22.5,16.9c0,0.1,0,0.1,0,0.2h-0.1h-0.1V17v-0.1
	C22.3,16.9,22.4,16.9,22.5,16.9C22.4,16.9,22.5,16.9,22.5,16.9z"/>
<path fill="#FFE32B" d="M23.5,17.4c0.1,0.1,0.1,0.1,0.1,0.2v0.7h-0.2v-0.7c0-0.1,0-0.1,0-0.2h-0.1c-0.1,0-0.1,0-0.1,0l-0.1,0.1v0.7
	h-0.2v-1H23v0.1c0-0.1,0.1-0.1,0.1-0.1s0.1,0,0.2,0C23.4,17.4,23.5,17.4,23.5,17.4z"/>
<path fill="#FFE32B" d="M24.4,17.4c0.1,0,0.1,0,0.2,0.1l-0.1,0.1l-0.1-0.1h-0.1c-0.1,0-0.1,0-0.1,0v0.1v0.1c0,0,0.1,0,0.2,0.1
	c0.1,0,0.2,0.1,0.3,0.1c0.1,0,0.1,0.1,0.1,0.2s0,0.2-0.1,0.2c-0.1,0.1-0.2,0.1-0.3,0.1c-0.2,0-0.3,0-0.4-0.1l0.1-0.1
	c0.1,0.1,0.2,0.1,0.3,0.1c0.1,0,0.1,0,0.2,0l0.1-0.1v-0.1c0,0,0,0-0.1-0.1c0,0-0.1,0-0.2-0.1c-0.1,0-0.2-0.1-0.2-0.1
	s-0.1-0.1-0.1-0.2s0-0.1,0-0.1l0.1-0.1C24.3,17.4,24.3,17.4,24.4,17.4C24.3,17.4,24.4,17.4,24.4,17.4z"/>
<path fill="#FFE32B" d="M25.4,18.1v-0.2h-0.1c-0.2,0-0.3,0.1-0.3,0.2s0,0.1,0,0.1h0.1C25.2,18.3,25.3,18.2,25.4,18.1z M25.6,18.2
	C25.6,18.3,25.6,18.3,25.6,18.2v0.2c-0.1,0-0.1,0-0.1,0l-0.1-0.1c-0.1,0.1-0.2,0.2-0.3,0.2c-0.1,0-0.2,0-0.2-0.1
	c-0.1-0.1-0.1-0.1-0.1-0.2s0-0.2,0.1-0.2c0.1-0.1,0.2-0.1,0.3-0.1h0.2v-0.1c0-0.1,0-0.1-0.1-0.2c0,0-0.1,0-0.2,0s-0.2,0-0.3,0.1
	v-0.1c0.1,0,0.2-0.1,0.3-0.1c0.1,0,0.2,0,0.3,0.1c0.1,0.1,0.1,0.1,0.1,0.2L25.6,18.2C25.5,18.2,25.5,18.2,25.6,18.2z"/>
<path fill="#FFE32B" d="M27.1,17.4c0,0.1,0.1,0.1,0.1,0.2v0.7H27v-0.7c0-0.1,0-0.2-0.1-0.2h-0.1l-0.1,0.1v0.7h-0.2v-0.7
	c0-0.1,0-0.2-0.1-0.2s-0.1,0-0.1,0l-0.1,0.1v0.7H26v-1h0.2v0.1c0.1-0.1,0.2-0.2,0.3-0.2c0.1,0,0.1,0,0.2,0l0.1,0.1
	c0-0.1,0.1-0.1,0.1-0.1s0.1,0,0.2,0C27,17.4,27.1,17.4,27.1,17.4z"/>
<path fill="#FFE32B" d="M28.5,17.7c0.1,0,0.2,0,0.2-0.1c0,0,0.1-0.1,0.1-0.2s0-0.1-0.1-0.2c0,0-0.1-0.1-0.2-0.1h-0.2v0.5h0.2V17.7z
	 M28.5,17.8h-0.2v0.6h-0.2v-1.3h0.3c0.2,0,0.3,0,0.4,0.1s0.1,0.2,0.1,0.3c0,0.1,0,0.2-0.1,0.2C28.8,17.8,28.7,17.8,28.5,17.8
	l0.5,0.6h-0.2C28.8,18.4,28.5,17.8,28.5,17.8z"/>
<path fill="#FFE32B" d="M29.8,17.8c0-0.1,0-0.2-0.1-0.2c0-0.1-0.1-0.1-0.2-0.1s-0.2,0.1-0.2,0.3L29.8,17.8L29.8,17.8z M30,17.9h-0.6
	c0,0.1,0,0.2,0.1,0.2c0,0.1,0.1,0.1,0.2,0.1h0.1c0,0,0.1,0,0.1-0.1l0.1,0.1c-0.1,0.1-0.2,0.1-0.4,0.1c-0.1,0-0.3,0-0.3-0.1
	c-0.1-0.1-0.1-0.2-0.1-0.4c0-0.1,0-0.2,0.1-0.3c0-0.1,0.1-0.1,0.1-0.2s0.1-0.1,0.2-0.1s0.2,0,0.3,0.1C30,17.6,30,17.7,30,17.9
	L30,17.9z"/>
<path fill="#FFE32B" d="M30.8,18.3c-0.1,0-0.1,0.1-0.2,0.1s-0.2,0-0.2-0.1c0,0-0.1-0.1-0.1-0.2v-0.6h-0.2v-0.1h0.2v-0.2h0.2v0.2h0.2
	v0.1h-0.2v0.6c0,0.1,0,0.1,0,0.1s0,0,0.1,0h0.1C30.7,18.2,30.8,18.3,30.8,18.3z"/>
<path fill="#FFE32B" d="M31.5,18.3c-0.1,0-0.1,0.1-0.2,0.1s-0.2,0-0.2-0.1c0,0-0.1-0.1-0.1-0.2v-0.6h-0.2v-0.1H31v-0.2h0.2v0.2h0.2
	v0.1h-0.2v0.6c0,0.1,0,0.1,0,0.1s0,0,0.1,0h0.1L31.5,18.3z"/>
<path fill="#FFE32B" d="M32.2,17.8c0-0.1,0-0.2-0.1-0.2c0-0.1-0.1-0.1-0.2-0.1c-0.1,0-0.2,0.1-0.2,0.3L32.2,17.8L32.2,17.8z
	 M32.4,17.9h-0.6c0,0.1,0,0.2,0.1,0.2c0,0.1,0.1,0.1,0.2,0.1h0.1c0,0,0.1,0,0.1-0.1l0.1,0.1c-0.1,0.1-0.2,0.1-0.4,0.1
	c-0.1,0-0.3,0-0.3-0.1c-0.1-0.1-0.1-0.2-0.1-0.4c0-0.1,0-0.2,0.1-0.3c0-0.1,0.1-0.1,0.1-0.2c0.1,0,0.1-0.1,0.2-0.1
	c0.1,0,0.2,0,0.3,0.1C32.4,17.6,32.4,17.7,32.4,17.9L32.4,17.9z"/>
<path fill="#FFE32B" d="M33.4,17.4c0.1,0.1,0.1,0.1,0.1,0.2v0.7h-0.2v-0.7c0-0.1,0-0.1,0-0.2h-0.1c-0.1,0-0.1,0-0.1,0L33,17.5v0.7
	h-0.2v-1H33v0.1c0-0.1,0.1-0.1,0.1-0.1c0.1,0,0.1,0,0.2,0C33.2,17.4,33.3,17.4,33.4,17.4z"/>
<path fill="#FFE32B" d="M34.9,17.8c0-0.1,0-0.2-0.1-0.2c0-0.1-0.1-0.1-0.2-0.1c-0.1,0-0.2,0.1-0.2,0.3L34.9,17.8L34.9,17.8z
	 M35,17.9h-0.6c0,0.1,0,0.2,0.1,0.2c0,0.1,0.1,0.1,0.2,0.1h0.1c0,0,0.1,0,0.1-0.1l0.1,0.1c-0.1,0.1-0.2,0.1-0.4,0.1
	c-0.1,0-0.3,0-0.3-0.1c-0.1-0.1-0.1-0.2-0.1-0.4c0-0.1,0-0.2,0.1-0.3c0-0.1,0.1-0.1,0.1-0.2c0.1,0,0.1-0.1,0.2-0.1
	c0.1,0,0.2,0,0.3,0.1C35,17.6,35,17.7,35,17.9L35,17.9z"/>
<path fill="#FFE32B" d="M35.4,18.2C35.5,18.2,35.5,18.2,35.4,18.2c0,0.1,0,0.2,0,0.2h-0.1h-0.1v-0.1v-0.1
	C35.3,18.2,35.3,18.1,35.4,18.2C35.4,18.1,35.4,18.2,35.4,18.2z"/>
<path fill="#FFE32B" d="M36.5,17.1l-0.4,1.3h-0.2l-0.4-1.3h0.2l0.3,1.1l0.3-1.1H36.5z"/>
<path fill="#FFE32B" d="M36.8,18.2L36.8,18.2c0,0.1,0,0.2,0,0.2h-0.1h-0.1v-0.1v-0.1C36.6,18.2,36.6,18.1,36.8,18.2
	C36.7,18.1,36.7,18.2,36.8,18.2z"/>
</svg>
