<svg version="1.1" id="Ebene_1" xmlns="http://www.w3.org/2000/svg" xmlns:xlink="http://www.w3.org/1999/xlink" x="0px" y="0px"
	 width="1301.112px" height="530.539px" viewBox="0 0 1301.112 530.539" enable-background="new 0 0 1301.112 530.539"
	 xml:space="preserve">
<g>
	<path fill="#020203" d="M617.504,305.92c-14.403,0-25.45-2.861-33.14-8.591c-7.694-5.728-12.929-13.786-15.71-24.181
		c-2.786-10.391-4.174-22.541-4.174-36.453V104.875h26.512v133.048c0,8.512,0.571,16.287,1.719,23.322
		c1.143,7.038,3.64,12.604,7.487,16.692c3.843,4.092,9.612,6.137,17.306,6.137c7.855,0,13.662-2.045,17.429-6.137
		c3.762-4.089,6.217-9.654,7.364-16.692c1.143-7.035,1.719-14.81,1.719-23.322V104.875h26.266v131.822
		c0,13.912-1.393,26.062-4.174,36.453c-2.784,10.395-7.979,18.453-15.587,24.181C642.911,303.059,631.902,305.92,617.504,305.92"/>
	<polygon fill="#020203" points="695.958,303.711 695.958,104.875 714.86,104.875 771.32,236.941 771.32,104.875 794.395,104.875
		794.395,303.711 776.721,303.711 719.522,167.962 719.522,303.711 	"/>
	<rect x="820.069" y="104.874" fill="#020203" width="27.248" height="198.836"/>
	<polygon fill="#020203" points="899.554,303.711 899.554,125.495 865.922,125.495 865.922,104.875 959.941,104.875
		959.941,125.495 927.292,125.495 927.292,303.711 	"/>
	<polygon fill="#020203" points="978.545,303.711 978.545,104.875 1055.625,104.875 1055.625,125.495 1006.285,125.495
		1006.285,191.281 1046.298,191.281 1046.298,210.919 1006.285,210.919 1006.285,283.829 1056.117,283.829 1056.117,303.711 	"/>
	<path fill="#020203" d="M1081.29,303.711V104.874h43.204c14.729,0,26.389,2.252,34.98,6.751
		c8.593,4.503,14.729,11.253,18.409,20.252c3.685,9.003,5.525,20.213,5.525,33.63l-4.038,17.551l-14.323,41.496v39.577h15.743
		c0,0-1.383,6.132-2.907,10.123c-3.68,9.659-9.656,16.98-17.916,21.972c-8.267,4.993-19.356,7.486-33.265,7.486H1081.29z
		 M1109.029,283.829h15.71c10.144,0,17.346-1.965,21.602-5.892c4.254-3.929,6.833-9.654,7.734-17.185
		c0.896-7.525,1.349-16.608,1.349-27.248v-64.562c0-10.309-0.654-18.656-1.963-25.037c-1.312-6.383-4.174-11.047-8.593-13.993
		c-4.417-2.946-11.376-4.418-20.864-4.418h-14.975V283.829z"/>
	<path fill="#020203" d="M564.48,528.254V322.576h41.39c13.712,0,25.052,1.821,34.026,5.459c8.97,3.642,15.616,9.481,19.933,17.521
		c4.317,8.043,6.476,18.581,6.476,31.613c0,7.959-0.85,15.195-2.54,21.712c-1.693,6.518-4.404,12.02-8.125,16.503
		c-3.726,4.487-8.633,7.747-14.729,9.776l29.202,103.094h-27.678l-26.916-96.491h-22.345v96.491H564.48z M593.174,411.195h10.919
		c8.125,0,14.727-1.015,19.806-3.047c5.078-2.031,8.799-5.498,11.172-10.411c2.369-4.907,3.555-11.763,3.555-20.567
		c0-12.018-2.202-20.694-6.601-26.027c-4.405-5.331-13.121-7.999-26.155-7.999h-12.696V411.195z"/>
	<polygon fill="#020203" points="696.267,528.254 696.267,322.576 775.999,322.576 775.999,343.906 724.961,343.906
		724.961,411.957 766.35,411.957 766.35,432.27 724.961,432.27 724.961,507.687 776.507,507.687 776.507,528.254 	"/>
	<path fill="#020203" d="M848.112,530.539c-11.85,0-21.71-2.539-29.582-7.617c-7.871-5.078-13.839-12.101-17.901-21.075
		c-4.063-8.971-6.436-19.382-7.11-31.232l25.393-6.856c0.509,7.28,1.65,14.307,3.428,21.077c1.778,6.771,4.698,12.314,8.761,16.631
		s9.731,6.476,17.013,6.476c7.448,0,13.077-2.07,16.886-6.222c3.811-4.146,5.714-10.113,5.714-17.902
		c0-9.307-2.119-16.798-6.348-22.471c-4.234-5.67-9.565-11.384-15.997-17.141l-34.534-30.472
		c-6.772-5.922-11.769-12.398-14.981-19.424c-3.218-7.023-4.824-15.7-4.824-26.028c0-15.063,4.315-26.744,12.949-35.042
		c8.634-8.291,20.397-12.441,35.295-12.441c8.125,0,15.276,1.06,21.459,3.175c6.175,2.119,11.339,5.375,15.487,9.775
		c4.146,4.403,7.446,9.946,9.904,16.631c2.451,6.69,4.103,14.52,4.95,23.49l-24.377,6.601c-0.506-6.768-1.522-12.989-3.047-18.661
		c-1.522-5.671-4.189-10.243-7.998-13.714c-3.81-3.467-9.269-5.204-16.379-5.204c-7.109,0-12.656,1.902-16.632,5.712
		c-3.979,3.809-5.967,9.438-5.967,16.887c0,6.265,1.056,11.425,3.175,15.488c2.114,4.063,5.542,8.214,10.284,12.442l34.786,30.471
		c7.785,6.773,14.641,14.855,20.568,24.25c5.924,9.396,8.887,20.528,8.887,33.392c0,10.157-2.119,18.917-6.346,26.28
		c-4.234,7.364-10.032,12.996-17.396,16.888C866.27,528.591,857.762,530.539,848.112,530.539"/>
	<path fill="#020203" d="M971.266,530.539c-14.563,0-25.862-3.046-33.899-9.14c-8.044-6.095-13.629-14.304-16.76-24.631
		c-3.134-10.324-4.697-21.838-4.697-34.533v-72.623c0-13.88,1.563-25.984,4.697-36.312c3.131-10.323,8.716-18.323,16.76-23.996
		c8.037-5.669,19.336-8.506,33.899-8.506c12.861,0,23.062,2.374,30.596,7.11c7.53,4.739,12.95,11.513,16.252,20.313
		c3.3,8.804,4.95,19.386,4.95,31.742v16.251h-27.169V381.74c0-7.617-0.381-14.347-1.143-20.187
		c-0.763-5.841-2.837-10.368-6.222-13.584c-3.387-3.215-9.057-4.826-17.013-4.826c-8.126,0-14.052,1.738-17.773,5.208
		c-3.726,3.469-6.14,8.378-7.236,14.725c-1.104,6.35-1.652,13.757-1.652,22.219v81.511c0,10.328,0.846,18.497,2.539,24.504
		c1.691,6.011,4.483,10.284,8.379,12.823c3.892,2.539,9.142,3.809,15.744,3.809c7.785,0,13.371-1.734,16.76-5.206
		c3.383-3.467,5.498-8.252,6.347-14.347c0.847-6.093,1.271-13.203,1.271-21.329v-15.235h27.169v15.235
		c0,12.529-1.523,23.574-4.569,33.137c-3.048,9.565-8.298,17.014-15.745,22.345C995.3,527.874,984.805,530.539,971.266,530.539"/>
	<path fill="#020203" d="M1103.558,530.539c-14.896,0-26.324-2.959-34.278-8.887c-7.959-5.922-13.374-14.259-16.252-25.01
		c-2.881-10.748-4.316-23.318-4.316-37.708V322.576h27.424v137.627c0,8.804,0.591,16.847,1.778,24.122
		c1.181,7.281,3.765,13.038,7.744,17.269c3.977,4.232,9.943,6.348,17.9,6.348c8.127,0,14.133-2.115,18.029-6.348
		c3.893-4.23,6.432-9.987,7.619-17.269c1.183-7.275,1.777-15.318,1.777-24.122V322.576h27.168v136.358
		c0,14.39-1.438,26.96-4.316,37.708c-2.879,10.751-8.251,19.088-16.123,25.01C1129.84,527.58,1118.454,530.539,1103.558,530.539"/>
	<polygon fill="#020203" points="1188.369,528.254 1188.369,322.576 1268.101,322.576 1268.101,343.906 1217.062,343.906
		1217.062,411.957 1258.452,411.957 1258.452,432.27 1217.062,432.27 1217.062,507.687 1268.608,507.687 1268.608,528.254 	"/>
	<path fill="none" stroke="#020203" stroke-width="11" stroke-linecap="round" stroke-linejoin="round" stroke-miterlimit="10" d="
		M1231.341,299.163l0.356-35.032h-66.649v-39.577l39.823-115.375h63.511V227.52h27.23v36.61h-27.23l-0.356,35.032H1231.341z
		 M1201.372,227.741h30.025v-82.626L1201.372,227.741z"/>

		<polygon fill="none" stroke="#020203" stroke-width="15" stroke-linecap="round" stroke-linejoin="round" stroke-miterlimit="10" points="
		530.291,320.894 530.407,7.5 413.907,294.606 	"/>

		<polygon fill="none" stroke="#020203" stroke-width="15" stroke-linecap="round" stroke-linejoin="round" stroke-miterlimit="10" points="
		158.955,520.475 530.291,320.894 449.251,426.911 	"/>

		<polygon fill="none" stroke="#020203" stroke-width="15" stroke-linecap="round" stroke-linejoin="round" stroke-miterlimit="10" points="
		530.291,320.894 7.5,207.74 158.955,520.475 	"/>

		<polygon fill="none" stroke="#020203" stroke-width="15" stroke-linecap="round" stroke-linejoin="round" stroke-miterlimit="10" points="
		247.429,259.67 286.785,163.492 340.597,34.981 363.581,114.318 413.907,294.606 	"/>

		<polygon fill="none" stroke="#020203" stroke-width="15" stroke-linecap="round" stroke-linejoin="round" stroke-miterlimit="10" points="
		286.785,162.491 162.538,241.046 247.429,259.67 	"/>

		<polygon fill="none" stroke="#020203" stroke-width="15" stroke-linecap="round" stroke-linejoin="round" stroke-miterlimit="10" points="
		530.407,7.5 413.907,294.606 363.581,114.318 	"/>
</g>
</svg>
