<?xml version="1.0" encoding="utf-8"?>
<!-- Generator: Adobe Illustrator 25.4.1, SVG Export Plug-In . SVG Version: 6.00 Build 0)  -->
<svg version="1.1" id="Ebene_1" xmlns="http://www.w3.org/2000/svg" xmlns:xlink="http://www.w3.org/1999/xlink" x="0px" y="0px"
	 viewBox="0 0 305 305" style="enable-background:new 0 0 305 305;" xml:space="preserve">
<style type="text/css">
	.st0{opacity:5.000000e-02;enable-background:new    ;}
	.st1{fill:url(#Vereinigungsmenge_24_00000018933216317432887290000014434105499395102369_);}
	.st2{fill:#FFFFFF;}
</style>
<g id="Gruppe_20" transform="translate(-1176.431 -502.074)">
	<path id="Pfad_18" class="st0" d="M1212.6,568.9c24.8-28.7,54.2-38.8,70.5-44.2c20.8-6.8,60.6-20,103.4-2.5
		c58.4,23.9,77.9,86.7,82.2,100.7c4.8,15.6,29.4,94.6-16.4,142.5c-28.4,29.7-72,35-103.4,27c-31.8-8.1-31-24.7-94-73.7
		c-51.6-40.1-69.7-42.6-75.2-66.3C1171.3,616.5,1202.9,580.1,1212.6,568.9z"/>
	
		<linearGradient id="Vereinigungsmenge_24_00000038414684700899154920000003390575946632462742_" gradientUnits="userSpaceOnUse" x1="1309.6779" y1="2.2144" x2="1310.5099" y2="3.2565" gradientTransform="matrix(216 0 0 183 -281630.4375 167.004)">
		<stop  offset="0" style="stop-color:#D50018"/>
		<stop  offset="1" style="stop-color:#8301F1"/>
	</linearGradient>
	
		<path id="Vereinigungsmenge_24" style="fill:url(#Vereinigungsmenge_24_00000038414684700899154920000003390575946632462742_);" d="
		M1244.8,753.4c-4.4,0-8-3.6-8-8v-36.3c0-4.4,3.6-8,8-8h200c4.4,0,8,3.6,8,8v36.3c0,4.4-3.6,8-8,8H1244.8z M1244.8,688.6
		c-4.4,0-8-3.6-8-8v-36.3c0-4.4,3.6-8,8-8h200c4.4,0,8,3.6,8,8v36.3c0,4.4-3.6,8-8,8H1244.8z M1245.9,622.7c-5,0-9.1-4.1-9.1-9.1
		v-34.1c0-5,4.1-9.1,9.1-9.1l0,0h197.8c5,0,9.1,4.1,9.1,9.1v34.1c0,5-4.1,9.1-9.1,9.1H1245.9z M1240.3,579.5v34.1
		c0,3.1,2.5,5.7,5.7,5.7h197.8c3.1,0,5.7-2.5,5.7-5.7v-34.1c0-3.1-2.5-5.7-5.7-5.7H1246C1242.8,573.8,1240.3,576.3,1240.3,579.5z
		 M1434.7,582.9c0-2.5,2-4.5,4.5-4.5s4.5,2,4.5,4.5s-2,4.5-4.5,4.5l0,0C1436.7,587.4,1434.7,585.4,1434.7,582.9L1434.7,582.9
		L1434.7,582.9z M1419.9,582.9c0-2.5,2-4.5,4.5-4.5s4.5,2,4.5,4.5s-2,4.5-4.5,4.5l0,0C1421.9,587.4,1419.9,585.4,1419.9,582.9
		L1419.9,582.9L1419.9,582.9z M1405.1,582.9c0-2.5,2-4.5,4.5-4.5s4.5,2,4.5,4.5s-2,4.5-4.5,4.5S1405.1,585.4,1405.1,582.9
		L1405.1,582.9L1405.1,582.9z M1250.5,586.3c-1.9,0-3.4-1.5-3.5-3.4s1.5-3.4,3.4-3.5h0.1h63.7c1.9,0,3.4,1.5,3.5,3.4
		c0,1.9-1.5,3.4-3.4,3.5h-0.1H1250.5z"/>
	<circle id="Ellipse_55" class="st2" cx="1409.3" cy="648.9" r="4.5"/>
	<circle id="Ellipse_56" class="st2" cx="1424.3" cy="648.9" r="4.5"/>
	<circle id="Ellipse_57" class="st2" cx="1439.3" cy="648.9" r="4.5"/>
	<path id="Rechteck_146" class="st2" d="M1250.3,645.4h64c1.9,0,3.5,1.6,3.5,3.5l0,0c0,1.9-1.6,3.5-3.5,3.5h-64
		c-1.9,0-3.5-1.6-3.5-3.5l0,0C1246.8,646.9,1248.4,645.4,1250.3,645.4z"/>
	<circle id="Ellipse_58" class="st2" cx="1409.3" cy="713.9" r="4.5"/>
	<circle id="Ellipse_59" class="st2" cx="1424.3" cy="713.9" r="4.5"/>
	<circle id="Ellipse_60" class="st2" cx="1439.3" cy="713.9" r="4.5"/>
	<path id="Rechteck_147" class="st2" d="M1250.3,710.4h64c1.9,0,3.5,1.6,3.5,3.5l0,0c0,1.9-1.6,3.5-3.5,3.5h-64
		c-1.9,0-3.5-1.6-3.5-3.5l0,0C1246.8,711.9,1248.4,710.4,1250.3,710.4z"/>
</g>
</svg>
