<?xml version="1.0" encoding="utf-8"?>
<!-- Generator: Adobe Illustrator 25.4.1, SVG Export Plug-In . SVG Version: 6.00 Build 0)  -->
<svg version="1.1" id="Ebene_1" xmlns="http://www.w3.org/2000/svg" xmlns:xlink="http://www.w3.org/1999/xlink" x="0px" y="0px"
	 viewBox="0 0 305 305" style="enable-background:new 0 0 305 305;" xml:space="preserve">
<style type="text/css">
	.st0{opacity:5.000000e-02;enable-background:new    ;}
	.st1{fill:url(#Vereinigungsmenge_25_00000025412866172131151620000001289524842186334088_);}
	.st2{fill:#FFFFFF;}
	.st3{fill:url(#Rechteck_33_-_Kontur_00000098210814776713996650000003859225850579014058_);}
	.st4{opacity:0.28;fill:url(#Rechteck_122_00000105397665006017543900000004605877376604467084_);enable-background:new    ;}
	.st5{fill:url(#Rechteck_123_00000049187930823539963070000004623675832979880376_);}
	.st6{opacity:0.41;fill:url(#Rechteck_124_00000170262232730711042630000018432380262903202700_);enable-background:new    ;}
	.st7{fill:url(#Rechteck_119_00000013172280828768881010000013947203366634792327_);}
	.st8{opacity:0.41;fill:url(#Rechteck_125_00000012432398119580583480000003955636310244742589_);enable-background:new    ;}
	.st9{opacity:0.41;fill:url(#Rechteck_126_00000103944764735128622980000001843888285476872103_);enable-background:new    ;}
	.st10{opacity:0.41;fill:url(#Rechteck_127_00000160187023431074665840000011453152285261103512_);enable-background:new    ;}
	.st11{opacity:0.41;fill:url(#Rechteck_128_00000067946647378550177560000015592443356115430816_);enable-background:new    ;}
	.st12{fill:url(#Rechteck_37_-_Kontur_00000025425980697996961690000006127144069420562362_);}
	.st13{opacity:0.28;fill:url(#Rechteck_130_00000047759717059109707830000009631240265361827467_);enable-background:new    ;}
	.st14{fill:url(#Rechteck_131_00000182522178804588194690000005550563820923677877_);}
	.st15{opacity:0.41;fill:url(#Rechteck_132_00000057147608620312869010000005926973326948954553_);enable-background:new    ;}
	.st16{fill:url(#Rechteck_139_00000119095008421374887440000017235011972556239520_);}
	.st17{opacity:0.41;fill:url(#Rechteck_140_00000112596242600324867350000002763628013742386875_);enable-background:new    ;}
	.st18{opacity:0.41;fill:url(#Rechteck_141_00000169553767103466234200000011041645436331479938_);enable-background:new    ;}
	.st19{opacity:0.41;fill:url(#Rechteck_142_00000049908652168845251570000003864182035072498834_);enable-background:new    ;}
</style>
<g id="Gruppe_22" transform="translate(-374.825 -459.529)">
	<path id="Pfad_16" class="st0" d="M662.6,518.1c-17.5-19.9-43.8-24.6-141.5-33.6c-101-9.4-109.1-7.8-118.1-2.2
		c-45.6,29-24,111.2-16.1,141.5c6.6,25.2,15.5,57,48.7,82.3c11.8,9,36.7,28,72.8,27.2c32.7-0.6,56.6-17.1,84.5-36.2
		c37.9-26.1,56.7-54.1,62-62.4c12.4-19.6,28.4-44.8,24.3-76.6C678.1,550.4,675.9,533.2,662.6,518.1z"/>
	
		<linearGradient id="Vereinigungsmenge_25_00000140012951012167448610000010876375763717811643_" gradientUnits="userSpaceOnUse" x1="-286.0907" y1="31.0944" x2="-285.4785" y2="31.2707" gradientTransform="matrix(242.6 0 0 181.668 69895.2656 -5047.4492)">
		<stop  offset="0" style="stop-color:#D50018"/>
		<stop  offset="1" style="stop-color:#8301F1"/>
	</linearGradient>
	
		<path id="Vereinigungsmenge_25" style="fill:url(#Vereinigungsmenge_25_00000140012951012167448610000010876375763717811643_);" d="
		M414.9,691.7c-4.1,0-7.4-3.3-7.4-7.4V575.1c0-4.1,3.3-7.4,7.4-7.4h18.7v-36.4c0-4.1,3.3-7.4,7.4-7.4h183.2c4.1,0,7.4,3.3,7.4,7.4
		v124.8c0,4.1-3.3,7.4-7.4,7.4H570v9.4h-74v-9.4h-17.7v20.8c0,4.1-3.3,7.4-7.4,7.4H414.9z"/>
	<path id="Differenzmenge_1" class="st2" d="M627.3,639.6H478.3v-64.4c0-4.1-3.3-7.4-7.4-7.4h-33.2v-31.3h189.6L627.3,639.6
		L627.3,639.6z"/>
	<rect id="Rechteck_120" x="510.7" y="650" class="st2" width="43.8" height="3.1"/>
	<circle id="Ellipse_47" class="st2" cx="532.5" cy="530.2" r="3.1"/>
	<path id="Rechteck_121" class="st2" d="M570.5,557.3h81.4c2.6,0,4.6,2,4.6,4.6v17.8c0,2.6-2,4.6-4.6,4.6h-81.4
		c-2.6,0-4.6-2-4.6-4.6v-17.8C565.9,559.3,567.9,557.3,570.5,557.3z"/>
	
		<linearGradient id="Rechteck_33_-_Kontur_00000119837400299150833200000009294495686682433960_" gradientUnits="userSpaceOnUse" x1="-280.0327" y1="43.9802" x2="-279.4205" y2="44.1565" gradientTransform="matrix(98.169 0 0 29.342 28089.6582 -720.6844)">
		<stop  offset="0" style="stop-color:#D50018"/>
		<stop  offset="1" style="stop-color:#8301F1"/>
	</linearGradient>
	
		<path id="Rechteck_33_-_Kontur" style="fill:url(#Rechteck_33_-_Kontur_00000119837400299150833200000009294495686682433960_);" d="
		M571,559.4c-1.8,0-3.1,1.4-3.1,3.1v16.7c0,1.8,1.4,3.1,3.1,3.1h80.2c1.8,0,3.1-1.4,3.1-3.1v-16.7c0-1.8-1.4-3.1-3.1-3.1H571
		 M571,557.3h80.2c2.9,0,5.2,2.3,5.2,5.2v16.7c0,2.9-2.3,5.2-5.2,5.2H571c-2.9,0-5.2-2.3-5.2-5.2v-16.7
		C565.9,559.6,568.2,557.3,571,557.3z"/>
	
		<linearGradient id="Rechteck_122_00000160171838462763794750000006435175286831559830_" gradientUnits="userSpaceOnUse" x1="-226.5345" y1="57.1438" x2="-225.9224" y2="57.3201" gradientTransform="matrix(15.797 0 0 15.797 4156.0015 -332.3865)">
		<stop  offset="0" style="stop-color:#D50018"/>
		<stop  offset="1" style="stop-color:#8301F1"/>
	</linearGradient>
	
		<path id="Rechteck_122" style="opacity:0.28;fill:url(#Rechteck_122_00000160171838462763794750000006435175286831559830_);enable-background:new    ;" d="
		M578.5,563.6h1.7c3.6,0,6.5,2.9,6.5,6.5v1.7c0,3.6-2.9,6.5-6.5,6.5h-1.7c-3.6,0-6.5-2.9-6.5-6.5V570
		C572.1,566.4,575,563.6,578.5,563.6z"/>
	
		<linearGradient id="Rechteck_123_00000172441911986105574390000004876943730468043711_" gradientUnits="userSpaceOnUse" x1="-274.3835" y1="128.5242" x2="-273.7714" y2="128.7005" gradientTransform="matrix(63.189 0 0 4.513 17950.2246 -14.5436)">
		<stop  offset="0" style="stop-color:#D50018"/>
		<stop  offset="1" style="stop-color:#8301F1"/>
	</linearGradient>
	
		<rect id="Rechteck_123" x="590.9" y="563.6" style="fill:url(#Rechteck_123_00000172441911986105574390000004876943730468043711_);" width="58.4" height="4.2"/>
	
		<linearGradient id="Rechteck_124_00000109016408919938919480000002722315601877766808_" gradientUnits="userSpaceOnUse" x1="-268.5604" y1="128.39" x2="-267.9482" y2="128.5664" gradientTransform="matrix(46.263 0 0 4.513 13030.8877 -6.6447)">
		<stop  offset="0" style="stop-color:#D50018"/>
		<stop  offset="1" style="stop-color:#8301F1"/>
	</linearGradient>
	
		<rect id="Rechteck_124" x="590.9" y="570.9" style="opacity:0.41;fill:url(#Rechteck_124_00000109016408919938919480000002722315601877766808_);enable-background:new    ;" width="42.7" height="4.2"/>
	
		<linearGradient id="Rechteck_119_00000059990414754054852330000006765294859671929000_" gradientUnits="userSpaceOnUse" x1="-280.0561" y1="85.8418" x2="-279.444" y2="86.0182" gradientTransform="matrix(99.297 0 0 7.899 28295.6328 -125.716)">
		<stop  offset="0" style="stop-color:#D50018"/>
		<stop  offset="1" style="stop-color:#8301F1"/>
	</linearGradient>
	
		<rect id="Rechteck_119" x="453.3" y="549" style="fill:url(#Rechteck_119_00000059990414754054852330000006765294859671929000_);" width="91.7" height="7.3"/>
	
		<linearGradient id="Rechteck_125_00000021839648014056449950000007703303179332608664_" gradientUnits="userSpaceOnUse" x1="-276.6396" y1="128.5547" x2="-276.0274" y2="128.731" gradientTransform="matrix(74.473 0 0 4.513 21080.8379 -16.8009)">
		<stop  offset="0" style="stop-color:#D50018"/>
		<stop  offset="1" style="stop-color:#8301F1"/>
	</linearGradient>
	
		<rect id="Rechteck_125" x="453.3" y="561.4" style="opacity:0.41;fill:url(#Rechteck_125_00000021839648014056449950000007703303179332608664_);enable-background:new    ;" width="68.8" height="4.2"/>
	
		<linearGradient id="Rechteck_126_00000127033908513175577400000006526835743135243666_" gradientUnits="userSpaceOnUse" x1="-276.6381" y1="128.3961" x2="-276.0259" y2="128.5724" gradientTransform="matrix(74.473 0 0 4.513 21080.8379 -7.7736)">
		<stop  offset="0" style="stop-color:#D50018"/>
		<stop  offset="1" style="stop-color:#8301F1"/>
	</linearGradient>
	
		<rect id="Rechteck_126" x="453.3" y="569.8" style="opacity:0.41;fill:url(#Rechteck_126_00000127033908513175577400000006526835743135243666_);enable-background:new    ;" width="68.8" height="4.2"/>
	
		<linearGradient id="Rechteck_127_00000111164232438071606770000000748520858308979595_" gradientUnits="userSpaceOnUse" x1="-276.2151" y1="128.2566" x2="-275.6031" y2="128.433" gradientTransform="matrix(72.216 0 0 4.513 20424.8691 1.2533)">
		<stop  offset="0" style="stop-color:#D50018"/>
		<stop  offset="1" style="stop-color:#8301F1"/>
	</linearGradient>
	
		<rect id="Rechteck_127" x="453.3" y="578.2" style="opacity:0.41;fill:url(#Rechteck_127_00000111164232438071606770000000748520858308979595_);enable-background:new    ;" width="66.7" height="4.2"/>
	
		<linearGradient id="Rechteck_128_00000021832590465683562920000011698844790239747263_" gradientUnits="userSpaceOnUse" x1="-272.9632" y1="128.0981" x2="-272.351" y2="128.2744" gradientTransform="matrix(58.675 0 0 4.513 16489.3398 10.2801)">
		<stop  offset="0" style="stop-color:#D50018"/>
		<stop  offset="1" style="stop-color:#8301F1"/>
	</linearGradient>
	
		<rect id="Rechteck_128" x="453.3" y="586.5" style="opacity:0.41;fill:url(#Rechteck_128_00000021832590465683562920000011698844790239747263_);enable-background:new    ;" width="54.2" height="4.2"/>
	<path id="Rechteck_129" class="st2" d="M570.5,590.6h81.4c2.6,0,4.6,2,4.6,4.6v17.8c0,2.6-2,4.6-4.6,4.6h-81.4
		c-2.6,0-4.6-2-4.6-4.6v-17.8C565.9,592.7,567.9,590.6,570.5,590.6z"/>
	
		<linearGradient id="Rechteck_37_-_Kontur_00000031177429671598763070000009052240321386994612_" gradientUnits="userSpaceOnUse" x1="-280.0326" y1="43.8857" x2="-279.4204" y2="44.0619" gradientTransform="matrix(98.169 0 0 29.342 28089.6582 -684.577)">
		<stop  offset="0" style="stop-color:#D50018"/>
		<stop  offset="1" style="stop-color:#8301F1"/>
	</linearGradient>
	
		<path id="Rechteck_37_-_Kontur" style="fill:url(#Rechteck_37_-_Kontur_00000031177429671598763070000009052240321386994612_);" d="
		M571,592.7c-1.8,0-3.1,1.4-3.1,3.1v16.7c0,1.8,1.4,3.1,3.1,3.1h80.2c1.8,0,3.1-1.4,3.1-3.1v-16.7c0-1.8-1.4-3.1-3.1-3.1H571
		 M571,590.6h80.2c2.9,0,5.2,2.3,5.2,5.2v16.7c0,2.9-2.3,5.2-5.2,5.2H571c-2.9,0-5.2-2.3-5.2-5.2v-16.7
		C565.9,592.9,568.2,590.6,571,590.6z"/>
	
		<linearGradient id="Rechteck_130_00000059268863508350818670000013920227303900570269_" gradientUnits="userSpaceOnUse" x1="-226.5344" y1="56.9681" x2="-225.9222" y2="57.1445" gradientTransform="matrix(15.797 0 0 15.797 4156.0015 -296.2791)">
		<stop  offset="0" style="stop-color:#D50018"/>
		<stop  offset="1" style="stop-color:#8301F1"/>
	</linearGradient>
	
		<path id="Rechteck_130" style="opacity:0.28;fill:url(#Rechteck_130_00000059268863508350818670000013920227303900570269_);enable-background:new    ;" d="
		M578.5,596.9h1.7c3.6,0,6.5,2.9,6.5,6.5v1.7c0,3.6-2.9,6.5-6.5,6.5h-1.7c-3.6,0-6.5-2.9-6.5-6.5v-1.7
		C572.1,599.8,575,596.9,578.5,596.9z"/>
	
		<linearGradient id="Rechteck_131_00000136382160332743371620000017324846583746943137_" gradientUnits="userSpaceOnUse" x1="-274.3831" y1="127.9092" x2="-273.7709" y2="128.0855" gradientTransform="matrix(63.189 0 0 4.513 17950.2246 21.5643)">
		<stop  offset="0" style="stop-color:#D50018"/>
		<stop  offset="1" style="stop-color:#8301F1"/>
	</linearGradient>
	
		<rect id="Rechteck_131" x="590.9" y="596.9" style="fill:url(#Rechteck_131_00000136382160332743371620000017324846583746943137_);" width="58.4" height="4.2"/>
	
		<linearGradient id="Rechteck_132_00000058567232851192542910000017801181588450623918_" gradientUnits="userSpaceOnUse" x1="-268.5599" y1="127.775" x2="-267.9478" y2="127.9513" gradientTransform="matrix(46.263 0 0 4.513 13030.8877 29.4632)">
		<stop  offset="0" style="stop-color:#D50018"/>
		<stop  offset="1" style="stop-color:#8301F1"/>
	</linearGradient>
	
		<rect id="Rechteck_132" x="590.9" y="604.2" style="opacity:0.41;fill:url(#Rechteck_132_00000058567232851192542910000017801181588450623918_);enable-background:new    ;" width="42.7" height="4.2"/>
	<rect id="Rechteck_134" x="411.7" y="579.2" class="st2" width="62.5" height="96.9"/>
	<circle id="Ellipse_54" class="st2" cx="443.4" cy="683.9" r="4.7"/>
	<rect id="Rechteck_135" x="433.6" y="572.9" class="st2" width="18.7" height="2.1"/>
	
		<linearGradient id="Rechteck_139_00000114782036657702727740000006081395518021120189_" gradientUnits="userSpaceOnUse" x1="-265.1873" y1="85.4595" x2="-264.5751" y2="85.6359" gradientTransform="matrix(40.621 0 0 7.899 11203.7979 -86.2233)">
		<stop  offset="0" style="stop-color:#D50018"/>
		<stop  offset="1" style="stop-color:#8301F1"/>
	</linearGradient>
	
		<rect id="Rechteck_139" x="417.9" y="585.5" style="fill:url(#Rechteck_139_00000114782036657702727740000006081395518021120189_);" width="37.5" height="7.3"/>
	
		<linearGradient id="Rechteck_140_00000140007030945996794200000000589346302741176765_" gradientUnits="userSpaceOnUse" x1="-271.848" y1="127.8851" x2="-271.2358" y2="128.0614" gradientTransform="matrix(55.29 0 0 4.513 15467.166 22.6922)">
		<stop  offset="0" style="stop-color:#D50018"/>
		<stop  offset="1" style="stop-color:#8301F1"/>
	</linearGradient>
	
		<rect id="Rechteck_140" x="417.9" y="597.9" style="opacity:0.41;fill:url(#Rechteck_140_00000140007030945996794200000000589346302741176765_);enable-background:new    ;" width="51.1" height="4.2"/>
	
		<linearGradient id="Rechteck_141_00000085933007589928627130000012858755165201902235_" gradientUnits="userSpaceOnUse" x1="-271.8481" y1="127.7511" x2="-271.2359" y2="127.9274" gradientTransform="matrix(55.29 0 0 4.513 15467.166 30.5912)">
		<stop  offset="0" style="stop-color:#D50018"/>
		<stop  offset="1" style="stop-color:#8301F1"/>
	</linearGradient>
	
		<rect id="Rechteck_141" x="417.9" y="605.2" style="opacity:0.41;fill:url(#Rechteck_141_00000085933007589928627130000012858755165201902235_);enable-background:new    ;" width="51.1" height="4.2"/>
	
		<linearGradient id="Rechteck_142_00000111183397670886776510000010362960156543286159_" gradientUnits="userSpaceOnUse" x1="-266.5074" y1="127.6171" x2="-265.8952" y2="127.7934" gradientTransform="matrix(42.878 0 0 4.513 11859.7676 38.4901)">
		<stop  offset="0" style="stop-color:#D50018"/>
		<stop  offset="1" style="stop-color:#8301F1"/>
	</linearGradient>
	
		<rect id="Rechteck_142" x="417.9" y="612.5" style="opacity:0.41;fill:url(#Rechteck_142_00000111183397670886776510000010362960156543286159_);enable-background:new    ;" width="39.6" height="4.2"/>
</g>
</svg>
