<?xml version="1.0" encoding="utf-8"?>
<!-- Generator: Adobe Illustrator 27.2.0, SVG Export Plug-In . SVG Version: 6.00 Build 0)  -->
<svg version="1.1" id="Ebene_1" xmlns="http://www.w3.org/2000/svg" xmlns:xlink="http://www.w3.org/1999/xlink" x="0px" y="0px"
	 width="305px" height="305px" viewBox="0 0 305 305" style="enable-background:new 0 0 305 305;" xml:space="preserve">
<style type="text/css">
	.st0{opacity:5.000000e-02;enable-background:new    ;}
	.st1{fill:#FFFFFF;}
	.st2{fill:url(#Rechteck_33_-_Kontur_00000082331251990356910980000001086752861968651160_);}
	.st3{fill:url(#Rechteck_119_00000087408363248539446530000011087667858239974535_);}
	.st4{opacity:0.41;fill:url(#Rechteck_125_00000085963376154183847150000013708511119958401203_);enable-background:new    ;}
	.st5{opacity:0.41;fill:url(#Rechteck_126_00000106109996927221628590000011199051815984134569_);enable-background:new    ;}
	.st6{opacity:0.41;fill:url(#Rechteck_127_00000108268070838388135950000002760896558596609204_);enable-background:new    ;}
	.st7{opacity:0.41;fill:url(#Rechteck_128_00000134940074292746340390000014238538768502403465_);enable-background:new    ;}
	.st8{fill:url(#Rechteck_37_-_Kontur_00000125560436484496305640000008127017969358993335_);}
	.st9{opacity:0.28;fill:url(#Rechteck_130_00000090260920688030882860000013448983746621801107_);enable-background:new    ;}
	.st10{fill:url(#Rechteck_131_00000171706660301725344260000015418157870329549457_);}
	.st11{opacity:0.41;fill:url(#Rechteck_132_00000052786760420450871780000011898792887424634012_);enable-background:new    ;}
	.st12{fill:url(#Rechteck_139_00000057838187112703423910000002642037091117938306_);}
	.st13{opacity:0.41;fill:url(#Rechteck_140_00000168824227503232388080000011230825773211995300_);enable-background:new    ;}
	.st14{opacity:0.41;fill:url(#Rechteck_141_00000008849825551783423130000007338495599804079246_);enable-background:new    ;}
	.st15{opacity:0.41;fill:url(#Rechteck_142_00000139985300153676290800000003235063225167445135_);enable-background:new    ;}
	.st16{fill:url(#SVGID_1_);}
	.st17{opacity:0.28;fill:url(#Rechteck_122_00000061454650269131475140000017870615467584148625_);enable-background:new    ;}
	.st18{fill:url(#Rechteck_123_00000078037691151365515540000001854663731072231304_);}
	.st19{opacity:0.41;fill:url(#Rechteck_124_00000018215256665366145010000009871496709746401459_);enable-background:new    ;}
	.st20{fill:url(#SVGID_00000056414511305389392580000010391178596166604987_);}
	.st21{fill:url(#SVGID_00000016068967980915581740000012989737664930272167_);}
</style>
<path id="Pfad_16" class="st0" d="M287.8,58.6C270.3,38.7,244,34,146.3,25c-101-9.4-109.1-7.8-118.1-2.2
	c-45.6,29-24,111.2-16.1,141.5c6.6,25.2,15.5,57,48.7,82.3c11.8,9,36.7,28,72.8,27.2c32.7-0.6,56.6-17.1,84.5-36.2
	c37.9-26.1,56.7-54.1,62-62.4c12.4-19.6,28.4-44.8,24.3-76.6C303.3,90.9,301.1,73.7,287.8,58.6z"/>
<rect id="Rechteck_120" x="135.9" y="190.5" class="st1" width="43.8" height="3.1"/>
<circle id="Ellipse_47" class="st1" cx="157.7" cy="70.7" r="3.1"/>
<linearGradient id="Rechteck_33_-_Kontur_00000103263517712202588600000001683239475043255733_" gradientUnits="userSpaceOnUse" x1="-423.556" y1="520.775" x2="-422.9438" y2="520.5987" gradientTransform="matrix(98.169 0 0 -29.342 41804.3398 15390.8662)">
	<stop  offset="0" style="stop-color:#D50018"/>
	<stop  offset="1" style="stop-color:#8301F1"/>
</linearGradient>
<path id="Rechteck_33_-_Kontur" style="fill:url(#Rechteck_33_-_Kontur_00000103263517712202588600000001683239475043255733_);" d="
	M196.2,99.9 M196.2,99.9c-1.8,0-3.1,1.4-3.1,3.1v16.7c0,1.8,1.4,3.1,3.1,3.1h80.2c1.8,0,3.1-1.4,3.1-3.1V103c0-1.8-1.4-3.1-3.1-3.1
	 M196.2,97.8h80.2c2.9,0,5.2,2.3,5.2,5.2v16.7c0,2.9-2.3,5.2-5.2,5.2h-80.2c-2.9,0-5.2-2.3-5.2-5.2V103
	C191.1,100.1,193.4,97.8,196.2,97.8z"/>
<linearGradient id="Rechteck_119_00000032609372366738934800000013105716193857846690_" gradientUnits="userSpaceOnUse" x1="-423.5965" y1="454.1174" x2="-422.9844" y2="453.941" gradientTransform="matrix(99.297 0 0 -7.899 42173.8711 3679.9121)">
	<stop  offset="0" style="stop-color:#D50018"/>
	<stop  offset="1" style="stop-color:#8301F1"/>
</linearGradient>
<rect id="Rechteck_119" x="78.5" y="89.5" style="fill:url(#Rechteck_119_00000032609372366738934800000013105716193857846690_);" width="91.7" height="7.3"/>
<linearGradient id="Rechteck_125_00000010313138447220341350000005775237345526146451_" gradientUnits="userSpaceOnUse" x1="-419.6911" y1="385.9563" x2="-419.0789" y2="385.78" gradientTransform="matrix(74.473 0 0 -4.513 31359.5977 1845.6356)">
	<stop  offset="0" style="stop-color:#D50018"/>
	<stop  offset="1" style="stop-color:#8301F1"/>
</linearGradient>
<rect id="Rechteck_125" x="78.5" y="101.9" style="opacity:0.41;fill:url(#Rechteck_125_00000010313138447220341350000005775237345526146451_);enable-background:new    ;" width="68.8" height="4.2"/>
<linearGradient id="Rechteck_126_00000016791448351085439390000008430522686445557637_" gradientUnits="userSpaceOnUse" x1="-419.695" y1="386.0964" x2="-419.0828" y2="385.9201" gradientTransform="matrix(74.473 0 0 -4.513 31359.5977 1854.663)">
	<stop  offset="0" style="stop-color:#D50018"/>
	<stop  offset="1" style="stop-color:#8301F1"/>
</linearGradient>
<rect id="Rechteck_126" x="78.5" y="110.3" style="opacity:0.41;fill:url(#Rechteck_126_00000016791448351085439390000008430522686445557637_);enable-background:new    ;" width="68.8" height="4.2"/>
<linearGradient id="Rechteck_127_00000061467362086657735020000013426308368241128867_" gradientUnits="userSpaceOnUse" x1="-419.0175" y1="386.2265" x2="-418.5692" y2="386.0973" gradientTransform="matrix(72.216 0 0 -4.513 30376.3652 1863.6898)">
	<stop  offset="0" style="stop-color:#D50018"/>
	<stop  offset="1" style="stop-color:#8301F1"/>
</linearGradient>
<rect id="Rechteck_127" x="101.5" y="118.7" style="opacity:0.41;fill:url(#Rechteck_127_00000061467362086657735020000013426308368241128867_);enable-background:new    ;" width="43.7" height="4.2"/>
<linearGradient id="Rechteck_128_00000083057527781259382900000010556333804740085391_" gradientUnits="userSpaceOnUse" x1="-415.2685" y1="386.3854" x2="-414.8487" y2="386.2645" gradientTransform="matrix(58.675 0 0 -4.513 24477.3906 1872.7167)">
	<stop  offset="0" style="stop-color:#D50018"/>
	<stop  offset="1" style="stop-color:#8301F1"/>
</linearGradient>
<rect id="Rechteck_128" x="100.4" y="127" style="opacity:0.41;fill:url(#Rechteck_128_00000083057527781259382900000010556333804740085391_);enable-background:new    ;" width="32.2" height="4.2"/>
<linearGradient id="Rechteck_37_-_Kontur_00000181050131253934193470000012456984562422213041_" gradientUnits="userSpaceOnUse" x1="-423.5556" y1="520.8705" x2="-422.9434" y2="520.6943" gradientTransform="matrix(98.169 0 0 -29.342 41804.3398 15426.9736)">
	<stop  offset="0" style="stop-color:#D50018"/>
	<stop  offset="1" style="stop-color:#8301F1"/>
</linearGradient>
<path id="Rechteck_37_-_Kontur" style="fill:url(#Rechteck_37_-_Kontur_00000181050131253934193470000012456984562422213041_);" d="
	M196.2,133.2c-1.8,0-3.1,1.4-3.1,3.1V153c0,1.8,1.4,3.1,3.1,3.1h80.2c1.8,0,3.1-1.4,3.1-3.1v-16.7c0-1.8-1.4-3.1-3.1-3.1H196.2
	 M196.2,131.1h80.2c2.9,0,5.2,2.3,5.2,5.2V153c0,2.9-2.3,5.2-5.2,5.2h-80.2c-2.9,0-5.2-2.3-5.2-5.2v-16.7
	C191.1,133.4,193.4,131.1,196.2,131.1z"/>
<linearGradient id="Rechteck_130_00000161599843550250685680000017518299231803776954_" gradientUnits="userSpaceOnUse" x1="-362.3563" y1="499.9536" x2="-361.7441" y2="499.7772" gradientTransform="matrix(15.797 0 0 -15.797 5926.7412 8041.9321)">
	<stop  offset="0" style="stop-color:#D50018"/>
	<stop  offset="1" style="stop-color:#8301F1"/>
</linearGradient>
<path id="Rechteck_130" style="opacity:0.28;fill:url(#Rechteck_130_00000161599843550250685680000017518299231803776954_);enable-background:new    ;" d="
	M203.7,137.4h1.7c3.6,0,6.5,2.9,6.5,6.5v1.7c0,3.6-2.9,6.5-6.5,6.5h-1.7c-3.6,0-6.5-2.9-6.5-6.5v-1.7
	C197.3,140.3,200.2,137.4,203.7,137.4z"/>
<linearGradient id="Rechteck_131_00000036224279652442689980000016333594808375137965_" gradientUnits="userSpaceOnUse" x1="-417.0895" y1="386.5928" x2="-416.4774" y2="386.4165" gradientTransform="matrix(63.189 0 0 -4.513 26592.8047 1884.0009)">
	<stop  offset="0" style="stop-color:#D50018"/>
	<stop  offset="1" style="stop-color:#8301F1"/>
</linearGradient>
<rect id="Rechteck_131" x="216.1" y="137.4" style="fill:url(#Rechteck_131_00000036224279652442689980000016333594808375137965_);" width="58.4" height="4.2"/>
<linearGradient id="Rechteck_132_00000044169612067816413950000010226151493941172158_" gradientUnits="userSpaceOnUse" x1="-410.4272" y1="386.7255" x2="-409.8151" y2="386.5492" gradientTransform="matrix(46.263 0 0 -4.513 19219.1973 1891.8998)">
	<stop  offset="0" style="stop-color:#D50018"/>
	<stop  offset="1" style="stop-color:#8301F1"/>
</linearGradient>
<rect id="Rechteck_132" x="216.1" y="144.7" style="opacity:0.41;fill:url(#Rechteck_132_00000044169612067816413950000010226151493941172158_);enable-background:new    ;" width="42.7" height="4.2"/>
<circle id="Ellipse_54" class="st1" cx="68.6" cy="224.4" r="4.7"/>
<rect id="Rechteck_135" x="58.8" y="113.4" class="st1" width="18.7" height="2.1"/>
<linearGradient id="Rechteck_139_00000145042240891124024330000018004770052511959198_" gradientUnits="userSpaceOnUse" x1="-406.6193" y1="454.4966" x2="-406.0071" y2="454.3203" gradientTransform="matrix(40.621 0 0 -7.899 16574.0176 3719.4048)">
	<stop  offset="0" style="stop-color:#D50018"/>
	<stop  offset="1" style="stop-color:#8301F1"/>
</linearGradient>
<rect id="Rechteck_139" x="43.1" y="126" style="fill:url(#Rechteck_139_00000145042240891124024330000018004770052511959198_);" width="37.5" height="7.3"/>
<linearGradient id="Rechteck_140_00000002378647805148913940000015861424744395548292_" gradientUnits="userSpaceOnUse" x1="-414.2256" y1="386.6202" x2="-413.6135" y2="386.4439" gradientTransform="matrix(55.29 0 0 -4.513 22964.3906 1885.1288)">
	<stop  offset="0" style="stop-color:#D50018"/>
	<stop  offset="1" style="stop-color:#8301F1"/>
</linearGradient>
<rect id="Rechteck_140" x="43.1" y="138.4" style="opacity:0.41;fill:url(#Rechteck_140_00000002378647805148913940000015861424744395548292_);enable-background:new    ;" width="51.1" height="4.2"/>
<linearGradient id="Rechteck_141_00000066481914293852765060000001762592037010964158_" gradientUnits="userSpaceOnUse" x1="-414.2261" y1="386.7531" x2="-413.6139" y2="386.5768" gradientTransform="matrix(55.29 0 0 -4.513 22964.3906 1893.0277)">
	<stop  offset="0" style="stop-color:#D50018"/>
	<stop  offset="1" style="stop-color:#8301F1"/>
</linearGradient>
<rect id="Rechteck_141" x="43.1" y="145.7" style="opacity:0.41;fill:url(#Rechteck_141_00000066481914293852765060000001762592037010964158_);enable-background:new    ;" width="51.1" height="4.2"/>
<linearGradient id="Rechteck_142_00000044898689524980061060000012604603608427893431_" gradientUnits="userSpaceOnUse" x1="-408.1266" y1="386.8858" x2="-407.5144" y2="386.7095" gradientTransform="matrix(42.878 0 0 -4.513 17557.252 1900.9266)">
	<stop  offset="0" style="stop-color:#D50018"/>
	<stop  offset="1" style="stop-color:#8301F1"/>
</linearGradient>
<rect id="Rechteck_142" x="43.1" y="153" style="opacity:0.41;fill:url(#Rechteck_142_00000044898689524980061060000012604603608427893431_);enable-background:new    ;" width="39.6" height="4.2"/>
<linearGradient id="SVGID_1_" gradientUnits="userSpaceOnUse" x1="227.5518" y1="102.383" x2="271.0941" y2="89.8441">
	<stop  offset="0" style="stop-color:#D50018"/>
	<stop  offset="1" style="stop-color:#8301F1"/>
</linearGradient>
<path class="st16" d="M276.4,99.9h-80.2"/>
<linearGradient id="Rechteck_122_00000088120209576938314620000007003674749275885493_" gradientUnits="userSpaceOnUse" x1="-362.357" y1="499.776" x2="-361.7449" y2="499.5997" gradientTransform="matrix(15.797 0 0 -15.797 5926.7412 8005.8247)">
	<stop  offset="0" style="stop-color:#D50018"/>
	<stop  offset="1" style="stop-color:#8301F1"/>
</linearGradient>
<path id="Rechteck_122" style="opacity:0.28;fill:url(#Rechteck_122_00000088120209576938314620000007003674749275885493_);enable-background:new    ;" d="
	M203.7,104.1h1.7c3.6,0,6.5,2.9,6.5,6.5v1.7c0,3.6-2.9,6.5-6.5,6.5h-1.7c-3.6,0-6.5-2.9-6.5-6.5v-1.8
	C197.3,106.9,200.2,104.1,203.7,104.1z"/>
<linearGradient id="Rechteck_123_00000079456444264838480360000000546873438175173506_" gradientUnits="userSpaceOnUse" x1="-417.0919" y1="385.9713" x2="-416.4797" y2="385.795" gradientTransform="matrix(63.189 0 0 -4.513 26592.8047 1847.8929)">
	<stop  offset="0" style="stop-color:#D50018"/>
	<stop  offset="1" style="stop-color:#8301F1"/>
</linearGradient>
<rect id="Rechteck_123" x="216.1" y="104.1" style="fill:url(#Rechteck_123_00000079456444264838480360000000546873438175173506_);" width="58.4" height="4.2"/>
<linearGradient id="Rechteck_124_00000103956360847701367190000009366274528041764527_" gradientUnits="userSpaceOnUse" x1="-410.4296" y1="386.104" x2="-409.8174" y2="385.9276" gradientTransform="matrix(46.263 0 0 -4.513 19219.1973 1855.7919)">
	<stop  offset="0" style="stop-color:#D50018"/>
	<stop  offset="1" style="stop-color:#8301F1"/>
</linearGradient>
<rect id="Rechteck_124" x="216.1" y="111.4" style="opacity:0.41;fill:url(#Rechteck_124_00000103956360847701367190000009366274528041764527_);enable-background:new    ;" width="42.7" height="4.2"/>
<g>
	
		<linearGradient id="SVGID_00000036211129033964297560000007609456845737605540_" gradientUnits="userSpaceOnUse" x1="107.7489" y1="148.577" x2="263.4873" y2="103.7288">
		<stop  offset="0" style="stop-color:#D50018"/>
		<stop  offset="1" style="stop-color:#8301F1"/>
	</linearGradient>
	<path style="fill:url(#SVGID_00000036211129033964297560000007609456845737605540_);" d="M252.5,180.1h-149v-64.4
		c0-4.1-3.3-7.4-7.4-7.4H62.9V77h189.6v20.8h4.3v-26c0-4.1-3.3-7.4-7.4-7.4H66.2c-4.1,0-7.4,3.3-7.4,7.4v36.4H40.1
		c-4.1,0-7.4,3.3-7.4,7.4v109.2c0,4.1,3.3,7.4,7.4,7.4v0h56c4.1,0,7.4-3.3,7.4-7.4V204h17.7v9.4h74V204h54.2c4.1,0,7.4-3.3,7.4-7.4
		v-38.5h-4.3V180.1z M99.4,216.6H36.9v-96.9h62.5V216.6z"/>
	
		<linearGradient id="SVGID_00000030447428033121916310000006441855946492175548_" gradientUnits="userSpaceOnUse" x1="253.8501" y1="128.1942" x2="257.3763" y2="127.1787">
		<stop  offset="0" style="stop-color:#D50018"/>
		<stop  offset="1" style="stop-color:#8301F1"/>
	</linearGradient>
	
		<rect x="252.5" y="124.9" style="fill:url(#SVGID_00000030447428033121916310000006441855946492175548_);" width="4.3" height="6.2"/>
</g>
</svg>
