<?xml version="1.0" standalone="no"?>
<!DOCTYPE svg PUBLIC "-//W3C//DTD SVG 20010904//EN"
 "http://www.w3.org/TR/2001/REC-SVG-20010904/DTD/svg10.dtd">
<svg version="1.0" xmlns="http://www.w3.org/2000/svg"
 width="700.000000pt" height="700.000000pt" viewBox="0 0 700.000000 700.000000"
 preserveAspectRatio="xMidYMid meet">
<metadata>
Created by potrace 1.14, written by Peter Selinger 2001-2017
</metadata>
<g transform="translate(0.000000,700.000000) scale(0.100000,-0.100000)"
fill="#000000" stroke="none">
<path d="M790 6989 c-177 -9 -298 -53 -445 -164 -148 -112 -259 -274 -316
-465 l-23 -75 0 -2770 c0 -2225 3 -2782 13 -2830 62 -289 272 -530 551 -634
121 -45 67 -43 1489 -45 l1104 -1 4 30 c3 24 35 174 47 220 12 46 73 178 119
259 163 287 450 502 788 592 92 24 125 27 285 30 99 1 201 -2 225 -8 24 -5 55
-12 69 -14 42 -8 181 -56 248 -85 34 -16 62 -25 63 -21 0 4 2 32 4 62 18 287
76 476 210 680 59 90 78 113 172 207 92 92 193 166 298 220 80 41 226 98 270
107 17 3 50 10 75 15 25 5 63 12 85 16 51 8 248 8 300 0 44 -7 138 -23 170
-29 76 -15 306 -117 378 -168 l27 -20 -4 2044 c-3 1124 -7 2077 -10 2119 -8
125 -79 297 -166 403 -120 147 -268 249 -450 308 l-65 21 -2695 1 c-1482 1
-2751 -2 -2820 -5z m749 -784 c120 -25 233 -85 326 -174 l45 -43 63 58 c146
136 403 208 588 164 246 -58 442 -272 476 -520 26 -185 -30 -380 -164 -577
-108 -160 -364 -431 -638 -678 -54 -50 -108 -99 -120 -110 -11 -11 -62 -58
-113 -104 l-93 -84 -32 29 c-17 15 -39 35 -47 44 -14 13 -126 115 -244 220
-166 148 -458 440 -536 535 -205 251 -294 473 -276 686 8 96 29 167 71 246 39
71 52 88 122 155 107 103 211 151 361 167 82 8 119 6 211 -14z"/>
</g>
</svg>
