<?xml version="1.0" encoding="utf-8"?>
<!-- Generator: Adobe Illustrator 25.1.0, SVG Export Plug-In . SVG Version: 6.00 Build 0)  -->
<svg version="1.1" id="Ebene_1" xmlns="http://www.w3.org/2000/svg" xmlns:xlink="http://www.w3.org/1999/xlink" x="0px" y="0px" width="439px" height="120px"
	 viewBox="0 0 439 120">
<path fill="#400056" d="M105.8,50.8L58.9,48c-0.1,0-0.1,0-0.2,0c-0.3-0.2-0.6-0.5-0.8-0.8c0-0.1,0-0.1,0-0.2L55,0.1
	C54.3,0,53.6,0,52.9,0c-0.7,0-1.4,0-2.1,0.1L48,47c0,0.1,0,0.1,0,0.2c-0.2,0.3-0.5,0.6-0.8,0.8c-0.1,0-0.1,0-0.2,0L0.1,50.8
	C0,51.5,0,52.2,0,52.9c0,0.7,0,1.4,0.1,2.1L47,57.8c0.1,0,0.1,0,0.2,0c0.3,0.2,0.6,0.5,0.8,0.8c0,0.1,0,0.1,0,0.2l2.8,61.1
	c0.7,0,1.4,0.1,2.1,0.1c0.7,0,1.4,0,2.1-0.1l2.8-61.1c0-0.1,0-0.1,0-0.2c0.2-0.3,0.5-0.6,0.8-0.8c0.1,0,0.1,0,0.2,0l46.9-2.8
	c0-0.7,0.1-1.4,0.1-2.1C105.8,52.2,105.8,51.5,105.8,50.8z"/>
<path fill="#400056" d="M172.8,75.1h-2.1l-8.6,7.9c-0.2,0.2-0.4,0.4-1.1,1v-8.9h-1.6v16.6h1.6v-5.8l3.2-2.9l6.9,8.7h2l-7.8-9.8
	L172.8,75.1z"/>
<rect x="175.1" y="75.1" fill="#400056" width="1.5" height="2.3"/>
<rect x="175.1" y="79.7" fill="#400056" width="1.5" height="12"/>
<path fill="#400056" d="M186.4,79.5c-2.2-0.1-3.7,0.9-4.6,3v-2.9h-1.4v12h1.5v-4.9c0-2.5,0.2-3.5,1-4.4c0.7-0.9,1.8-1.3,3.1-1.3h0.4
	C186.4,81,186.4,79.5,186.4,79.5z"/>
<path fill="#400056" d="M196.5,87.4c-0.3,2.2-1.6,3.4-3.6,3.4c-2.4,0-4-2-4-5.1c0-3.1,1.6-5.1,4.1-5.1c1.9,0,3,1,3.4,2.9h1.5
	c-0.3-2.6-2.1-4.1-4.9-4.1c-3.4,0-5.6,2.5-5.6,6.4c0,3.8,2.2,6.2,5.5,6.2c2.8,0,4.7-1.7,5.1-4.6C197.9,87.4,196.5,87.4,196.5,87.4z"
	/>
<path fill="#400056" d="M202.1,75.1h-1.5v16.6h1.5v-5.9c0-1.7,0.1-2.4,0.5-3.3c0.6-1.2,1.8-1.9,3.2-1.9c1.1,0,2,0.4,2.5,1.1
	c0.4,0.5,0.6,1.2,0.6,2.5v7.5h1.5v-7.7c0-1.4-0.1-2.1-0.6-2.8c-0.7-1.1-2-1.8-3.6-1.8c-1.9,0-3.4,0.9-4.2,2.6c0-1.2,0-1.2,0-1.4
	C202.1,80.5,202.1,75.1,202.1,75.1z"/>
<path fill="#400056" d="M219,90.8c-2.5,0-4-1.7-4.1-4.8l9.3,0c0-1.5-0.2-2.6-0.6-3.6c-0.8-2-2.6-3.1-4.7-3.1c-3.2,0-5.5,2.7-5.5,6.4
	c0,3.8,2.2,6.2,5.5,6.2c2.7,0,4.6-1.5,5.1-4.3c0,0-1.4,0-1.4,0C222.2,89.7,220.9,90.8,219,90.8z M218.9,80.6c2.2,0,3.7,1.6,3.8,4.3
	H215C215.3,82.1,216.7,80.6,218.9,80.6z"/>
<rect x="233.7" y="75.1" fill="#400056" width="1.5" height="2.3"/>
<rect x="233.7" y="79.7" fill="#400056" width="1.5" height="12"/>
<path fill="#400056" d="M240.4,79.7h-1.4v12h1.5v-6c0-1.6,0.1-2.4,0.5-3.2c0.6-1.2,1.8-1.9,3.3-1.9c1.1,0,2,0.4,2.5,1
	c0.4,0.5,0.5,1.2,0.5,2.8v7.2h1.5V84c0-1.6-0.2-2.3-0.6-3c-0.7-1-2-1.6-3.5-1.6c-1.3,0-2.4,0.4-3.3,1.2c-0.3,0.3-0.6,0.6-1,1.3
	C240.4,81.9,240.4,79.7,240.4,79.7z"/>
<path fill="#400056" d="M272.4,75.1h-1.5v10.4c0,1.1,0,3.2,0.1,4.4c-0.5-1-1.3-2.3-2.2-3.5l-7.7-11.3h-1.8v16.6h1.5V80.9l0-2.4
	c0-0.6,0-1-0.1-1.6c0.4,0.9,0.6,1.2,2.2,3.6l7.7,11.1h1.8C272.4,91.7,272.4,75.1,272.4,75.1z"/>
<path fill="#400056" d="M281.4,79.3c-3.5,0-5.8,2.5-5.8,6.3c0,3.9,2.2,6.3,5.7,6.3c3.5,0,5.6-2.4,5.6-6.3
	C287,81.9,284.8,79.3,281.4,79.3z M281.4,90.8c-2.6,0-4.2-2-4.2-5.1c0-3.1,1.6-5.1,4.3-5.1c2.5,0,4.1,2,4.1,5.1
	C285.5,88.8,283.9,90.8,281.4,90.8z"/>
<path fill="#400056" d="M296,79.5c-2.2-0.1-3.7,0.9-4.6,3v-2.9h-1.4v12h1.5v-4.9c0-2.5,0.2-3.5,1-4.4c0.7-0.9,1.8-1.3,3.1-1.3h0.4
	C296,81,296,79.5,296,79.5z"/>
<path fill="#400056" d="M306.7,75.1v6.8c-0.8-1.7-2.2-2.6-4.3-2.6c-3.3,0-5.4,2.5-5.4,6.3c0,3.9,2.1,6.3,5.4,6.3
	c2.1,0,3.5-0.9,4.3-2.7v2.4h1.4V75.1H306.7z M302.6,90.8c-2.5,0-4.1-2-4.1-5.1c0-3.2,1.6-5.1,4.1-5.1c1.1,0,2.2,0.5,2.9,1.4
	c0.8,0.9,1.1,2.1,1.1,3.8C306.7,88.8,305.1,90.8,302.6,90.8z"/>
<path fill="#400056" d="M322.3,91.7c0,0,0-16.6,0-16.6h-1.5v6.8c-0.8-1.7-2.2-2.6-4.3-2.6c-3.3,0-5.4,2.5-5.4,6.3
	c0,3.9,2.1,6.3,5.4,6.3c2.1,0,3.5-0.9,4.3-2.7v2.4H322.3z M316.8,90.8c-2.5,0-4.1-2-4.1-5.1c0-3.2,1.6-5.1,4.1-5.1
	c1.1,0,2.2,0.5,2.9,1.4c0.8,0.9,1.1,2.1,1.1,3.8C320.9,88.8,319.3,90.8,316.8,90.8z"/>
<path fill="#400056" d="M331,90.8c-2.5,0-4-1.7-4.1-4.8l9.3,0c0-1.5-0.2-2.6-0.6-3.6c-0.8-2-2.6-3.1-4.7-3.1c-3.2,0-5.5,2.7-5.5,6.4
	s2.2,6.2,5.5,6.2c2.7,0,4.6-1.5,5.1-4.3c0,0-1.4,0-1.4,0C334.2,89.7,332.9,90.8,331,90.8z M330.9,80.6c2.2,0,3.7,1.6,3.8,4.3h-7.8
	C327.3,82.1,328.7,80.6,330.9,80.6z"/>
<path fill="#400056" d="M348.8,79.7h-1.5v6.1c0,1.4-0.2,2.4-0.7,3.2c-0.6,1.1-1.8,1.7-3.1,1.7c-1.3,0-2.3-0.6-2.7-1.5
	c-0.2-0.6-0.3-1.1-0.3-2.4v-7.1h-1.5v7.7c0,1.4,0.2,2.4,0.8,3.1c0.7,0.9,2,1.5,3.4,1.5c1.9,0,3.2-0.8,4.2-2.6v2.2h1.4
	C348.8,91.7,348.8,79.7,348.8,79.7z"/>
<path fill="#400056" d="M356.8,79.7h-2.5V76h-1.5v3.7h-2.1v1.2h2.1v6.8c0,2.1,0.1,2.5,0.3,3c0.3,0.7,1.1,1,2.4,1
	c0.5,0,0.8,0,1.3-0.1v-1.3c-0.4,0-0.7,0.1-1,0.1c-1.3,0-1.5-0.3-1.5-2v-7.6h2.5C356.8,80.9,356.8,79.7,356.8,79.7z"/>
<path fill="#400056" d="M367.6,83.1c-0.1-1.2-0.3-1.8-0.8-2.4c-0.8-0.9-2.1-1.4-3.7-1.4c-2.7,0-4.4,1.3-4.4,3.4c0,1,0.5,1.9,1.3,2.4
	c0.6,0.3,1.1,0.5,3.3,1c2.5,0.6,3.3,1.1,3.3,2.3c0,1.4-1.3,2.3-3.3,2.3c-2.2,0-3.4-1-3.5-3h-1.4c0.1,2.7,1.8,4.3,4.9,4.3
	c2.8,0,4.8-1.5,4.8-3.7c0-1-0.5-1.9-1.3-2.4c-0.7-0.5-1.5-0.7-3.2-1.1c-2.8-0.6-3.4-1-3.4-2.2c0-1.3,1-2,2.8-2c2,0,3,0.8,3.2,2.6
	H367.6z"/>
<path fill="#400056" d="M379.3,87.4c-0.3,2.2-1.6,3.4-3.6,3.4c-2.4,0-4-2-4-5.1c0-3.1,1.6-5.1,4.1-5.1c1.9,0,3,1,3.4,2.9h1.5
	c-0.3-2.6-2.1-4.1-4.9-4.1c-3.4,0-5.6,2.5-5.6,6.4c0,3.8,2.2,6.2,5.5,6.2c2.8,0,4.7-1.7,5.1-4.6C380.8,87.4,379.3,87.4,379.3,87.4z"
	/>
<path fill="#400056" d="M385,75.1h-1.5v16.6h1.5v-5.9c0-1.7,0.1-2.4,0.5-3.3c0.6-1.2,1.8-1.9,3.2-1.9c1.1,0,2,0.4,2.5,1.1
	c0.4,0.5,0.6,1.2,0.6,2.5v7.5h1.5v-7.7c0-1.4-0.2-2.1-0.6-2.8c-0.7-1.1-2-1.8-3.6-1.8c-1.9,0-3.4,0.9-4.2,2.6c0-1.2,0-1.2,0-1.4
	C385,80.5,385,75.1,385,75.1z"/>
<rect x="397.1" y="75.1" fill="#400056" width="1.5" height="16.6"/>
<path fill="#400056" d="M412.6,90.4c-0.2,0.1-0.4,0.1-0.5,0.1c-0.7,0-0.8-0.2-0.8-1.7v-5.4c0-1.1,0-1.5-0.2-2
	c-0.4-1.3-2-2.2-4.2-2.2c-3,0-4.7,1.4-4.8,4h1.4c0.2-1.9,1.2-2.8,3.3-2.8c2.2,0,3.1,0.8,3.1,2.6c0,1-0.4,1.4-1.9,1.5
	c-3.1,0.3-3.3,0.3-4.1,0.6c-1.5,0.6-2.4,1.7-2.4,3.3c0,2.1,1.5,3.4,3.9,3.4c2.1,0,3.5-0.7,4.5-2.4c0,1.6,0.4,2.2,1.5,2.2
	c0.4,0,0.8,0,1.2-0.2C412.6,91.6,412.6,90.4,412.6,90.4z M409.8,87.1c0,2.2-1.7,3.7-4.1,3.7c-1.7,0-2.8-0.9-2.8-2.3
	c0-1.4,1-2.2,3.6-2.5c2.5-0.3,2.8-0.4,3.3-0.8V87.1z"/>
<path fill="#400056" d="M416.5,79.7h-1.4v12h1.5v-6c0-1.6,0.1-2.4,0.5-3.2c0.6-1.2,1.8-1.9,3.3-1.9c1.1,0,2,0.4,2.5,1
	c0.4,0.5,0.5,1.2,0.5,2.8v7.2h1.5V84c0-1.6-0.1-2.3-0.6-3c-0.7-1-2-1.6-3.5-1.6c-1.3,0-2.4,0.4-3.3,1.2c-0.3,0.3-0.6,0.6-1,1.3
	C416.5,81.9,416.5,79.7,416.5,79.7z"/>
<path fill="#400056" d="M437.5,75.1v6.8c-0.8-1.7-2.2-2.6-4.3-2.6c-3.3,0-5.4,2.5-5.4,6.3c0,3.9,2.1,6.3,5.4,6.3
	c2.1,0,3.5-0.9,4.3-2.7v2.4h1.4V75.1H437.5z M433.5,90.8c-2.5,0-4.1-2-4.1-5.1c0-3.2,1.6-5.1,4.1-5.1c1.1,0,2.2,0.5,2.9,1.4
	c0.8,0.9,1.1,2.1,1.1,3.8C437.6,88.8,436,90.8,433.5,90.8z"/>
<polygon fill="#400056" points="171,43.9 159.5,43.9 159.5,60.5 171.1,60.5 171.1,59.2 161,59.2 161,52.6 170.3,52.6 170.3,51.3 
	161,51.3 161,45.3 171,45.3 "/>
<path fill="#400056" d="M182.7,48.6h-1.5l-2.6,7.2c-0.4,1.1-0.6,1.9-1.1,3.4c-0.6-1.8-0.8-2.6-1.1-3.3l-2.8-7.3h-1.6l4.6,12h1.6
	C178.3,60.5,182.7,48.6,182.7,48.6z"/>
<path fill="#400056" d="M194.8,59.3c-0.2,0.1-0.4,0.1-0.5,0.1c-0.7,0-0.8-0.2-0.8-1.7v-5.4c0-1.1,0-1.5-0.2-2
	c-0.4-1.3-2-2.2-4.2-2.2c-3,0-4.7,1.4-4.8,4h1.4c0.2-1.9,1.2-2.8,3.3-2.8c2.2,0,3.1,0.8,3.1,2.6c0,1-0.4,1.4-1.9,1.5
	c-3.1,0.3-3.3,0.3-4.1,0.6c-1.5,0.6-2.4,1.7-2.4,3.3c0,2.1,1.5,3.4,3.9,3.4c2.1,0,3.5-0.7,4.5-2.4c0,1.6,0.4,2.2,1.5,2.2
	c0.4,0,0.8,0,1.2-0.2C194.8,60.5,194.8,59.3,194.8,59.3z M192,56c0,2.2-1.7,3.7-4.1,3.7c-1.7,0-2.8-0.9-2.8-2.3c0-1.4,1-2.2,3.6-2.5
	c2.5-0.3,2.8-0.4,3.3-0.8V56z"/>
<path fill="#400056" d="M198.7,48.6h-1.4v12h1.5v-6c0-1.6,0.1-2.4,0.5-3.2c0.6-1.2,1.8-1.9,3.3-1.9c1.1,0,2,0.4,2.5,1
	c0.4,0.5,0.5,1.2,0.5,2.8v7.2h1.5v-7.7c0-1.6-0.1-2.3-0.6-3c-0.7-1-2-1.6-3.5-1.6c-1.3,0-2.4,0.4-3.3,1.2c-0.3,0.3-0.6,0.6-1,1.3
	C198.7,50.8,198.7,48.6,198.7,48.6z"/>
<path fill="#400056" d="M219.5,48.6v2.2c-0.9-1.8-2.2-2.6-4.1-2.6c-3.2,0-5.3,2.5-5.3,6.2c0,3.6,2,5.9,5.2,5.9c2,0,3.3-0.8,4.2-2.6
	l0,2c0,3-1.2,4.3-3.9,4.3c-2.1,0-3.2-0.8-3.5-2.4h-1.5c0.2,2.3,2,3.6,4.9,3.6c2.2,0,3.8-0.7,4.7-2.2c0.5-0.9,0.7-1.9,0.7-3.7V48.6
	H219.5z M215.4,59.2c-2.4,0-3.9-1.9-3.9-4.9s1.5-4.8,4-4.8c2.3,0,3.9,1.9,3.9,4.8C219.4,57.2,217.9,59.2,215.4,59.2z"/>
<path fill="#400056" d="M229.4,59.7c-2.5,0-4-1.7-4.1-4.8l9.3,0c0-1.5-0.2-2.6-0.6-3.6c-0.8-2-2.6-3.1-4.7-3.1
	c-3.2,0-5.5,2.7-5.5,6.4c0,3.8,2.2,6.2,5.5,6.2c2.7,0,4.6-1.5,5.1-4.3c0,0-1.4,0-1.4,0C232.6,58.6,231.4,59.7,229.4,59.7z
	 M229.3,49.4c2.2,0,3.7,1.6,3.8,4.3h-7.8C225.7,50.9,227.1,49.4,229.3,49.4z"/>
<rect x="237.6" y="43.9" fill="#400056" width="1.5" height="16.6"/>
<rect x="243" y="43.9" fill="#400056" width="1.5" height="2.3"/>
<rect x="243" y="48.6" fill="#400056" width="1.5" height="12"/>
<path fill="#400056" d="M256.3,52c-0.1-1.2-0.3-1.8-0.8-2.4c-0.8-0.9-2.1-1.4-3.7-1.4c-2.7,0-4.4,1.3-4.4,3.4c0,1,0.5,1.9,1.3,2.4
	c0.6,0.3,1.1,0.5,3.3,1c2.5,0.6,3.3,1.1,3.3,2.3c0,1.4-1.3,2.3-3.3,2.3c-2.2,0-3.4-1-3.5-3h-1.4c0.1,2.7,1.8,4.3,4.9,4.3
	c2.8,0,4.8-1.5,4.8-3.7c0-1-0.5-1.9-1.3-2.4c-0.7-0.5-1.5-0.7-3.2-1.1c-2.8-0.6-3.4-1-3.4-2.2c0-1.3,1-2,2.8-2c2,0,3,0.8,3.2,2.6
	C254.9,52,256.3,52,256.3,52z"/>
<path fill="#400056" d="M268.1,56.3c-0.3,2.2-1.6,3.4-3.6,3.4c-2.4,0-4-2-4-5.1c0-3.1,1.6-5.1,4.1-5.1c1.9,0,3,1,3.4,2.9h1.5
	c-0.3-2.6-2.1-4.1-4.9-4.1c-3.4,0-5.6,2.5-5.6,6.4c0,3.8,2.2,6.2,5.5,6.2c2.8,0,4.7-1.7,5.1-4.6C269.5,56.3,268.1,56.3,268.1,56.3z"
	/>
<path fill="#400056" d="M273.7,43.9h-1.5v16.6h1.5v-5.9c0-1.7,0.1-2.4,0.5-3.3c0.6-1.2,1.8-1.9,3.2-1.9c1.1,0,2,0.4,2.5,1.1
	c0.4,0.5,0.6,1.2,0.6,2.5v7.5h1.5v-7.7c0-1.4-0.1-2.1-0.6-2.8c-0.7-1.1-2-1.8-3.6-1.8c-1.9,0-3.4,0.9-4.2,2.6c0-1.2,0-1.2,0-1.4
	C273.7,49.4,273.7,43.9,273.7,43.9z"/>
<rect x="284" y="53.8" fill="#400056" width="5.5" height="1.3"/>
<polygon fill="#400056" points="302.7,59.2 293.4,59.2 293.4,43.9 291.8,43.9 291.8,60.5 302.7,60.5 "/>
<path fill="#400056" d="M314.6,48.6h-1.5v6.1c0,1.4-0.2,2.4-0.7,3.2c-0.6,1.1-1.8,1.7-3.1,1.7c-1.3,0-2.3-0.6-2.7-1.5
	c-0.2-0.6-0.3-1.1-0.3-2.4v-7.1h-1.5v7.7c0,1.4,0.2,2.4,0.8,3.1c0.7,0.9,2,1.5,3.4,1.5c1.9,0,3.2-0.8,4.2-2.6v2.2h1.4
	C314.6,60.5,314.6,48.6,314.6,48.6z"/>
<path fill="#400056" d="M322.5,48.6H320v-3.7h-1.5v3.7h-2.1v1.2h2.1v6.8c0,2.1,0.1,2.5,0.3,3c0.4,0.7,1.1,1,2.4,1
	c0.5,0,0.8,0,1.3-0.1v-1.3c-0.4,0-0.7,0.1-1,0.1c-1.3,0-1.5-0.3-1.5-2v-7.6h2.5C322.5,49.8,322.5,48.6,322.5,48.6z"/>
<path fill="#400056" d="M326.5,43.9h-1.5v16.6h1.5v-5.9c0-1.7,0.1-2.4,0.5-3.3c0.6-1.2,1.8-1.9,3.2-1.9c1.1,0,2,0.4,2.5,1.1
	c0.4,0.5,0.6,1.2,0.6,2.5v7.5h1.5v-7.7c0-1.4-0.1-2.1-0.6-2.8c-0.7-1.1-2-1.8-3.6-1.8c-1.9,0-3.4,0.9-4.2,2.6c0-1.2,0-1.2,0-1.4
	C326.5,49.4,326.5,43.9,326.5,43.9z"/>
<path fill="#400056" d="M343.4,59.7c-2.5,0-4-1.7-4.1-4.8l9.3,0c0-1.5-0.2-2.6-0.6-3.6c-0.8-2-2.6-3.1-4.7-3.1
	c-3.2,0-5.5,2.7-5.5,6.4c0,3.8,2.2,6.2,5.5,6.2c2.7,0,4.6-1.5,5.1-4.3h-1.4C346.6,58.6,345.3,59.7,343.4,59.7z M343.3,49.4
	c2.2,0,3.7,1.6,3.8,4.3h-7.8C339.7,50.9,341.1,49.4,343.3,49.4z"/>
<path fill="#400056" d="M357.6,48.4c-2.2-0.1-3.7,0.9-4.6,3v-2.9h-1.4v12h1.5v-4.9c0-2.5,0.2-3.5,1-4.4c0.7-0.9,1.8-1.3,3.1-1.3h0.4
	C357.6,49.9,357.6,48.4,357.6,48.4z"/>
<rect x="359.7" y="43.9" fill="#400056" width="1.5" height="2.3"/>
<rect x="359.7" y="48.6" fill="#400056" width="1.5" height="12"/>
<path fill="#400056" d="M373.1,52c-0.1-1.2-0.3-1.8-0.8-2.4c-0.8-0.9-2.1-1.4-3.7-1.4c-2.7,0-4.4,1.3-4.4,3.4c0,1,0.5,1.9,1.3,2.4
	c0.6,0.3,1.1,0.5,3.3,1c2.5,0.6,3.3,1.1,3.3,2.3c0,1.4-1.3,2.3-3.3,2.3c-2.2,0-3.4-1-3.5-3h-1.4c0.1,2.7,1.8,4.3,4.9,4.3
	c2.8,0,4.8-1.5,4.8-3.7c0-1-0.5-1.9-1.3-2.4c-0.7-0.5-1.5-0.7-3.2-1.1c-2.8-0.6-3.4-1-3.4-2.2c0-1.3,1-2,2.8-2c2,0,3,0.8,3.2,2.6
	C371.6,52,373.1,52,373.1,52z"/>
<path fill="#400056" d="M384.8,56.3c-0.3,2.2-1.6,3.4-3.6,3.4c-2.4,0-4-2-4-5.1c0-3.1,1.6-5.1,4.1-5.1c1.9,0,3,1,3.4,2.9h1.5
	c-0.3-2.6-2.1-4.1-4.9-4.1c-3.4,0-5.6,2.5-5.6,6.4c0,3.8,2.2,6.2,5.5,6.2c2.8,0,4.7-1.7,5.1-4.6C386.3,56.3,384.8,56.3,384.8,56.3z"
	/>
<path fill="#400056" d="M390.5,43.9H389v16.6h1.5v-5.9c0-1.7,0.1-2.4,0.5-3.3c0.6-1.2,1.8-1.9,3.2-1.9c1.1,0,2,0.4,2.5,1.1
	c0.4,0.5,0.6,1.2,0.6,2.5v7.5h1.5v-7.7c0-1.4-0.1-2.1-0.6-2.8c-0.7-1.1-2-1.8-3.6-1.8c-1.9,0-3.4,0.9-4.2,2.6c0-1.2,0-1.2,0-1.4
	C390.5,49.4,390.5,43.9,390.5,43.9z"/>
<path fill="#400056" d="M407.3,59.7c-2.5,0-4-1.7-4.1-4.8l9.3,0c0-1.5-0.2-2.6-0.6-3.6c-0.8-2-2.6-3.1-4.7-3.1
	c-3.2,0-5.5,2.7-5.5,6.4c0,3.8,2.2,6.2,5.5,6.2c2.7,0,4.6-1.5,5.1-4.3H411C410.5,58.6,409.3,59.7,407.3,59.7z M407.2,49.4
	c2.2,0,3.7,1.6,3.8,4.3h-7.8C403.6,50.9,405,49.4,407.2,49.4z"/>
<polygon fill="#400056" points="170.7,12.8 159,12.8 159,29.4 162.6,29.4 162.6,22.6 169.7,22.6 169.7,19.7 162.6,19.7 162.6,15.9 
	170.7,15.9 "/>
<rect x="172.9" y="12.8" fill="#400056" width="3.3" height="16.6"/>
<path fill="#400056" d="M190.5,17.4h-3.3v6c0,1.2-0.1,1.8-0.3,2.3c-0.4,0.9-1.2,1.4-2.3,1.4c-0.8,0-1.4-0.3-1.7-0.8
	c-0.3-0.4-0.3-0.8-0.3-2.2v-6.6h-3.3V25c0,1.6,0.2,2.5,0.7,3.2c0.7,1,1.9,1.5,3.4,1.5c1.7,0,3-0.6,4-2v1.7h3.1
	C190.5,29.4,190.5,17.4,190.5,17.4z"/>
<rect x="185.8" y="12.5" fill="#400056" width="3.1" height="2.7"/>
<rect x="180.9" y="12.5" fill="#400056" width="3.1" height="2.7"/>
<path fill="#400056" d="M201.7,24.8c-0.2,1.6-1.1,2.4-2.6,2.4c-1.8,0-2.8-1.4-2.8-3.8c0-2.5,1.1-3.9,2.9-3.9c1.3,0,2.1,0.7,2.4,2
	h3.2c-0.3-2.8-2.4-4.5-5.7-4.5c-3.7,0-6.2,2.5-6.2,6.4c0,3.8,2.4,6.2,6.1,6.2c3.2,0,5.4-1.8,5.8-4.9
	C204.9,24.8,201.7,24.8,201.7,24.8z"/>
<path fill="#400056" d="M210.4,12.8h-3.3v16.6h3.3v-5.9c0-1.4,0.1-1.9,0.3-2.4c0.4-0.9,1.2-1.4,2.2-1.4c0.7,0,1.3,0.2,1.7,0.7
	c0.3,0.4,0.4,0.8,0.4,1.9v7.1h3.3v-7.6c0-1.4-0.2-2.3-0.6-3c-0.7-1.1-2-1.7-3.6-1.7c-1.7,0-2.8,0.6-3.8,2c0-1.3,0-1.4,0-1.5
	C210.4,17.6,210.4,12.8,210.4,12.8z"/>
<path fill="#400056" d="M227.6,17.4h-2.4v-3.6h-3.3v3.6h-2v2.2h2v5.6c0,2.1,0.1,2.6,0.5,3.2c0.5,0.9,1.5,1.2,3.2,1.2
	c0.7,0,1.2,0,2-0.1V27c-0.4,0.1-0.7,0.1-1,0.1c-1.2,0-1.4-0.2-1.4-1.7v-5.7h2.4C227.6,19.6,227.6,17.4,227.6,17.4z"/>
<rect x="229.8" y="12.8" fill="#400056" width="3.3" height="16.6"/>
<rect x="236.2" y="12.8" fill="#400056" width="3.3" height="2.8"/>
<rect x="236.2" y="17.4" fill="#400056" width="3.3" height="12"/>
<path fill="#400056" d="M245.8,17.4h-3.1v12h3.3v-6.2c0-1,0.1-1.6,0.3-2.1c0.4-0.8,1.3-1.3,2.3-1.3c0.9,0,1.6,0.4,1.9,1
	c0.1,0.4,0.2,0.8,0.2,1.7v6.9h3.3v-7.6c0-1.6-0.2-2.4-0.6-3.1c-0.6-1-1.9-1.6-3.5-1.6c-1.7,0-3,0.6-4,2
	C245.8,19.1,245.8,17.4,245.8,17.4z"/>
<path fill="#400056" d="M265.1,17.4V19c-0.9-1.4-1.9-1.9-3.6-1.9c-3.2,0-5.3,2.4-5.3,6.1c0,3.6,2,5.9,5.1,5.9c1.6,0,2.8-0.6,3.7-1.8
	v1.4c0,2.2-0.8,3.1-2.7,3.1c-1.4,0-2.1-0.5-2.4-1.5h-3.3c0.3,2.5,2.2,3.8,5.6,3.8c2.5,0,4.2-0.7,5.2-2.2c0.6-0.9,0.8-1.9,0.8-3.8
	V17.4H265.1z M262.3,26.6c-1.7,0-2.7-1.3-2.7-3.5c0-2.2,1-3.4,2.8-3.4c1.6,0,2.7,1.3,2.7,3.4C265.1,25.2,264,26.6,262.3,26.6z"/>
<path fill="#400056" d="M281.2,20.9c-0.1-1.1-0.3-1.7-0.8-2.3c-0.9-1-2.4-1.5-4.4-1.5c-3.3,0-5.2,1.3-5.2,3.7c0,1.1,0.5,2.1,1.5,2.6
	c0.7,0.4,1.3,0.6,3.5,1.1c2.2,0.5,2.7,0.8,2.7,1.6c0,0.9-0.9,1.5-2.2,1.5c-1.6,0-2.4-0.6-2.5-2h-3.2c0.2,2.8,2.1,4.2,5.6,4.2
	c3.5,0,5.6-1.5,5.6-4c0-2-1.2-3-4.7-3.7c-2.6-0.5-3-0.7-3-1.5c0-0.7,0.7-1.2,1.8-1.2c1.4,0,2.1,0.4,2.3,1.6
	C278.1,20.9,281.2,20.9,281.2,20.9z"/>
<path fill="#400056" d="M291.1,17.1c-1.6,0-2.9,0.6-3.8,1.8v-6H284v16.6h3.1v-1.5c0.8,1.2,2.1,1.8,3.8,1.8c3.2,0,5.3-2.6,5.3-6.5
	C296.3,19.6,294.2,17.1,291.1,17.1z M290.1,27.1c-1.8,0-2.9-1.4-2.9-3.7c0-2.3,1.1-3.7,2.9-3.7c1.7,0,2.8,1.5,2.8,3.7
	C293,25.6,291.8,27.1,290.1,27.1z"/>
<path fill="#400056" d="M310.1,23.8c0-4-2.4-6.7-5.9-6.7c-3.5,0-6,2.7-6,6.4c0,3.8,2.5,6.3,6.1,6.3c2.8,0,5-1.6,5.7-4.1
	c0,0-3.2,0-3.2,0c-0.5,1.2-1.2,1.7-2.5,1.7c-1.8,0-2.7-1.1-2.8-3.1h8.6V23.8z M301.4,22.2c0.2-1.7,1.2-2.7,2.7-2.7s2.4,1,2.6,2.7
	H301.4z"/>
<path fill="#400056" d="M323,26.2v-0.9c0-1.6,0-1.6,0-2.2c0-1.5,0-1.5,0-1.8c0-1.7-0.2-2.4-1-3c-0.9-0.7-2.4-1.1-4.3-1.1
	c-3.5,0-5.4,1.4-5.6,4h3.1c0.2-1.3,0.9-1.8,2.4-1.8c1.5,0,2.2,0.5,2.2,1.6c0,1-0.3,1.1-2.9,1.4c-1.7,0.2-2.4,0.4-3.1,0.6
	c-1.4,0.6-2.2,1.7-2.2,3.2c0,2.3,1.6,3.6,4.2,3.6c1.6,0,3-0.5,4-1.5c0,0.4,0,0.6,0.2,1.2c0,0,3.4,0,3.4,0
	C323.1,28.6,323,27.9,323,26.2z M319.8,24.9c0,0.8-0.1,1.2-0.5,1.7c-0.6,0.6-1.4,1-2.4,1c-1.1,0-1.8-0.6-1.8-1.6
	c0-1.1,0.6-1.5,2.4-1.8c1.4-0.2,1.8-0.3,2.3-0.6V24.9z"/>
<path fill="#400056" d="M336.9,17.4h-3.3v6c0,1.2-0.1,1.8-0.3,2.3c-0.4,0.9-1.2,1.4-2.3,1.4c-0.8,0-1.4-0.3-1.7-0.8
	c-0.3-0.4-0.3-0.8-0.3-2.2v-6.6h-3.3V25c0,1.6,0.2,2.5,0.7,3.2c0.7,1,1.9,1.5,3.4,1.5c1.7,0,3-0.6,4-2v1.7h3.1
	C336.9,29.4,336.9,17.4,336.9,17.4z"/>
<path fill="#400056" d="M346.3,12.8c-1-0.1-1.3-0.1-1.7-0.1c-1.5,0-2.5,0.3-3.2,1c-0.7,0.6-0.9,1.4-0.9,3v0.6h-2v2.2h2v9.8h3.3v-9.8
	h2.3v-2.2h-2.4v-0.9c0-1,0.3-1.3,1.4-1.3c0.4,0,0.7,0,1.1,0.1C346.3,15.3,346.3,12.8,346.3,12.8z"/>
<path fill="#400056" d="M355,17.4h-2.4v-3.6h-3.3v3.6h-2v2.2h2v5.6c0,2.1,0.1,2.6,0.5,3.2c0.5,0.9,1.5,1.2,3.2,1.2
	c0.7,0,1.2,0,2-0.1V27c-0.4,0.1-0.7,0.1-1,0.1c-1.2,0-1.4-0.2-1.4-1.7v-5.7h2.4C355,19.6,355,17.4,355,17.4z"/>
<path fill="#400056" d="M364.9,17.2c-0.3-0.1-0.5-0.1-0.7-0.1c-1.7,0-3,0.8-3.9,2.5v-2.2h-3.1v12h3.3v-5c0-1.3,0.1-2.1,0.4-2.7
	c0.5-1,1.5-1.6,2.7-1.6c0.4,0,0.7,0,1.3,0.1C364.9,20.2,364.9,17.2,364.9,17.2z"/>
<path fill="#400056" d="M377.2,26.2v-0.9c0-1.6,0-1.6,0-2.2c0-1.5,0-1.5,0-1.8c0-1.7-0.2-2.4-1-3c-0.9-0.7-2.4-1.1-4.3-1.1
	c-3.5,0-5.4,1.4-5.5,4h3.1c0.2-1.3,0.8-1.8,2.4-1.8c1.5,0,2.2,0.5,2.2,1.6c0,1-0.3,1.1-2.9,1.4c-1.7,0.2-2.4,0.4-3.1,0.6
	c-1.4,0.6-2.2,1.7-2.2,3.2c0,2.3,1.6,3.6,4.2,3.6c1.6,0,3-0.5,4-1.5c0,0.4,0,0.6,0.2,1.2c0,0,3.4,0,3.4,0
	C377.3,28.6,377.2,27.9,377.2,26.2z M374,24.9c0,0.8-0.1,1.2-0.5,1.7c-0.6,0.6-1.4,1-2.4,1c-1.1,0-1.8-0.6-1.8-1.6
	c0-1.1,0.6-1.5,2.4-1.8c1.4-0.2,1.8-0.3,2.3-0.6V24.9z"/>
<path fill="#400056" d="M388,17.4V19c-0.9-1.4-1.9-1.9-3.6-1.9c-3.2,0-5.3,2.4-5.3,6.1c0,3.6,2,5.9,5.1,5.9c1.6,0,2.8-0.6,3.7-1.8
	v1.4c0,2.2-0.8,3.1-2.7,3.1c-1.4,0-2.1-0.5-2.4-1.5h-3.3c0.3,2.5,2.2,3.8,5.6,3.8c2.5,0,4.2-0.7,5.2-2.2c0.6-0.9,0.8-1.9,0.8-3.8
	c0,0,0-10.5,0-10.5H388z M385.3,26.6c-1.7,0-2.7-1.3-2.7-3.5c0-2.2,1-3.4,2.8-3.4c1.6,0,2.7,1.3,2.7,3.4
	C388,25.2,387,26.6,385.3,26.6z"/>
<path fill="#400056" d="M400.5,17.4H398v-3.6h-3.3v3.6h-2v2.2h2v5.6c0,2.1,0.1,2.6,0.5,3.2c0.5,0.9,1.5,1.2,3.2,1.2
	c0.7,0,1.2,0,2-0.1V27c-0.4,0.1-0.7,0.1-1,0.1c-1.2,0-1.4-0.2-1.4-1.7v-5.7h2.4C400.5,19.6,400.5,17.4,400.5,17.4z"/>
<path fill="#400056" d="M413.6,23.8c0-4-2.4-6.7-5.9-6.7c-3.5,0-6,2.7-6,6.4c0,3.8,2.5,6.3,6.1,6.3c2.8,0,5-1.6,5.7-4.1
	c0,0-3.2,0-3.2,0c-0.5,1.2-1.2,1.7-2.5,1.7c-1.8,0-2.7-1.1-2.8-3.1h8.6V23.8z M405,22.2c0.2-1.7,1.2-2.7,2.7-2.7
	c1.5,0,2.4,1,2.6,2.7H405z"/>
</svg>
