<svg xmlns="http://www.w3.org/2000/svg" width="280" height="280" viewBox="0 0 280 280">
  <g id="Gruppe_32" data-name="Gruppe 32" transform="translate(-1008 -2426)">
    <rect id="houcine-ncib-B4TjXnI0Y2c-unsplash" width="280" height="280" rx="140" transform="translate(1008 2426)" fill="#dd0004"/>
    <g id="single-05" transform="translate(1100.076 2515.948)">
      <path id="Pfad_1" data-name="Pfad 1" d="M86.694,28.132,72.833,20.571A34.282,34.282,0,0,1,47.923,31.31,34.279,34.279,0,0,1,23.007,20.565L9.152,28.135A15.652,15.652,0,0,0,1,41.874V53.208a3.129,3.129,0,0,0,3.128,3.128h87.59a3.129,3.129,0,0,0,3.128-3.128V41.868A15.653,15.653,0,0,0,86.694,28.132Z" transform="translate(0 43.767)" fill="#fff"/>
      <path id="Pfad_2" data-name="Pfad 2" d="M35.154,0A28.188,28.188,0,0,0,7,28.154V40.667a28.154,28.154,0,0,0,56.308,0V28.154A28.188,28.188,0,0,0,35.154,0Z" transform="translate(12.769)" fill="#fff"/>
    </g>
  </g>
</svg>
