<svg xmlns="http://www.w3.org/2000/svg" xmlns:xlink="http://www.w3.org/1999/xlink" x="0px" y="0px" width="64px" height="64px" viewBox="0 0 64 64"><g transform="translate(0, 0)"><path d="M42.987,45.648c-.488.633-.972,1.25-1.447,1.844C51.97,48.606,59,51.422,59,54c0,3.3-11.547,7-27,7S5,57.3,5,54c0-2.578,7.03-5.394,17.46-6.508-.475-.594-.959-1.211-1.447-1.844C11.117,46.848,3,49.692,3,54c0,5.846,14.941,9,29,9s29-3.154,29-9C61,49.692,52.883,46.848,42.987,45.648Z" fill="#dd0004" data-color="color-2"></path><path d="M32,1C21.678,1,11,8.515,11,21.091c0,12.043,19.447,32.654,20.275,33.526a1,1,0,0,0,1.45,0C33.553,53.745,53,33.134,53,21.091,53,8.515,42.322,1,32,1Zm8.285,24.365L32.716,33.2a1,1,0,0,1-1.438,0l-7.561-7.827a6.2,6.2,0,0,1,0-8.57A5.808,5.808,0,0,1,32,16.682c.022-.023.045-.046.069-.068a5.647,5.647,0,0,1,4.145-1.609A5.769,5.769,0,0,1,40.281,16.8,6.19,6.19,0,0,1,40.285,25.365Z" fill="#dd0004"></path></g></svg>