<svg xmlns="http://www.w3.org/2000/svg" xmlns:xlink="http://www.w3.org/1999/xlink" x="0px" y="0px" width="64px" height="64px" viewBox="0 0 64 64"><g transform="translate(0, 0)"><path data-color="color-2" fill="#dd0004" d="M9,41c0.552,0,1-0.447,1-1v-7h21v7c0,0.553,0.448,1,1,1s1-0.447,1-1v-7h21v7
	c0,0.553,0.448,1,1,1s1-0.447,1-1v-8c0-0.553-0.448-1-1-1H33v-7c0-0.553-0.448-1-1-1s-1,0.447-1,1v7H9c-0.552,0-1,0.447-1,1v8
	C8,40.553,8.448,41,9,41z"></path>
<circle fill="#dd0004" cx="32" cy="11" r="8"></circle>
<circle fill="#dd0004" cx="9" cy="53" r="8"></circle>
<circle fill="#dd0004" cx="32" cy="53" r="8"></circle>
<circle fill="#dd0004" cx="55" cy="53" r="8"></circle></g></svg>