<?xml version="1.0" encoding="UTF-8" standalone="no"?><svg width="64px" height="64px" viewBox="0 0 64 64" version="1.1" xmlns="http://www.w3.org/2000/svg" xmlns:xlink="http://www.w3.org/1999/xlink" xml:space="preserve" style="fill-rule:evenodd;clip-rule:evenodd;stroke-linejoin:round;stroke-miterlimit:2;"><g><path d="M59.683,13.899l-7.453,0l-0,-4.258c-0,-0.585 -0.481,-1.065 -1.065,-1.065l-42.589,-0c-0.584,-0 -1.065,0.48 -1.065,1.065l-0,27.683c0.006,5.254 4.328,9.576 9.583,9.582l25.553,0c5.255,-0.006 9.577,-4.328 9.583,-9.582l-0,-2.13l3.194,0c3.503,-0.003 6.385,-2.885 6.388,-6.388l0,-12.777c0,-1.168 -0.961,-2.13 -2.129,-2.13Zm-2.129,14.907c-0,1.168 -0.962,2.129 -2.13,2.129l-3.194,0l-0,-12.777l5.324,0l-0,10.648Z" style="fill:#dd0004;fill-rule:nonzero;"/><path d="M56.489,49.036l-53.237,-0c-0.584,-0 -1.064,0.481 -1.064,1.065c-0,0.086 0.01,0.173 0.031,0.257c0.438,1.753 2.553,5.066 7.421,5.066l40.46,0c4.868,0 6.984,-3.313 7.422,-5.066c0.021,-0.084 0.031,-0.171 0.031,-0.257c0,-0.584 -0.48,-1.065 -1.064,-1.065Z" style="fill:#dd0004;fill-rule:nonzero;"/></g></svg>