<svg xmlns="http://www.w3.org/2000/svg" xmlns:xlink="http://www.w3.org/1999/xlink" x="0px" y="0px" width="64px" height="64px" viewBox="0 0 64 64"><g transform="translate(0, 0)"><path d="M62,30C62,16.215,48.542,5,32,5S2,16.215,2,30,15.458,55,32,55a35.757,35.757,0,0,0,7.822-.865l14.814,5.8a1,1,0,0,0,1.361-1l-.925-12.953A22.629,22.629,0,0,0,62,30ZM41.953,32.211,32.709,41.7a1,1,0,0,1-1.431,0L22.036,32.21a7.286,7.286,0,0,1,0-10.1A6.9,6.9,0,0,1,32,22.147a6.894,6.894,0,0,1,9.958-.041A7.288,7.288,0,0,1,41.953,32.211Z" fill="#dd0004"></path></g></svg>