<svg xmlns="http://www.w3.org/2000/svg" xmlns:xlink="http://www.w3.org/1999/xlink" x="0px" y="0px" width="64px" height="64px" viewBox="0 0 64 64"><g transform="translate(0, 0)"><path data-color="color-2" fill="#dd0004" d="M22.05048,53c0.50189,5.05322,4.76428,9,9.94952,9s9.44763-3.94678,9.94952-9H22.05048z"></path>
<path fill="#dd0004" d="M29.46606,2.14185c-9.69128,1.08276-17.70795,8.7204-19.19531,18.35785
	C8.72864,30.492,13.92566,39.44647,22,43.5791V51h9V29.94952C24.84161,29.44019,20,24.28986,20,18v-2
	c4.92383,0,9.15009,2.96832,11,7.21069V12c0-0.55225,0.44727-1,1-1s1,0.44775,1,1v19.21069C34.84991,26.96832,39.07617,24,44,24v2
	c0,6.28986-4.84161,11.44019-11,11.94952V51h9v-7.4209C49.11804,39.93591,54,32.54541,54,24
	C54,11.01514,42.75061,0.65771,29.46606,2.14185z"></path></g></svg>