<svg xmlns="http://www.w3.org/2000/svg" xmlns:xlink="http://www.w3.org/1999/xlink" x="0px" y="0px" width="64px" height="64px" viewBox="0 0 64 64"><g transform="translate(0, 0)"><path d="M32,2A30,30,0,1,0,62,32,30.034,30.034,0,0,0,32,2ZM55.794,46.737,44.4,47.455l-3.75-4.21,4.34-13.356,6.244-3.006,8.682,7.184A27.814,27.814,0,0,1,55.794,46.737ZM19.6,47.455,8.206,46.737a27.81,27.81,0,0,1-4.122-12.67l8.682-7.184,6.244,3.006,4.34,13.356ZM53.366,13.932,50.525,25.005l-6.249,3.009L33,19.822V12.175L42.6,6.088A28.123,28.123,0,0,1,53.366,13.932ZM21.406,6.088,31,12.175v7.647L19.724,28.014l-6.249-3.009L10.634,13.932A28.119,28.119,0,0,1,21.406,6.088Zm3.936,53.106L21.18,48.688l3.746-4.207H39.073l3.747,4.207-4.161,10.5a27.89,27.89,0,0,1-13.317,0Z" fill="#dd0004"></path></g></svg>