<svg xmlns="http://www.w3.org/2000/svg" xmlns:xlink="http://www.w3.org/1999/xlink" x="0px" y="0px" width="64px" height="64px" viewBox="0 0 64 64"><g transform="translate(0, 0)"><path d="M10,13a2,2,0,0,1,2-2H52a2,2,0,0,1,2,2V43h4V13a6.006,6.006,0,0,0-6-6H12a6.006,6.006,0,0,0-6,6V43h4Z" fill="#dd0004"></path><path d="M63,45H40v4H24V45H1a1,1,0,0,0-1,1,9.01,9.01,0,0,0,9,9H55a9.01,9.01,0,0,0,9-9A1,1,0,0,0,63,45Z" fill="#dd0004"></path><path d="M42.625,24.219l-10-8a1,1,0,0,0-1.25,0l-10,8A1,1,0,0,0,21,25V38a1,1,0,0,0,1,1h7V31h6v8h7a1,1,0,0,0,1-1V25A1,1,0,0,0,42.625,24.219Z" fill="#dd0004" data-color="color-2"></path></g></svg>