<svg xmlns="http://www.w3.org/2000/svg" xmlns:xlink="http://www.w3.org/1999/xlink" x="0px" y="0px" width="64px" height="64px" viewBox="0 0 64 64"><g transform="translate(0, 0)"><path d="M15,15H26a1.5,1.5,0,0,0,.363-2.956L15.483,9.337A2,2,0,0,0,13,11.279V13A2,2,0,0,0,15,15Z" fill="#dd0004"></path>
<path data-color="color-2" d="M51,27c-.1,0-.2.013-.3.015l.611,2a11.011,11.011,0,1,1-6.694,2.045l-.611-2A12.979,12.979,0,1,0,51,27Z" fill="#dd0004"></path>
<path d="M49.565,40.438A1.5,1.5,0,0,0,51,41.5a1.516,1.516,0,0,0,.439-.065,1.5,1.5,0,0,0,1-1.873L43.866,11.479A3.478,3.478,0,0,0,40.52,9H34.5a1.5,1.5,0,0,0,0,3h6.02a.5.5,0,0,1,.477.354L43.33,20H23.308l-1.36-3H18.654l2.08,4.589L11.188,38.771A1.5,1.5,0,0,0,12.5,41h18a1.5,1.5,0,0,0,1.155-.543l13.1-15.8ZM22.276,24.991,28.173,38H15.049Zm8.6,11.7L24.668,23H42.224Z" fill="#dd0004"></path>
<path data-color="color-2" d="M13,51a11,11,0,1,1,1.284-21.919l1.035-1.862A13,13,0,1,0,25.637,43H23.574A11.013,11.013,0,0,1,13,51Z" fill="#dd0004"></path></g></svg>