<?xml version="1.0" encoding="utf-8"?>
<!-- Generator: Adobe Illustrator 25.1.0, SVG Export Plug-In . SVG Version: 6.00 Build 0)  -->
<svg version="1.1" id="Ebene_1" xmlns="http://www.w3.org/2000/svg" xmlns:xlink="http://www.w3.org/1999/xlink" x="0px" y="0px"
	 width="64.6px" height="65px" viewBox="0 0 64.6 65">
<style type="text/css">
	.st0{fill:#21759B;}
</style>
<path class="st0" d="M4.6,32.5c0,11,6.4,20.6,15.6,25.1L7,21.2C5.5,24.6,4.6,28.5,4.6,32.5z"/>
<path class="st0" d="M51,31.1c0-3.4-1.2-5.8-2.3-7.7c-1.4-2.3-2.7-4.2-2.7-6.5c0-2.6,1.9-4.9,4.7-4.9c0.1,0,0.2,0,0.4,0
	c-4.9-4.5-11.5-7.3-18.7-7.3c-9.7,0-18.2,5-23.2,12.6c0.7,0,1.3,0,1.8,0c2.9,0,7.4-0.4,7.4-0.4c1.5-0.1,1.7,2.1,0.2,2.3
	c0,0-1.5,0.2-3.2,0.3l10.1,30.2l6.1-18.3l-4.3-11.9c-1.5-0.1-2.9-0.3-2.9-0.3c-1.5-0.1-1.3-2.4,0.2-2.3c0,0,4.6,0.4,7.3,0.4
	c2.9,0,7.4-0.4,7.4-0.4c1.5-0.1,1.7,2.1,0.2,2.3c0,0-1.5,0.2-3.2,0.3l10,30l2.8-9.3C50.1,36.2,51,33.5,51,31.1z"/>
<path class="st0" d="M32.8,34.9l-8.3,24.3c2.5,0.7,5.1,1.1,7.8,1.1c3.2,0,6.3-0.6,9.2-1.6c-0.1-0.1-0.1-0.2-0.2-0.4L32.8,34.9z"/>
<path class="st0" d="M56.6,19.1c0.1,0.9,0.2,1.8,0.2,2.9c0,2.8-0.5,6-2.1,10l-8.5,24.6C54.5,51.8,60,42.8,60,32.5
	C60,27.7,58.8,23.1,56.6,19.1z"/>
<path class="st0" d="M32.3,0C14.5,0,0,14.6,0,32.5C0,50.4,14.5,65,32.3,65c17.8,0,32.3-14.6,32.3-32.5C64.6,14.6,50.1,0,32.3,0z
	 M32.3,63.5c-17,0-30.8-13.9-30.8-31c0-17.1,13.8-31,30.8-31c17,0,30.8,13.9,30.8,31C63.2,49.6,49.3,63.5,32.3,63.5z"/>
</svg>
