<svg xmlns="http://www.w3.org/2000/svg" width="1920" height="860"><g data-name="Gruppe 8"><path d="M0 0h1920v860H0z"/><path fill="#0073aa" opacity=".96" d="M0 0h1920v860H0z"/><path data-name="fikret-tozak-Zk--Ydz2IAs-unsplash" d="M0 .211h614.539L833.163 859.79H0Z" fill="#1683b7" opacity=".96"/><path data-name="fikret-tozak-Zk--Ydz2IAs-unsplash" d="M170 .211h614.539l218.624 859.579H170Z" fill="#1683b7" opacity=".37"/><g data-name="Gruppe 6"><g data-name="Gruppe 3" fill="#fff"><path data-name="Pfad 17" d="M738.869 299.483h-20.76v2.2c6.494 0 7.538 1.392 7.538 9.627v14.846c0 8.234-1.043 9.742-7.538 9.742-4.986-.7-8.35-3.364-12.989-8.466l-5.334-5.8c7.19-1.277 11.016-5.8 11.016-10.9 0-6.377-5.45-11.249-15.656-11.249h-20.412v2.2c6.494 0 7.538 1.392 7.538 9.627v14.846c0 8.234-1.044 9.742-7.538 9.742v2.2h23.08v-2.2c-6.494 0-7.538-1.508-7.538-9.742v-4.173h1.971l12.874 16.119h33.749c16.584 0 23.775-8.813 23.775-19.368s-7.191-19.251-23.776-19.251Zm-48.593 18.9v-15.42h4.754c5.218 0 7.539 3.595 7.539 7.77 0 4.06-2.32 7.654-7.539 7.654h-4.754Zm48.938 16.125h-.813c-4.174 0-4.754-1.043-4.754-6.378v-25.167h5.567c12.061 0 14.264 8.813 14.264 15.656.003 7.074-2.2 15.889-14.264 15.889Z"/><path data-name="Pfad 18" d="m610.139 322.678 8-23.661c2.32-6.842 1.276-8.813-6.146-8.813v-2.32h21.8v2.32c-7.306 0-9.045 1.739-11.945 10.206l-13.217 39.664h-1.51l-11.831-36.3-12.06 36.3h-1.509l-12.869-39.664c-2.783-8.466-4.639-10.206-11.366-10.206v-2.32h25.747v2.32c-6.843 0-8.7 1.623-6.263 8.813l7.77 23.661 11.714-34.794h2.2Z"/><path data-name="Pfad 19" d="M649.572 339.61c-12.76 0-23.2-9.394-23.2-20.877 0-11.365 10.439-20.76 23.195-20.76s23.195 9.4 23.195 20.76c.002 11.483-10.435 20.877-23.19 20.877Zm0-38.039c-10.669 0-14.381 9.625-14.381 17.163 0 7.656 3.712 17.165 14.381 17.165 10.787 0 14.5-9.509 14.5-17.165-.005-7.542-3.716-17.163-14.5-17.163Z"/><path data-name="Pfad 20" d="M791.289 335.783v2.319h-26.558v-2.319c7.771 0 9.163-1.971 9.163-13.57v-18.556c0-11.6-1.392-13.454-9.163-13.454v-2.32h24.006c11.945 0 18.558 6.147 18.558 14.383 0 8-6.613 14.265-18.558 14.265h-6.611v5.681c.001 11.6 1.392 13.571 9.163 13.571Zm-2.552-43.725h-6.611v20.181h6.611c6.5 0 9.51-4.523 9.51-9.973.001-5.567-3.014-10.208-9.51-10.208Z"/><path data-name="Pfad 21" d="m886.968 327.202-.58 2.087c-1.043 3.827-2.32 5.219-10.554 5.219h-1.624c-6.03 0-7.074-1.392-7.074-9.626v-5.334c9.047 0 9.743.811 9.743 6.842h2.2v-17.281h-2.2c0 6.031-.7 6.842-9.743 6.842v-12.988h6.377c8.236 0 9.51 1.392 10.554 5.219l.581 2.2h1.855l-.811-10.9h-34.1v2.2c6.494 0 7.539 1.392 7.539 9.627v14.847c0 7.533-.887 9.43-6.007 9.7-4.867-.743-8.208-3.4-12.779-8.425l-5.335-5.8c7.191-1.277 11.018-5.8 11.018-10.9 0-6.377-5.451-11.249-15.656-11.249h-20.41v2.2c6.494 0 7.538 1.392 7.538 9.627v14.847c0 8.234-1.043 9.742-7.538 9.742v2.2h23.08v-2.2c-6.494 0-7.539-1.508-7.539-9.742v-4.173h1.975l12.87 16.12h47.665l.7-10.9h-1.745Zm-61.466-8.816v-15.423h4.754c5.219 0 7.54 3.595 7.54 7.77 0 4.06-2.32 7.654-7.54 7.654h-4.754Z"/><path data-name="Pfad 22" d="M910.51 339.61a17.146 17.146 0 0 1-10.438-3.944 8.332 8.332 0 0 0-1.855 3.944h-2.2v-16h2.319c.929 7.654 6.262 12.177 13.105 12.177 3.711 0 6.727-2.087 6.727-5.566 0-3.015-2.667-5.335-7.422-7.539l-6.611-3.131c-4.64-2.205-8.119-6.033-8.119-11.135 0-5.567 5.219-10.321 12.41-10.321a14.524 14.524 0 0 1 9.047 3.015 6.555 6.555 0 0 0 1.508-3.133h2.2v13.683h-2.436c-.812-5.452-3.827-9.974-9.973-9.974-3.247 0-6.264 1.856-6.264 4.756 0 3.015 2.436 4.638 8 7.19l6.377 3.131c5.568 2.667 7.77 6.96 7.77 10.439.003 7.306-6.375 12.408-14.145 12.408Z"/><path data-name="Pfad 23" d="M946.231 339.61a17.141 17.141 0 0 1-10.438-3.944 8.334 8.334 0 0 0-1.854 3.944h-2.2v-16h2.319c.928 7.654 6.262 12.177 13.105 12.177 3.711 0 6.727-2.087 6.727-5.566 0-3.015-2.667-5.335-7.423-7.539l-6.611-3.131c-4.639-2.205-8.119-6.033-8.119-11.135 0-5.567 5.219-10.321 12.41-10.321a14.524 14.524 0 0 1 9.046 3.015 6.538 6.538 0 0 0 1.506-3.133h2.2v13.683h-2.435c-.812-5.452-3.827-9.974-9.973-9.974-3.247 0-6.264 1.856-6.264 4.756 0 3.015 2.436 4.638 8 7.19l6.377 3.131c5.568 2.667 7.77 6.96 7.77 10.439.004 7.306-6.374 12.408-14.143 12.408Z"/><g data-name="Gruppe 2"><path data-name="Pfad 24" d="M441.504 312.211a51.335 51.335 0 0 0 28.927 46.192l-24.483-67.08a51.13 51.13 0 0 0-4.444 20.888Z"/><path data-name="Pfad 25" d="M527.478 309.621c0-6.343-2.278-10.736-4.233-14.155-2.6-4.228-5.04-7.808-5.04-12.036 0-4.718 3.578-9.11 8.619-9.11.228 0 .443.028.665.041a51.315 51.315 0 0 0-77.543 9.661c1.2.036 2.339.062 3.3.062 5.369 0 13.679-.651 13.679-.651a2.121 2.121 0 0 1 .329 4.228s-2.78.327-5.874.489l18.693 55.593 11.232-33.687-8-21.91a93.516 93.516 0 0 1-5.382-.489c-2.766-.162-2.442-4.391.324-4.228 0 0 8.476.651 13.519.651 5.368 0 13.679-.651 13.679-.651a2.121 2.121 0 0 1 .329 4.228s-2.786.327-5.874.489l18.551 55.174 5.119-17.108c2.224-7.099 3.908-12.198 3.908-16.591Z"/><path data-name="Pfad 26" d="m493.73 316.701-15.4 44.748a51.35 51.35 0 0 0 31.543-.818 4.506 4.506 0 0 1-.365-.707Z"/><path data-name="Pfad 27" d="M537.867 287.586a39.38 39.38 0 0 1 .346 5.278 48.416 48.416 0 0 1-3.9 18.384l-15.681 45.328a51.334 51.334 0 0 0 19.235-68.99Z"/><path data-name="Pfad 28" d="M492.83 252.383a59.83 59.83 0 1 0 59.833 59.828 59.9 59.9 0 0 0-59.833-59.828Zm0 116.917a57.087 57.087 0 1 1 57.084-57.089A57.153 57.153 0 0 1 492.83 369.3Z"/></g></g><g data-name="Gruppe 5" transform="translate(1051.942 203.042)"><circle data-name="Ellipse 5" cx="45" cy="45" r="45" transform="translate(305 146)" fill="#fff" opacity=".16"/><g fill="#fff"><path data-name="Pfad 30" d="M360.9 169h-21.521a5.386 5.386 0 0 0-5.379 5.379v32.275a5.386 5.386 0 0 0 5.379 5.379H360.9a5.386 5.386 0 0 0 5.379-5.379v-32.275A5.386 5.386 0 0 0 360.9 169Zm1.793 35.861a1.794 1.794 0 0 1-1.793 1.793h-21.521a1.794 1.794 0 0 1-1.793-1.793v-28.689a1.794 1.794 0 0 1 1.793-1.793H360.9a1.794 1.794 0 0 1 1.793 1.793Z"/><path data-name="Rechteck 6" d="M341.637 196.517h17v6h-17z"/></g><circle data-name="Ellipse 2" cx="118" cy="118" r="118" transform="translate(10)" fill="#fff" opacity=".16"/><circle data-name="Ellipse 3" cx="56" cy="56" r="56" transform="translate(323 18)" fill="#fff" opacity=".16"/><g fill="none" stroke="#fff" stroke-linecap="round" stroke-linejoin="round" stroke-width="6"><path data-name="Rechteck 7" d="M0 43h113v103H0z"/><path data-name="Linie 1" d="M0 63h113"/><path data-name="Pfad 33" d="m20.661 89.488 10.331 10.331-10.331 10.33"/><path data-name="Linie 2" d="M46 110h21"/><path data-name="Linie 3" d="M26 43v20"/></g><g fill="#fff"><path data-name="Pfad 31" d="M252.282 140h-67.226a3.056 3.056 0 0 0-3.056 3.056V167.5a3.056 3.056 0 0 0 3.056 3.056h67.226a3.056 3.056 0 0 0 3.056-3.056v-24.444a3.056 3.056 0 0 0-3.056-3.056Zm-39.725 18.334h-18.334v-6.111h18.334Zm27.5 0a3.056 3.056 0 1 1 3.056-3.056 3.056 3.056 0 0 1-3.054 3.056Z"/><path data-name="Pfad 32" d="M252.282 176.669h-67.226a3.056 3.056 0 0 0-3.056 3.056v24.444a3.056 3.056 0 0 0 3.056 3.056h67.226a3.056 3.056 0 0 0 3.056-3.056v-24.444a3.056 3.056 0 0 0-3.056-3.056Zm-39.725 18.334h-18.334v-6.111h18.334Zm27.5 0a3.056 3.056 0 1 1 3.056-3.056 3.056 3.056 0 0 1-3.054 3.056Z"/></g><path data-name="Linie 4" fill="none" stroke="#fff" stroke-linecap="round" stroke-width="4" d="m133.5 128.5 29 16"/><path data-name="Linie 5" fill="none" stroke="#fff" stroke-linecap="round" stroke-width="4" d="m274.5 149 45-35.5"/><path data-name="Linie 6" fill="none" stroke="#fff" stroke-linecap="round" stroke-width="4" d="m274.837 165.5 22.663 8"/><g data-name="Gruppe 4" transform="translate(350.298 45.624)" fill="#fff"><circle data-name="Ellipse 4" cx="2.482" cy="2.482" r="2.482" transform="translate(25.83 9.699)"/><path data-name="Pfad 34" d="M49.546 0H7.078A7.078 7.078 0 0 0 0 7.078v33.03a7.078 7.078 0 0 0 7.078 7.078h16.515V51.9H11.8v4.719h33.03V51.9h-11.8v-4.714h16.516a7.078 7.078 0 0 0 7.078-7.078V7.078A7.078 7.078 0 0 0 49.546 0ZM51.9 37.749H4.719V7.078a2.359 2.359 0 0 1 2.359-2.359h42.468A2.359 2.359 0 0 1 51.9 7.078Z"/></g></g></g></g></svg>