<svg id="Ebene_1" data-name="Ebene 1" xmlns="http://www.w3.org/2000/svg" xmlns:xlink="http://www.w3.org/1999/xlink" width="706.41" height="99" viewBox="0 0 706.41 99">
  <defs>
    <clipPath id="clip-path">
      <rect width="707" height="99" fill="none"/>
    </clipPath>
  </defs>
  <g clip-path="url(#clip-path)">
    <g id="chocfair-cookie">
      <path id="Pfad_1" data-name="Pfad 1" d="M121,54.6a22.43,22.43,0,0,1,2.6-11.1,18.71,18.71,0,0,1,7.1-7.4,20.11,20.11,0,0,1,10.4-2.6c5.1,0,9.2,1.2,12.5,3.7a17.45,17.45,0,0,1,6.5,10.2h-7.4a10.32,10.32,0,0,0-4.1-5.9,12.67,12.67,0,0,0-7.5-2.2,11.85,11.85,0,0,0-9.4,4q-3.6,4.05-3.6,11.4c0,5,1.2,8.8,3.6,11.5a12.22,12.22,0,0,0,9.4,4.1,12.38,12.38,0,0,0,7.5-2.1,10.89,10.89,0,0,0,4.1-6h7.4a18.19,18.19,0,0,1-6.6,10.1,22.12,22.12,0,0,1-22.8,1.2,18.08,18.08,0,0,1-7.1-7.4A24.77,24.77,0,0,1,121,54.6Zm68.5-21.2a17.63,17.63,0,0,1,8.4,2,13.69,13.69,0,0,1,5.9,6,20.23,20.23,0,0,1,2.1,9.7V75.3h-6.8V52c0-4.1-1-7.2-3.1-9.4a11.46,11.46,0,0,0-8.4-3.3,11.23,11.23,0,0,0-8.6,3.4c-2.1,2.2-3.2,5.5-3.2,9.8V75.2H169V19.8h6.8V40a14,14,0,0,1,5.6-4.9A20.64,20.64,0,0,1,189.5,33.4ZM235,75.9a22.36,22.36,0,0,1-10.5-2.6,17.61,17.61,0,0,1-7.3-7.5,24,24,0,0,1-2.7-11.2,22.51,22.51,0,0,1,2.7-11.1,18.43,18.43,0,0,1,7.5-7.4,22.76,22.76,0,0,1,10.6-2.6,20.82,20.82,0,0,1,10.6,2.6,19.74,19.74,0,0,1,7.5,7.4,21.85,21.85,0,0,1,2.7,11.2,21.94,21.94,0,0,1-2.8,11.2,20.27,20.27,0,0,1-7.6,7.5A22.17,22.17,0,0,1,235,75.9Zm0-6a15,15,0,0,0,6.9-1.7,13,13,0,0,0,5.2-5.2,16.54,16.54,0,0,0,2-8.4,17.54,17.54,0,0,0-1.9-8.4,12,12,0,0,0-5.1-5.1,14.58,14.58,0,0,0-6.8-1.7,15,15,0,0,0-6.9,1.7,12.9,12.9,0,0,0-5,5.1,17.54,17.54,0,0,0-1.9,8.4,18.1,18.1,0,0,0,1.8,8.5,12.06,12.06,0,0,0,4.9,5.1A12.53,12.53,0,0,0,235,69.9Zm27.5-15.3a22.43,22.43,0,0,1,2.6-11.1,18.71,18.71,0,0,1,7.1-7.4,20.11,20.11,0,0,1,10.4-2.6c5.1,0,9.2,1.2,12.5,3.7a17.45,17.45,0,0,1,6.5,10.2h-7.4a10.32,10.32,0,0,0-4.1-5.9,12.67,12.67,0,0,0-7.5-2.2,11.85,11.85,0,0,0-9.4,4q-3.6,4.05-3.6,11.4c0,5,1.2,8.8,3.6,11.5a12.22,12.22,0,0,0,9.4,4.1,12.38,12.38,0,0,0,7.5-2.1,10.89,10.89,0,0,0,4.1-6h7.4A18.19,18.19,0,0,1,295,72.3a22.12,22.12,0,0,1-22.8,1.2,18.08,18.08,0,0,1-7.1-7.4A24.77,24.77,0,0,1,262.5,54.6Zm68-10.5h-6.9V75.3H310.8V44.1h-4.6V33.4h4.6V32.2c0-5.1,1.5-9.1,4.4-11.7s7.3-4,13-4a11,11,0,0,1,2.1.1V27.5c-2.4-.2-4.2.2-5.2,1s-1.5,2.4-1.5,4.6v.4h6.9Zm3.4,10.2A25.8,25.8,0,0,1,336.3,43a18.48,18.48,0,0,1,6.6-7.5,16.51,16.51,0,0,1,9.4-2.6,16.26,16.26,0,0,1,7.8,1.8,12.85,12.85,0,0,1,5.1,4.7V33.5H378V75.3H365.2V69.4a13.83,13.83,0,0,1-5.2,4.7,16.26,16.26,0,0,1-7.8,1.8,17.08,17.08,0,0,1-9.3-2.7,18,18,0,0,1-6.6-7.6A25.8,25.8,0,0,1,333.9,54.3Zm31.4,0a10.21,10.21,0,0,0-2.7-7.6,8.85,8.85,0,0,0-6.5-2.8,9.15,9.15,0,0,0-6.5,2.7,10.55,10.55,0,0,0-2.7,7.5,10.63,10.63,0,0,0,2.7,7.6,8.94,8.94,0,0,0,13,0A9.86,9.86,0,0,0,365.3,54.3Zm28.6-25.2a7.52,7.52,0,0,1-5.5-2,6,6,0,0,1-2.1-4.9,6.72,6.72,0,0,1,2.1-5,7.52,7.52,0,0,1,5.5-2,7.15,7.15,0,0,1,5.4,2,6.37,6.37,0,0,1,2.1,5,6.35,6.35,0,0,1-2.1,4.9A8.2,8.2,0,0,1,393.9,29.1Zm6.3,4.3V75.3H387.4V33.4Zm22.2,7A17,17,0,0,1,428,35a15.31,15.31,0,0,1,7.5-2V46.6H432q-4.8,0-7.2,2.1t-2.4,7.2V75.3H409.6V33.4h12.8ZM455,54.3a22.58,22.58,0,0,1,2.7-11.4,18.43,18.43,0,0,1,7.4-7.5A21.93,21.93,0,0,1,476,32.8a20.92,20.92,0,0,1,13.2,4.1,19.15,19.15,0,0,1,6.9,11.6H482.5a6.48,6.48,0,0,0-6.7-4.8,6.78,6.78,0,0,0-5.6,2.7q-2.1,2.7-2.1,7.8t2.1,7.8a7.11,7.11,0,0,0,12.3-2.1h13.6a19.54,19.54,0,0,1-7,11.5A20.15,20.15,0,0,1,476,75.6,21.68,21.68,0,0,1,465.1,73a17.84,17.84,0,0,1-7.4-7.5A21.38,21.38,0,0,1,455,54.3Zm67,21.6a22.68,22.68,0,0,1-11.1-2.6,19.16,19.16,0,0,1-7.7-7.5,22.67,22.67,0,0,1-2.8-11.4A21.77,21.77,0,0,1,503.3,43a18.8,18.8,0,0,1,7.8-7.5,25,25,0,0,1,22.2,0,18.8,18.8,0,0,1,7.8,7.5,22.67,22.67,0,0,1,2.8,11.4A21.77,21.77,0,0,1,541,65.8a19.66,19.66,0,0,1-7.9,7.5A25.46,25.46,0,0,1,522,75.9Zm0-11.1a8.69,8.69,0,0,0,6.3-2.7c1.7-1.8,2.6-4.4,2.6-7.7s-.8-5.9-2.5-7.7a8.11,8.11,0,0,0-6.2-2.7,7.78,7.78,0,0,0-6.2,2.7c-1.7,1.8-2.5,4.4-2.5,7.8s.8,5.9,2.4,7.7A8.37,8.37,0,0,0,522,64.8Zm47.7,11.1a22.68,22.68,0,0,1-11.1-2.6,19.16,19.16,0,0,1-7.7-7.5,22.67,22.67,0,0,1-2.8-11.4A21.77,21.77,0,0,1,551,43a18.8,18.8,0,0,1,7.8-7.5,25,25,0,0,1,22.2,0,18.8,18.8,0,0,1,7.8,7.5,22.67,22.67,0,0,1,2.8,11.4,21.77,21.77,0,0,1-2.9,11.4,19.66,19.66,0,0,1-7.9,7.5A24.82,24.82,0,0,1,569.7,75.9Zm0-11.1a8.69,8.69,0,0,0,6.3-2.7c1.7-1.8,2.6-4.4,2.6-7.7s-.8-5.9-2.5-7.7a8.11,8.11,0,0,0-6.2-2.7,7.78,7.78,0,0,0-6.2,2.7c-1.7,1.8-2.5,4.4-2.5,7.8s.8,5.9,2.4,7.7A8.54,8.54,0,0,0,569.7,64.8ZM624,75.3,611.2,57.8V75.3H598.4V19.8h12.8V50.5l12.7-17h15.8l-17.4,21,17.6,20.8Zm27.2-46.2a7.52,7.52,0,0,1-5.5-2,6,6,0,0,1-2.1-4.9,6.72,6.72,0,0,1,2.1-5,7.52,7.52,0,0,1,5.5-2,7.15,7.15,0,0,1,5.4,2,6.37,6.37,0,0,1,2.1,5,6.35,6.35,0,0,1-2.1,4.9A7.83,7.83,0,0,1,651.2,29.1Zm6.4,4.3V75.3H644.8V33.4Zm48.8,20.3c0,1.3-.1,2.5-.2,3.8h-29a8.57,8.57,0,0,0,2.5,6,7.81,7.81,0,0,0,5.4,2.1,6.75,6.75,0,0,0,6.7-4.1h13.7a18.65,18.65,0,0,1-3.8,7.4,19.68,19.68,0,0,1-6.9,5.2,22.64,22.64,0,0,1-9.2,1.9,22.3,22.3,0,0,1-11-2.6,18.08,18.08,0,0,1-7.5-7.5,22.58,22.58,0,0,1-2.7-11.4,22.58,22.58,0,0,1,2.7-11.4,18.08,18.08,0,0,1,7.5-7.5,24.57,24.57,0,0,1,21.8-.1,18.56,18.56,0,0,1,7.4,7.3A22.23,22.23,0,0,1,706.4,53.7Zm-13.2-3.4a6.41,6.41,0,0,0-2.2-5.2,8.93,8.93,0,0,0-5.6-2A7.63,7.63,0,0,0,680,45a8.51,8.51,0,0,0-2.7,5.3Z" fill="#f8b600"/>
      <path id="Vereinigungsmenge_1" data-name="Vereinigungsmenge 1" d="M86.9,0H12.1A12.08,12.08,0,0,0,0,12.1V86.8A12.1,12.1,0,0,0,12.1,99H44.7A18,18,0,0,1,64.3,82.9a16.89,16.89,0,0,1,6.6,2V84A17.89,17.89,0,0,1,99,69.3V12.1A12.08,12.08,0,0,0,86.9,0Z" fill="#f8b600"/>
      <g id="Gruppe_1" data-name="Gruppe 1">
        <path id="Rechteck_23" data-name="Rechteck 23" d="M17,10H43a7,7,0,0,1,7,7V43a7,7,0,0,1-7,7H17a7,7,0,0,1-7-7V17A7,7,0,0,1,17,10Z" fill="#fff"/>
        <g id="check">
          <path id="Pfad_31" data-name="Pfad 31" d="M27.53,39.68,16.83,29l3.8-3.8,7,7,12.1-11.9,3.7,3.8Z" fill="#f8b600"/>
        </g>
      </g>
    </g>
  </g>
</svg>
