<?xml version="1.0" encoding="utf-8"?>
<!-- Generator: Adobe Illustrator 25.4.1, SVG Export Plug-In . SVG Version: 6.00 Build 0)  -->
<svg version="1.1" id="Ebene_1" xmlns="http://www.w3.org/2000/svg" xmlns:xlink="http://www.w3.org/1999/xlink" x="0px" y="0px"
	 viewBox="0 0 255 472.2" style="enable-background:new 0 0 255 472.2;" xml:space="preserve">
<style type="text/css">
	.st0{fill:#3E3E3E;}
	.st1{fill:#505050;}
	.st2{fill:#1A1A1A;}
</style>
<path class="st0" d="M252.5,96.3V22.8c0-12.6-10.3-22.8-22.8-22.8H26.1C13.5,0,3.2,10.3,3.2,22.8v101.8H2.8c-1.5,0-2.8,1.3-2.8,2.8
	v21.5c0,1.5,1.3,2.8,2.8,2.8h0.5v297.7c0,12.6,10.3,22.8,22.8,22.8h203.6c12.6,0,22.8-10.3,22.8-22.8V180.1c1.4-0.2,2.5-1.3,2.5-2.8
	V99C254.9,97.6,253.9,96.5,252.5,96.3z M244.6,441.8c0,9.2-7.4,16.6-16.6,16.6H27.9c-9.2,0-16.6-7.4-16.6-16.6V45
	c0-9.2,7.4-16.6,16.6-16.6H228c9.2,0,16.6,7.4,16.6,16.6V441.8z"/>
<ellipse id="Ellipse_9" class="st1" cx="120.1" cy="14.4" rx="4.1" ry="4.1"/>
<circle id="Ellipse_10" class="st2" cx="134.6" cy="14.4" r="5.2"/>
</svg>
