<svg xmlns="http://www.w3.org/2000/svg" xmlns:xlink="http://www.w3.org/1999/xlink" width="350.18" height="385.501" viewBox="0 0 350.18 385.501">
  <defs>
    <linearGradient id="linear-gradient" x1="0.5" x2="0.5" y2="1" gradientUnits="objectBoundingBox">
      <stop offset="0" stop-color="#f1f1f1"/>
      <stop offset="1" stop-color="#e8e8e8"/>
    </linearGradient>
  </defs>
  <g id="header-chocfair-cookie-device" transform="translate(-9917 -224.5)">
    <rect id="Rechteck_40" data-name="Rechteck 40" width="328" height="351" transform="translate(9929 259)" fill="url(#linear-gradient)"/>
    <path id="Differenzmenge_1" data-name="Differenzmenge 1" d="M501.764,385.5H490.9V61.8a22.8,22.8,0,0,0-22.773-22.773H193.3A22.8,22.8,0,0,0,170.527,61.8V385.5H159.451V208.265h-.621a3.882,3.882,0,0,1-3.83-3.83v-29.5a3.882,3.882,0,0,1,3.83-3.83h.621V31.364A31.4,31.4,0,0,1,190.815,0H470.4a31.4,31.4,0,0,1,31.364,31.364v100.82a4.074,4.074,0,0,1,3.416,3.83V243.459a3.83,3.83,0,0,1-3.416,3.83V385.5Z" transform="translate(9762 224.5)" fill="#3e3e3e"/>
    <g id="Gruppe_134" data-name="Gruppe 134" transform="translate(8728 -30)">
      <g id="Gruppe_105" data-name="Gruppe 105" transform="translate(0 -8)">
        <rect id="Rechteck_37" data-name="Rechteck 37" width="211" height="46" rx="3" transform="translate(1258 458)" fill="#d51317"/>
        <path id="Pfad_111" data-name="Pfad 111" d="M8.43,0,7.6-2.719H3.438L2.609,0H0L4.031-11.469H6.992L11.039,0ZM7.023-4.75Q5.875-8.445,5.73-8.93T5.523-9.7q-.258,1-1.477,4.945ZM14.672,0H12.289V-12.156h2.383Zm4.883,0H17.172V-12.156h2.383Zm6.117-7.2a1.511,1.511,0,0,0-1.187.48,2.224,2.224,0,0,0-.492,1.363h3.344a1.986,1.986,0,0,0-.461-1.363A1.561,1.561,0,0,0,25.672-7.2ZM26.008.156a4.508,4.508,0,0,1-3.3-1.164,4.408,4.408,0,0,1-1.187-3.3,4.848,4.848,0,0,1,1.1-3.395,3.909,3.909,0,0,1,3.035-1.2,3.847,3.847,0,0,1,2.883,1.055A3.99,3.99,0,0,1,29.57-4.93v1.156H23.938a2.294,2.294,0,0,0,.6,1.586,2.117,2.117,0,0,0,1.578.57,6.551,6.551,0,0,0,1.492-.164A7.466,7.466,0,0,0,29.078-2.3V-.461A5.6,5.6,0,0,1,27.742,0,8.423,8.423,0,0,1,26.008.156ZM41.211,0,40.75-1.187h-.062A3.519,3.519,0,0,1,39.449-.137a4,4,0,0,1-1.66.293,2.685,2.685,0,0,1-1.98-.719,2.76,2.76,0,0,1-.723-2.047,2.3,2.3,0,0,1,.973-2.051,5.636,5.636,0,0,1,2.934-.73l1.516-.047V-5.82a1.188,1.188,0,0,0-1.359-1.328,6.2,6.2,0,0,0-2.461.633L35.9-8.125a7.1,7.1,0,0,1,3.344-.789,4.165,4.165,0,0,1,2.7.766,2.83,2.83,0,0,1,.938,2.328V0Zm-.7-4.047-.922.031a2.952,2.952,0,0,0-1.547.375,1.178,1.178,0,0,0-.508,1.047q0,1.008,1.156,1.008a1.831,1.831,0,0,0,1.324-.477,1.674,1.674,0,0,0,.5-1.266Zm7.109-.7,1.039-1.328L51.1-8.734h2.688L50.32-4.945,54,0H51.25L48.734-3.539l-1.023.82V0H45.328V-12.156h2.383v5.422L47.586-4.75ZM61.328,0h-6.9V-1.406l4.047-5.508h-3.8v-1.82h6.516v1.547L57.25-1.82h4.078Zm5.344-7.2a1.511,1.511,0,0,0-1.187.48,2.224,2.224,0,0,0-.492,1.363h3.344a1.986,1.986,0,0,0-.461-1.363A1.561,1.561,0,0,0,66.672-7.2ZM67.008.156a4.508,4.508,0,0,1-3.3-1.164,4.408,4.408,0,0,1-1.187-3.3,4.848,4.848,0,0,1,1.1-3.395,3.909,3.909,0,0,1,3.035-1.2,3.847,3.847,0,0,1,2.883,1.055A3.99,3.99,0,0,1,70.57-4.93v1.156H64.938a2.294,2.294,0,0,0,.6,1.586,2.117,2.117,0,0,0,1.578.57,6.551,6.551,0,0,0,1.492-.164A7.466,7.466,0,0,0,70.078-2.3V-.461A5.6,5.6,0,0,1,68.742,0,8.423,8.423,0,0,1,67.008.156Zm10.3,0A2.9,2.9,0,0,1,74.891-.961h-.125Q74.891.133,74.891.3V3.844H72.508V-8.734h1.938L74.781-7.6h.109a2.757,2.757,0,0,1,2.477-1.3,2.834,2.834,0,0,1,2.422,1.2,5.528,5.528,0,0,1,.875,3.32,6.556,6.556,0,0,1-.41,2.43,3.408,3.408,0,0,1-1.168,1.57A2.993,2.993,0,0,1,77.3.156Zm-.7-7.148a1.5,1.5,0,0,0-1.289.543,3.117,3.117,0,0,0-.422,1.793V-4.4a3.68,3.68,0,0,0,.418,2.016,1.492,1.492,0,0,0,1.324.609q1.6,0,1.6-2.641a3.771,3.771,0,0,0-.395-1.934A1.347,1.347,0,0,0,76.6-6.992Zm9.711,5.25a5.165,5.165,0,0,0,1.5-.273V-.242a5.348,5.348,0,0,1-2.187.4,2.677,2.677,0,0,1-2.082-.723,3.145,3.145,0,0,1-.652-2.168V-6.945H81.75V-7.953l1.313-.8.688-1.844h1.523v1.859h2.445v1.789H85.273v4.211a.93.93,0,0,0,.285.75A1.125,1.125,0,0,0,86.313-1.742Zm3.164-9.25q0-1.164,1.3-1.164t1.3,1.164a1.135,1.135,0,0,1-.324.863,1.363,1.363,0,0,1-.973.309Q89.477-9.82,89.477-10.992ZM91.961,0H89.578V-8.734h2.383Zm6.117-7.2a1.511,1.511,0,0,0-1.187.48A2.224,2.224,0,0,0,96.4-5.359h3.344a1.986,1.986,0,0,0-.461-1.363A1.561,1.561,0,0,0,98.078-7.2ZM98.414.156a4.508,4.508,0,0,1-3.3-1.164A4.408,4.408,0,0,1,93.93-4.3a4.848,4.848,0,0,1,1.1-3.395,3.909,3.909,0,0,1,3.035-1.2,3.847,3.847,0,0,1,2.883,1.055,3.99,3.99,0,0,1,1.031,2.914v1.156H96.344a2.294,2.294,0,0,0,.6,1.586,2.117,2.117,0,0,0,1.578.57,6.551,6.551,0,0,0,1.492-.164,7.466,7.466,0,0,0,1.469-.523V-.461A5.6,5.6,0,0,1,100.148,0,8.423,8.423,0,0,1,98.414.156ZM108.789-8.9a3.843,3.843,0,0,1,.8.07l-.18,2.234a2.73,2.73,0,0,0-.7-.078,2.527,2.527,0,0,0-1.777.586,2.118,2.118,0,0,0-.637,1.641V0h-2.383V-8.734h1.8l.352,1.469h.117a3.283,3.283,0,0,1,1.1-1.184A2.707,2.707,0,0,1,108.789-8.9ZM114.8-7.2a1.511,1.511,0,0,0-1.187.48,2.224,2.224,0,0,0-.492,1.363h3.344A1.986,1.986,0,0,0,116-6.723,1.561,1.561,0,0,0,114.8-7.2Zm.336,7.359a4.508,4.508,0,0,1-3.3-1.164,4.408,4.408,0,0,1-1.187-3.3,4.848,4.848,0,0,1,1.1-3.395,3.909,3.909,0,0,1,3.035-1.2,3.847,3.847,0,0,1,2.883,1.055A3.99,3.99,0,0,1,118.7-4.93v1.156h-5.633a2.294,2.294,0,0,0,.6,1.586,2.117,2.117,0,0,0,1.578.57,6.551,6.551,0,0,0,1.492-.164A7.466,7.466,0,0,0,118.2-2.3V-.461A5.6,5.6,0,0,1,116.867,0,8.423,8.423,0,0,1,115.133.156ZM128.7,0h-2.383V-5.1a2.45,2.45,0,0,0-.336-1.418,1.222,1.222,0,0,0-1.07-.473,1.609,1.609,0,0,0-1.445.668,4.143,4.143,0,0,0-.445,2.215V0h-2.383V-8.734h1.82l.32,1.117h.133a2.518,2.518,0,0,1,1.1-.957,3.738,3.738,0,0,1,1.59-.324,3.055,3.055,0,0,1,2.313.824A3.308,3.308,0,0,1,128.7-5.7Z" transform="translate(1299 486)" fill="#fff"/>
        <path id="Pfad_114" data-name="Pfad 114" d="M7.938,0H1.57V-11.422H7.938v1.18H2.9v3.68H7.633v1.172H2.9v4.2H7.938ZM15.8-2.336a2.145,2.145,0,0,1-.891,1.844,4.186,4.186,0,0,1-2.5.648A5.436,5.436,0,0,1,9.75-.383v-1.2a6.424,6.424,0,0,0,1.324.492,5.53,5.53,0,0,0,1.363.18A3.092,3.092,0,0,0,14-1.238a1.072,1.072,0,0,0,.547-.988,1.073,1.073,0,0,0-.434-.855,6.82,6.82,0,0,0-1.691-.84,9.172,9.172,0,0,1-1.7-.777,2.321,2.321,0,0,1-.75-.754,1.966,1.966,0,0,1-.246-1.008,1.921,1.921,0,0,1,.852-1.652,3.968,3.968,0,0,1,2.336-.605,6.835,6.835,0,0,1,2.7.563L15.156-7.1a6.2,6.2,0,0,0-2.336-.531,2.688,2.688,0,0,0-1.391.289.894.894,0,0,0-.469.8.971.971,0,0,0,.176.586A1.735,1.735,0,0,0,11.7-5.5a12.658,12.658,0,0,0,1.5.633A5.6,5.6,0,0,1,15.262-3.75,1.97,1.97,0,0,1,15.8-2.336Zm7.633,0a2.145,2.145,0,0,1-.891,1.844,4.186,4.186,0,0,1-2.5.648,5.436,5.436,0,0,1-2.656-.539v-1.2a6.424,6.424,0,0,0,1.324.492,5.53,5.53,0,0,0,1.363.18,3.092,3.092,0,0,0,1.563-.324,1.072,1.072,0,0,0,.547-.988,1.073,1.073,0,0,0-.434-.855,6.82,6.82,0,0,0-1.691-.84,9.172,9.172,0,0,1-1.7-.777,2.321,2.321,0,0,1-.75-.754,1.966,1.966,0,0,1-.246-1.008,1.921,1.921,0,0,1,.852-1.652,3.968,3.968,0,0,1,2.336-.605,6.835,6.835,0,0,1,2.7.563L22.789-7.1a6.2,6.2,0,0,0-2.336-.531,2.687,2.687,0,0,0-1.391.289.894.894,0,0,0-.469.8.971.971,0,0,0,.176.586,1.735,1.735,0,0,0,.566.461,12.658,12.658,0,0,0,1.5.633A5.6,5.6,0,0,1,22.895-3.75,1.97,1.97,0,0,1,23.43-2.336ZM29.156.156A3.934,3.934,0,0,1,26.16-1a4.476,4.476,0,0,1-1.1-3.211A4.964,4.964,0,0,1,26.082-7.5,3.387,3.387,0,0,1,28.82-8.719,3.229,3.229,0,0,1,31.367-7.66,4.057,4.057,0,0,1,32.3-4.867v.82h-5.9a3.394,3.394,0,0,0,.762,2.289A2.635,2.635,0,0,0,29.2-.977a6.9,6.9,0,0,0,2.734-.578V-.4a6.863,6.863,0,0,1-1.3.426A7.31,7.31,0,0,1,29.156.156ZM28.8-7.633a2.118,2.118,0,0,0-1.645.672A3.1,3.1,0,0,0,26.438-5.1h4.477a2.851,2.851,0,0,0-.547-1.879A1.925,1.925,0,0,0,28.8-7.633ZM40.375,0V-5.539A2.235,2.235,0,0,0,39.9-7.1a1.941,1.941,0,0,0-1.492-.516,2.461,2.461,0,0,0-1.969.727,3.668,3.668,0,0,0-.625,2.4V0h-1.3V-8.562H35.57l.211,1.172h.063a2.648,2.648,0,0,1,1.117-.98,3.63,3.63,0,0,1,1.6-.348,3.252,3.252,0,0,1,2.328.746,3.175,3.175,0,0,1,.781,2.387V0Zm9.438,0H43.6V-.883l4.672-6.672H43.891V-8.562h5.8v1.008L45.086-1.008h4.727Zm3.3,0h-1.3V-8.562h1.3ZM51.711-10.883a.861.861,0,0,1,.219-.652.764.764,0,0,1,.547-.207.764.764,0,0,1,.539.211.846.846,0,0,1,.227.648.859.859,0,0,1-.227.652.757.757,0,0,1-.539.215.749.749,0,0,1-.547-.215A.877.877,0,0,1,51.711-10.883ZM59.484.156a3.934,3.934,0,0,1-3-1.156,4.476,4.476,0,0,1-1.1-3.211A4.964,4.964,0,0,1,56.41-7.5a3.387,3.387,0,0,1,2.738-1.219A3.229,3.229,0,0,1,61.7-7.66a4.057,4.057,0,0,1,.938,2.793v.82h-5.9A3.394,3.394,0,0,0,57.5-1.758a2.634,2.634,0,0,0,2.035.781,6.9,6.9,0,0,0,2.734-.578V-.4a6.863,6.863,0,0,1-1.3.426A7.31,7.31,0,0,1,59.484.156Zm-.352-7.789a2.118,2.118,0,0,0-1.645.672A3.1,3.1,0,0,0,56.766-5.1h4.477A2.851,2.851,0,0,0,60.7-6.98,1.925,1.925,0,0,0,59.133-7.633ZM66.141,0h-1.3V-12.156h1.3Zm4.047,0h-1.3V-12.156h1.3Z" transform="translate(1295 433.133)" fill="#d51317"/>
        <path id="Pfad_115" data-name="Pfad 115" d="M7.938,0H1.57V-11.422H7.938v1.18H2.9v3.68H7.633v1.172H2.9v4.2H7.938Zm4.4-4.383L9.359-8.562h1.477l2.258,3.281,2.25-3.281H16.8l-2.977,4.18L16.961,0H15.492l-2.4-3.469L10.672,0H9.2ZM21.422-.914a4.236,4.236,0,0,0,.664-.051,4.3,4.3,0,0,0,.508-.105v.992a2.371,2.371,0,0,1-.621.168,4.664,4.664,0,0,1-.738.066q-2.484,0-2.484-2.617V-7.555H17.523V-8.18l1.227-.539.547-1.828h.75v1.984h2.484v1.008H20.047v5.039a1.734,1.734,0,0,0,.367,1.188A1.278,1.278,0,0,0,21.422-.914Zm6.5,1.07a3.934,3.934,0,0,1-3-1.156,4.476,4.476,0,0,1-1.1-3.211A4.964,4.964,0,0,1,24.848-7.5a3.387,3.387,0,0,1,2.738-1.219A3.229,3.229,0,0,1,30.133-7.66a4.057,4.057,0,0,1,.938,2.793v.82h-5.9a3.394,3.394,0,0,0,.762,2.289,2.635,2.635,0,0,0,2.035.781A6.9,6.9,0,0,0,30.7-1.555V-.4a6.863,6.863,0,0,1-1.3.426A7.31,7.31,0,0,1,27.922.156ZM27.57-7.633a2.118,2.118,0,0,0-1.645.672A3.1,3.1,0,0,0,25.2-5.1H29.68a2.851,2.851,0,0,0-.547-1.879A1.925,1.925,0,0,0,27.57-7.633Zm9.617-1.086a5.075,5.075,0,0,1,1.023.094l-.18,1.2a4.418,4.418,0,0,0-.937-.117,2.282,2.282,0,0,0-1.777.844,3.077,3.077,0,0,0-.738,2.1V0h-1.3V-8.562h1.07L34.5-6.977h.063a3.764,3.764,0,0,1,1.148-1.289A2.585,2.585,0,0,1,37.188-8.719ZM45.672,0V-5.539A2.235,2.235,0,0,0,45.2-7.1,1.941,1.941,0,0,0,43.7-7.617a2.461,2.461,0,0,0-1.969.727,3.668,3.668,0,0,0-.625,2.4V0h-1.3V-8.562h1.055l.211,1.172h.063a2.648,2.648,0,0,1,1.117-.98,3.63,3.63,0,0,1,1.6-.348,3.252,3.252,0,0,1,2.328.746,3.175,3.175,0,0,1,.781,2.387V0ZM53.25.156a3.934,3.934,0,0,1-3-1.156,4.476,4.476,0,0,1-1.1-3.211A4.964,4.964,0,0,1,50.176-7.5a3.387,3.387,0,0,1,2.738-1.219A3.229,3.229,0,0,1,55.461-7.66,4.057,4.057,0,0,1,56.4-4.867v.82H50.5a3.394,3.394,0,0,0,.762,2.289A2.634,2.634,0,0,0,53.3-.977a6.9,6.9,0,0,0,2.734-.578V-.4a6.863,6.863,0,0,1-1.3.426A7.31,7.31,0,0,1,53.25.156ZM52.9-7.633a2.118,2.118,0,0,0-1.645.672A3.1,3.1,0,0,0,50.531-5.1h4.477a2.851,2.851,0,0,0-.547-1.879A1.925,1.925,0,0,0,52.9-7.633ZM68.016,0,64.141-10.125h-.062q.109,1.2.109,2.859V0H62.961V-11.422h2L68.578-2h.063l3.648-9.422h1.984V0H72.945V-7.359q0-1.266.109-2.75h-.062L69.086,0ZM80.828.156a3.934,3.934,0,0,1-3-1.156,4.476,4.476,0,0,1-1.1-3.211A4.964,4.964,0,0,1,77.754-7.5a3.387,3.387,0,0,1,2.738-1.219A3.229,3.229,0,0,1,83.039-7.66a4.057,4.057,0,0,1,.938,2.793v.82h-5.9a3.394,3.394,0,0,0,.762,2.289,2.635,2.635,0,0,0,2.035.781,6.9,6.9,0,0,0,2.734-.578V-.4a6.863,6.863,0,0,1-1.3.426A7.31,7.31,0,0,1,80.828.156Zm-.352-7.789a2.118,2.118,0,0,0-1.645.672A3.1,3.1,0,0,0,78.109-5.1h4.477a2.851,2.851,0,0,0-.547-1.879A1.925,1.925,0,0,0,80.477-7.633ZM92.016-1.148h-.07a3.047,3.047,0,0,1-2.687,1.3A3.179,3.179,0,0,1,86.645-.992a5.055,5.055,0,0,1-.934-3.266,5.141,5.141,0,0,1,.938-3.289,3.155,3.155,0,0,1,2.609-1.172A3.114,3.114,0,0,1,91.93-7.453h.1l-.055-.617-.031-.6v-3.484h1.3V0H92.188ZM89.422-.93a2.361,2.361,0,0,0,1.926-.723,3.652,3.652,0,0,0,.6-2.332v-.273a4.3,4.3,0,0,0-.605-2.6,2.3,2.3,0,0,0-1.934-.777,1.985,1.985,0,0,0-1.746.887,4.409,4.409,0,0,0-.605,2.5,4.227,4.227,0,0,0,.6,2.477A2.037,2.037,0,0,0,89.422-.93ZM97.289,0h-1.3V-8.562h1.3ZM95.883-10.883a.861.861,0,0,1,.219-.652.764.764,0,0,1,.547-.207.764.764,0,0,1,.539.211.846.846,0,0,1,.227.648.859.859,0,0,1-.227.652.757.757,0,0,1-.539.215.749.749,0,0,1-.547-.215A.877.877,0,0,1,95.883-10.883ZM103.656.156a3.934,3.934,0,0,1-3-1.156,4.476,4.476,0,0,1-1.1-3.211,4.964,4.964,0,0,1,1.02-3.289,3.387,3.387,0,0,1,2.738-1.219,3.229,3.229,0,0,1,2.547,1.059,4.057,4.057,0,0,1,.938,2.793v.82h-5.9a3.394,3.394,0,0,0,.762,2.289,2.635,2.635,0,0,0,2.035.781,6.9,6.9,0,0,0,2.734-.578V-.4a6.863,6.863,0,0,1-1.3.426A7.31,7.31,0,0,1,103.656.156ZM103.3-7.633a2.118,2.118,0,0,0-1.645.672,3.1,3.1,0,0,0-.723,1.859h4.477a2.851,2.851,0,0,0-.547-1.879A1.925,1.925,0,0,0,103.3-7.633ZM114.875,0V-5.539A2.235,2.235,0,0,0,114.4-7.1a1.941,1.941,0,0,0-1.492-.516,2.461,2.461,0,0,0-1.969.727,3.668,3.668,0,0,0-.625,2.4V0h-1.3V-8.562h1.055l.211,1.172h.063a2.648,2.648,0,0,1,1.117-.98,3.63,3.63,0,0,1,1.6-.348,3.252,3.252,0,0,1,2.328.746,3.175,3.175,0,0,1,.781,2.387V0Z" transform="translate(1295 397.133)" fill="#d51317"/>
        <path id="Pfad_116" data-name="Pfad 116" d="M8.016-3.039A2.8,2.8,0,0,1,6.922-.687,4.743,4.743,0,0,1,3.953.156,7.436,7.436,0,0,1,.828-.367V-1.648a8.227,8.227,0,0,0,1.531.469A8.056,8.056,0,0,0,4-1.008a3.31,3.31,0,0,0,2-.5,1.654,1.654,0,0,0,.672-1.4,1.8,1.8,0,0,0-.238-.973,2.214,2.214,0,0,0-.8-.7,11.148,11.148,0,0,0-1.7-.727A5.424,5.424,0,0,1,1.66-6.664,2.984,2.984,0,0,1,.977-8.7a2.536,2.536,0,0,1,.992-2.1,4.123,4.123,0,0,1,2.625-.781,7.736,7.736,0,0,1,3.133.625L7.313-9.8a7.08,7.08,0,0,0-2.75-.594,2.661,2.661,0,0,0-1.648.453A1.493,1.493,0,0,0,2.32-8.687a1.928,1.928,0,0,0,.219.973,2.06,2.06,0,0,0,.738.7,9.173,9.173,0,0,0,1.59.7A6.294,6.294,0,0,1,7.34-4.945,2.7,2.7,0,0,1,8.016-3.039ZM12.922-.914a4.236,4.236,0,0,0,.664-.051,4.3,4.3,0,0,0,.508-.105v.992a2.371,2.371,0,0,1-.621.168,4.664,4.664,0,0,1-.738.066q-2.484,0-2.484-2.617V-7.555H9.023V-8.18l1.227-.539.547-1.828h.75v1.984h2.484v1.008H11.547v5.039a1.734,1.734,0,0,0,.367,1.188A1.278,1.278,0,0,0,12.922-.914ZM21.07,0l-.258-1.219H20.75a3.6,3.6,0,0,1-1.277,1.09,3.893,3.893,0,0,1-1.59.285,2.86,2.86,0,0,1-2-.656,2.394,2.394,0,0,1-.723-1.867q0-2.594,4.148-2.719l1.453-.047v-.531a2.171,2.171,0,0,0-.434-1.488,1.783,1.783,0,0,0-1.387-.48,5.65,5.65,0,0,0-2.422.656l-.4-.992a6.094,6.094,0,0,1,1.387-.539,6.006,6.006,0,0,1,1.512-.2,3.262,3.262,0,0,1,2.27.68,2.837,2.837,0,0,1,.738,2.18V0Zm-2.93-.914a2.632,2.632,0,0,0,1.9-.664,2.457,2.457,0,0,0,.691-1.859v-.773l-1.3.055a4.717,4.717,0,0,0-2.23.48,1.449,1.449,0,0,0-.684,1.324,1.336,1.336,0,0,0,.426,1.07A1.767,1.767,0,0,0,18.141-.914Zm9.328,0a4.236,4.236,0,0,0,.664-.051,4.3,4.3,0,0,0,.508-.105v.992A2.371,2.371,0,0,1,28.02.09a4.664,4.664,0,0,1-.738.066Q24.8.156,24.8-2.461V-7.555H23.57V-8.18L24.8-8.719l.547-1.828h.75v1.984h2.484v1.008H26.094v5.039a1.734,1.734,0,0,0,.367,1.188A1.278,1.278,0,0,0,27.469-.914ZM31.648,0h-1.3V-8.562h1.3ZM30.242-10.883a.861.861,0,0,1,.219-.652.764.764,0,0,1,.547-.207.764.764,0,0,1,.539.211.846.846,0,0,1,.227.648.859.859,0,0,1-.227.652.757.757,0,0,1-.539.215.749.749,0,0,1-.547-.215A.877.877,0,0,1,30.242-10.883Zm9.68,8.547a2.145,2.145,0,0,1-.891,1.844,4.186,4.186,0,0,1-2.5.648,5.436,5.436,0,0,1-2.656-.539v-1.2a6.424,6.424,0,0,0,1.324.492,5.53,5.53,0,0,0,1.363.18,3.092,3.092,0,0,0,1.563-.324,1.072,1.072,0,0,0,.547-.988,1.073,1.073,0,0,0-.434-.855,6.82,6.82,0,0,0-1.691-.84,9.172,9.172,0,0,1-1.7-.777,2.321,2.321,0,0,1-.75-.754,1.966,1.966,0,0,1-.246-1.008A1.921,1.921,0,0,1,34.7-8.113a3.968,3.968,0,0,1,2.336-.605,6.835,6.835,0,0,1,2.7.563L39.281-7.1a6.2,6.2,0,0,0-2.336-.531,2.688,2.688,0,0,0-1.391.289.894.894,0,0,0-.469.8.971.971,0,0,0,.176.586,1.735,1.735,0,0,0,.566.461,12.658,12.658,0,0,0,1.5.633A5.6,5.6,0,0,1,39.387-3.75,1.97,1.97,0,0,1,39.922-2.336ZM44.8-.914a4.236,4.236,0,0,0,.664-.051,4.3,4.3,0,0,0,.508-.105v.992a2.371,2.371,0,0,1-.621.168,4.664,4.664,0,0,1-.738.066q-2.484,0-2.484-2.617V-7.555H40.9V-8.18l1.227-.539.547-1.828h.75v1.984h2.484v1.008H43.422v5.039a1.734,1.734,0,0,0,.367,1.188A1.278,1.278,0,0,0,44.8-.914ZM48.977,0h-1.3V-8.562h1.3ZM47.57-10.883a.861.861,0,0,1,.219-.652.764.764,0,0,1,.547-.207.764.764,0,0,1,.539.211.846.846,0,0,1,.227.648.859.859,0,0,1-.227.652.757.757,0,0,1-.539.215.749.749,0,0,1-.547-.215A.877.877,0,0,1,47.57-10.883Zm5.438,6.5a15.251,15.251,0,0,1,1.023-1.25L56.8-8.562h1.539L54.867-4.914,58.578,0h-1.57L53.984-4.047l-.977.844V0H51.727V-12.156h1.281v6.445q0,.43-.062,1.328ZM63.742.156a3.934,3.934,0,0,1-3-1.156,4.476,4.476,0,0,1-1.1-3.211A4.964,4.964,0,0,1,60.668-7.5a3.387,3.387,0,0,1,2.738-1.219A3.229,3.229,0,0,1,65.953-7.66a4.057,4.057,0,0,1,.938,2.793v.82h-5.9a3.394,3.394,0,0,0,.762,2.289,2.634,2.634,0,0,0,2.035.781,6.9,6.9,0,0,0,2.734-.578V-.4a6.863,6.863,0,0,1-1.3.426A7.31,7.31,0,0,1,63.742.156Zm-.352-7.789a2.118,2.118,0,0,0-1.645.672A3.1,3.1,0,0,0,61.023-5.1H65.5a2.851,2.851,0,0,0-.547-1.879A1.925,1.925,0,0,0,63.391-7.633ZM74.961,0V-5.539A2.235,2.235,0,0,0,74.484-7.1a1.941,1.941,0,0,0-1.492-.516,2.461,2.461,0,0,0-1.969.727,3.668,3.668,0,0,0-.625,2.4V0H69.1V-8.562h1.055l.211,1.172h.063a2.648,2.648,0,0,1,1.117-.98,3.63,3.63,0,0,1,1.6-.348,3.252,3.252,0,0,1,2.328.746,3.175,3.175,0,0,1,.781,2.387V0Z" transform="translate(1295 360.266)" fill="#d51317"/>
        <rect id="Rechteck_37-2" data-name="Rechteck 37" width="211" height="46" rx="3" transform="translate(1258 510)" fill="#d51317"/>
        <path id="Pfad_112" data-name="Pfad 112" d="M8.18-3.172A2.953,2.953,0,0,1,7.066-.734a4.836,4.836,0,0,1-3.1.891A7.275,7.275,0,0,1,.734-.531v-2.25a13.329,13.329,0,0,0,1.957.727,5.791,5.791,0,0,0,1.465.211,2.083,2.083,0,0,0,1.223-.3A1.042,1.042,0,0,0,5.8-3.055a1,1,0,0,0-.187-.6,2.1,2.1,0,0,0-.551-.5,14.166,14.166,0,0,0-1.48-.773,7.017,7.017,0,0,1-1.57-.945A3.549,3.549,0,0,1,1.18-6.93,3.01,3.01,0,0,1,.867-8.336a2.952,2.952,0,0,1,1.027-2.383,4.269,4.269,0,0,1,2.84-.867,6.706,6.706,0,0,1,1.7.211,11.68,11.68,0,0,1,1.691.594L7.344-8.9a11.43,11.43,0,0,0-1.512-.523A4.866,4.866,0,0,0,4.656-9.57,1.557,1.557,0,0,0,3.6-9.25a1.057,1.057,0,0,0-.367.836,1.035,1.035,0,0,0,.148.559,1.632,1.632,0,0,0,.473.461,14.614,14.614,0,0,0,1.535.8,6.108,6.108,0,0,1,2.2,1.535A3,3,0,0,1,8.18-3.172ZM14.859.156A2.9,2.9,0,0,1,12.445-.961H12.32Q12.445.133,12.445.3V3.844H10.063V-8.734H12L12.336-7.6h.109a2.757,2.757,0,0,1,2.477-1.3,2.834,2.834,0,0,1,2.422,1.2,5.528,5.528,0,0,1,.875,3.32,6.556,6.556,0,0,1-.41,2.43,3.408,3.408,0,0,1-1.168,1.57A2.993,2.993,0,0,1,14.859.156Zm-.7-7.148a1.5,1.5,0,0,0-1.289.543,3.117,3.117,0,0,0-.422,1.793V-4.4a3.68,3.68,0,0,0,.418,2.016,1.492,1.492,0,0,0,1.324.609q1.6,0,1.6-2.641a3.771,3.771,0,0,0-.395-1.934A1.347,1.347,0,0,0,14.156-6.992ZM23.8-7.2a1.511,1.511,0,0,0-1.187.48,2.224,2.224,0,0,0-.492,1.363h3.344a1.986,1.986,0,0,0-.461-1.363A1.561,1.561,0,0,0,23.8-7.2ZM24.141.156a4.508,4.508,0,0,1-3.3-1.164,4.408,4.408,0,0,1-1.187-3.3,4.848,4.848,0,0,1,1.1-3.395,3.909,3.909,0,0,1,3.035-1.2,3.847,3.847,0,0,1,2.883,1.055A3.99,3.99,0,0,1,27.7-4.93v1.156H22.07a2.294,2.294,0,0,0,.6,1.586,2.117,2.117,0,0,0,1.578.57,6.551,6.551,0,0,0,1.492-.164A7.466,7.466,0,0,0,27.211-2.3V-.461A5.6,5.6,0,0,1,25.875,0,8.423,8.423,0,0,1,24.141.156Zm5.4-11.148q0-1.164,1.3-1.164t1.3,1.164a1.135,1.135,0,0,1-.324.863,1.363,1.363,0,0,1-.973.309Q29.539-9.82,29.539-10.992ZM32.023,0H29.641V-8.734h2.383ZM38.07.156q-4.078,0-4.078-4.477a4.775,4.775,0,0,1,1.109-3.4A4.162,4.162,0,0,1,38.281-8.9,6.062,6.062,0,0,1,41-8.3l-.7,1.844q-.562-.227-1.047-.371a3.373,3.373,0,0,0-.969-.145q-1.859,0-1.859,2.641,0,2.563,1.859,2.563a4.239,4.239,0,0,0,1.273-.184,4.6,4.6,0,0,0,1.172-.574V-.492a3.84,3.84,0,0,1-1.168.508A6.568,6.568,0,0,1,38.07.156ZM50.813,0H48.43V-5.1q0-1.891-1.406-1.891a1.6,1.6,0,0,0-1.445.68,4.151,4.151,0,0,0-.445,2.2V0H42.75V-12.156h2.383V-9.68q0,.289-.055,1.359l-.055.7h.125A2.76,2.76,0,0,1,47.68-8.9a3.1,3.1,0,0,1,2.336.828,3.29,3.29,0,0,1,.8,2.375Zm6.07-7.2a1.511,1.511,0,0,0-1.187.48A2.224,2.224,0,0,0,55.2-5.359h3.344a1.986,1.986,0,0,0-.461-1.363A1.561,1.561,0,0,0,56.883-7.2ZM57.219.156a4.508,4.508,0,0,1-3.3-1.164,4.408,4.408,0,0,1-1.187-3.3,4.848,4.848,0,0,1,1.1-3.395,3.908,3.908,0,0,1,3.035-1.2A3.847,3.847,0,0,1,59.75-7.844,3.99,3.99,0,0,1,60.781-4.93v1.156H55.148a2.294,2.294,0,0,0,.6,1.586,2.117,2.117,0,0,0,1.578.57,6.551,6.551,0,0,0,1.492-.164A7.466,7.466,0,0,0,60.289-2.3V-.461A5.6,5.6,0,0,1,58.953,0,8.423,8.423,0,0,1,57.219.156ZM67.594-8.9a3.843,3.843,0,0,1,.8.07l-.18,2.234a2.73,2.73,0,0,0-.7-.078,2.527,2.527,0,0,0-1.777.586A2.118,2.118,0,0,0,65.1-4.445V0H62.719V-8.734h1.8l.352,1.469h.117a3.283,3.283,0,0,1,1.1-1.184A2.707,2.707,0,0,1,67.594-8.9ZM78.047,0H75.664V-5.1a2.45,2.45,0,0,0-.336-1.418,1.222,1.222,0,0,0-1.07-.473,1.609,1.609,0,0,0-1.445.668,4.143,4.143,0,0,0-.445,2.215V0H69.984V-8.734H71.8l.32,1.117h.133a2.518,2.518,0,0,1,1.1-.957,3.738,3.738,0,0,1,1.59-.324,3.055,3.055,0,0,1,2.313.824A3.308,3.308,0,0,1,78.047-5.7Z" transform="translate(1324 538)" fill="#fff"/>
        <rect id="Rechteck_37-3" data-name="Rechteck 37" width="211" height="46" rx="3" transform="translate(1258 562)" fill="#d51317"/>
        <path id="Pfad_113" data-name="Pfad 113" d="M8.43,0,7.6-2.719H3.438L2.609,0H0L4.031-11.469H6.992L11.039,0ZM7.023-4.75Q5.875-8.445,5.73-8.93T5.523-9.7q-.258,1-1.477,4.945ZM17.148-8.9A2.825,2.825,0,0,1,19.57-7.691a5.538,5.538,0,0,1,.875,3.309,5.441,5.441,0,0,1-.9,3.352A2.921,2.921,0,0,1,17.086.156,2.9,2.9,0,0,1,14.672-.961h-.164l-.4.961h-1.82V-12.156h2.383v2.828q0,.539-.094,1.727h.094A2.757,2.757,0,0,1,17.148-8.9Zm-.766,1.906a1.5,1.5,0,0,0-1.289.543,3.117,3.117,0,0,0-.422,1.793V-4.4a3.68,3.68,0,0,0,.418,2.016,1.492,1.492,0,0,0,1.324.609,1.329,1.329,0,0,0,1.168-.676,3.658,3.658,0,0,0,.434-1.965,3.465,3.465,0,0,0-.437-1.934A1.372,1.372,0,0,0,16.383-6.992ZM24.8,0H22.414V-12.156H24.8Zm6.117-7.2a1.511,1.511,0,0,0-1.187.48,2.224,2.224,0,0,0-.492,1.363h3.344a1.986,1.986,0,0,0-.461-1.363A1.561,1.561,0,0,0,30.914-7.2ZM31.25.156a4.508,4.508,0,0,1-3.3-1.164,4.408,4.408,0,0,1-1.187-3.3,4.848,4.848,0,0,1,1.1-3.395A3.909,3.909,0,0,1,30.9-8.9a3.847,3.847,0,0,1,2.883,1.055A3.99,3.99,0,0,1,34.813-4.93v1.156H29.18a2.294,2.294,0,0,0,.6,1.586,2.117,2.117,0,0,0,1.578.57,6.551,6.551,0,0,0,1.492-.164A7.466,7.466,0,0,0,34.32-2.3V-.461A5.6,5.6,0,0,1,32.984,0,8.423,8.423,0,0,1,31.25.156ZM44.813,0H42.43V-5.1q0-1.891-1.406-1.891a1.6,1.6,0,0,0-1.445.68,4.151,4.151,0,0,0-.445,2.2V0H36.75V-12.156h2.383V-9.68q0,.289-.055,1.359l-.055.7h.125A2.76,2.76,0,0,1,41.68-8.9a3.1,3.1,0,0,1,2.336.828,3.29,3.29,0,0,1,.8,2.375ZM55.328,0H52.945V-5.1a2.45,2.45,0,0,0-.336-1.418,1.222,1.222,0,0,0-1.07-.473,1.609,1.609,0,0,0-1.445.668,4.143,4.143,0,0,0-.445,2.215V0H47.266V-8.734h1.82l.32,1.117h.133a2.518,2.518,0,0,1,1.1-.957,3.738,3.738,0,0,1,1.59-.324,3.055,3.055,0,0,1,2.313.824A3.308,3.308,0,0,1,55.328-5.7ZM61.4-7.2a1.511,1.511,0,0,0-1.187.48,2.224,2.224,0,0,0-.492,1.363h3.344A1.986,1.986,0,0,0,62.6-6.723,1.561,1.561,0,0,0,61.4-7.2ZM61.734.156a4.508,4.508,0,0,1-3.3-1.164A4.408,4.408,0,0,1,57.25-4.3a4.848,4.848,0,0,1,1.1-3.395,3.908,3.908,0,0,1,3.035-1.2,3.847,3.847,0,0,1,2.883,1.055A3.99,3.99,0,0,1,65.3-4.93v1.156H59.664a2.294,2.294,0,0,0,.6,1.586,2.117,2.117,0,0,0,1.578.57,6.551,6.551,0,0,0,1.492-.164A7.466,7.466,0,0,0,64.8-2.3V-.461A5.6,5.6,0,0,1,63.469,0,8.423,8.423,0,0,1,61.734.156ZM75.3,0H72.914V-5.1a2.45,2.45,0,0,0-.336-1.418,1.222,1.222,0,0,0-1.07-.473,1.609,1.609,0,0,0-1.445.668,4.143,4.143,0,0,0-.445,2.215V0H67.234V-8.734h1.82l.32,1.117h.133a2.518,2.518,0,0,1,1.1-.957A3.738,3.738,0,0,1,72.2-8.9a3.055,3.055,0,0,1,2.313.824A3.308,3.308,0,0,1,75.3-5.7Z" transform="translate(1325 590)" fill="#fff"/>
        <g id="Gruppe_102" data-name="Gruppe 102" transform="translate(1258 415.101)">
          <rect id="Rechteck_23" data-name="Rechteck 23" width="23.899" height="23.899" rx="7" transform="translate(0)" fill="#fff"/>
          <g id="check" transform="translate(4.066 6.144)">
            <path id="Pfad_31" data-name="Pfad 31" d="M4.081,29.5l-6.41-6.41,2.246-2.246,4.177,4.177,7.214-7.132,2.233,2.259Z" transform="translate(2.328 -17.893)" fill="#d51317"/>
          </g>
        </g>
        <g id="Gruppe_103" data-name="Gruppe 103" transform="translate(1258 379.101)">
          <rect id="Rechteck_23-2" data-name="Rechteck 23" width="23.899" height="23.899" rx="7" transform="translate(0)" fill="#fff"/>
          <g id="check-2" data-name="check" transform="translate(4.066 6.144)">
            <path id="Pfad_31-2" data-name="Pfad 31" d="M4.081,29.5l-6.41-6.41,2.246-2.246,4.177,4.177,7.214-7.132,2.233,2.259Z" transform="translate(2.328 -17.893)" fill="#d51317"/>
          </g>
        </g>
        <g id="Gruppe_104" data-name="Gruppe 104" transform="translate(1258 342.234)">
          <rect id="Rechteck_23-3" data-name="Rechteck 23" width="23.899" height="23.899" rx="7" transform="translate(0)" fill="#fff"/>
          <g id="check-3" data-name="check" transform="translate(4.066 6.144)">
            <path id="Pfad_31-3" data-name="Pfad 31" d="M4.081,29.5l-6.41-6.41,2.246-2.246,4.177,4.177,7.214-7.132,2.233,2.259Z" transform="translate(2.328 -17.893)" fill="#d51317"/>
          </g>
        </g>
      </g>
    </g>
  </g>
</svg>
