<svg id="Ebene_1" data-name="Ebene 1" xmlns="http://www.w3.org/2000/svg" width="501.44mm" height="54.39mm" viewBox="0 0 1421.41 154.17"><defs><style>.cls-1{fill:#d5131a;}.cls-2{fill:#333;}</style></defs><path class="cls-1" d="M135.13.17H18.87A18.88,18.88,0,0,0,0,19V135.3a18.88,18.88,0,0,0,18.87,18.87H69.58a27.87,27.87,0,0,1,40.76-21.93c0-.44,0-.89,0-1.38A27.86,27.86,0,0,1,154,108V19A18.88,18.88,0,0,0,135.13.17ZM67,31c0,9.45-8.52,17.18-21.42,28.9L42,63.16l-3.63-3.3C25.42,48.16,16.91,40.45,16.91,31A13.63,13.63,0,0,1,30.44,17.22h.25A15,15,0,0,1,42,22.46a15.06,15.06,0,0,1,11.27-5.24A13.65,13.65,0,0,1,67,30.73Z"/><path class="cls-2" d="M201,71.32a23.08,23.08,0,0,1-10-7.61,20.71,20.71,0,0,1-4-12.12h18.7a9.07,9.07,0,0,0,2.78,6.11,8.88,8.88,0,0,0,6.16,2.11,9.64,9.64,0,0,0,6.17-1.8,6,6,0,0,0,2.26-5,5.89,5.89,0,0,0-1.8-4.42,14.33,14.33,0,0,0-4.42-2.88,71.5,71.5,0,0,0-7.45-2.57A82,82,0,0,1,198,38.85a21.05,21.05,0,0,1-7.61-6.38q-3.18-4.2-3.18-11,0-10.08,7.29-15.78t19-5.7q11.92,0,19.22,5.7t7.81,15.88h-19a7.48,7.48,0,0,0-2.57-5.5,9.09,9.09,0,0,0-6.06-2,7.55,7.55,0,0,0-5.14,1.69,6.13,6.13,0,0,0-1.95,4.89,6,6,0,0,0,3.28,5.44,54.37,54.37,0,0,0,10.28,4.22,94.47,94.47,0,0,1,11.36,4.52,21.7,21.7,0,0,1,7.55,6.27,16.78,16.78,0,0,1,3.18,10.58,20.74,20.74,0,0,1-3.13,11.2,22,22,0,0,1-9.09,8,31.12,31.12,0,0,1-14.08,3A37.1,37.1,0,0,1,201,71.32Z"/><path class="cls-2" d="M253.92,17.93a33,33,0,0,1,12.9-13A37.37,37.37,0,0,1,285.57.21q12.84,0,22,6.78a32.58,32.58,0,0,1,12.23,18.5H300.47a15.65,15.65,0,0,0-6.11-6.89,17.27,17.27,0,0,0-9-2.36,16.77,16.77,0,0,0-13.15,5.65q-5,5.66-5,15.11t5,15.1a16.77,16.77,0,0,0,13.15,5.65,17.18,17.18,0,0,0,9-2.36,15.68,15.68,0,0,0,6.11-6.88h19.32A32.34,32.34,0,0,1,307.56,67q-9.15,6.74-22,6.73A37.48,37.48,0,0,1,266.82,69a33.11,33.11,0,0,1-12.9-13,38.53,38.53,0,0,1-4.63-19A38.84,38.84,0,0,1,253.92,17.93Z"/><path class="cls-2" d="M393.06,1V73.17H375.49V43.47H348.15v29.7H330.58V1h17.57V29.29h27.34V1Z"/><path class="cls-2" d="M421.17,69.16A35.27,35.27,0,0,1,407.7,56a37,37,0,0,1-5-19.07,36.67,36.67,0,0,1,5-19A35.36,35.36,0,0,1,421.17,4.73a39.13,39.13,0,0,1,37.3,0,34.73,34.73,0,0,1,13.36,13.15,37.29,37.29,0,0,1,4.88,19A37.23,37.23,0,0,1,471.78,56a35.13,35.13,0,0,1-13.36,13.2,39,39,0,0,1-37.25,0ZM453.64,52.1q5.19-5.74,5.19-15.21t-5.19-15.26q-5.19-5.7-13.82-5.7t-13.93,5.65q-5.19,5.66-5.19,15.31t5.19,15.26q5.19,5.72,13.93,5.71T453.64,52.1Z"/><path class="cls-2" d="M528.3,73.17,504,41.31V73.17H486.47V1H504V32.68L528.09,1h20.66l-28,35.35,29,36.79Z"/><path class="cls-2" d="M573.56,69.16A35.32,35.32,0,0,1,560.1,56a37,37,0,0,1-5-19.07,36.67,36.67,0,0,1,5-19A35.4,35.4,0,0,1,573.56,4.73a39.15,39.15,0,0,1,37.31,0,34.73,34.73,0,0,1,13.36,13.15,37.29,37.29,0,0,1,4.88,19A37.32,37.32,0,0,1,624.18,56a35.13,35.13,0,0,1-13.36,13.2,39.05,39.05,0,0,1-37.26,0ZM606,52.1q5.19-5.74,5.19-15.21T606,21.63q-5.19-5.7-13.82-5.7t-13.93,5.65q-5.19,5.66-5.19,15.31t5.19,15.26q5.19,5.72,13.93,5.71T606,52.1Z"/><path class="cls-2" d="M656.44,59.6h23V73.17H638.87V1h17.57Z"/><path class="cls-2" d="M732.8,60.43H705.87l-4.31,12.74h-18.4L709.26,1h20.35l26.1,72.14h-18.6Zm-4.53-13.57-8.94-26.41L710.5,46.86Z"/><path class="cls-2" d="M810.59,5.55a32.23,32.23,0,0,1,13.2,12.69,37.27,37.27,0,0,1,4.68,18.86,37.33,37.33,0,0,1-4.68,18.8,32.07,32.07,0,0,1-13.25,12.75,42.1,42.1,0,0,1-19.89,4.52h-27V1h27A42,42,0,0,1,810.59,5.55Zm-5.55,47q5.55-5.44,5.55-15.41T805,21.58Q799.49,16,789.52,16H781.2V58h8.32Q799.49,58,805,52.51Z"/><path class="cls-2" d="M855.91,15.11V29.7h23.53V43.26H855.91V59.09h26.61V73.17H838.33V1h44.19V15.11Z"/><path class="cls-2" d="M958.46,73.17H940.89L911.5,28.67v44.5H893.93V1H911.5l29.39,44.7V1h17.57Z"/><path class="cls-2" d="M983.13,71.32a23.08,23.08,0,0,1-10-7.61,20.78,20.78,0,0,1-4-12.12h18.7a9.07,9.07,0,0,0,2.78,6.11,8.88,8.88,0,0,0,6.16,2.11A9.64,9.64,0,0,0,1003,58a6,6,0,0,0,2.26-5,5.89,5.89,0,0,0-1.8-4.42A14.33,14.33,0,0,0,999,45.73a71.5,71.5,0,0,0-7.45-2.57,82,82,0,0,1-11.4-4.31,21.05,21.05,0,0,1-7.61-6.38q-3.18-4.2-3.18-11,0-10.08,7.29-15.78t19-5.7q11.93,0,19.22,5.7t7.81,15.88h-19a7.44,7.44,0,0,0-2.57-5.5,9.09,9.09,0,0,0-6.06-2,7.55,7.55,0,0,0-5.14,1.69A6.13,6.13,0,0,0,988,20.66a6,6,0,0,0,3.28,5.44,54.37,54.37,0,0,0,10.28,4.22,94.47,94.47,0,0,1,11.36,4.52,21.61,21.61,0,0,1,7.55,6.27,16.78,16.78,0,0,1,3.19,10.58,20.75,20.75,0,0,1-3.14,11.2,22,22,0,0,1-9.09,8,31.12,31.12,0,0,1-14.08,3A37.1,37.1,0,0,1,983.13,71.32Z"/><path class="cls-2" d="M1052,15.11V29.7h23.53V43.26H1052V59.09h26.61V73.17H1034.4V1h44.19V15.11Z"/><path class="cls-2" d="M1107.57,1V73.17H1090V1Z"/><path class="cls-2" d="M1172.21,1V15.11H1153.1V73.17h-17.58V15.11h-19.11V1Z"/><path class="cls-2" d="M1198.62,15.11V29.7h23.53V43.26h-23.53V59.09h26.62V73.17h-44.19V1h44.19V15.11Z"/><path class="cls-2" d="M1236,72.14a5.27,5.27,0,0,1-1.49-3.8,5.09,5.09,0,0,1,5.24-5.24,5,5,0,0,1,3.65,1.49,5.09,5.09,0,0,1,1.49,3.75,5.27,5.27,0,0,1-1.49,3.8,4.87,4.87,0,0,1-3.65,1.54A5,5,0,0,1,1236,72.14Z"/><path class="cls-2" d="M1311.35,73.17h-7.19l-39.77-60.43V73.17h-7.2V1.34h7.2l39.77,60.32V1.34h7.19Z"/><path class="cls-2" d="M1334.88,7.19V34h27.23v6h-27.23V67.21h30.32v6h-37.51V1.23h37.51v6Z"/><path class="cls-2" d="M1421.41,1.34v6h-19.94V73.17h-7.19V7.3h-20v-6Z"/><path class="cls-2" d="M231,105.26l-18.16,47.89h-5.48l-18.15-47.89h5.2L210.05,148l15.83-42.69Z"/><path class="cls-2" d="M238.07,107.66a3.45,3.45,0,0,1-1-2.53,3.33,3.33,0,0,1,1-2.5,3.55,3.55,0,0,1,4.94,0,3.33,3.33,0,0,1,1,2.5,3.45,3.45,0,0,1-1,2.53,3.48,3.48,0,0,1-4.94,0Zm4.87,8.09v37.4h-4.8v-37.4Z"/><path class="cls-2" d="M256.19,150.72a10.88,10.88,0,0,1-4.55-8.12h4.93a7.1,7.1,0,0,0,3,5.11,11.67,11.67,0,0,0,7.09,1.95,9.31,9.31,0,0,0,6.13-1.85,5.72,5.72,0,0,0,2.23-4.59,4.27,4.27,0,0,0-1.23-3.15,8.71,8.71,0,0,0-3.12-2,49.78,49.78,0,0,0-5.1-1.54,52.12,52.12,0,0,1-6.79-2.19,11.67,11.67,0,0,1-4.42-3.25,9.4,9.4,0,0,1-.17-10.86,11.24,11.24,0,0,1,4.66-3.7,16.27,16.27,0,0,1,6.85-1.37q6,0,9.73,3a11,11,0,0,1,4,8.39h-4.79a7.29,7.29,0,0,0-2.57-5.31,9.62,9.62,0,0,0-6.47-2,9.52,9.52,0,0,0-5.9,1.71,5.17,5.17,0,0,0-2.26,4.25,5,5,0,0,0,1.34,3.59,9.23,9.23,0,0,0,3.32,2.2c1.33.52,3.11,1.11,5.35,1.74a51.38,51.38,0,0,1,6.44,2.13,11.29,11.29,0,0,1,4.11,3,8.13,8.13,0,0,1,1.78,5.28,9.18,9.18,0,0,1-1.65,5.38,11.11,11.11,0,0,1-4.59,3.73,15.94,15.94,0,0,1-6.78,1.37Q260.28,153.7,256.19,150.72Z"/><path class="cls-2" d="M321.18,115.75v37.4h-4.8v-6.57a11.55,11.55,0,0,1-5.07,5.34,15.9,15.9,0,0,1-7.67,1.85,15,15,0,0,1-11-4.15q-4.26-4.14-4.25-12V115.75h4.73v21.3q0,6.1,3,9.32a10.92,10.92,0,0,0,8.33,3.22,11.26,11.26,0,0,0,8.63-3.43q3.22-3.42,3.22-10.07V115.75Z"/><path class="cls-2" d="M365.84,136.3h-31a15.12,15.12,0,0,0,2.05,7.26,12.18,12.18,0,0,0,4.87,4.56,14.33,14.33,0,0,0,6.58,1.54,13.25,13.25,0,0,0,7.84-2.26,10.61,10.61,0,0,0,4.21-6.1h5.07a15.81,15.81,0,0,1-5.85,8.94,17.91,17.91,0,0,1-11.27,3.46,19,19,0,0,1-9.46-2.36,16.67,16.67,0,0,1-6.54-6.72,20.93,20.93,0,0,1-2.37-10.17,21.48,21.48,0,0,1,2.33-10.21,16.27,16.27,0,0,1,6.51-6.71,19.17,19.17,0,0,1,9.53-2.33,18.23,18.23,0,0,1,9.35,2.33,16.06,16.06,0,0,1,6.16,6.27,17.82,17.82,0,0,1,2.16,8.73C366,134.18,365.93,135.43,365.84,136.3Zm-6.4-11a11.34,11.34,0,0,0-4.76-4.45,14.46,14.46,0,0,0-6.58-1.51,13.07,13.07,0,0,0-9.11,3.42q-3.76,3.43-4.18,9.66h26.31A13.37,13.37,0,0,0,359.44,125.27Z"/><path class="cls-2" d="M379.55,102.45v50.7h-4.8v-50.7Z"/><path class="cls-2" d="M395.23,102.45v50.7h-4.79v-50.7Z"/><path class="cls-2" d="M439.83,136.3h-31a15,15,0,0,0,2.05,7.26,12.18,12.18,0,0,0,4.87,4.56,14.32,14.32,0,0,0,6.57,1.54,13.26,13.26,0,0,0,7.85-2.26,10.61,10.61,0,0,0,4.21-6.1h5.07a15.77,15.77,0,0,1-5.86,8.94,17.87,17.87,0,0,1-11.27,3.46,18.94,18.94,0,0,1-9.45-2.36,16.67,16.67,0,0,1-6.54-6.72,20.93,20.93,0,0,1-2.37-10.17,21.48,21.48,0,0,1,2.33-10.21,16.2,16.2,0,0,1,6.51-6.71,19.16,19.16,0,0,1,9.52-2.33,18.24,18.24,0,0,1,9.36,2.33,16.06,16.06,0,0,1,6.16,6.27,17.82,17.82,0,0,1,2.16,8.73C440,134.18,439.92,135.43,439.83,136.3Zm-6.4-11a11.34,11.34,0,0,0-4.76-4.45,14.46,14.46,0,0,0-6.58-1.51,13.07,13.07,0,0,0-9.11,3.42q-3.76,3.43-4.18,9.66h26.31A13.37,13.37,0,0,0,433.43,125.27Z"/><path class="cls-2" d="M493.06,153.15,472.31,131v22.13h-4.8V105.26h4.8v22.41l20.75-22.41h6.1l-22.4,23.91,22.61,24Z"/><path class="cls-2" d="M513.31,151.34a17.12,17.12,0,0,1-6.65-6.72,20.51,20.51,0,0,1-2.43-10.17,20.28,20.28,0,0,1,2.47-10.18,17.31,17.31,0,0,1,6.71-6.71,20.46,20.46,0,0,1,19.08,0,17.07,17.07,0,0,1,6.72,6.71,20.58,20.58,0,0,1,2.43,10.18,20.26,20.26,0,0,1-2.47,10.14,17.06,17.06,0,0,1-6.78,6.75,19.72,19.72,0,0,1-9.59,2.36A19.11,19.11,0,0,1,513.31,151.34Zm16.34-3.5a12.81,12.81,0,0,0,5.1-5.07,16.44,16.44,0,0,0,2-8.32,16.75,16.75,0,0,0-1.91-8.32,12.64,12.64,0,0,0-5.07-5.08,14.9,14.9,0,0,0-13.71,0,12.43,12.43,0,0,0-5,5.08,19.35,19.35,0,0,0,0,16.64,12.46,12.46,0,0,0,5,5.07,14.15,14.15,0,0,0,6.82,1.68A14.35,14.35,0,0,0,529.65,147.84Z"/><path class="cls-2" d="M605.66,119.21q4.14,4.14,4.15,12v21.92h-4.73V131.78q0-6.11-3-9.32a10.3,10.3,0,0,0-8-3.22,10.79,10.79,0,0,0-8.43,3.49q-3.15,3.49-3.15,10.14v20.28h-4.73V131.78q0-6.11-2.94-9.32a10.41,10.41,0,0,0-8.09-3.22,10.79,10.79,0,0,0-8.43,3.49q-3.15,3.49-3.15,10.14v20.28h-4.79v-37.4h4.79v6.44a12.28,12.28,0,0,1,5.07-5.31,14.92,14.92,0,0,1,7.33-1.82,15.56,15.56,0,0,1,8.53,2.33,13.07,13.07,0,0,1,5.31,6.85,12.7,12.7,0,0,1,5.17-6.82,15.09,15.09,0,0,1,8.33-2.36A14.48,14.48,0,0,1,605.66,119.21Z"/><path class="cls-2" d="M675.68,119.21q4.14,4.14,4.14,12v21.92h-4.73V131.78q0-6.11-2.94-9.32a10.33,10.33,0,0,0-8-3.22,10.78,10.78,0,0,0-8.42,3.49q-3.15,3.49-3.15,10.14v20.28h-4.73V131.78q0-6.11-3-9.32a10.39,10.39,0,0,0-8.08-3.22,10.79,10.79,0,0,0-8.43,3.49q-3.15,3.49-3.15,10.14v20.28h-4.8v-37.4h4.8v6.44a12.28,12.28,0,0,1,5.07-5.31,14.89,14.89,0,0,1,7.33-1.82,15.58,15.58,0,0,1,8.53,2.33,13.17,13.17,0,0,1,5.31,6.85,12.65,12.65,0,0,1,5.17-6.82,15.07,15.07,0,0,1,8.33-2.36A14.5,14.5,0,0,1,675.68,119.21Z"/><path class="cls-2" d="M722.85,115.75v37.4h-4.8v-6.57a11.55,11.55,0,0,1-5.07,5.34,15.9,15.9,0,0,1-7.67,1.85,15,15,0,0,1-11-4.15q-4.26-4.14-4.25-12V115.75h4.73v21.3q0,6.1,3,9.32a10.92,10.92,0,0,0,8.33,3.22,11.26,11.26,0,0,0,8.63-3.43q3.23-3.42,3.22-10.07V115.75Z"/><path class="cls-2" d="M762.31,119.21q4.25,4.14,4.25,12v21.92h-4.73V131.78q0-6.11-3.05-9.32a10.9,10.9,0,0,0-8.32-3.22,11.28,11.28,0,0,0-8.64,3.43q-3.21,3.42-3.22,10.07v20.41h-4.79v-37.4h4.79v6.37a12.21,12.21,0,0,1,5.14-5.24,15.74,15.74,0,0,1,7.61-1.82A15,15,0,0,1,762.31,119.21Z"/><path class="cls-2" d="M777.11,107.66a3.42,3.42,0,0,1-1-2.53,3.3,3.3,0,0,1,1-2.5,3.37,3.37,0,0,1,2.46-1,3.41,3.41,0,0,1,2.47,1,3.34,3.34,0,0,1,1,2.5,3.45,3.45,0,0,1-1,2.53,3.36,3.36,0,0,1-2.47,1A3.32,3.32,0,0,1,777.11,107.66Zm4.86,8.09v37.4h-4.8v-37.4Z"/><path class="cls-2" d="M813.07,153.15l-15.41-16.78v16.78h-4.8v-50.7h4.8v30l15.07-16.71h6.71L801.7,134.38l17.88,18.77Z"/><path class="cls-2" d="M825.85,124.27a16.5,16.5,0,0,1,6.37-6.71,18.1,18.1,0,0,1,9.22-2.36,16.8,16.8,0,0,1,9.21,2.46,14.37,14.37,0,0,1,5.58,6.31v-8.22H861v37.4h-4.8v-8.29a15,15,0,0,1-5.65,6.34,16.57,16.57,0,0,1-9.21,2.5,17.71,17.71,0,0,1-9.15-2.4,16.62,16.62,0,0,1-6.37-6.78,23.44,23.44,0,0,1,0-20.25Zm28.53,2.23a13.18,13.18,0,0,0-5-5.27,13.69,13.69,0,0,0-7-1.85,14.21,14.21,0,0,0-7.13,1.78,12.65,12.65,0,0,0-5,5.17,16.81,16.81,0,0,0-1.81,8,17.07,17.07,0,0,0,1.81,8.05,12.76,12.76,0,0,0,5,5.28,14,14,0,0,0,7.13,1.81,13.79,13.79,0,0,0,7-1.85,13.18,13.18,0,0,0,5-5.27,18,18,0,0,0,0-15.9Z"/><path class="cls-2" d="M878.23,119.79V143c0,2.29.43,3.86,1.3,4.73s2.4,1.3,4.59,1.3h4.38v4.11h-5.14q-5.07,0-7.53-2.36T873.36,143V119.79h-5.21v-4h5.21v-9.39h4.87v9.39H888.5v4Z"/><path class="cls-2" d="M896.31,107.66a3.45,3.45,0,0,1-1-2.53,3.34,3.34,0,0,1,1-2.5,3.41,3.41,0,0,1,2.47-1,3.37,3.37,0,0,1,2.46,1,3.3,3.3,0,0,1,1,2.5,3.42,3.42,0,0,1-1,2.53,3.32,3.32,0,0,1-2.46,1A3.36,3.36,0,0,1,896.31,107.66Zm4.87,8.09v37.4h-4.8v-37.4Z"/><path class="cls-2" d="M919,151.34a17.1,17.1,0,0,1-6.64-6.72,22.39,22.39,0,0,1,0-20.35,17.34,17.34,0,0,1,6.72-6.71,19.28,19.28,0,0,1,9.52-2.36,19.52,19.52,0,0,1,9.56,2.36,17,17,0,0,1,6.71,6.71,20.58,20.58,0,0,1,2.43,10.18,20.36,20.36,0,0,1-2.46,10.14,17.15,17.15,0,0,1-6.79,6.75,19.66,19.66,0,0,1-9.59,2.36A19.11,19.11,0,0,1,919,151.34Zm16.34-3.5a12.83,12.83,0,0,0,5.11-5.07,16.44,16.44,0,0,0,2-8.32,16.65,16.65,0,0,0-1.92-8.32,12.64,12.64,0,0,0-5.07-5.08,14.88,14.88,0,0,0-13.7,0,12.46,12.46,0,0,0-5,5.08,19.35,19.35,0,0,0,0,16.64,12.52,12.52,0,0,0,5,5.07,14.17,14.17,0,0,0,6.82,1.68A14.32,14.32,0,0,0,935.29,147.84Z"/><path class="cls-2" d="M984.55,119.21q4.25,4.14,4.25,12v21.92h-4.73V131.78q0-6.11-3.05-9.32a10.88,10.88,0,0,0-8.32-3.22,11.25,11.25,0,0,0-8.63,3.43q-3.23,3.42-3.22,10.07v20.41h-4.8v-37.4h4.8v6.37a12.15,12.15,0,0,1,5.14-5.24,15.7,15.7,0,0,1,7.6-1.82A15,15,0,0,1,984.55,119.21Z"/><path class="cls-2" d="M1055.87,119.24a16.35,16.35,0,0,0-6.27-7.43,17.88,17.88,0,0,0-9.9-2.71,18.69,18.69,0,0,0-9.59,2.47,17.54,17.54,0,0,0-6.71,7,24,24,0,0,0,0,21.2,17.52,17.52,0,0,0,6.71,7.06,19.86,19.86,0,0,0,18.6.31,16.72,16.72,0,0,0,6.44-6.17,20.27,20.27,0,0,0,2.78-9.35h-20.15v-3.91H1063v3.5a24.26,24.26,0,0,1-3.42,11.41,22.61,22.61,0,0,1-8.26,8.05,23.09,23.09,0,0,1-11.61,2.94,23.72,23.72,0,0,1-12.06-3.12,22.37,22.37,0,0,1-8.53-8.7,27.24,27.24,0,0,1,0-25.28,22.5,22.5,0,0,1,8.53-8.7,25.21,25.21,0,0,1,25.49.72,21.76,21.76,0,0,1,8.36,10.69Z"/><path class="cls-2" d="M1127,119.21q4.14,4.14,4.14,12v21.92h-4.73V131.78q0-6.11-2.94-9.32a10.33,10.33,0,0,0-8-3.22,10.78,10.78,0,0,0-8.42,3.49q-3.15,3.49-3.15,10.14v20.28h-4.73V131.78q0-6.11-3-9.32a10.39,10.39,0,0,0-8.08-3.22,10.79,10.79,0,0,0-8.43,3.49q-3.15,3.49-3.15,10.14v20.28h-4.8v-37.4h4.8v6.44a12.28,12.28,0,0,1,5.07-5.31,14.89,14.89,0,0,1,7.33-1.82,15.58,15.58,0,0,1,8.53,2.33,13.17,13.17,0,0,1,5.31,6.85,12.65,12.65,0,0,1,5.17-6.82,15.07,15.07,0,0,1,8.33-2.36A14.5,14.5,0,0,1,1127,119.21Z"/><path class="cls-2" d="M1152.23,117.66a16.68,16.68,0,0,1,9.14-2.46,17.94,17.94,0,0,1,9.19,2.36,16.6,16.6,0,0,1,6.33,6.71,23.44,23.44,0,0,1,0,20.25,16.62,16.62,0,0,1-6.37,6.78,17.71,17.71,0,0,1-9.15,2.4,17,17,0,0,1-9.21-2.43,14.54,14.54,0,0,1-5.65-6.34v8.22h-4.73v-50.7h4.73V124A15.17,15.17,0,0,1,1152.23,117.66Zm20.28,8.67a12.65,12.65,0,0,0-5-5.17,14.2,14.2,0,0,0-7.12-1.78,13.7,13.7,0,0,0-7,1.85,13.18,13.18,0,0,0-5,5.27,18,18,0,0,0,0,15.9,13.18,13.18,0,0,0,5,5.27,13.8,13.8,0,0,0,7,1.85,14,14,0,0,0,7.12-1.81,12.76,12.76,0,0,0,5-5.28,17.07,17.07,0,0,0,1.81-8.05A16.81,16.81,0,0,0,1172.51,126.33Z"/><path class="cls-2" d="M1223.58,105.26v47.89h-4.79v-22.4h-26v22.4H1188V105.26h4.8v21.52h26V105.26Z"/></svg>