<?xml version="1.0" encoding="UTF-8" standalone="no"?><!DOCTYPE svg PUBLIC "-//W3C//DTD SVG 1.1//EN" "http://www.w3.org/Graphics/SVG/1.1/DTD/svg11.dtd"><svg width="100%" height="100%" viewBox="0 0 50 50" version="1.1" xmlns="http://www.w3.org/2000/svg" xmlns:xlink="http://www.w3.org/1999/xlink" xml:space="preserve" xmlns:serif="http://www.serif.com/" style="fill-rule:evenodd;clip-rule:evenodd;stroke-linejoin:round;stroke-miterlimit:2;"><g><path d="M25.023,34.735l7.109,-10.873c0.568,0.087 1.151,0.177 1.742,0.268l8.875,15.697l-8.875,-2.146l-8.874,2.146l17.749,0l-17.749,0l-8.874,-2.146l-8.875,2.146l8.875,-16.109c0.501,-0.078 0.994,-0.151 1.477,-0.218l7.42,11.235Z" style="fill:#999;fill-opacity:0.47;"/><g><clipPath id="_clip1"><path d="M25.023,34.735l7.109,-10.873c0.568,0.087 1.151,0.177 1.742,0.268l8.875,15.697l-8.875,-2.146l-8.874,2.146l17.749,0l-17.749,0l-8.874,-2.146l-8.875,2.146l8.875,-16.109c0.501,-0.078 0.994,-0.151 1.477,-0.218l7.42,11.235Z"/></clipPath><g clip-path="url(#_clip1)"><path d="M31.013,26.653l-0.359,0.1l3.524,12.735l0.359,-0.101l-3.524,-12.734Z" style="fill:#828282;"/><path d="M18.923,26.653l0.359,0.1l-3.298,11.918l-0.36,-0.101l3.299,-11.917Z" style="fill:#828282;"/><rect x="24.823" y="35.392" width="0.355" height="4.435" style="fill:#828282;"/></g></g><path d="M16.786,22.263c-0.56,-0.993 -0.679,-2.167 -0.679,-3.355c0,-4.821 3.977,-8.735 8.875,-8.735c4.898,0 8.874,3.914 8.874,8.735c0,1.188 -0.124,2.36 -0.679,3.355c-1.472,2.638 -8.154,12.472 -8.154,12.472c0,0 -6.751,-9.834 -8.237,-12.472Zm8.182,-8.996c3.138,0 5.686,2.59 5.686,5.781c0,3.191 -2.548,5.782 -5.686,5.782c-3.139,0 -5.686,-2.591 -5.686,-5.782c0,-3.191 2.547,-5.781 5.686,-5.781Z" style="fill:#222;fill-opacity:0.47;"/></g></svg>