<?xml version="1.0" encoding="UTF-8" standalone="no"?><!DOCTYPE svg PUBLIC "-//W3C//DTD SVG 1.1//EN" "http://www.w3.org/Graphics/SVG/1.1/DTD/svg11.dtd"><svg width="100%" height="100%" viewBox="0 0 50 50" version="1.1" xmlns="http://www.w3.org/2000/svg" xmlns:xlink="http://www.w3.org/1999/xlink" xml:space="preserve" xmlns:serif="http://www.serif.com/" style="fill-rule:evenodd;clip-rule:evenodd;stroke-linejoin:round;stroke-miterlimit:2;"><g><path d="M40.114,12.265c1.157,0 2.096,0.939 2.096,2.096l0,21.278c0,1.157 -0.939,2.096 -2.096,2.096l-30.228,0c-1.157,0 -2.096,-0.939 -2.096,-2.096l0,-21.278c0,-1.157 0.939,-2.096 2.096,-2.096l30.228,0Zm-19.703,12.679c0.026,-1.981 0.07,-3.971 0.077,-5.266c0.003,-0.565 0.222,-1.073 0.506,-1.235c0.24,-0.138 0.785,-0.023 1.202,0.22c1.793,1.045 5.432,3.665 7.633,5.066c0.328,0.208 1.221,0.812 1.239,1.265c0,0.002 0.001,0.003 0.001,0.005l0,0.001c-0.004,0 -0.004,0 0,0l0,0.001c0,0.002 0,0.003 -0.001,0.005c-0.018,0.453 -0.911,1.057 -1.239,1.265c-2.201,1.401 -5.84,4.021 -7.633,5.066c-0.417,0.243 -0.962,0.358 -1.202,0.22c-0.284,-0.162 -0.503,-0.67 -0.506,-1.235c-0.007,-1.294 -0.051,-3.286 -0.077,-5.266l0,0l0,-0.112l0,0l0,0Z" style="fill:#d3d3d5;"/></g></svg>