<?xml version="1.0" encoding="utf-8"?>
<!-- Generator: Adobe Illustrator 25.4.1, SVG Export Plug-In . SVG Version: 6.00 Build 0)  -->
<svg version="1.1" id="Ebene_1" xmlns="http://www.w3.org/2000/svg" xmlns:xlink="http://www.w3.org/1999/xlink" x="0px" y="0px"
	 viewBox="0 0 349.3 637.3">
<path fill="#3E3E3E" d="M341,134V36.6c0-16.7-13.6-30.3-30.3-30.3H40.6c-16.7,0-30.3,13.6-30.3,30.3v135H9.7c-2,0-3.7,1.7-3.7,3.7
	v28.5c0,2,1.7,3.7,3.7,3.7h0.6v395c0,16.7,13.6,30.3,30.3,30.3h270.1c16.7,0,30.3-13.6,30.3-30.3V245.2c1.8-0.2,3.3-1.7,3.3-3.7
	V137.7C344.2,135.8,342.8,134.3,341,134z M330.5,592.4c0,12.2-9.8,22-22,22H43c-12.2,0-22-9.8-22-22V66c0-12.2,9.8-22,22-22h265.5
	c12.2,0,22,9.8,22,22V592.4z"/>
<g>
	<ellipse id="Ellipse_9" fill="#505050" cx="165.3" cy="25.4" rx="5.5" ry="5.5"/>
	<circle id="Ellipse_10" fill="#1A1A1A" cx="184.6" cy="25.4" r="6.9"/>
</g>
<g>
	<g>
		<path fill="#B2B2B2" d="M58.5,258c4.5,0,8.1-2,8.1-7v-1.7c0-0.6,0-1.4,0-1.4l0,0c-1.7,2.5-4.2,3.9-8.1,3.9
			c-8.1-0.3-12.8-7-12.8-14.8s4.5-14.2,12.8-14.2c6.1,0,8.6,3.6,8.6,3.6h0.3c0,0,0-0.3,0-0.8v-2.2h6.7v27c0,9.8-7.8,13.7-15.1,13.7
			c-3.6,0-7.5-1.1-10.3-2.5L51,256C50.4,256,54.1,258,58.5,258 M66.9,237.1c0-6.4-3.3-8.4-7.2-8.4c-4.2,0-6.7,3.1-6.7,8.1
			s2.5,8.6,7.2,8.6C63.5,245.4,66.9,243.5,66.9,237.1"/>
		<path fill="#B2B2B2" d="M95.3,222.6c8.9,0,15.9,6.1,15.9,15.1s-7,15.1-15.9,15.1s-15.9-6.1-15.9-15.1
			C79.4,229,86.7,222.6,95.3,222.6 M95.3,246.8c4.7,0,8.6-3.6,8.6-8.9c0-5.3-3.9-8.9-8.6-8.9s-8.6,3.6-8.6,8.9
			C87,243.2,90.9,246.8,95.3,246.8"/>
		<rect x="117.4" y="232.9" fill="#B2B2B2" width="17" height="6.1"/>
		<path d="M153.9,222.6c6.4,0,8.4,3.6,8.4,3.6l0,0c0,0,0-0.8,0-1.7V212h7.2v40.2h-6.7v-2.5c0-1.1,0-2,0-2l0,0c0,0-2.5,5-8.9,5
			c-7.8,0-12.8-6.1-12.8-15.1C140.8,228.7,146.4,222.6,153.9,222.6 M155.3,246.8c3.6,0,7.2-2.8,7.2-9.2c0-4.5-2.5-8.9-7.2-8.9
			c-3.9,0-7.2,3.3-7.2,8.9S151.1,246.8,155.3,246.8"/>
		<path d="M203.2,258c4.5,0,8.1-2,8.1-7v-1.7c0-0.6,0-1.4,0-1.4l0,0c-1.7,2.5-4.2,3.9-8.1,3.9c-8.4,0-12.8-6.7-12.8-14.5
			s4.5-14.2,12.8-14.2c6.1,0,8.6,3.6,8.6,3.6h0.3c0,0,0-0.3,0-0.8v-2.5h6.4v27c0,9.8-7.8,13.7-15.1,13.7c-3.6,0-7.5-1.1-10.3-2.5
			l2.2-5.6C195.4,256,199.1,258,203.2,258 M211.6,237.1c0-6.4-3.3-8.4-7.2-8.4c-4.5,0-6.7,3.1-6.7,8.1s2.5,8.6,7.2,8.6
			C208.3,245.4,211.6,243.5,211.6,237.1"/>
		<path d="M242.8,229.5h-3.6V224h3.9v-8.4h7v8.4h6.4v5.6h-6.4v11.2c0,4.7,3.6,5.3,5.6,5.3c0.8,0,1.4,0,1.4,0v6.1
			c0,0-0.8,0.3-2.2,0.3c-3.9,0-12-1.1-12-10.9"/>
		<path d="M277.4,234h0.8v-0.3c0-3.9-2.5-5-5.6-5c-4.2,0-7.8,2.8-7.8,2.8l-2.8-5c0,0,4.5-3.6,11.2-3.6c7.5,0,12,4.2,12,11.4v18.1
			h-6.7v-2.5c0-1.1,0-2,0-2l0,0c0,0-2.2,5-8.6,5c-5,0-9.8-3.3-9.8-8.9C260.4,234.6,272.7,234,277.4,234 M272.1,247.1
			c3.9,0,6.4-4.2,6.4-7.5V239h-1.4c-3.6,0-9.5,0.6-9.5,4.5C267.7,245.4,269,247.1,272.1,247.1"/>
		<path d="M292.5,212h7.2v30.1c0,3.1,1.1,3.9,3.1,3.9c0.6,0,1.1,0,1.1,0v6.1c0,0-1.1,0.3-2.2,0.3c-3.9,0-8.9-1.1-8.9-9.2"/>
		<rect x="177.6" y="223.4" width="7.5" height="9.5"/>
		<rect x="177.6" y="232.9" fill="#E30613" width="7.5" height="9.5"/>
		<rect x="177.6" y="242.6" fill="#F8D200" width="7.5" height="9.5"/>
		<rect x="225.3" y="223.4" width="7.5" height="9.5"/>
		<rect x="177.6" y="212" width="7.5" height="7.5"/>
		<rect x="225.3" y="212" width="7.5" height="7.5"/>
		<rect x="225.3" y="232.9" fill="#E30613" width="7.5" height="9.5"/>
		<rect x="225.3" y="242.6" fill="#F8D200" width="7.5" height="9.5"/>
	</g>
</g>
</svg>
