<svg xmlns="http://www.w3.org/2000/svg" viewBox="0 0 349.24 47.93"><defs><style>.cls-1,.cls-2{fill:#812b29;}.cls-2{fill-rule:evenodd;}.cls-3{fill:#d51317;}</style></defs><title>Element 1</title><g id="Ebene_2" data-name="Ebene 2"><g id="Ebene_1-2" data-name="Ebene 1"><path class="cls-1" d="M1.74,44.63H.64a6.85,6.85,0,0,1-.13.79c0,.22-.08.44-.13.64s-.12.39-.19.58S.07,47,0,47.25l1.5.31c.47.08.92.15,1.37.19l1.42.1c.48,0,1,0,1.61,0a19.36,19.36,0,0,0,2.94-.21A8.64,8.64,0,0,0,11.2,47a4.32,4.32,0,0,0,1.56-1.22A2.87,2.87,0,0,0,13.32,44a2.64,2.64,0,0,0-.78-1.94A5.49,5.49,0,0,0,10,40.8L7.9,40.26,6.54,39.9a9.32,9.32,0,0,1-1.1-.33,3,3,0,0,1-.72-.39.68.68,0,0,1-.27-.53.65.65,0,0,1,.27-.53,1.85,1.85,0,0,1,.67-.35,4.32,4.32,0,0,1,.91-.21,6.41,6.41,0,0,1,.94-.07,4.77,4.77,0,0,1,2.33.5,2.14,2.14,0,0,1,1.12,1.22h1.07a5.3,5.3,0,0,1,.35-1.2,6.65,6.65,0,0,1,.7-1.19c-.91-.21-1.84-.37-2.79-.5a21,21,0,0,0-2.87-.19,15.39,15.39,0,0,0-2.78.24,8.51,8.51,0,0,0-2.25.69A4.29,4.29,0,0,0,.59,38.23,2.57,2.57,0,0,0,0,39.9,2.53,2.53,0,0,0,1.15,42a8.21,8.21,0,0,0,2.92,1.28c.9.23,1.64.43,2.23.6a10.21,10.21,0,0,1,1.42.47,2,2,0,0,1,.75.45.71.71,0,0,1,0,1,1.86,1.86,0,0,1-.64.37,4,4,0,0,1-.86.19,6.2,6.2,0,0,1-1,.07,9.1,9.1,0,0,1-1.5-.13A6.72,6.72,0,0,1,3.22,46a3.94,3.94,0,0,1-1-.57,1.76,1.76,0,0,1-.51-.76Z"/><path class="cls-1" d="M31.06,39.34h1.07c0-.22.11-.44.16-.66A4.31,4.31,0,0,1,32.5,38l.22-.53a3.42,3.42,0,0,0,.21-.55,30.67,30.67,0,0,0-3.19-.56,23.76,23.76,0,0,0-3.24-.23,22.49,22.49,0,0,0-4.29.4A13.27,13.27,0,0,0,18.7,37.7a7,7,0,0,0-2.33,1.9,4.06,4.06,0,0,0-.85,2.55,3.94,3.94,0,0,0,.8,2.43,6.71,6.71,0,0,0,2.2,1.82,12,12,0,0,0,3.27,1.12,20.78,20.78,0,0,0,4,.37,24,24,0,0,0,3.51-.22c1-.16,1.93-.33,2.74-.5.12-.32.25-.64.4-1s.29-.64.45-.95L32.1,45c-.28.16-.6.32-.94.48a10.87,10.87,0,0,1-1.12.45,9.46,9.46,0,0,1-1.37.34A9.09,9.09,0,0,1,27,46.4,7,7,0,0,1,24.36,46a4.14,4.14,0,0,1-1.58-1.09,3.61,3.61,0,0,1-.73-1.48,7.75,7.75,0,0,1-.18-1.63,5.13,5.13,0,0,1,.26-1.49A3.74,3.74,0,0,1,23,38.94a4.45,4.45,0,0,1,1.61-1,7.11,7.11,0,0,1,2.49-.37,6.65,6.65,0,0,1,2.52.43,2.42,2.42,0,0,1,1.45,1.3Z"/><path class="cls-1" d="M36,42.49c0,.37,0,.76,0,1.19s0,.85,0,1.27a10.71,10.71,0,0,1-.06,1.16,6.33,6.33,0,0,1-.08.88l-.1.81c.46,0,.94-.08,1.44-.1s1.09-.05,1.77-.05,1.14,0,1.69,0,1.11.06,1.66.12c-.05-.36-.1-.78-.13-1.27s-.07-1-.08-1.5,0-1-.06-1.44V42.46l1.48,0h3l1.48,0q0,.42,0,1.11c0,.45,0,.93,0,1.45s0,1-.11,1.51a9.72,9.72,0,0,1-.16,1.27c.52,0,1-.08,1.53-.1s1-.05,1.55-.05c1.2,0,2.37.05,3.52.15,0-.58-.08-1.13-.11-1.64s-.05-1.06-.08-1.59,0-1.12-.06-1.71,0-1.26,0-2c0-1,0-1.78.05-2.5s.14-1.42.24-2.09c-.46,0-1,.08-1.63.11l-1.66,0c-.5,0-1.06,0-1.67,0l-1.63-.09c0,.36.1.75.13,1.15s.07.8.08,1.19a11.81,11.81,0,0,1,.06,1.18c0,.37,0,.72,0,1l-1.53,0h-3l-1.37,0v-1c0-.38,0-.76.06-1.16s.07-.81.1-1.22.08-.8.14-1.17c-.47,0-1,.08-1.64.11l-1.66,0c-.52,0-1.08,0-1.69,0l-1.6-.09a14.13,14.13,0,0,1,.18,1.44c0,.44.06.85.06,1.21v.69c0,.33,0,.69,0,1.08v1.07c0,.34,0,.57,0,.71Z"/><path class="cls-2" d="M68.22,46.62a7.19,7.19,0,0,1-1.85-.21,4.45,4.45,0,0,1-1.28-.59,3.31,3.31,0,0,1-.81-.87,4.79,4.79,0,0,1-.45-1,6.2,6.2,0,0,1-.22-1.09c0-.38,0-.73,0-1.07a6.63,6.63,0,0,1,.16-1.41A3.54,3.54,0,0,1,64.39,39a3.63,3.63,0,0,1,1.34-1.07A5.41,5.41,0,0,1,68,37.46a5.28,5.28,0,0,1,2.38.45,3.41,3.41,0,0,1,1.37,1.14,3.56,3.56,0,0,1,.61,1.48A7.26,7.26,0,0,1,72.56,42a8.08,8.08,0,0,1,0,1,6.49,6.49,0,0,1-.21,1,4.57,4.57,0,0,1-.46,1,3.29,3.29,0,0,1-.78.85,3.94,3.94,0,0,1-1.18.58,5.38,5.38,0,0,1-1.66.22ZM68,36.14a22.21,22.21,0,0,0-4.29.39,12.67,12.67,0,0,0-3.46,1.12A6.49,6.49,0,0,0,58,39.5a4.26,4.26,0,0,0,0,5,7,7,0,0,0,2.33,1.85,13.16,13.16,0,0,0,3.43,1.12,22,22,0,0,0,4.15.37,27.33,27.33,0,0,0,4.37-.33,12.49,12.49,0,0,0,3.51-1.1,6.56,6.56,0,0,0,2.36-1.85A4.21,4.21,0,0,0,79,42a3.91,3.91,0,0,0-.85-2.51,6.42,6.42,0,0,0-2.33-1.83,12.67,12.67,0,0,0-3.49-1.11A22.65,22.65,0,0,0,68,36.14Z"/><path class="cls-1" d="M88,42.83l2.6,2.81.51.57q.27.28.51.57c.16.2.31.38.45.57s.3.32.41.45c.53-.06,1.15-.09,1.85-.12l1.9,0,.88,0,.91,0,.83,0,.65,0v-.21s0-.08-.14-.13l-.21-.18q-.11-.08-.51-.45c-.25-.25-.57-.57-1-.93l-1.26-1.25L95,43.23c-.49-.48-1-.95-1.4-1.41s-.84-.9-1.18-1.29Q94.67,39,97,37.61a9.64,9.64,0,0,1,.94-.55c.34-.18.66-.37,1-.55v-.22c-.32.05-.63.09-.94.11s-.59,0-.91,0a18.13,18.13,0,0,1-2.22-.14l-1.5,1.2-1.29,1c-.43.32-.89.66-1.39,1s-1.07.73-1.77,1.19l-.86.58V40.16c0-.41,0-.82.06-1.25s.07-.88.1-1.32.08-.88.14-1.3c-1,.09-2,.14-3.06.14-.57,0-1.13,0-1.69,0l-1.68-.11a22.86,22.86,0,0,1,.24,2.79c0,.9,0,1.81,0,2.72v1.56c0,.78,0,1.56-.08,2.33a16.19,16.19,0,0,1-.21,2.11l1.61-.1c.55,0,1.09-.05,1.63-.05s1,0,1.55.05,1.14,0,1.59.1c0-.42-.08-.87-.11-1.34s0-1,0-1.41,0-.89-.06-1.27v-1Z"/><path class="cls-2" d="M110.45,46.62a7.19,7.19,0,0,1-1.85-.21,4.45,4.45,0,0,1-1.28-.59,3.31,3.31,0,0,1-.81-.87,4.79,4.79,0,0,1-.45-1,6.2,6.2,0,0,1-.22-1.09c0-.38,0-.73,0-1.07a6.63,6.63,0,0,1,.16-1.41,3.54,3.54,0,0,1,.64-1.41A3.63,3.63,0,0,1,108,37.89a5.41,5.41,0,0,1,2.31-.43,5.28,5.28,0,0,1,2.38.45A3.41,3.41,0,0,1,114,39.05a3.56,3.56,0,0,1,.61,1.48,7.26,7.26,0,0,1,.16,1.48,8.08,8.08,0,0,1-.05,1,5.54,5.54,0,0,1-.21,1,4.57,4.57,0,0,1-.46,1,3.13,3.13,0,0,1-.78.85,4,4,0,0,1-1.17.58,5.5,5.5,0,0,1-1.67.22Zm-.21-10.48a22.21,22.21,0,0,0-4.29.39,12.48,12.48,0,0,0-3.45,1.12,6.44,6.44,0,0,0-2.28,1.85,4.26,4.26,0,0,0,0,5,7,7,0,0,0,2.33,1.85A13.16,13.16,0,0,0,106,47.52a22,22,0,0,0,4.15.37,27.33,27.33,0,0,0,4.37-.33,12.49,12.49,0,0,0,3.51-1.1,6.56,6.56,0,0,0,2.36-1.85,4.21,4.21,0,0,0,.86-2.63,3.92,3.92,0,0,0-.86-2.51A6.42,6.42,0,0,0,118,37.64a12.67,12.67,0,0,0-3.49-1.11,22.57,22.57,0,0,0-4.31-.39Z"/><path class="cls-1" d="M130.47,46.17c0-.13,0-.36,0-.7v-1.1c0-.38,0-.75,0-1.09V40.45c0-.51,0-1,.05-1.56s.06-1,.08-1.48.08-.84.13-1.12c-.53.05-1.06.09-1.58.11s-1,0-1.58,0c-1.16,0-2.3,0-3.43-.14a7.4,7.4,0,0,1,.16,1.41c0,.52,0,1,.08,1.51s0,.74.06,1.1,0,.7,0,1.07,0,.78,0,1.21,0,.88,0,1.4v.83c0,.46,0,1-.08,1.48a7.13,7.13,0,0,1-.32,1.5c1.34-.06,2.63-.09,3.88-.12l3.32,0c.88,0,1.75,0,2.63,0s1.9.06,3,.12c0-.15-.07-.3-.11-.44a3.4,3.4,0,0,1,0-.45,3.89,3.89,0,0,1,0-.51c0-.16.07-.3.11-.42-.43,0-1,.08-1.64.1l-2,.06-1.77,0Z"/><path class="cls-2" d="M143.06,44.05l.59,0h3.54l.59,0-2.3-3.74-2.42,3.74Zm-2,3.75c-.3,0-.61-.08-.91-.1a8.76,8.76,0,0,0-.91-.05c-.3,0-.61,0-.91.05a6.4,6.4,0,0,0-.81.1l1.59-2.14c.25-.32.52-.69.83-1.11s.61-.88.93-1.37.69-1,1.05-1.51L143,40.1l.67-1,.72-1.16c.24-.38.45-.73.65-1s.34-.53.43-.66c.3.05.61.08.93.12l.94,0,1,0c.32,0,.63-.07.93-.12.2.39.45.84.75,1.37s.63,1.06,1,1.64L152,41l1.05,1.59,1,1.51.86,1.26c.26.38.54.77.83,1.17l1,1.32a17,17,0,0,0-1.74-.12l-1.77,0c-.57,0-1.15,0-1.74.05s-1.14,0-1.71.1c-.18-.41-.37-.8-.57-1.18a10.3,10.3,0,0,0-.61-1.12h-1.77l-1.77,0-1.42,0h-1.39a8.13,8.13,0,0,0-.65,1.14c-.17.39-.36.77-.56,1.16Z"/><path class="cls-2" d="M171.33,41.91a8.38,8.38,0,0,1-.21,2,3,3,0,0,1-.72,1.42,3.2,3.2,0,0,1-1.4.85,7.86,7.86,0,0,1-2.25.27h-1.63c0-.42,0-.89,0-1.42V43.41c0-.56,0-1.1,0-1.63V40.35q0-.72,0-1.35c0-.42,0-.87.08-1.33.47,0,.89-.05,1.29-.05a12.3,12.3,0,0,1,1.85.13,3.76,3.76,0,0,1,1.55.58,3,3,0,0,1,1.07,1.28,5.46,5.46,0,0,1,.4,2.3Zm6.49,0a3.91,3.91,0,0,0-.24-1.34,4.08,4.08,0,0,0-.7-1.27,5.7,5.7,0,0,0-1.21-1.12,6.7,6.7,0,0,0-1.68-.9,13.15,13.15,0,0,0-3.14-.79,28.13,28.13,0,0,0-3.43-.19c-.91,0-1.8,0-2.68.08s-1.74.06-2.65.06c-.54,0-1.07,0-1.61,0l-1.61-.11c.09,1.15.16,2.26.19,3.32s.06,2.13.06,3.19c0,.87,0,1.7-.09,2.51s-.12,1.62-.21,2.49l1.88-.1c.64,0,1.28-.05,1.93-.05.92,0,1.84,0,2.76.08s1.83.07,2.76.07c.5,0,.95,0,1.36,0a10.76,10.76,0,0,0,1.18-.11,10.62,10.62,0,0,0,1.15-.21c.4-.09.82-.21,1.29-.35a8,8,0,0,0,1.93-.82,6.78,6.78,0,0,0,1.47-1.21,4.83,4.83,0,0,0,.94-1.47,4.34,4.34,0,0,0,.35-1.69Z"/><path class="cls-1" d="M187,46.17V42.49l1.9,0c.57,0,1.11,0,1.61,0l1.5.05,1.55,0a3.4,3.4,0,0,1-.13-.87,2.77,2.77,0,0,1,0-.42c0-.14.07-.28.1-.43L191.4,41l-1.93,0-1.5,0h-1V37.93h2.81c.66,0,1.33,0,2,0l2,.06c0-.15-.08-.3-.11-.45a3.4,3.4,0,0,1,0-.45,2.77,2.77,0,0,1,0-.42c0-.14.07-.28.11-.43-.49,0-1,.06-1.69.08l-2,.05h-3.81c-.93,0-1.85,0-2.78,0l-2.79-.11c0,.44.1.83.13,1.19s.07.74.08,1.15,0,.91,0,1.47,0,1.24,0,2.09v1.75c0,.61,0,1.11,0,1.51s0,.72,0,1a3.71,3.71,0,0,1,0,.7,4,4,0,0,1-.11.65c1.09-.06,2.18-.09,3.27-.12s2.18,0,3.27,0l3.22,0c1.09,0,2.18.06,3.27.12,0-.13-.08-.27-.11-.4a3,3,0,0,1,0-.42,3.4,3.4,0,0,1,0-.45c0-.16.07-.32.11-.47l-1.13,0-1.39,0-1.4,0H187Z"/><path class="cls-1" d="M202.2,42.33l1.48,1,1.52,1,1.53,1.06c.54.35,1.07.72,1.61,1.11l1.74,1.24.94-.1c.34,0,.71-.05,1.12-.05s.79,0,1.18.05a8.37,8.37,0,0,1,1,.1c0-.43-.06-.86-.08-1.29s0-.86,0-1.28c0-1.11,0-2.19.06-3.25s.09-2.15.16-3.25c0-.41.08-.81.13-1.22s.1-.82.14-1.22a7.69,7.69,0,0,1-.78.11c-.25,0-.53,0-.83,0s-.62,0-.89,0-.58-.06-.93-.11c0,.34.06.67.08,1s.06.65.08,1,.06.68.08,1,0,.72.05,1.11,0,1,.06,1.42.05.91.05,1.4c-.36-.23-.69-.44-1-.65l-.91-.59c-.29-.21-.59-.41-.91-.61l-1-.66-1.37-.9-1.63-1.1c-.58-.38-1.16-.78-1.75-1.2s-1.1-.83-1.6-1.22l-1,.11q-.51,0-1.05,0l-1.15,0-1.12-.11c.08.94.14,1.85.16,2.73s0,1.79,0,2.73c0,.46,0,1,0,1.47s-.06,1-.11,1.56-.09,1-.16,1.55-.12,1-.19,1.47c.34,0,.65-.08.94-.1a8.33,8.33,0,0,1,.88-.05,6.75,6.75,0,0,1,.86.05,6.42,6.42,0,0,1,.75.1c0-.4-.08-.84-.13-1.32s-.07-1-.11-1.45-.07-.94-.11-1.38,0-.81,0-1.11V40.87l1.15.74c.39.23.77.47,1.12.72Z"/><path class="cls-1" d="M219.62,44.63h-1.1a6.85,6.85,0,0,1-.13.79,6,6,0,0,1-.14.64c-.05.19-.11.39-.18.58s-.12.39-.19.61c.53.12,1,.22,1.5.31s.92.15,1.37.19l1.42.1c.48,0,1,0,1.6,0a19.4,19.4,0,0,0,2.95-.21,8.64,8.64,0,0,0,2.36-.7,4.19,4.19,0,0,0,1.55-1.22A2.81,2.81,0,0,0,231.2,44a2.64,2.64,0,0,0-.78-1.94,5.54,5.54,0,0,0-2.57-1.26l-2.07-.54-1.36-.36a9.32,9.32,0,0,1-1.1-.33,2.88,2.88,0,0,1-.73-.39.7.7,0,0,1-.26-.53.67.67,0,0,1,.26-.53,1.94,1.94,0,0,1,.67-.35,4.42,4.42,0,0,1,.92-.21,6.29,6.29,0,0,1,.93-.07,4.78,4.78,0,0,1,2.34.5,2.14,2.14,0,0,1,1.12,1.22h1.07A5.3,5.3,0,0,1,230,38a6.65,6.65,0,0,1,.7-1.19c-.91-.21-1.84-.37-2.79-.5a21.07,21.07,0,0,0-2.87-.19,15.39,15.39,0,0,0-2.78.24,8.51,8.51,0,0,0-2.25.69,4.21,4.21,0,0,0-1.53,1.17,2.57,2.57,0,0,0-.56,1.67A2.53,2.53,0,0,0,219,42,8.13,8.13,0,0,0,222,43.26c.89.23,1.64.43,2.23.6a10.21,10.21,0,0,1,1.42.47,2.11,2.11,0,0,1,.75.45.71.71,0,0,1,0,1,2,2,0,0,1-.64.37,4,4,0,0,1-.86.19,6.24,6.24,0,0,1-1,.07,9.29,9.29,0,0,1-1.5-.13,7.19,7.19,0,0,1-1.26-.36,4.06,4.06,0,0,1-1-.57,1.76,1.76,0,0,1-.51-.76Z"/><path class="cls-1" d="M240.6,46.17V42.49l1.9,0c.58,0,1.11,0,1.61,0l1.5.05,1.56,0a3,3,0,0,1-.14-.87,2.77,2.77,0,0,1,0-.42c0-.14.07-.28.11-.43L245,41l-1.93,0-1.5,0h-1V37.93h2.82c.66,0,1.32,0,2,0l2,.06c0-.15-.07-.3-.11-.45a3.4,3.4,0,0,1,0-.45,2.77,2.77,0,0,1,0-.42c0-.14.07-.28.11-.43-.48,0-1,.06-1.69.08l-2,.05H239.9l-2.78,0-2.79-.11c0,.44.1.83.14,1.19s.06.74.08,1.15,0,.91,0,1.47,0,1.24,0,2.09v1.75c0,.61,0,1.11,0,1.51s0,.72,0,1a3.65,3.65,0,0,1-.06.7,4,4,0,0,1-.11.65c1.09-.06,2.18-.09,3.27-.12s2.18,0,3.27,0,2.15,0,3.22,0,2.18.06,3.27.12c0-.13-.07-.27-.11-.4a3,3,0,0,1,0-.42,3.4,3.4,0,0,1,0-.45c0-.16.07-.32.11-.47l-1.13,0-1.39,0-1.39,0h-2.9Z"/><path class="cls-1" d="M257,42.46V40.85c0-.77,0-1.53.08-2.28s.12-1.51.21-2.28c-.46,0-1,.08-1.58.11l-1.71,0c-.5,0-1.06,0-1.67,0l-1.6-.09c.07.45.12.91.16,1.38s0,.89,0,1.27v.8c0,.31,0,.64,0,1v1c0,.32,0,.58,0,.79,0,.9,0,1.79-.08,2.65s-.09,1.76-.18,2.66c.44,0,.94-.07,1.5-.1s1.11-.05,1.69-.05,1.14,0,1.71,0,1.14.06,1.64.12a21,21,0,0,1-.25-2.56c0-.94,0-1.87,0-2.78Z"/><path class="cls-1" d="M264.29,38c0,.53.06,1.07.08,1.61s0,1,0,1.4v2.12c0,.39,0,.81,0,1.24s0,.85-.05,1.26-.05.82-.08,1.19-.08.72-.14,1l1.21-.08c.52,0,1.15-.07,1.9-.07l1.15,0,2.2.12c-.05-.53-.1-1-.13-1.53s-.07-1-.08-1.51,0-1,0-1.59v-4c0-.46,0-.87.08-1.22.86,0,1.7,0,2.52,0s1.64.06,2.46.11c0-.11-.07-.24-.1-.39a1.76,1.76,0,0,1-.06-.46,2.26,2.26,0,0,1,.06-.55c0-.16.07-.3.1-.43-1.41.07-2.78.11-4.12.13h-8c-1.32,0-2.66-.06-4-.13,0,.18.07.35.1.5a1.4,1.4,0,0,1,.06.41,2.78,2.78,0,0,1-.16.92c.82,0,1.64-.09,2.46-.11s1.66,0,2.52,0Z"/><path class="cls-1" d="M283.77,46.17V42.49l1.9,0c.57,0,1.11,0,1.61,0l1.5.05,1.55,0a3.4,3.4,0,0,1-.13-.87,2.77,2.77,0,0,1,0-.42c0-.14.07-.28.1-.43l-2.17.08-1.92,0-1.51,0h-1V37.93h2.81c.66,0,1.33,0,2,0l2,.06c0-.15-.08-.3-.11-.45a3.4,3.4,0,0,1,0-.45,2.77,2.77,0,0,1,0-.42c0-.14.07-.28.11-.43-.49,0-1.05.06-1.69.08l-2,.05h-3.81c-.93,0-1.85,0-2.78,0l-2.79-.11c.05.44.1.83.13,1.19s.07.74.08,1.15,0,.91,0,1.47,0,1.24,0,2.09v1.75c0,.61,0,1.11,0,1.51s0,.72,0,1a3.71,3.71,0,0,1,0,.7,4,4,0,0,1-.11.65c1.09-.06,2.18-.09,3.27-.12s2.18,0,3.27,0,2.15,0,3.22,0,2.18.06,3.27.12c0-.13-.08-.27-.11-.4a3,3,0,0,1,0-.42,3.4,3.4,0,0,1,0-.45c0-.16.07-.32.11-.47l-1.13,0-1.39,0-1.4,0h-2.89Z"/><path class="cls-1" d="M301,45.73a1.54,1.54,0,0,0-.29-.87,2.45,2.45,0,0,0-.83-.71,4.7,4.7,0,0,0-1.2-.48,5.7,5.7,0,0,0-4.12.48,2.53,2.53,0,0,0-.8.71,1.48,1.48,0,0,0,0,1.76,2.64,2.64,0,0,0,.8.7,4.83,4.83,0,0,0,1.23.46,7,7,0,0,0,2.89,0,4.35,4.35,0,0,0,1.2-.46,2.55,2.55,0,0,0,.83-.7,1.53,1.53,0,0,0,.29-.89Z"/><path class="cls-1" d="M304.43,43.28q0,1.14-.06,2.28a21,21,0,0,1-.23,2.24l1.54-.11c.52,0,1,0,1.56,0s1.1,0,1.62.07l1.65.09c-.05-.36-.1-.76-.14-1.18s0-1,0-1.66V43.4q0-.48,0-1a2.9,2.9,0,0,1,.17-.83A1.57,1.57,0,0,1,311,41a1.86,1.86,0,0,1,1-.23,1.84,1.84,0,0,1,.9.18,1,1,0,0,1,.46.43,1.34,1.34,0,0,1,.2.61c0,.22,0,.45,0,.68,0,.87,0,1.72-.05,2.55s-.1,1.69-.18,2.56c.5,0,1-.08,1.6-.11s1.09,0,1.59,0,1,0,1.56,0,1.05.06,1.57.11c0-.37-.07-.8-.09-1.27V43q0-.39,0-.75v-.66a2.43,2.43,0,0,0-1.25-2.21,7.12,7.12,0,0,0-3.68-.76,9.64,9.64,0,0,0-1.39.09,6.32,6.32,0,0,0-1.16.27,7.54,7.54,0,0,0-1.07.44,9.36,9.36,0,0,0-1,.61,8,8,0,0,0,.17-1.36,29.71,29.71,0,0,1-3,.16c-.5,0-1,0-1.56,0s-1-.07-1.51-.12c.1.55.16,1.06.2,1.55s.06,1,.06,1.67v1.37Z"/><path class="cls-2" d="M336.67,45.64l-.72-.47a4.69,4.69,0,0,1-.84.42,8.84,8.84,0,0,1-1,.31c-.34.08-.7.15-1.07.21a7.46,7.46,0,0,1-1,.07,5.36,5.36,0,0,1-1.65-.22,3.73,3.73,0,0,1-1.16-.61,2.54,2.54,0,0,1-.64-.85,2.75,2.75,0,0,1-.2-1c2.08,0,4.17-.05,6.25-.05H336l1.24,0a8.79,8.79,0,0,0-.26-1.62,3.05,3.05,0,0,0-1.07-1.6A6.73,6.73,0,0,0,333.25,39a12.74,12.74,0,0,0-3.27-.4,14.5,14.5,0,0,0-3.45.36,8.34,8.34,0,0,0-2.4,1,4.09,4.09,0,0,0-1.42,1.45,3.54,3.54,0,0,0-.46,1.77,4.14,4.14,0,0,0,.11.95,3.85,3.85,0,0,0,.49,1A5.21,5.21,0,0,0,325.26,47a10.45,10.45,0,0,0,2.2.58,19.87,19.87,0,0,0,3,.2,24.44,24.44,0,0,0,2.67-.15,16.32,16.32,0,0,0,2.52-.49l.2-.42c.08-.12.16-.24.23-.36s.17-.23.26-.35l.35-.4Zm-5-3.37h-3.27c0-.27,0-.54,0-.83a2.47,2.47,0,0,1,.17-.79,1.48,1.48,0,0,1,.52-.59,1.72,1.72,0,0,1,1-.24,1.58,1.58,0,0,1,.92.23,1.24,1.24,0,0,1,.47.59,2.13,2.13,0,0,1,.14.78c0,.29,0,.57,0,.85Z"/><path class="cls-1" d="M346.09,45.42V40.19h1.3l1.3,0a1.58,1.58,0,0,0-.08-.31,2,2,0,0,1,0-.35,2,2,0,0,1,.11-.67l-1.24,0-1.36,0v-.77c0-.32,0-.67.06-1s.07-.74.11-1.11.13-.69.2-1l-.52-.21c-.92.37-1.88.71-2.87,1s-1.95.57-2.95.82V39L339,39c-.44,0-.79,0-1,0a1.31,1.31,0,0,1,.09.33c0,.12,0,.24,0,.34s0,.24,0,.37-.07.21-.09.29l1,0h1.16V42.5c0,.43,0,.86-.06,1.3s-.06.87-.06,1.29a2.31,2.31,0,0,0,1.13,2.08,7.24,7.24,0,0,0,3.68.71,20.41,20.41,0,0,0,2.23-.12c.76-.09,1.49-.21,2.2-.36,0-.1-.06-.18-.08-.26a1.69,1.69,0,0,1,0-.33,1.41,1.41,0,0,1,.11-.54l-.69.15a4.2,4.2,0,0,1-.72.06c-1.16,0-1.74-.36-1.74-1.06Z"/><path class="cls-3" d="M347.84,23.69H.57l0-11H33.62S38.36,0,69.45,0c28.18,0,35.86,12.67,35.86,12.67h33.07S143.1,0,174.19,0c28.19,0,35.86,12.67,35.86,12.67,1.65,0,33.06,0,33.06,0S247.84,0,278.93,0c28.18,0,35.85,12.67,35.85,12.67h33.06c0,1.32,0,11,0,11Z"/><polygon class="cls-3" points="0.54 27.38 347.84 27.38 347.84 32.89 0.54 32.89 0.54 27.38 0.54 27.38"/></g></g></svg>