<svg xmlns="http://www.w3.org/2000/svg" xmlns:xlink="http://www.w3.org/1999/xlink" width="986" height="556" viewBox="0 0 986 556">
  <defs>
    <clipPath id="clip-path">
      <path id="Pfad_1" data-name="Pfad 1" d="M42.278,90.2a7.268,7.268,0,0,1-3.4-5.986c0-1.224,1.361-4.082,4.218-8.707a44.755,44.755,0,0,0,4.49-9.252A25.123,25.123,0,0,0,49.625,58.5,5.326,5.326,0,0,0,46.359,53.2,59.982,59.982,0,0,0,48.4,38.367a36.935,36.935,0,0,0-7.755-23.945A22.8,22.8,0,0,0,32.89,8.3,26.17,26.17,0,0,1,51.938,0h.136A23.458,23.458,0,0,1,62.958,2.721a24.263,24.263,0,0,1,8.979,7.211A38.394,38.394,0,0,1,78.332,22.04a51.086,51.086,0,0,1,2.177,14.966,69.724,69.724,0,0,1-3.4,20.408A90.4,90.4,0,0,1,68.4,77.822a40.037,40.037,0,0,1-9.115,11.156,14.357,14.357,0,0,1-9.524,3.673h-.136A11.4,11.4,0,0,1,42.278,90.2ZM13.163,81.087a6.2,6.2,0,0,1-2.721-4.762,23.5,23.5,0,0,1,3.4-6.939,51.389,51.389,0,0,0,3.673-7.211,19.233,19.233,0,0,0,1.5-6.122A4.152,4.152,0,0,0,16.02,51.7a29.255,29.255,0,0,1-8.435-4.354A20.985,20.985,0,0,1,.1,30.748,19.518,19.518,0,0,1,5.408,16.87,19.807,19.807,0,0,1,21.054,9.524,17.974,17.974,0,0,1,29.761,11.7a20.53,20.53,0,0,1,7.075,5.714,34.43,34.43,0,0,1,6.8,21.632,60.042,60.042,0,0,1-2.585,16.19,68.392,68.392,0,0,1-6.939,16.19Q26.972,83.264,19.421,83.264h-.136a11.148,11.148,0,0,1-6.122-2.177Z" transform="translate(-0.095)"/>
    </clipPath>
  </defs>
  <g id="Gruppe_6" data-name="Gruppe 6" transform="translate(-15 -1796)">
    <path id="Vereinigungsmenge_1" data-name="Vereinigungsmenge 1" d="M0,0H986V556H0Z" transform="translate(15 1796)" fill="#f5f5f5"/>
    <g id="schoki-gender-logo-ohne-registered" transform="translate(232.905 2022)">
      <g id="Gruppe_3" data-name="Gruppe 3" transform="translate(0.095)">
        <g id="Gruppe_2" data-name="Gruppe 2" clip-path="url(#clip-path)">
          <g id="c" transform="translate(-5.49 1.158)" opacity="0.7">
            <g id="d" transform="translate(0)">
              <g id="e">
                <rect id="f" width="94.148" height="16.734" fill="#8900bc"/>
                <rect id="g" width="94.148" height="17.551" transform="translate(0 14.013)" fill="blue"/>
                <rect id="h" width="94.148" height="15.782" transform="translate(0 31.564)" fill="#66bc42"/>
                <rect id="i" width="94.148" height="14.013" transform="translate(0 47.21)" fill="#fe0"/>
                <rect id="j" width="94.148" height="15.782" transform="translate(0 61.223)" fill="#ff4209"/>
                <rect id="k" width="94.148" height="15.782" transform="translate(0 77.005)" fill="red"/>
              </g>
            </g>
          </g>
        </g>
      </g>
      <g id="Gruppe_4" data-name="Gruppe 4" transform="translate(105.134 15.102)">
        <path id="Pfad_2" data-name="Pfad 2" d="M85.191,55.777a13.788,13.788,0,0,1-5.578-4.218A10.889,10.889,0,0,1,77.3,45.573H87.776a3.871,3.871,0,0,0,1.633,2.857,6.192,6.192,0,0,0,3.673,1.088,4.623,4.623,0,0,0,2.993-.816,2.584,2.584,0,0,0,1.088-2.041,2.332,2.332,0,0,0-1.5-2.177c-.952-.408-2.721-.952-5.034-1.633-2.449-.544-4.49-1.224-6.258-1.769a10.414,10.414,0,0,1-4.218-2.993,8.816,8.816,0,0,1-1.769-5.578,9.495,9.495,0,0,1,1.633-5.442,10.846,10.846,0,0,1,4.9-3.809A18.6,18.6,0,0,1,92.538,21.9q6.53,0,10.2,3.265a13.1,13.1,0,0,1,4.354,8.571H97.3a3.871,3.871,0,0,0-1.633-2.857,5.765,5.765,0,0,0-3.537-1.088,5.529,5.529,0,0,0-2.857.68,2.206,2.206,0,0,0-.952,1.9,2.28,2.28,0,0,0,1.633,2.177,26.913,26.913,0,0,0,4.9,1.5c2.585.68,4.626,1.361,6.258,1.9a10.392,10.392,0,0,1,4.218,3.129,8.51,8.51,0,0,1,1.9,5.714A9.495,9.495,0,0,1,105.6,52.24a10.846,10.846,0,0,1-4.9,3.809,18.141,18.141,0,0,1-7.347,1.361,24.151,24.151,0,0,1-8.163-1.633Z" transform="translate(-77.3 -7.206)" fill="#222"/>
        <path id="Pfad_3" data-name="Pfad 3" d="M104.677,30.2a14.751,14.751,0,0,1,6.122-6.122,17.568,17.568,0,0,1,8.979-2.177,17.05,17.05,0,0,1,10.884,3.4,16.624,16.624,0,0,1,5.714,9.524H125.085a5.556,5.556,0,0,0-5.578-3.945,5.227,5.227,0,0,0-4.626,2.313,11.284,11.284,0,0,0-1.769,6.53c0,2.857.544,5.034,1.769,6.53a5.735,5.735,0,0,0,4.626,2.313c2.721,0,4.49-1.361,5.578-3.945h11.292a16.624,16.624,0,0,1-5.714,9.524,17.05,17.05,0,0,1-10.884,3.4,17.567,17.567,0,0,1-8.979-2.177,16.523,16.523,0,0,1-6.122-6.122,19.134,19.134,0,0,1-2.177-9.388A19.852,19.852,0,0,1,104.677,30.2Z" transform="translate(-68.215 -7.206)" fill="#222"/>
        <path id="Pfad_4" data-name="Pfad 4" d="M162.384,28.73c2.449,2.585,3.537,6.258,3.537,10.748V59.613H155.445V40.974a7.722,7.722,0,0,0-1.769-5.442,7.25,7.25,0,0,0-9.8,0,7.5,7.5,0,0,0-1.769,5.442V59.749H131.5V13.9h10.612V29.818a12.81,12.81,0,0,1,4.354-3.673,13.624,13.624,0,0,1,6.258-1.361,12.6,12.6,0,0,1,9.66,3.946Z" transform="translate(-57.76 -10.091)" fill="#222"/>
        <path id="Pfad_5" data-name="Pfad 5" d="M169.407,55.133a16.3,16.3,0,0,1-6.394-6.122,18.817,18.817,0,0,1-2.313-9.388,19.191,19.191,0,0,1,2.313-9.388,15.736,15.736,0,0,1,6.394-6.258,20.174,20.174,0,0,1,18.231,0,15.736,15.736,0,0,1,6.394,6.258,19.191,19.191,0,0,1,2.313,9.388A17.889,17.889,0,0,1,193.9,49.01a16.965,16.965,0,0,1-6.53,6.258,18.963,18.963,0,0,1-9.252,2.177,16.631,16.631,0,0,1-8.707-2.313Zm14.285-9.115c1.5-1.5,2.177-3.673,2.177-6.394a9.255,9.255,0,0,0-2.041-6.394,7.228,7.228,0,0,0-10.34,0,9.255,9.255,0,0,0-2.041,6.394,9.255,9.255,0,0,0,2.041,6.394,6.408,6.408,0,0,0,5.034,2.177,6.892,6.892,0,0,0,5.17-2.177Z" transform="translate(-47.233 -7.242)" fill="#222"/>
        <path id="Pfad_6" data-name="Pfad 6" d="M212.288,59.749,201.812,45.192V59.613H191.2V13.9h10.612V39.206l10.476-14.013h13.061L210.927,42.471l14.421,17.279Z" transform="translate(-36.237 -10.091)" fill="#222"/>
        <path id="Pfad_7" data-name="Pfad 7" d="M220.369,20.9a5.174,5.174,0,0,1-1.769-4.082,5.174,5.174,0,0,1,1.769-4.082,6.99,6.99,0,0,1,8.979,0,5.174,5.174,0,0,1,1.769,4.082,5.174,5.174,0,0,1-1.769,4.082,6.517,6.517,0,0,1-4.49,1.633A6.286,6.286,0,0,1,220.369,20.9Zm9.8,5.306V60.759H219.552V26.2Z" transform="translate(-26.359 -11.1)" fill="#222"/>
      </g>
      <g id="Gruppe_5" data-name="Gruppe 5" transform="translate(331.66 18.911)">
        <path id="Pfad_8" data-name="Pfad 8" d="M267.609,24a12.7,12.7,0,0,1,4.9,4.762V22.636h5.714V57.329a16.675,16.675,0,0,1-2.041,8.3,14.431,14.431,0,0,1-5.714,5.714,17.364,17.364,0,0,1-8.571,2.041,19.274,19.274,0,0,1-11.156-3.129,12.341,12.341,0,0,1-5.306-8.571h5.578a9.155,9.155,0,0,0,3.809,5.034,12.589,12.589,0,0,0,6.939,1.9,10.588,10.588,0,0,0,7.619-2.857c2.041-1.9,2.993-4.626,2.993-8.163V50.527a12.122,12.122,0,0,1-4.9,4.9,14.184,14.184,0,0,1-7.619,2.041,15.294,15.294,0,0,1-8.163-2.177,14.994,14.994,0,0,1-5.714-6.258,20.027,20.027,0,0,1-2.177-9.115,18.081,18.081,0,0,1,2.177-9.115,15.485,15.485,0,0,1,5.714-6.122,15.294,15.294,0,0,1,8.163-2.177,15.843,15.843,0,0,1,7.755,1.5Zm3.4,8.843a10.847,10.847,0,0,0-4.218-4.354,11.931,11.931,0,0,0-5.714-1.5,11.538,11.538,0,0,0-5.714,1.5,10.847,10.847,0,0,0-4.218,4.354,13.05,13.05,0,0,0-1.5,6.667,15.191,15.191,0,0,0,1.5,6.8,10.038,10.038,0,0,0,4.218,4.354,11.931,11.931,0,0,0,5.714,1.5,11.538,11.538,0,0,0,5.714-1.5,11.807,11.807,0,0,0,4.218-4.354,13.049,13.049,0,0,0,1.5-6.667,15.191,15.191,0,0,0-1.5-6.8Z" transform="translate(-243.8 -10.8)" fill="#222"/>
        <path id="Pfad_9" data-name="Pfad 9" d="M307.424,41.891H280.35A10.677,10.677,0,0,0,291.37,52.64a10.8,10.8,0,0,0,6.122-1.633,9.259,9.259,0,0,0,3.4-4.49h6.122a14.641,14.641,0,0,1-5.442,7.891,16.5,16.5,0,0,1-10.2,2.993,16.9,16.9,0,0,1-8.707-2.177,16.167,16.167,0,0,1-5.986-6.122,18.6,18.6,0,0,1-2.177-9.252,20.138,20.138,0,0,1,2.041-9.252,14.943,14.943,0,0,1,5.85-6.122A18.349,18.349,0,0,1,291.1,22.3a17.364,17.364,0,0,1,8.571,2.041,15.354,15.354,0,0,1,5.714,5.714,16.317,16.317,0,0,1,2.041,8.3,15.371,15.371,0,0,1,0,3.537Zm-7.075-10.2a9.55,9.55,0,0,0-3.809-3.537,11.863,11.863,0,0,0-5.442-1.224,10.312,10.312,0,0,0-7.211,2.721c-2.041,1.769-3.129,4.354-3.4,7.619h21.36a10.667,10.667,0,0,0-1.5-5.578Z" transform="translate(-232.732 -10.872)" fill="#222"/>
        <path id="Pfad_10" data-name="Pfad 10" d="M330.83,25.909c2.585,2.449,3.809,6.122,3.809,10.748v20h-5.578V37.61c0-3.4-.816-5.986-2.585-7.755a9.217,9.217,0,0,0-6.939-2.721,9.533,9.533,0,0,0-7.075,2.721c-1.769,1.9-2.585,4.626-2.585,8.163V56.793H304.3V22.78h5.578v4.762a10.858,10.858,0,0,1,4.49-4.082,14.2,14.2,0,0,1,6.394-1.361c4.218.136,7.483,1.361,10.068,3.809Z" transform="translate(-221.989 -10.944)" fill="#222"/>
        <path id="Pfad_11" data-name="Pfad 11" d="M333.869,33.491a16.514,16.514,0,0,1,5.714-6.122,15.121,15.121,0,0,1,8.3-2.177,16.712,16.712,0,0,1,7.347,1.769,13.52,13.52,0,0,1,5.17,4.762V13.9h5.714V59.749h-5.578V53.355a13.332,13.332,0,0,1-4.9,5.034,14.11,14.11,0,0,1-7.619,1.9,15.628,15.628,0,0,1-8.163-2.177,15,15,0,0,1-5.714-6.258,19.962,19.962,0,0,1-2.041-9.115,20.1,20.1,0,0,1,1.769-9.252ZM358.9,35.94a10.847,10.847,0,0,0-4.218-4.354,11.931,11.931,0,0,0-5.714-1.5,11.538,11.538,0,0,0-5.714,1.5,9.752,9.752,0,0,0-4.082,4.354,13.05,13.05,0,0,0-1.5,6.667,15.191,15.191,0,0,0,1.5,6.8,10.551,10.551,0,0,0,4.082,4.354,11.657,11.657,0,0,0,11.428,0,11.807,11.807,0,0,0,4.218-4.354,13.049,13.049,0,0,0,1.5-6.667,13.573,13.573,0,0,0-1.5-6.8Z" transform="translate(-211.966 -13.9)" fill="#222"/>
        <path id="Pfad_12" data-name="Pfad 12" d="M395.524,41.891H368.45A10.677,10.677,0,0,0,379.47,52.64a10.8,10.8,0,0,0,6.122-1.633,9.259,9.259,0,0,0,3.4-4.49h6.122a14.642,14.642,0,0,1-5.442,7.891,16.5,16.5,0,0,1-10.2,2.993,16.9,16.9,0,0,1-8.707-2.177,16.167,16.167,0,0,1-5.986-6.122,18.6,18.6,0,0,1-2.177-9.252,20.139,20.139,0,0,1,2.041-9.252,14.943,14.943,0,0,1,5.85-6.122A18.348,18.348,0,0,1,379.2,22.3a17.364,17.364,0,0,1,8.571,2.041,15.354,15.354,0,0,1,5.714,5.714,16.317,16.317,0,0,1,2.041,8.3,15.367,15.367,0,0,1,0,3.537Zm-7.075-10.2a9.55,9.55,0,0,0-3.809-3.537,11.863,11.863,0,0,0-5.442-1.224,10.312,10.312,0,0,0-7.211,2.721c-2.041,1.769-3.129,4.354-3.4,7.619h21.36a12.119,12.119,0,0,0-1.5-5.578Z" transform="translate(-200.971 -10.872)" fill="#222"/>
        <path id="Pfad_13" data-name="Pfad 13" d="M402.232,23.833A13.087,13.087,0,0,1,408.9,22.2v5.85h-1.5c-6.258,0-9.524,3.4-9.524,10.2v18.5H392.3V22.744h5.578v5.442a13.316,13.316,0,0,1,4.354-4.354Z" transform="translate(-190.263 -10.908)" fill="#222"/>
      </g>
    </g>
  </g>
</svg>
