<?xml version="1.0" standalone="no"?>
<!DOCTYPE svg PUBLIC "-//W3C//DTD SVG 20010904//EN"
 "http://www.w3.org/TR/2001/REC-SVG-20010904/DTD/svg10.dtd">
<svg version="1.0" xmlns="http://www.w3.org/2000/svg"
 width="700.000000pt" height="700.000000pt" viewBox="0 0 700.000000 700.000000"
 preserveAspectRatio="xMidYMid meet">
<metadata>
Created by potrace 1.14, written by Peter Selinger 2001-2017
</metadata>
<g transform="translate(0.000000,700.000000) scale(0.100000,-0.100000)"
fill="#000000" stroke="none">
<path d="M708 6986 c-32 -7 -58 -11 -58 -10 0 4 -126 -43 -170 -64 -105 -48
-242 -164 -316 -268 -66 -93 -127 -230 -152 -342 -10 -48 -12 -5512 -1 -5577
49 -306 272 -576 556 -673 141 -49 94 -47 1382 -47 l1214 0 4 30 c2 17 11 64
20 105 9 41 17 77 18 80 22 110 145 350 229 449 228 268 532 434 853 466 107
11 340 4 364 -11 4 -2 24 -6 44 -10 51 -8 177 -50 253 -85 35 -16 64 -29 65
-29 1 0 3 44 4 98 4 157 50 352 116 492 20 42 102 183 119 205 147 189 285
305 467 395 266 131 525 163 836 105 106 -20 330 -114 417 -176 l28 -21 -3
2094 c-3 1891 -5 2098 -19 2148 -25 85 -50 152 -69 186 -9 17 -23 42 -31 55
-25 45 -109 150 -148 185 -88 79 -139 112 -275 175 -11 5 -51 19 -90 32 l-70
22 -2765 2 c-2168 1 -2777 -1 -2822 -11z m854 -785 c119 -31 221 -88 306 -171
l42 -42 49 49 c146 144 405 219 601 174 285 -66 494 -335 484 -622 -10 -316
-188 -580 -734 -1086 -36 -33 -85 -78 -109 -99 -24 -22 -58 -53 -75 -69 -17
-17 -73 -68 -124 -114 l-93 -84 -32 29 c-17 16 -48 44 -67 61 -19 18 -48 45
-65 59 -16 15 -55 50 -86 78 -30 28 -91 83 -134 121 -108 98 -351 337 -420
415 -216 245 -321 452 -332 656 -12 200 51 362 191 497 158 152 373 205 598
148z"/>
</g>
</svg>
