<svg version="1.1" id="Ebene_1" xmlns="http://www.w3.org/2000/svg" x="0" y="0" width="833.9" height="582" style="enable-background:new 0 0 833.9 582"><style>.st0{fill:#f8b600}.st1{fill:#472600}</style><g id="Gruppe_108" transform="translate(173.894 -165)"><g transform="translate(-173.89 165)"><circle id="Ellipse_4-5" class="st0" cx="329.8" cy="109.6" r="98.5"/></g><g id="Gruppe_113"><ellipse id="Ellipse_6" class="st1" cx="97.9" cy="263.6" rx="10.5" ry="14.5"/><path id="Pfad_101" class="st1" d="M189.9 293.1c8 0 14.5 6.5 14.5 14.5s-6.5 14.5-14.5 14.5-10.8-6.5-10.8-14.5 2.8-14.5 10.8-14.5z"/><path id="Pfad_102" class="st1" d="M143.4 308c10.2.6 13 8.9 13 16.1 0 7.2-5.8 13-13 13s-13-5.8-13-13 2.8-16.7 13-16.1z"/><path id="Pfad_103" class="st1" d="M152.9 270.7c5.2 0 9.5 1 9.5 6.2s-4.3 9.5-9.5 9.5-9.5-4.3-9.5-9.5 4.3-6.2 9.5-6.2z"/><path id="Pfad_100" class="st1" d="M197.9 236c10.8 0 19.5 3.8 19.5 14.5 0 10.8-8.7 19.5-19.5 19.5s-19.5-8.7-19.5-19.5c0-10.7 8.7-14.5 19.5-14.5z"/></g></g><g id="Gruppe_118" transform="translate(558.894 194)"><g transform="translate(-558.89 -194)"><circle id="Ellipse_4-6" class="st0" cx="714.8" cy="468.6" r="98.5"/></g><g id="Gruppe_113-2"><path id="Pfad_104" class="st1" d="M132.2 212.1c4.8 0 12.3 4.7 12.3 10.5s-7.5 8.5-12.3 8.5c-4.8 0-8.7-2.7-8.7-8.5-.1-5.8 3.8-10.5 8.7-10.5z"/><ellipse id="Ellipse_6-2" class="st1" cx="108.9" cy="278.6" rx="10.5" ry="14.5"/><path id="Pfad_101-2" class="st1" d="M189.9 293.1c8 0 14.5 6.5 14.5 14.5s-6.5 14.5-14.5 14.5-10.8-6.5-10.8-14.5 2.8-14.5 10.8-14.5z"/><path id="Pfad_102-2" class="st1" d="M143.4 308c10.2.6 13 8.9 13 16.1 0 7.2-5.8 13-13 13s-13-5.8-13-13 2.8-16.7 13-16.1z"/><path id="Pfad_103-2" class="st1" d="M146.9 263.3c5.2 0 9.5 1 9.5 6.2s-4.3 9.5-9.5 9.5-9.5-4.3-9.5-9.5 4.3-6.2 9.5-6.2z"/><path id="Pfad_100-2" class="st1" d="M177.5 261.9c5.9-9 13.8-14.3 22.8-8.4s11.6 18 5.7 27c-5.9 9-18 11.6-27 5.7-9-5.9-7.4-15.2-1.5-24.3z"/></g></g><g id="Gruppe_115" transform="rotate(-74.99 337.38 122.286)"><g transform="rotate(75 335.935 121.838)"><circle id="Ellipse_4-7" class="st0" cx="409.3" cy="336.6" r="80.3"/></g><g id="Gruppe_113-3" transform="translate(99.797 200.017)"><path id="Pfad_104-2" class="st1" d="M35.2-11.9c3.9 0 10 3.8 10 8.5s-6 6.9-10 6.9-7.1-2.2-7.1-6.9 3.2-8.5 7.1-8.5z"/><ellipse id="Ellipse_6-3" transform="rotate(180 8.41 49.6)" class="st1" cx="8.4" cy="49.6" rx="8.6" ry="11.3"/><path id="Pfad_101-3" class="st1" d="M95.9 65.1c5.5-.1 10 4.3 10 9.8.1 5.5-4.3 10-9.8 10h-.2c-5.5 0-7.4-4.4-7.4-9.9s1.9-9.9 7.4-9.9z"/><path id="Pfad_102-3" class="st1" d="M38.7 73.9c8.3.5 10.5 7.2 10.5 13s-4.7 10.5-10.5 10.5S28.2 92.8 28.2 87c0-5.8 2.2-13.6 10.5-13.1z"/><path id="Pfad_103-3" class="st1" d="M41.6 37.8c4.3 0 7.7.8 7.7 5.1s-3.4 7.7-7.7 7.7-7.7-3.4-7.7-7.7c0-4.3 3.4-5.1 7.7-5.1z"/><path id="Pfad_100-3" class="st1" d="M76.1 14.1c6.1 0 11 2.4 11 9.3S82.2 36 76.1 36s-11-5.6-11-12.5 5-9.4 11-9.4z"/></g></g><g id="Gruppe_117" transform="rotate(-74.99 173.57 321.15)"><g transform="rotate(75 172.779 319.836)"><circle id="Ellipse_4-8" class="st0" cx="143" cy="298.5" r="118.8"/></g><g id="Gruppe_113-4" transform="translate(114.632 210.159)"><path id="Pfad_104-3" class="st1" d="M52.2-11.9C58-11.9 66.9-6.3 66.9.7s-9 10.2-14.7 10.2S41.7 7.6 41.7.6s4.7-12.5 10.5-12.5z"/><ellipse id="Ellipse_6-4" transform="rotate(180 12.53 79.136)" class="st1" cx="12.5" cy="79.1" rx="12.7" ry="16.7"/><path id="Pfad_101-4" class="st1" d="M142 102.1c8.1-.1 14.7 6.4 14.8 14.5s-6.4 14.7-14.5 14.8h-.2c-8.1 0-11-6.6-11-14.7s2.8-14.6 10.9-14.6z"/><path id="Pfad_102-4" class="st1" d="M57.4 115.2c12.3.7 15.6 10.7 15.6 19.3 0 8.6-7 15.6-15.6 15.6s-15.6-7-15.6-15.6c0-8.7 3.3-20.1 15.6-19.3z"/><path id="Pfad_103-4" class="st1" d="M61.6 61.6c6.3 0 11.4 1.2 11.4 7.5s-5.1 11.4-11.4 11.4-11.4-5.1-11.4-11.4c0-6.3 5.1-7.5 11.4-7.5z"/><path id="Pfad_100-4" class="st1" d="M112.7 26.6c9 0 16.3 3.6 16.3 13.8S121.7 59 112.7 59s-16.3-8.3-16.3-18.5 7.4-13.9 16.3-13.9z"/></g></g></svg>