<svg xmlns="http://www.w3.org/2000/svg" width="160.714" height="160.714"><defs><filter id="a" x="0" y="0" width="160.714" height="160.714" filterUnits="userSpaceOnUse"><feOffset dy="3"/><feGaussianBlur stdDeviation="3" result="blur"/><feFlood flood-opacity=".161"/><feComposite operator="in" in2="blur"/><feComposite in="SourceGraphic"/></filter></defs><g transform="matrix(1.004 0 0 1.004 .048 .012)" filter="url(#a)"><circle data-name="Ellipse 4" cx="58.263" cy="58.263" r="58.263" transform="matrix(.26 -.97 .97 .26 9 118.55)" fill="#f8b600"/></g><g data-name="Gruppe 113" transform="rotate(-74.99 80.566 31.014)" fill="#472600"><path data-name="Pfad 104" d="M25.776 0c2.852 0 7.263 2.776 7.263 6.2s-4.411 5.02-7.263 5.02-5.164-1.594-5.164-5.02S22.924 0 25.776 0Z"/><ellipse data-name="Ellipse 6" cx="6.256" cy="8.212" rx="6.256" ry="8.212" transform="translate(0 36.644)"/><path data-name="Pfad 101" d="M70.024 56.185a7.22 7.22 0 1 1 0 14.44c-3.988 0-5.394-3.233-5.394-7.22s1.407-7.22 5.394-7.22Z"/><path data-name="Pfad 102" d="M28.35 62.6c6.042.366 7.677 5.253 7.677 9.493a7.677 7.677 0 0 1-15.354 0c0-4.24 1.635-9.859 7.677-9.493Z"/><path data-name="Pfad 103" d="M30.417 36.221c3.1 0 5.61.587 5.61 3.686a5.61 5.61 0 1 1-11.22 0c0-3.099 2.512-3.686 5.61-3.686Z"/><path data-name="Pfad 100" d="M55.61 18.965c4.422 0 8.007 1.765 8.007 6.812s-3.585 9.138-8.007 9.138-8.007-4.091-8.007-9.138 3.585-6.812 8.007-6.812Z"/></g></svg>