<?xml version="1.0" encoding="utf-8"?>
<!-- Generator: Adobe Illustrator 25.1.0, SVG Export Plug-In . SVG Version: 6.00 Build 0)  -->
<svg version="1.1" id="Ebene_1" xmlns="http://www.w3.org/2000/svg" xmlns:xlink="http://www.w3.org/1999/xlink" x="0px" y="0px"
	 width="444.8px" height="205.8px" viewBox="0 0 444.8 205.8">
<path fill="#FFE32B" d="M211.3,105.2c-4.4,0-8.8-1.1-11.1-3.3c-2.2-2.2-4.4-4.4-5.5-7.7c-1.1-3.3-1.1-7.7-1.1-12.2V36.7h8.8V82
	c0,3.3,0,5.5,1.1,7.7c0,2.2,1.1,4.4,2.2,5.5c1.1,1.1,3.3,2.2,5.5,2.2s4.4-1.1,5.5-2.2c1.1-1.1,2.2-3.3,2.2-5.5s1.1-5.5,1.1-7.7V36.7
	h8.8V82c0,4.4,0,8.8-1.1,12.2c-1.1,3.3-2.2,6.6-5.5,7.7C220.1,104.1,215.7,105.2,211.3,105.2z"/>
<path fill="#FFE32B" d="M237.8,104.1V36.7h6.6L263.2,82V36.7h7.7v67.4h-5.5l-19.9-45.3v46.4h-7.7
	C237.8,105.2,237.8,104.1,237.8,104.1z"/>
<rect x="279.8" y="36.7" fill="#FFE32B" width="8.8" height="67.4"/>
<path fill="#FFE32B" d="M307.5,104.1V43.3h-11.1v-6.6h32.1v6.6h-11.1v60.8H307.5z"/>
<path fill="#FFE32B" d="M334,104.1V36.7h26.5v6.6h-16.6v22.1h13.3V72h-13.3v24.3h16.6v6.6C360.5,104.1,334,104.1,334,104.1z"/>
<path fill="#FFE32B" d="M378.2,97.4h5.5c3.3,0,5.5-1.1,7.7-2.2c1.1-1.1,2.2-3.3,2.2-5.5s0-5.5,0-8.8V58.8c0-3.3,0-6.6-1.1-8.8
	c0-2.2-1.1-3.3-3.3-4.4c-2.2-1.1-3.3-1.1-6.6-1.1h-5.5C378.2,44.4,378.2,97.4,378.2,97.4z M368.2,104.1V36.7h14.4
	c5.5,0,8.8,1.1,12.2,2.2c3.3,1.1,5.5,3.3,6.6,6.6c1.1,3.3,2.2,6.6,2.2,11.1l-1.1,5.5l-4.4,14.4v13.3h5.5c0,0,0,2.2-1.1,3.3
	c-1.1,3.3-3.3,5.5-6.6,7.7s-6.6,2.2-11.1,2.2C383.7,104.1,368.2,104.1,368.2,104.1z"/>
<path fill="#FFE32B" d="M202.5,140.6h3.3c2.2,0,5.5,0,6.6-1.1c2.2-1.1,3.3-2.2,3.3-3.3c1.1-2.2,1.1-4.4,1.1-6.6
	c0-4.4-1.1-6.6-2.2-8.8c-1.1-2.2-4.4-2.2-8.8-2.2h-4.4C202.5,117.3,202.5,140.6,202.5,140.6z M193.6,180.3v-69.6H208
	c4.4,0,8.8,1.1,11.1,2.2c3.3,1.1,5.5,3.3,6.6,5.5c1.1,2.2,2.2,6.6,2.2,11.1c0,2.2,0,5.5-1.1,7.7c-1.1,2.2-1.1,4.4-2.2,5.5
	c-1.1,1.1-3.3,2.2-5.5,3.3l9.9,35.4H219l-8.8-33.2h-7.7v33.2h-8.8V180.3z"/>
<path fill="#FFE32B" d="M237.8,180.3v-69.6h27.6v7.7h-17.7v23.2h14.4v6.6h-14.4v25.4h17.7v6.6C265.5,180.3,237.8,180.3,237.8,180.3z
	"/>
<path fill="#FFE32B" d="M289.8,181.5c-4.4,0-7.7-1.1-9.9-2.2c-2.2-2.2-4.4-4.4-6.6-6.6c-1.1-3.3-2.2-6.6-2.2-11.1l8.8-2.2
	c0,2.2,1.1,4.4,1.1,6.6c1.1,2.2,1.1,4.4,3.3,5.5c1.1,1.1,3.3,2.2,5.5,2.2c2.2,0,4.4-1.1,5.5-2.2s2.2-3.3,2.2-6.6s-1.1-5.5-2.2-7.7
	c-1.1-2.2-3.3-4.4-5.5-5.5l-12.2-9.9c-2.2-2.2-4.4-4.4-5.5-6.6c-1.1-2.2-1.1-5.5-1.1-8.8c0-5.5,1.1-8.8,4.4-12.2
	c3.3-3.3,6.6-4.4,12.2-4.4c2.2,0,5.5,0,7.7,1.1c2.2,1.1,3.3,2.2,5.5,3.3c1.1,1.1,2.2,3.3,3.3,5.5c1.1,2.2,1.1,4.4,2.2,7.7l-7.7,2.2
	c0-2.2,0-4.4-1.1-6.6c0-2.2-1.1-3.3-2.2-4.4c-1.1-1.1-3.3-2.2-5.5-2.2c-2.2,0-4.4,1.1-5.5,2.2c-1.1,1.1-2.2,3.3-2.2,5.5
	s0,4.4,1.1,5.5c1.1,1.1,2.2,3.3,3.3,4.4l12.2,9.9c2.2,2.2,5.5,5.5,6.6,7.7c2.2,3.3,3.3,6.6,3.3,11.1c0,3.3-1.1,6.6-2.2,8.8
	c-1.1,2.2-3.3,4.4-5.5,5.5C295.3,180.3,293.1,181.5,289.8,181.5z"/>
<path fill="#FFE32B" d="M331.8,181.5c-4.4,0-8.8-1.1-11.1-3.3c-2.2-2.2-4.4-4.4-5.5-8.8c-1.1-3.3-1.1-7.7-1.1-12.2v-24.3
	c0-4.4,0-8.8,1.1-12.2c1.1-3.3,3.3-6.6,5.5-7.7c2.2-2.2,6.6-3.3,11.1-3.3c4.4,0,7.7,1.1,9.9,2.2c2.2,1.1,4.4,4.4,5.5,6.6
	c1.1,3.3,2.2,6.6,2.2,11.1v6.6h-8.8v-4.4c0-2.2,0-4.4,0-6.6s-1.1-3.3-2.2-4.4c-1.1-1.1-3.3-1.1-5.5-1.1c-2.2,0-4.4,1.1-5.5,2.2
	c-1.1,1.1-2.2,3.3-2.2,5.5s-1.1,4.4-1.1,7.7v27.6c0,3.3,0,6.6,1.1,8.8c1.1,2.2,1.1,3.3,3.3,4.4c1.1,1.1,3.3,1.1,5.5,1.1
	c2.2,0,4.4-1.1,5.5-2.2s2.2-3.3,2.2-4.4c0-2.2,0-4.4,0-7.7v-5.5h8.8v5.5c0,4.4,0,7.7-1.1,11.1s-3.3,5.5-5.5,7.7
	C339.5,180.3,336.2,181.5,331.8,181.5z"/>
<path fill="#FFE32B" d="M376,181.5c-5.5,0-8.8-1.1-12.2-3.3c-2.2-2.2-4.4-4.4-5.5-8.8c-1.1-3.3-1.1-7.7-1.1-13.3v-46.4h8.8V156
	c0,3.3,0,5.5,1.1,7.7c0,2.2,1.1,4.4,2.2,5.5c1.1,1.1,3.3,2.2,6.6,2.2c2.2,0,4.4-1.1,6.6-2.2c1.1-1.1,2.2-3.3,2.2-5.5
	c0-2.2,1.1-5.5,1.1-7.7v-46.4h8.8V156c0,4.4,0,8.8-1.1,13.3c-1.1,3.3-3.3,6.6-5.5,8.8C384.8,180.3,381.5,181.5,376,181.5z"/>
<path fill="#FFE32B" d="M404.7,180.3v-69.6h27.6v7.7h-17.7v23.2H429v6.6h-14.4v25.4h17.7v6.6C432.4,180.3,404.7,180.3,404.7,180.3z"
	/>
<path fill="none" stroke="#FFE32B" stroke-width="5" stroke-linecap="round" stroke-linejoin="round" stroke-miterlimit="10" d="
	M409.1,78.7h9.9V51L409.1,78.7z M420.2,103V90.8h-22.1V77.6l13.3-38.7h22.1v39.8h8.8v12.2h-9.9V103C432.4,103,420.2,103,420.2,103z"
	/>
<path fill="none" stroke="#FFE32B" stroke-width="7" stroke-linecap="round" stroke-linejoin="round" stroke-miterlimit="10" d="
	M181.5,110.7V4.6l-39.8,97.3L181.5,110.7z"/>
<path fill="none" stroke="#FFE32B" stroke-width="7" stroke-linecap="round" stroke-linejoin="round" stroke-miterlimit="10" d="
	M55.4,178.1l126-67.4l-27.6,36.5C153.8,146.1,55.4,178.1,55.4,178.1z"/>
<path fill="none" stroke="#FFE32B" stroke-width="7" stroke-linecap="round" stroke-linejoin="round" stroke-miterlimit="10" d="
	M181.5,110.7L3.5,72l51.9,106.1L181.5,110.7z"/>
<path fill="none" stroke="#FFE32B" stroke-width="7" stroke-linecap="round" stroke-linejoin="round" stroke-miterlimit="10" d="
	M85.3,89.7l13.3-33.2l18.8-44.2l7.7,26.5l16.6,60.8C141.7,100.8,85.3,89.7,85.3,89.7z"/>
<path fill="none" stroke="#FFE32B" stroke-width="7" stroke-linecap="round" stroke-linejoin="round" stroke-miterlimit="10" d="
	M98.6,56.6l-42,26.5l28.7,6.6L98.6,56.6z"/>
<path fill="none" stroke="#FFE32B" stroke-width="7" stroke-linecap="round" stroke-linejoin="round" stroke-miterlimit="10" d="
	M181.5,3.5l-39.8,97.3L125.1,40L181.5,3.5z"/>
<path fill="#FFE32B" d="M201.3,190.3c1.1,0,1.1,1.1,2.2,1.1l-1.1,1.1l-1.1-1.1c0,0-1.1,0-2.2,0c-1.1,0-1.1,0-2.2,1.1
	c-1.1,0-1.1,1.1-1.1,2.2c0,1.1-1.1,2.2-1.1,3.3c0,2.2,0,3.3,1.1,4.4c1.1,1.1,2.2,1.1,3.3,1.1s2.2,0,3.3-1.1V198h-2.2v-1.1h4.4v6.6
	c-1.1,1.1-3.3,1.1-4.4,1.1c-2.2,0-3.3-1.1-4.4-2.2c-1.1-1.1-1.1-3.3-1.1-5.5c0-1.1,0-3.3,1.1-4.4c1.1-1.1,1.1-2.2,2.2-2.2
	c1.1-1.1,2.2-1.1,3.3-1.1C199.1,189.2,200.2,190.3,201.3,190.3z"/>
<path fill="#FFE32B" d="M213.5,198c0-1.1,0-2.2-1.1-2.2c0-1.1-1.1-1.1-2.2-1.1c-1.1,0-2.2,1.1-2.2,3.3L213.5,198L213.5,198z
	 M214.6,199.1H208c0,1.1,0,2.2,1.1,2.2c0,1.1,1.1,1.1,2.2,1.1h1.1c0,0,1.1,0,1.1-1.1l1.1,1.1c-1.1,1.1-2.2,1.1-4.4,1.1
	c-1.1,0-3.3,0-3.3-1.1c-1.1-1.1-1.1-2.2-1.1-4.4c0-1.1,0-2.2,1.1-3.3c0-1.1,1.1-1.1,1.1-2.2c1.1,0,1.1-1.1,2.2-1.1
	c1.1,0,2.2,0,3.3,1.1C214.6,195.8,214.6,196.9,214.6,199.1L214.6,199.1z"/>
<path fill="#FFE32B" d="M231.2,193.6c0,1.1,1.1,1.1,1.1,2.2v7.7h-2.2v-7.7c0-1.1,0-2.2-1.1-2.2h-1.1l-1.1,1.1v7.7h-2.2v-7.7
	c0-1.1,0-2.2-1.1-2.2c-1.1,0-1.1,0-1.1,0l-1.1,1.1v7.7H219v-11.1h2.2v1.1c1.1-1.1,2.2-2.2,3.3-2.2s1.1,0,2.2,0l1.1,1.1
	c0-1.1,1.1-1.1,1.1-1.1s1.1,0,2.2,0C230.1,193.6,231.2,193.6,231.2,193.6z"/>
<path fill="#FFE32B" d="M243.3,198c0-1.1,0-2.2-1.1-2.2c0-1.1-1.1-1.1-2.2-1.1c-1.1,0-2.2,1.1-2.2,3.3L243.3,198L243.3,198z
	 M244.5,199.1h-6.6c0,1.1,0,2.2,1.1,2.2c0,1.1,1.1,1.1,2.2,1.1h1.1c0,0,1.1,0,1.1-1.1l1.1,1.1c-1.1,1.1-2.2,1.1-4.4,1.1
	c-1.1,0-3.3,0-3.3-1.1c-1.1-1.1-1.1-2.2-1.1-4.4c0-1.1,0-2.2,1.1-3.3c0-1.1,1.1-1.1,1.1-2.2c1.1,0,1.1-1.1,2.2-1.1
	c1.1,0,2.2,0,3.3,1.1C244.5,195.8,244.5,196.9,244.5,199.1L244.5,199.1z"/>
<path fill="#FFE32B" d="M250,193.6v11.1h-2.2v-11.1H250z M250,188.1C250,188.1,250,189.2,250,188.1c0,1.1,0,1.1,0,2.2h-1.1h-1.1
	v-1.1v-1.1C247.8,188.1,248.9,188.1,250,188.1C248.9,188.1,250,188.1,250,188.1z"/>
<path fill="#FFE32B" d="M261,193.6c1.1,1.1,1.1,1.1,1.1,2.2v7.7h-2.2v-7.7c0-1.1,0-1.1,0-2.2h-1.1c-1.1,0-1.1,0-1.1,0l-1.1,1.1v7.7
	h-2.2v-11.1h1.1v1.1c0-1.1,1.1-1.1,1.1-1.1s1.1,0,2.2,0C259.9,193.6,261,193.6,261,193.6z"/>
<path fill="#FFE32B" d="M271,193.6c1.1,0,1.1,0,2.2,1.1l-1.1,1.1l-1.1-1.1h-1.1c-1.1,0-1.1,0-1.1,0v1.1v1.1c0,0,1.1,0,2.2,1.1
	c1.1,0,2.2,1.1,3.3,1.1s1.1,1.1,1.1,2.2c0,1.1,0,2.2-1.1,2.2c-1.1,1.1-2.2,1.1-3.3,1.1c-2.2,0-3.3,0-4.4-1.1l1.1-1.1
	c1.1,1.1,2.2,1.1,3.3,1.1c1.1,0,1.1,0,2.2,0l1.1-1.1v-1.1c0,0,0,0-1.1-1.1c0,0-1.1,0-2.2-1.1c-1.1,0-2.2-1.1-2.2-1.1
	s-1.1-1.1-1.1-2.2c0-1.1,0-1.1,0-1.1l1.1-1.1C269.9,193.6,269.9,193.6,271,193.6C269.9,193.6,271,193.6,271,193.6z"/>
<path fill="#FFE32B" d="M282,201.3v-2.2h-1.1c-2.2,0-3.3,1.1-3.3,2.2s0,1.1,0,1.1h1.1C279.8,203.6,280.9,202.5,282,201.3z
	 M284.2,202.5C284.2,203.6,284.2,203.6,284.2,202.5v2.2c-1.1,0-1.1,0-1.1,0l-1.1-1.1c-1.1,1.1-2.2,2.2-3.3,2.2c-1.1,0-2.2,0-2.2-1.1
	c-1.1-1.1-1.1-1.1-1.1-2.2c0-1.1,0-2.2,1.1-2.2c1.1-1.1,2.2-1.1,3.3-1.1h2.2V198c0-1.1,0-1.1-1.1-2.2c0,0-1.1,0-2.2,0
	s-2.2,0-3.3,1.1v-1.1c1.1,0,2.2-1.1,3.3-1.1s2.2,0,3.3,1.1c1.1,1.1,1.1,1.1,1.1,2.2L284.2,202.5
	C283.1,202.5,283.1,202.5,284.2,202.5z"/>
<path fill="#FFE32B" d="M300.8,193.6c0,1.1,1.1,1.1,1.1,2.2v7.7h-2.2v-7.7c0-1.1,0-2.2-1.1-2.2h-1.1l-1.1,1.1v7.7h-2.2v-7.7
	c0-1.1,0-2.2-1.1-2.2c-1.1,0-1.1,0-1.1,0l-1.1,1.1v7.7h-2.2v-11.1h2.2v1.1c1.1-1.1,2.2-2.2,3.3-2.2c1.1,0,1.1,0,2.2,0l1.1,1.1
	c0-1.1,1.1-1.1,1.1-1.1s1.1,0,2.2,0C299.7,193.6,300.8,193.6,300.8,193.6z"/>
<path fill="#FFE32B" d="M316.3,196.9c1.1,0,2.2,0,2.2-1.1c0,0,1.1-1.1,1.1-2.2c0-1.1,0-1.1-1.1-2.2c0,0-1.1-1.1-2.2-1.1h-2.2v5.5
	h2.2V196.9z M316.3,198h-2.2v6.6h-2.2v-14.4h3.3c2.2,0,3.3,0,4.4,1.1c1.1,1.1,1.1,2.2,1.1,3.3c0,1.1,0,2.2-1.1,2.2
	C319.6,198,318.5,198,316.3,198l5.5,6.6h-2.2L316.3,198z"/>
<path fill="#FFE32B" d="M330.7,198c0-1.1,0-2.2-1.1-2.2c0-1.1-1.1-1.1-2.2-1.1c-1.1,0-2.2,1.1-2.2,3.3L330.7,198L330.7,198z
	 M332.9,199.1h-6.6c0,1.1,0,2.2,1.1,2.2c0,1.1,1.1,1.1,2.2,1.1h1.1c0,0,1.1,0,1.1-1.1l1.1,1.1c-1.1,1.1-2.2,1.1-4.4,1.1
	c-1.1,0-3.3,0-3.3-1.1c-1.1-1.1-1.1-2.2-1.1-4.4c0-1.1,0-2.2,1.1-3.3c0-1.1,1.1-1.1,1.1-2.2c0-1.1,1.1-1.1,2.2-1.1s2.2,0,3.3,1.1
	C332.9,195.8,332.9,196.9,332.9,199.1L332.9,199.1z"/>
<path fill="#FFE32B" d="M341.7,203.6c-1.1,0-1.1,1.1-2.2,1.1s-2.2,0-2.2-1.1c0,0-1.1-1.1-1.1-2.2v-6.6H334v-1.1h2.2v-2.2h2.2v2.2
	h2.2v1.1h-2.2v6.6c0,1.1,0,1.1,0,1.1s0,0,1.1,0h1.1C340.6,202.5,341.7,203.6,341.7,203.6z"/>
<path fill="#FFE32B" d="M349.5,203.6c-1.1,0-1.1,1.1-2.2,1.1c-1.1,0-2.2,0-2.2-1.1c0,0-1.1-1.1-1.1-2.2v-6.6h-2.2v-1.1h2.2v-2.2h2.2
	v2.2h2.2v1.1h-2.2v6.6c0,1.1,0,1.1,0,1.1s0,0,1.1,0h1.1L349.5,203.6z"/>
<path fill="#FFE32B" d="M357.2,198c0-1.1,0-2.2-1.1-2.2c0-1.1-1.1-1.1-2.2-1.1c-1.1,0-2.2,1.1-2.2,3.3L357.2,198L357.2,198z
	 M359.4,199.1h-6.6c0,1.1,0,2.2,1.1,2.2c0,1.1,1.1,1.1,2.2,1.1h1.1c0,0,1.1,0,1.1-1.1l1.1,1.1c-1.1,1.1-2.2,1.1-4.4,1.1
	c-1.1,0-3.3,0-3.3-1.1c-1.1-1.1-1.1-2.2-1.1-4.4c0-1.1,0-2.2,1.1-3.3c0-1.1,1.1-1.1,1.1-2.2c1.1,0,1.1-1.1,2.2-1.1
	c1.1,0,2.2,0,3.3,1.1C359.4,195.8,359.4,196.9,359.4,199.1L359.4,199.1z"/>
<path fill="#FFE32B" d="M370.5,193.6c1.1,1.1,1.1,1.1,1.1,2.2v7.7h-2.2v-7.7c0-1.1,0-1.1,0-2.2h-1.1c-1.1,0-1.1,0-1.1,0l-1.1,1.1
	v7.7h-2.2v-11.1h2.2v1.1c0-1.1,1.1-1.1,1.1-1.1c1.1,0,1.1,0,2.2,0C368.2,193.6,369.4,193.6,370.5,193.6z"/>
<path fill="#FFE32B" d="M387,198c0-1.1,0-2.2-1.1-2.2c0-1.1-1.1-1.1-2.2-1.1c-1.1,0-2.2,1.1-2.2,3.3L387,198L387,198z M388.1,199.1
	h-6.6c0,1.1,0,2.2,1.1,2.2c0,1.1,1.1,1.1,2.2,1.1h1.1c0,0,1.1,0,1.1-1.1l1.1,1.1c-1.1,1.1-2.2,1.1-4.4,1.1c-1.1,0-3.3,0-3.3-1.1
	c-1.1-1.1-1.1-2.2-1.1-4.4c0-1.1,0-2.2,1.1-3.3c0-1.1,1.1-1.1,1.1-2.2c1.1,0,1.1-1.1,2.2-1.1c1.1,0,2.2,0,3.3,1.1
	C388.1,195.8,388.1,196.9,388.1,199.1L388.1,199.1z"/>
<path fill="#FFE32B" d="M392.6,202.5C393.7,202.5,393.7,202.5,392.6,202.5c0,1.1,0,2.2,0,2.2h-1.1h-1.1v-1.1v-1.1
	C391.5,202.5,391.5,201.3,392.6,202.5C392.6,201.3,392.6,202.5,392.6,202.5z"/>
<path fill="#FFE32B" d="M404.7,190.3l-4.4,14.4h-2.2l-4.4-14.4h2.2l3.3,12.2l3.3-12.2H404.7z"/>
<path fill="#FFE32B" d="M408,202.5L408,202.5c0,1.1,0,2.2,0,2.2h-1.1h-1.1v-1.1v-1.1C405.8,202.5,405.8,201.3,408,202.5
	C406.9,201.3,406.9,202.5,408,202.5z"/>
</svg>
