<?xml version="1.0" encoding="utf-8"?>
<svg version="1.1" id="Ebene_1" xmlns="http://www.w3.org/2000/svg" xmlns:xlink="http://www.w3.org/1999/xlink" x="0px" y="0px"
	 width="570px" height="99px" viewBox="0 0 570 99" style="enable-background:new 0 0 570 99;">
<style type="text/css">
	.st0{clip-path:url(#SVGID_00000023246764984586071190000002306311096607010725_);}
	.st1{fill:#0079D6;}
	.st2{fill:#FFFFFF;}
</style>
<g>
	<defs>
		<rect id="SVGID_1_" width="570" height="99"/>
	</defs>
	<clipPath id="SVGID_00000167355768887562128250000005126856863886474632_">
		<use xlink:href="#SVGID_1_"  style="overflow:visible;"/>
	</clipPath>
	<g id="chocfair-cal-logo" style="clip-path:url(#SVGID_00000167355768887562128250000005126856863886474632_);">
		<path id="Pfad_1" class="st1" d="M121,54.5c-0.1-3.9,0.8-7.7,2.6-11.2c1.6-3.1,4.1-5.7,7.1-7.4c3.2-1.8,6.8-2.7,10.5-2.6
			c5.1,0,9.3,1.2,12.6,3.7c3.3,2.5,5.7,6.2,6.5,10.3h-7.4c-0.6-2.4-2.1-4.5-4.1-6c-2.2-1.5-4.9-2.3-7.6-2.2c-3.6-0.1-7.1,1.3-9.5,4
			c-2.4,2.7-3.6,6.5-3.6,11.4c0,5,1.2,8.8,3.6,11.5c2.4,2.7,5.9,4.2,9.5,4.1c2.7,0.1,5.3-0.6,7.5-2.1c2.1-1.5,3.5-3.6,4.2-6h7.4
			c-1,4-3.3,7.6-6.6,10.2c-3.6,2.6-8,4-12.5,3.8c-3.7,0.1-7.3-0.8-10.5-2.6c-3-1.8-5.5-4.4-7.1-7.5C121.8,62.3,120.9,58.4,121,54.5z
			 M189.9,33.1c2.9,0,5.8,0.6,8.5,2c2.5,1.4,4.6,3.4,5.9,6c1.5,3,2.3,6.4,2.2,9.7v24.4h-6.8V51.8c0-4.1-1-7.3-3.1-9.5
			c-2.2-2.3-5.3-3.4-8.5-3.3c-3.2-0.2-6.4,1.1-8.6,3.4c-2.1,2.3-3.2,5.6-3.2,9.9v22.9h-6.9V19.4h6.9v20.4c1.4-2.1,3.3-3.8,5.6-4.9
			C184.4,33.7,187.1,33.1,189.9,33.1z M235.7,75.9c-3.7,0-7.3-0.9-10.5-2.6c-3.1-1.7-5.7-4.4-7.4-7.5c-1.8-3.5-2.8-7.4-2.7-11.3
			c-0.1-3.9,0.9-7.8,2.8-11.2c1.7-3.2,4.3-5.7,7.5-7.5c3.3-1.8,6.9-2.7,10.6-2.6c3.7-0.1,7.4,0.8,10.6,2.6c3.2,1.7,5.8,4.3,7.5,7.4
			c1.9,3.4,2.8,7.3,2.8,11.2c0.1,3.9-0.9,7.8-2.8,11.3c-1.8,3.2-4.5,5.8-7.7,7.5C243.1,75.1,239.5,76,235.7,75.9L235.7,75.9z
			 M235.7,69.9c2.4,0,4.8-0.6,6.9-1.7c2.2-1.2,4-3,5.2-5.2c1.4-2.6,2.1-5.5,2-8.5c0.1-2.9-0.6-5.9-2-8.5c-1.2-2.2-3-4-5.1-5.2
			c-2.1-1.1-4.5-1.7-6.9-1.7c-2.4,0-4.8,0.6-6.9,1.7c-2.1,1.2-3.9,3-5,5.2c-1.3,2.6-2,5.5-1.9,8.5c-0.1,3,0.5,5.9,1.8,8.5
			c1.1,2.2,2.8,4,4.9,5.2C231,69.3,233.4,69.9,235.7,69.9L235.7,69.9z M263.4,54.5c-0.1-3.9,0.8-7.7,2.6-11.2
			c1.6-3.1,4.1-5.7,7.1-7.4c3.2-1.8,6.8-2.7,10.5-2.6c5.1,0,9.3,1.2,12.6,3.7c3.3,2.5,5.7,6.2,6.5,10.3h-7.4c-0.6-2.4-2.1-4.5-4.1-6
			c-2.2-1.5-4.9-2.3-7.6-2.2c-3.6-0.1-7.1,1.3-9.5,4c-2.4,2.7-3.6,6.5-3.6,11.4c0,5,1.2,8.8,3.6,11.5c2.4,2.7,5.9,4.2,9.5,4.1
			c2.7,0.1,5.3-0.6,7.5-2.1c2.1-1.5,3.5-3.6,4.2-6h7.4c-1,4-3.3,7.6-6.6,10.2c-3.6,2.6-8,4-12.5,3.8c-3.7,0.1-7.3-0.8-10.5-2.6
			c-3-1.8-5.5-4.4-7.1-7.5C264.2,62.3,263.3,58.4,263.4,54.5L263.4,54.5z M331.8,43.8h-6.9v31.4H312V43.8h-4.7V33.1h4.7v-1.2
			c0-5.2,1.5-9.1,4.5-11.8c3-2.7,7.3-4,13.1-4c1,0,1.7,0,2.1,0.1v10.9c-2.5-0.2-4.2,0.2-5.2,1.1s-1.5,2.4-1.5,4.6v0.4h6.9
			L331.8,43.8z M335.3,54.1c-0.1-3.9,0.8-7.8,2.5-11.4c1.5-3.1,3.8-5.7,6.7-7.5c2.8-1.8,6.1-2.7,9.4-2.6c2.7-0.1,5.4,0.6,7.8,1.8
			c2.1,1.1,3.9,2.7,5.2,4.8v-6h12.9v42.1h-12.9v-6c-1.3,2-3.1,3.6-5.2,4.8c-2.4,1.2-5.1,1.9-7.8,1.8c-3.3,0-6.6-0.9-9.4-2.7
			c-2.9-1.9-5.2-4.5-6.7-7.6C336,62,335.2,58.1,335.3,54.1L335.3,54.1z M366.8,54.2c0.2-2.8-0.8-5.5-2.7-7.6
			c-1.7-1.8-4.1-2.8-6.5-2.8c-2.5,0-4.8,1-6.5,2.8c-1.9,2.1-2.8,4.8-2.7,7.6c-0.1,2.8,0.8,5.6,2.7,7.7c1.7,1.8,4,2.9,6.5,2.8
			c2.5,0,4.8-1,6.5-2.8C366,59.7,367,57,366.8,54.2L366.8,54.2z M395.6,28.8c-2,0.1-4-0.6-5.5-2c-1.4-1.3-2.2-3.1-2.2-4.9
			c0-1.9,0.7-3.7,2.2-5c1.5-1.4,3.5-2.1,5.5-2c2-0.1,4,0.6,5.5,2c1.4,1.3,2.2,3.1,2.2,5c0,1.9-0.8,3.7-2.2,4.9
			C399.6,28.1,397.6,28.8,395.6,28.8L395.6,28.8z M402,33.1v42.1h-12.9V33.1L402,33.1z M424.3,40.1c1.4-2.2,3.4-4.1,5.7-5.5
			c2.3-1.3,4.9-2,7.5-2v13.7h-3.5c-3.2,0-5.6,0.7-7.2,2.1c-1.6,1.4-2.4,3.8-2.4,7.3v19.5h-12.9V33.1h12.9L424.3,40.1z M457.1,54.2
			c-0.1-4,0.8-7.9,2.7-11.5c1.7-3.2,4.3-5.8,7.5-7.5c3.4-1.8,7.2-2.7,11-2.6c4.8-0.2,9.4,1.3,13.2,4.2c3.7,2.9,6.1,7.1,7,11.7h-13.7
			c-0.8-3-3.6-5-6.7-4.8c-2.2-0.1-4.3,1-5.7,2.8c-1.4,1.8-2.1,4.5-2.1,7.9c0,3.4,0.7,6.1,2.1,7.9c1.3,1.8,3.4,2.8,5.7,2.8
			c3.1,0.2,5.9-1.8,6.7-4.8h13.7c-0.9,4.6-3.4,8.7-7,11.6c-3.8,2.9-8.4,4.4-13.2,4.2c-3.8,0.1-7.6-0.8-11-2.6
			c-3.2-1.7-5.8-4.4-7.5-7.5C457.9,62.1,457,58.2,457.1,54.2L457.1,54.2z M502.8,54.1c-0.1-3.9,0.8-7.8,2.5-11.4
			c1.5-3.1,3.8-5.7,6.7-7.5c2.8-1.8,6.1-2.7,9.4-2.6c2.7-0.1,5.4,0.6,7.8,1.8c2.1,1.1,3.9,2.7,5.2,4.8v-6h12.9v42.1h-12.9v-6
			c-1.3,2-3.1,3.6-5.2,4.8c-2.4,1.2-5.1,1.9-7.8,1.8c-3.3,0-6.6-0.9-9.4-2.7c-2.9-1.9-5.2-4.5-6.7-7.6
			C503.5,62,502.7,58.1,502.8,54.1L502.8,54.1z M534.3,54.2c0.2-2.8-0.8-5.5-2.7-7.6c-1.7-1.8-4.1-2.8-6.5-2.8c-2.5,0-4.8,1-6.5,2.8
			c-1.9,2.1-2.8,4.8-2.7,7.6c-0.1,2.8,0.8,5.6,2.7,7.7c1.7,1.8,4,2.9,6.5,2.8c2.5,0,4.8-1,6.5-2.8C533.5,59.7,534.5,57,534.3,54.2
			L534.3,54.2z M569.5,19.4v55.9h-12.9V19.4L569.5,19.4z"/>
		<g id="Gruppe_1" transform="translate(-229 -758)">
			<path id="Vereinigungsmenge_7" class="st1" d="M315.9,758h-74.7c-6.7,0-12.1,5.4-12.1,12.1v74.7c0,6.7,5.4,12.1,12.1,12.1h32.6h0
				c1-9.8,9.7-17.1,19.6-16.1c2.3,0.2,4.6,0.9,6.6,2c0-0.3,0-0.6,0-0.9c0-9.9,8-17.9,17.9-17.9c3.6,0,7.2,1.1,10.2,3.2v-57.2
				C328,763.4,322.6,758,315.9,758z"/>
			<path id="Vereinigungsmenge_14" class="st2" d="M246,806.5c-3.9,0-7-3.1-7-7v-18.4c0-3.7,2.8-6.7,6.5-7v-2.8
				c0-1.9,1.5-3.4,3.4-3.4s3.4,1.5,3.4,3.4v2.8h13.4v-2.8c0-1.9,1.5-3.4,3.4-3.4c1.9,0,3.4,1.5,3.4,3.4v2.8c3.7,0.2,6.7,3.3,6.7,7
				v18.4c0,3.9-3.1,7-7,7L246,806.5z"/>
		</g>
	</g>
</g>
</svg>
