<?xml version="1.0" encoding="utf-8"?>
<!-- Generator: Adobe Illustrator 25.4.1, SVG Export Plug-In . SVG Version: 6.00 Build 0)  -->
<svg version="1.1" id="Ebene_1" xmlns="http://www.w3.org/2000/svg" xmlns:xlink="http://www.w3.org/1999/xlink" x="0px" y="0px"
	 width="604.8px" height="105px" viewBox="0 0 604.8 105">
<style type="text/css">
	.st0{enable-background:new    ;}
	.st1{fill:#FFFFFF;}
</style>
<g>
	<g class="st0">
		<path class="st1" d="M132.2,46.1c1.8-3.4,4.3-6,7.6-7.9c3.2-1.9,6.9-2.8,11.1-2.8c5.4,0,9.8,1.3,13.3,3.9
			c3.5,2.6,5.8,6.2,6.9,10.9h-7.8c-0.7-2.7-2.2-4.8-4.4-6.3s-4.8-2.3-8-2.3c-4.2,0-7.5,1.4-10.1,4.3c-2.6,2.9-3.8,6.9-3.8,12.1
			c0,5.3,1.3,9.4,3.8,12.2c2.6,2.9,5.9,4.3,10.1,4.3c3.2,0,5.9-0.7,8-2.2s3.6-3.6,4.4-6.4h7.8c-1.2,4.5-3.5,8.1-7,10.8
			c-3.5,2.7-7.9,4-13.2,4c-4.2,0-7.9-0.9-11.1-2.8c-3.2-1.9-5.7-4.5-7.6-7.9c-1.8-3.4-2.7-7.4-2.7-12
			C129.4,53.5,130.3,49.5,132.2,46.1z"/>
		<path class="st1" d="M211.4,37.5c2.7,1.4,4.8,3.5,6.3,6.4c1.5,2.8,2.3,6.3,2.3,10.3V80h-7.2V55.2c0-4.4-1.1-7.7-3.3-10
			s-5.2-3.5-9-3.5s-6.9,1.2-9.2,3.6c-2.3,2.4-3.4,5.9-3.4,10.5V80h-7.3V20.8h7.3v21.6c1.4-2.2,3.4-4,6-5.2c2.5-1.2,5.4-1.8,8.5-1.8
			C205.8,35.4,208.8,36.1,211.4,37.5z"/>
		<path class="st1" d="M239.9,77.9c-3.3-1.9-5.9-4.5-7.8-8c-1.9-3.4-2.8-7.4-2.8-12c0-4.5,1-8.4,2.9-11.9c1.9-3.4,4.6-6.1,8-7.9
			c3.4-1.8,7.1-2.8,11.3-2.8s7.9,0.9,11.3,2.8c3.4,1.8,6,4.5,8,7.9c1.9,3.4,2.9,7.4,2.9,11.9s-1,8.5-3,12s-4.7,6.1-8.1,8
			s-7.2,2.8-11.4,2.8C246.9,80.7,243.2,79.8,239.9,77.9z M258.4,72.5c2.3-1.2,4.1-3.1,5.6-5.5c1.4-2.5,2.1-5.4,2.1-9s-0.7-6.5-2.1-9
			s-3.2-4.3-5.4-5.5c-2.2-1.2-4.7-1.8-7.3-1.8c-2.7,0-5.1,0.6-7.3,1.8s-4,3-5.3,5.5s-2,5.4-2,9s0.7,6.6,2,9c1.3,2.5,3.1,4.3,5.2,5.5
			c2.2,1.2,4.6,1.8,7.2,1.8C253.7,74.3,256.1,73.7,258.4,72.5z"/>
		<path class="st1" d="M283.1,46.1c1.8-3.4,4.3-6,7.6-7.9c3.2-1.9,6.9-2.8,11.1-2.8c5.4,0,9.8,1.3,13.3,3.9
			c3.5,2.6,5.8,6.2,6.9,10.9h-7.8c-0.7-2.7-2.2-4.8-4.4-6.3c-2.2-1.5-4.8-2.3-8-2.3c-4.2,0-7.5,1.4-10.1,4.3
			c-2.6,2.9-3.8,6.9-3.8,12.1c0,5.3,1.3,9.4,3.8,12.2c2.6,2.9,5.9,4.3,10.1,4.3c3.2,0,5.9-0.7,8-2.2s3.6-3.6,4.4-6.4h7.8
			c-1.2,4.5-3.5,8.1-7,10.8c-3.5,2.7-7.9,4-13.2,4c-4.2,0-7.9-0.9-11.1-2.8s-5.7-4.5-7.6-7.9c-1.8-3.4-2.7-7.4-2.7-12
			C280.4,53.5,281.3,49.5,283.1,46.1z"/>
	</g>
	<g class="st0">
		<path class="st1" d="M352.9,46.7h-7.4V80h-13.7V46.7h-5V35.4h5v-1.3c0-5.5,1.6-9.7,4.7-12.5c3.1-2.9,7.8-4.3,13.8-4.3
			c1,0,1.8,0,2.2,0.1V29c-2.6-0.2-4.5,0.2-5.5,1.1c-1.1,0.9-1.6,2.5-1.6,4.9v0.4h7.4v11.3H352.9z"/>
		<path class="st1" d="M359.2,45.5c1.7-3.5,4.1-6.1,7.1-8s6.3-2.8,10-2.8c3.1,0,5.9,0.6,8.3,1.9c2.4,1.3,4.2,3,5.5,5v-6.3h13.7V80
			H390v-6.3c-1.3,2.1-3.2,3.8-5.6,5c-2.4,1.3-5.1,1.9-8.3,1.9c-3.6,0-6.9-0.9-9.9-2.8s-5.3-4.6-7.1-8.1c-1.7-3.5-2.6-7.5-2.6-12.1
			C356.6,53,357.4,49,359.2,45.5z M387.2,49.6c-1.9-2-4.2-3-6.9-3s-5,1-6.9,2.9s-2.8,4.6-2.8,8s0.9,6.1,2.8,8.1s4.2,3,6.9,3
			s5-1,6.9-3s2.8-4.7,2.8-8.1C390,54.3,389.1,51.6,387.2,49.6z"/>
		<path class="st1" d="M414.6,28.6c-1.5-1.4-2.3-3.2-2.3-5.2c0-2.1,0.8-3.9,2.3-5.3s3.5-2.1,5.9-2.1c2.3,0,4.3,0.7,5.8,2.1
			s2.3,3.2,2.3,5.3s-0.8,3.8-2.3,5.2c-1.5,1.4-3.5,2.1-5.8,2.1C418.1,30.7,416.1,30,414.6,28.6z M427.3,35.4V80h-13.7V35.4H427.3z"
			/>
		<path class="st1" d="M456.9,37c2.4-1.4,5.1-2.1,8-2.1v14.5h-3.8c-3.4,0-6,0.7-7.7,2.2s-2.6,4-2.6,7.7V80h-13.7V35.4h13.7v7.4
			C452.5,40.3,454.5,38.4,456.9,37z"/>
	</g>
	<g class="st0">
		<path class="st1" d="M488.5,45.5c1.9-3.5,4.5-6.1,7.9-8s7.3-2.8,11.6-2.8c5.6,0,10.3,1.5,14,4.4c3.8,2.9,6.2,7.1,7.4,12.4H515
			c-1.2-3.4-3.6-5.1-7.1-5.1c-2.5,0-4.5,1-6,2.9s-2.2,4.7-2.2,8.4c0,3.6,0.7,6.4,2.2,8.4c1.5,1.9,3.5,2.9,6,2.9
			c3.5,0,5.9-1.7,7.1-5.1h14.6c-1.2,5.2-3.7,9.3-7.4,12.3c-3.8,3-8.5,4.5-14,4.5c-4.4,0-8.3-0.9-11.6-2.8c-3.4-1.9-6-4.5-7.9-8
			s-2.8-7.5-2.8-12.2C485.7,53,486.6,49,488.5,45.5z"/>
		<path class="st1" d="M536.7,45.5c1.7-3.5,4.1-6.1,7.1-8s6.3-2.8,10-2.8c3.1,0,5.9,0.6,8.3,1.9c2.4,1.3,4.2,3,5.5,5v-6.3h13.7V80
			h-13.7v-6.3c-1.3,2.1-3.2,3.8-5.6,5c-2.4,1.3-5.1,1.9-8.3,1.9c-3.6,0-6.9-0.9-9.9-2.8s-5.3-4.6-7.1-8.1c-1.7-3.5-2.6-7.5-2.6-12.1
			C534.1,53,534.9,49,536.7,45.5z M564.7,49.6c-1.9-2-4.2-3-6.9-3s-5,1-6.9,2.9s-2.8,4.6-2.8,8s0.9,6.1,2.8,8.1c1.9,2,4.2,3,6.9,3
			s5-1,6.9-3s2.8-4.7,2.8-8.1C567.5,54.3,566.6,51.6,564.7,49.6z"/>
		<path class="st1" d="M604.8,20.8V80h-13.7V20.8H604.8z"/>
	</g>
	<path id="Differenzmenge_2" class="st1" d="M47.4,105H12.9c-3.4,0-6.7-1.4-9.1-3.8C1.4,98.8,0,95.5,0,92.1V12.9
		c0-3.4,1.4-6.7,3.8-9.1S9.5,0,12.9,0h79.3c3.4,0,6.7,1.4,9.1,3.8s3.8,5.7,3.8,9.1v60.6c-3.2-2.2-6.9-3.4-10.8-3.4l0,0
		c-10.5,0-19,8.5-19,19c0,0.3,0,0.6,0,0.9c-2.7-1.4-5.8-2.2-8.9-2.2h-0.1C56.5,87.8,48.3,95.3,47.4,105L47.4,105z M20.8,10.7
		c-1.7,0-3.1,1.4-3.1,3.1v2.6c-3.4,0.5-6,3.5-6,6.9v15.9c0,3.9,3.1,7,7,7h23c3.9,0,7-3.1,7-7V23.3c0-3.5-2.6-6.5-6.2-7v-2.6
		c0-1.7-1.4-3.1-3.1-3.1c-1.7,0-3.1,1.4-3.1,3.1v2.5H23.9v-2.5C23.9,12.1,22.5,10.7,20.8,10.7L20.8,10.7z"/>
</g>
<path class="st1" d="M477.5,41.8c-6.4-0.2-1.3-9.1-3.7-13.3c-5.7-9.5,1.6-16.8,10-11C492.9,23.9,485.9,40.5,477.5,41.8z"/>
</svg>
