<?xml version="1.0" encoding="utf-8"?>
<svg version="1.1" id="Ebene_1" xmlns="http://www.w3.org/2000/svg" xmlns:xlink="http://www.w3.org/1999/xlink" x="0px" y="0px"
	 width="1255.2px" height="682.6px" viewBox="0 0 1255.2 682.6" style="enable-background:new 0 0 1255.2 682.6;">
<style type="text/css">
	.st0{fill:#E5E5E5;}
	.st1{clip-path:url(#SVGID_00000141431556897358472900000015438128289317304195_);}
	.st2{fill:#00C8D6;}
	.st3{fill:#FFFFFF;}
	.st4{opacity:0.4;}
</style>
<rect class="st0" width="1255.2" height="682.6"/>
<g>
	<g>
		<defs>
			<rect id="SVGID_1_" x="239" y="282.5" width="777.2" height="105"/>
		</defs>
		<clipPath id="SVGID_00000081614161087529225470000014180720776642657972_">
			<use xlink:href="#SVGID_1_"  style="overflow:visible;"/>
		</clipPath>
		<g style="clip-path:url(#SVGID_00000081614161087529225470000014180720776642657972_);">
			<g id="chocfair-gender-logo">
				<path id="Pfad_1" class="st2" d="M367.4,340.7c0-4.2,0.8-8.2,2.7-12c1.7-3.4,4.4-6.1,7.6-8c3.4-1.9,7.1-2.9,11.1-2.7
					c5.5,0,9.9,1.3,13.2,4c3.6,2.7,6.1,6.5,6.9,10.9h-7.8c-0.6-2.5-2.3-4.8-4.4-6.3c-2.3-1.7-5.3-2.5-8-2.3
					c-3.8-0.2-7.6,1.5-10.1,4.2c-2.5,2.9-3.8,6.9-3.8,12.2s1.3,9.2,3.8,12.2s6.3,4.4,10.1,4.4c2.9,0,5.7-0.6,8-2.3
					c2.1-1.5,3.8-3.8,4.4-6.3h7.8c-1.1,4.2-3.6,8-7.1,10.7c-3.8,2.7-8.4,4.2-13.2,4c-3.8,0-7.8-0.8-11.1-2.7c-3.2-1.9-5.9-4.6-7.6-8
					C368.2,349.1,367.4,344.9,367.4,340.7z M440.5,318.2c3.2,0,6.1,0.6,9,2.1c2.7,1.5,4.8,3.6,6.3,6.3c1.7,3.2,2.3,6.7,2.3,10.3
					v25.8H451V338c0-4.4-1.1-7.8-3.4-10.1s-5.7-3.6-9-3.6c-3.4-0.2-6.7,1.1-9.2,3.6c-2.3,2.3-3.4,5.9-3.4,10.5v24.2h-7.4v-59h7.4
					v21.6c1.5-2.3,3.6-4,5.9-5.3C434.6,318.6,437.5,318,440.5,318.2z M489,363.6c-4,0-7.8-0.8-11.1-2.7c-3.4-1.9-6.1-4.6-7.8-8
					c-1.9-3.8-2.9-7.8-2.7-12c0-4.2,0.8-8.2,2.9-12c1.9-3.4,4.6-6.1,8-8c7.1-3.6,15.5-3.6,22.5,0c3.4,1.9,6.1,4.6,8,8
					c2.1,3.6,2.9,7.8,2.9,12s-1.1,8.4-2.9,12c-1.9,3.4-4.8,6.1-8.2,8C497,362.5,493,363.6,489,363.6L489,363.6z M489,357.1
					c2.5,0,5-0.6,7.4-1.9c2.3-1.3,4.2-3.2,5.5-5.5c1.5-2.7,2.3-5.9,2.1-9c0-3.2-0.6-6.3-2.1-9c-1.3-2.3-3.2-4.2-5.5-5.5
					c-4.6-2.3-10.1-2.3-14.7,0c-2.3,1.3-4.2,3.2-5.3,5.5c-1.5,2.7-2.1,5.9-2.1,9s0.6,6.3,1.9,9c1.3,2.3,2.9,4.2,5.3,5.5
					C483.9,356.4,486.5,357.1,489,357.1L489,357.1z M518.4,340.9c0-4.2,0.8-8.2,2.7-12c1.7-3.4,4.4-6.1,7.6-8
					c3.4-1.9,7.1-2.9,11.1-2.7c5.5,0,9.9,1.3,13.2,4c3.6,2.7,6.1,6.5,6.9,10.9h-7.8c-0.6-2.5-2.1-4.8-4.4-6.3
					c-2.3-1.7-5.3-2.5-8-2.3c-3.8-0.2-7.6,1.5-10.1,4.2c-2.5,2.7-3.8,6.9-3.8,12.2s1.3,9.2,3.8,12.2c2.5,2.9,6.3,4.4,10.1,4.4
					c2.9,0.2,5.7-0.6,8-2.3c2.1-1.5,3.8-3.8,4.4-6.3h7.8c-1.1,4.4-3.6,8.2-7.1,10.7c-3.8,2.7-8.4,4.2-13.2,4
					c-3.8,0-7.8-0.8-11.1-2.7c-3.2-1.9-5.9-4.6-7.6-8C519.2,349.1,518.4,344.9,518.4,340.9L518.4,340.9z M590.9,329.6h-7.4v33.2
					h-13.7v-33.2h-5v-11.3h5V317c0-5.5,1.5-9.7,4.6-12.6c3.2-2.9,7.8-4.2,13.9-4.2c0.8,0,1.5,0,2.3,0v11.6c-2.5-0.2-4.4,0.2-5.5,1.1
					s-1.7,2.5-1.7,4.8v0.4h7.4V329.6z M594.6,340.5c0-4.2,0.8-8.4,2.5-12.2c1.5-3.4,4-6.1,7.1-8c2.9-1.9,6.5-2.9,10.1-2.7
					c2.9,0,5.7,0.6,8.2,1.9c2.3,1.3,4.2,2.9,5.5,5v-6.3h13.7V363H628v-6.3c-1.5,2.1-3.4,3.8-5.7,5c-2.5,1.3-5.5,1.9-8.2,1.9
					c-3.6,0-6.9-1.1-9.9-2.9c-3.2-1.9-5.5-4.6-7.1-8C595.5,348.7,594.4,344.7,594.6,340.5z M628,340.5c0.2-2.9-0.8-5.9-2.9-8.2
					c-3.8-3.8-9.9-4-13.7-0.2l-0.2,0.2c-1.9,2.1-2.9,5-2.9,8c-0.2,2.9,0.8,5.9,2.9,8.2c1.7,1.9,4.2,2.9,6.9,2.9c2.5,0,5-1.1,6.9-2.9
					C627.2,346.4,628.2,343.4,628,340.5L628,340.5z M658.5,313.6c-2.1,0-4.2-0.6-5.9-2.1c-1.5-1.3-2.3-3.2-2.3-5.3
					c0-2.1,0.8-4,2.3-5.3c3.4-2.7,8.2-2.7,11.8,0c1.5,1.3,2.3,3.4,2.3,5.3c0,2.1-0.8,4-2.3,5.3C662.7,312.8,660.6,313.6,658.5,313.6
					L658.5,313.6z M665.2,318.2V363h-13.7v-44.7H665.2z M688.9,325.6c1.5-2.3,3.6-4.4,6.1-5.9s5.3-2.1,8-2.1v14.5h-3.8
					c-3.4,0-5.9,0.6-7.8,2.1c-1.7,1.5-2.5,4-2.5,7.8v20.8h-13.7v-44.5h13.7V325.6z M743.3,317.4c2.9,0,5.7,0.6,8.2,1.9
					c2.3,1.3,4.2,2.9,5.5,5V318h13.7v44.5c0,3.8-0.8,7.8-2.5,11.1c-1.7,3.4-4.2,6.1-7.4,8c-3.8,2.1-8.2,3.2-12.4,3.2
					c-6.5,0-12-1.5-16.2-4.6c-4-2.9-6.7-7.6-7.1-12.8h13.4c0.4,1.7,1.5,3.2,2.9,4c1.9,1.1,3.8,1.5,5.9,1.5c2.5,0.2,4.8-0.8,6.7-2.5
					c1.7-1.7,2.5-4.2,2.5-7.8v-6.3c-1.5,2.1-3.4,3.8-5.5,5c-2.5,1.3-5.5,2.1-8.2,1.9c-3.6,0-6.9-0.8-10.1-2.9
					c-3.2-1.9-5.5-4.6-7.1-8c-1.9-3.8-2.7-8-2.5-12.2c0-4.2,0.8-8.4,2.5-12.2c1.5-3.4,4-6.1,7.1-8
					C736.4,318.4,739.8,317.6,743.3,317.4L743.3,317.4z M757.2,340.5c0.2-2.9-0.8-5.9-2.7-8c-3.8-3.8-9.9-4-13.7-0.2l-0.2,0.2
					c-1.9,2.1-2.9,5-2.9,8c-0.2,2.9,0.8,5.9,2.9,8.2c1.7,1.9,4.2,2.9,6.9,2.9c2.7,0,5.3-1.1,6.9-2.9
					C756.4,346.4,757.4,343.4,757.2,340.5L757.2,340.5z M823,339.6c0,1.3,0,2.7-0.2,4h-31.1c0,2.3,1.1,4.6,2.7,6.3
					c1.5,1.5,3.6,2.3,5.9,2.1c3.2,0.2,5.9-1.5,7.1-4.4h14.5c-0.8,2.9-2.1,5.7-4,8s-4.4,4.2-7.4,5.5c-3.2,1.5-6.5,2.1-9.9,1.9
					c-4,0-8-0.8-11.8-2.7c-3.4-1.9-6.1-4.6-8-8c-1.9-3.8-2.9-8-2.9-12.2c-0.2-4.2,0.8-8.4,2.7-12.2c1.9-3.4,4.6-6.1,8-8
					c3.6-1.9,7.8-2.9,11.8-2.7c4,0,8,0.8,11.6,2.7c3.4,1.7,6.1,4.4,8,7.8C821.9,331.7,823,335.7,823,339.6L823,339.6z M808.9,336.1
					c0-2.1-0.8-4.2-2.3-5.7c-1.7-1.5-3.8-2.1-6.1-2.1c-2.1,0-4.2,0.6-5.9,2.1c-1.7,1.5-2.7,3.6-2.9,5.7H808.9z M857.4,317.6
					c5.3,0,9.5,1.7,12.6,5c3.2,3.4,4.6,8,4.6,13.9v26H861v-23.9c0.2-2.5-0.6-5-2.3-6.9c-3.6-3.4-9-3.4-12.4,0
					c-1.7,1.9-2.5,4.4-2.3,6.9v24.2h-13.7v-44.5H844v5.9c1.5-2.1,3.4-3.6,5.7-4.6C851.9,318.2,854.5,317.6,857.4,317.6L857.4,317.6z
					 M881.3,340.3c0-4.2,0.8-8.4,2.5-12.2c1.5-3.4,4-6.1,7.1-8c2.9-1.9,6.5-2.9,10.1-2.7c2.7,0,5.5,0.6,8,1.9c2.3,1.1,4.2,2.7,5.7,5
					v-20.8h13.7v59.2h-13.7v-6.3c-1.3,2.1-3.2,4-5.5,5c-2.5,1.3-5.5,1.9-8.2,1.9c-3.6,0-6.9-0.8-10.1-2.9c-3.2-1.9-5.5-4.8-7.1-8
					C882.2,348.7,881.1,344.7,881.3,340.3L881.3,340.3z M914.7,340.5c0.2-2.9-0.8-5.9-2.9-8c-1.7-1.9-4.2-2.9-6.9-2.9
					c-2.5,0-5,1.1-6.9,2.9c-1.9,2.1-2.9,5-2.9,8c-0.2,2.9,0.8,5.9,2.9,8.2c3.6,3.8,9.7,4,13.4,0.4c0.2-0.2,0.2-0.2,0.4-0.4
					C913.9,346.4,915,343.4,914.7,340.5L914.7,340.5z M980.5,339.6c0,1.3,0,2.7-0.2,4h-31.1c0,2.3,1.1,4.6,2.7,6.3
					c1.5,1.5,3.6,2.3,5.9,2.1c3.2,0.2,5.9-1.5,7.1-4.4h14.5c-0.6,2.9-2.1,5.7-4,8s-4.4,4.2-7.4,5.5c-3.2,1.5-6.5,2.1-9.9,2.1
					c-4,0-8-0.8-11.8-2.7c-3.4-1.9-6.1-4.6-8-8c-1.9-3.8-2.9-8-2.9-12.2c0-4.2,0.8-8.4,2.9-12.2c1.9-3.4,4.6-6.1,8-8
					c7.4-3.8,16-3.8,23.3,0c3.4,1.7,6.1,4.4,8,7.8C979.6,331.7,980.7,335.7,980.5,339.6L980.5,339.6z M966.4,336.1
					c0-2.1-0.8-4.2-2.3-5.7c-1.7-1.5-3.8-2.1-6.1-2.1c-2.1,0-4.2,0.6-5.9,2.1c-1.7,1.5-2.7,3.6-2.9,5.7H966.4z M1001.3,325.6
					c1.5-2.3,3.6-4.4,6.1-5.9c2.5-1.5,5.3-2.1,8-2.1v14.5h-3.8c-3.4,0-5.9,0.6-7.8,2.1c-1.7,1.5-2.5,4-2.5,7.8v20.8h-13.7v-44.5
					h13.7L1001.3,325.6z"/>
				<path id="Vereinigungsmenge_1" class="st2" d="M331.2,282.5h-79.2c-7.1,0-13,5.9-13,13v79.2c0,7.1,5.7,12.8,12.8,12.8h34.7
					c1.1-10.5,10.3-18.1,20.8-17c2.5,0.2,4.8,1.1,6.9,2.1c0-0.2,0-0.6,0-0.8c0-10.5,8.4-18.9,18.9-18.9c3.8,0,7.6,1.3,10.7,3.4
					v-60.7C344.1,288.4,338.4,282.5,331.2,282.5z"/>
				<g id="Gruppe_1">
					<g id="Gruppe_1-2">
						<path id="Pfad_1-2" class="st3" d="M260.7,298.1c1.7,0,3.2,0.4,4.6,1.1s2.7,1.7,3.8,2.9c2.5,3.2,3.8,7.4,3.6,11.3
							c0,2.9-0.4,5.7-1.5,8.4c-0.8,2.9-2.1,5.9-3.6,8.4c-2.5,4.2-5,6.1-7.8,6.1c-1.3,0-2.3-0.4-3.2-1.1c-1.1-0.2-1.5-1.1-1.7-2.1
							c0.4-1.3,1.1-2.5,1.9-3.6c0.8-1.3,1.5-2.5,1.9-3.8c0.4-1.1,0.6-2.1,0.8-3.2c0-1.1-0.6-2.1-1.7-2.3c-1.7-0.6-3.2-1.3-4.4-2.3
							c-2.5-2.1-4-5.5-4-8.8c0-2.7,1.1-5.3,2.7-7.4C254.4,299.3,257.5,298.1,260.7,298.1z"/>
					</g>
					<g id="Gruppe_2" class="st4">
						<path id="Pfad_2" class="st3" d="M277,293c2.1,0,4,0.4,5.7,1.5c1.9,0.8,3.6,2.1,4.8,3.8c2.9,3.8,4.6,8.4,4.6,14.3
							c0,3.6-0.6,7.1-1.7,10.7c-1.1,3.8-2.7,7.4-4.6,10.7c-3.2,5.3-6.3,7.8-9.9,7.8c-1.5,0-2.9-0.4-4-1.5c-1.1-0.6-1.7-1.9-1.9-3.2
							c0-0.6,0.8-2.1,2.3-4.6c1.1-1.5,1.7-3.2,2.3-4.8c0.6-1.3,0.8-2.7,1.1-4c0-1.3-0.8-2.5-2.1-2.9c-2.1-0.6-4-1.7-5.7-2.9
							c-3.2-2.7-5-6.7-5-10.9c0-3.4,1.3-6.7,3.6-9.2C269.3,294.7,273.1,293,277,293z"/>
					</g>
				</g>
			</g>
		</g>
	</g>
</g>
</svg>
