<?xml version="1.0" encoding="utf-8"?>
<svg version="1.1" id="Ebene_1" xmlns="http://www.w3.org/2000/svg" xmlns:xlink="http://www.w3.org/1999/xlink" x="0px" y="0px"
	 width="1255.2px" height="682.6px" viewBox="0 0 1255.2 682.6" style="enable-background:new 0 0 1255.2 682.6;">
<style type="text/css">
	.st0{fill:#E5E5E5;}
	.st1{clip-path:url(#SVGID_00000082332690563145083590000000847584483179801249_);}
	.st2{fill:#00C8D6;}
	.st3{fill:#FFFFFF;}
	.st4{opacity:0.4;}
</style>
<rect class="st0" width="1255.2" height="682.6"/>
<g>
	<g>
		<g>
			<defs>
				<rect id="SVGID_1_" x="338.9" y="296" width="577.3" height="78"/>
			</defs>
			<clipPath id="SVGID_00000009576673154760602630000008853172718259531925_">
				<use xlink:href="#SVGID_1_"  style="overflow:visible;"/>
			</clipPath>
			<g style="clip-path:url(#SVGID_00000009576673154760602630000008853172718259531925_);">
				<g id="chocfair-gender-logo">
					<path id="Pfad_1" class="st2" d="M434.3,339.2c0-3.1,0.6-6.1,2-8.9c1.3-2.5,3.3-4.5,5.6-5.9c2.5-1.4,5.3-2.2,8.2-2
						c4.1,0,7.4,1,9.8,3c2.7,2,4.5,4.8,5.1,8.1h-5.8c-0.4-1.9-1.7-3.6-3.3-4.7c-1.7-1.3-3.9-1.9-5.9-1.7c-2.8-0.1-5.6,1.1-7.5,3.1
						c-1.9,2.2-2.8,5.1-2.8,9.1s1,6.8,2.8,9.1s4.7,3.3,7.5,3.3c2.2,0,4.2-0.4,5.9-1.7c1.6-1.1,2.8-2.8,3.3-4.7h5.8
						c-0.8,3.1-2.7,5.9-5.3,7.9c-2.8,2-6.2,3.1-9.8,3c-2.8,0-5.8-0.6-8.2-2c-2.4-1.4-4.4-3.4-5.6-5.9
						C434.9,345.5,434.3,342.4,434.3,339.2z M488.6,322.5c2.4,0,4.5,0.4,6.7,1.6c2,1.1,3.6,2.7,4.7,4.7c1.3,2.4,1.7,5,1.7,7.7v19.2
						h-5.3v-18.3c0-3.3-0.8-5.8-2.5-7.5s-4.2-2.7-6.7-2.7c-2.5-0.1-5,0.8-6.8,2.7c-1.7,1.7-2.5,4.4-2.5,7.8v18h-5.5v-43.8h5.5v16
						c1.1-1.7,2.7-3,4.4-3.9C484.2,322.8,486.4,322.4,488.6,322.5z M524.6,356.2c-3,0-5.8-0.6-8.2-2c-2.5-1.4-4.5-3.4-5.8-5.9
						c-1.4-2.8-2.2-5.8-2-8.9c0-3.1,0.6-6.1,2.2-8.9c1.4-2.5,3.4-4.5,5.9-5.9c5.3-2.7,11.5-2.7,16.7,0c2.5,1.4,4.5,3.4,5.9,5.9
						c1.6,2.7,2.2,5.8,2.2,8.9c0,3.1-0.8,6.2-2.2,8.9c-1.4,2.5-3.6,4.5-6.1,5.9C530.6,355.4,527.6,356.2,524.6,356.2L524.6,356.2z
						 M524.6,351.4c1.9,0,3.7-0.4,5.5-1.4c1.7-1,3.1-2.4,4.1-4.1c1.1-2,1.7-4.4,1.6-6.7c0-2.4-0.4-4.7-1.6-6.7
						c-1-1.7-2.4-3.1-4.1-4.1c-3.4-1.7-7.5-1.7-10.9,0c-1.7,1-3.1,2.4-3.9,4.1c-1.1,2-1.6,4.4-1.6,6.7c0,2.3,0.4,4.7,1.4,6.7
						c1,1.7,2.2,3.1,3.9,4.1C520.9,350.9,522.8,351.4,524.6,351.4L524.6,351.4z M546.5,339.4c0-3.1,0.6-6.1,2-8.9
						c1.3-2.5,3.3-4.5,5.6-5.9c2.5-1.4,5.3-2.2,8.2-2c4.1,0,7.4,1,9.8,3c2.7,2,4.5,4.8,5.1,8.1h-5.8c-0.4-1.9-1.6-3.6-3.3-4.7
						c-1.7-1.3-3.9-1.9-5.9-1.7c-2.8-0.1-5.6,1.1-7.5,3.1c-1.9,2-2.8,5.1-2.8,9.1s1,6.8,2.8,9.1c1.9,2.2,4.7,3.3,7.5,3.3
						c2.2,0.1,4.2-0.4,5.9-1.7c1.6-1.1,2.8-2.8,3.3-4.7h5.8c-0.8,3.3-2.7,6.1-5.3,7.9c-2.8,2-6.2,3.1-9.8,3c-2.8,0-5.8-0.6-8.2-2
						c-2.4-1.4-4.4-3.4-5.6-5.9C547.1,345.5,546.5,342.4,546.5,339.4L546.5,339.4z M600.3,331h-5.5v24.7h-10.2V331h-3.7v-8.4h3.7v-1
						c0-4.1,1.1-7.2,3.4-9.4c2.4-2.2,5.8-3.1,10.3-3.1c0.6,0,1.1,0,1.7,0v8.6c-1.9-0.1-3.3,0.1-4.1,0.8s-1.3,1.9-1.3,3.6v0.3h5.5
						L600.3,331L600.3,331z M603.1,339.1c0-3.1,0.6-6.2,1.9-9.1c1.1-2.5,3-4.5,5.3-5.9c2.2-1.4,4.8-2.2,7.5-2c2.2,0,4.2,0.4,6.1,1.4
						c1.7,1,3.1,2.2,4.1,3.7v-4.7h10.2v33.3h-10.2v-4.7c-1.1,1.6-2.5,2.8-4.2,3.7c-1.9,1-4.1,1.4-6.1,1.4c-2.7,0-5.1-0.8-7.4-2.2
						c-2.4-1.4-4.1-3.4-5.3-5.9C603.8,345.2,602.9,342.2,603.1,339.1z M627.9,339.1c0.1-2.2-0.6-4.4-2.2-6.1
						c-2.8-2.8-7.4-3-10.2-0.1l-0.1,0.1c-1.4,1.6-2.2,3.7-2.2,5.9c-0.1,2.2,0.6,4.4,2.2,6.1c1.3,1.4,3.1,2.2,5.1,2.2
						c1.9,0,3.7-0.8,5.1-2.2C627.3,343.5,628,341.2,627.9,339.1L627.9,339.1z M650.6,319.1c-1.6,0-3.1-0.4-4.4-1.6
						c-1.1-1-1.7-2.4-1.7-3.9s0.6-3,1.7-3.9c2.5-2,6.1-2,8.8,0c1.1,1,1.7,2.5,1.7,3.9c0,1.6-0.6,3-1.7,3.9
						C653.7,318.5,652.1,319.1,650.6,319.1L650.6,319.1z M655.5,322.5v33.3h-10.2v-33.2L655.5,322.5L655.5,322.5z M673.1,328
						c1.1-1.7,2.7-3.3,4.5-4.4c1.9-1.1,3.9-1.6,5.9-1.6v10.8h-2.8c-2.5,0-4.4,0.4-5.8,1.6c-1.3,1.1-1.9,3-1.9,5.8v15.5H663v-33.1
						h10.2V328z M713.5,321.9c2.2,0,4.2,0.4,6.1,1.4c1.7,1,3.1,2.2,4.1,3.7v-4.7h10.2v33.1c0,2.8-0.6,5.8-1.9,8.2
						c-1.3,2.5-3.1,4.5-5.5,5.9c-2.8,1.6-6.1,2.4-9.2,2.4c-4.8,0-8.9-1.1-12-3.4c-3-2.2-5-5.6-5.3-9.5h10c0.3,1.3,1.1,2.4,2.2,3
						c1.4,0.8,2.8,1.1,4.4,1.1c1.9,0.1,3.6-0.6,5-1.9c1.3-1.3,1.9-3.1,1.9-5.8v-4.7c-1.1,1.6-2.5,2.8-4.1,3.7
						c-1.9,1-4.1,1.6-6.1,1.4c-2.7,0-5.1-0.6-7.5-2.2c-2.4-1.4-4.1-3.4-5.3-5.9c-1.4-2.8-2-5.9-1.9-9.1c0-3.1,0.6-6.2,1.9-9.1
						c1.1-2.5,3-4.5,5.3-5.9C708.4,322.7,710.9,322.1,713.5,321.9L713.5,321.9z M723.9,339.1c0.1-2.2-0.6-4.4-2-5.9
						c-2.8-2.8-7.4-3-10.2-0.1l-0.1,0.1c-1.4,1.6-2.2,3.7-2.2,5.9c-0.1,2.2,0.6,4.4,2.2,6.1c1.3,1.4,3.1,2.2,5.1,2.2
						s3.9-0.8,5.1-2.2C723.3,343.5,724,341.2,723.9,339.1L723.9,339.1z M772.8,338.4c0,1,0,2-0.1,3h-23.1c0,1.7,0.8,3.4,2,4.7
						c1.1,1.1,2.7,1.7,4.4,1.6c2.4,0.1,4.4-1.1,5.3-3.3h10.8c-0.6,2.2-1.6,4.2-3,5.9c-1.4,1.7-3.3,3.1-5.5,4.1
						c-2.4,1.1-4.8,1.6-7.4,1.4c-3,0-5.9-0.6-8.8-2c-2.5-1.4-4.5-3.4-5.9-5.9c-1.4-2.8-2.2-5.9-2.2-9.1c-0.1-3.1,0.6-6.2,2-9.1
						c1.4-2.5,3.4-4.5,5.9-5.9c2.7-1.4,5.8-2.2,8.8-2c3,0,5.9,0.6,8.6,2c2.5,1.3,4.5,3.3,5.9,5.8
						C771.9,332.5,772.8,335.5,772.8,338.4L772.8,338.4z M762.3,335.8c0-1.6-0.6-3.1-1.7-4.2c-1.3-1.1-2.8-1.6-4.5-1.6
						c-1.6,0-3.1,0.4-4.4,1.6s-2,2.7-2.2,4.2H762.3z M798.3,322.1c3.9,0,7.1,1.3,9.4,3.7c2.4,2.5,3.4,5.9,3.4,10.3v19.3H801v-17.8
						c0.1-1.9-0.4-3.7-1.7-5.1c-2.7-2.5-6.7-2.5-9.2,0c-1.3,1.4-1.9,3.3-1.7,5.1v18h-10.2v-33.1h10.2v4.4c1.1-1.6,2.5-2.7,4.2-3.4
						C794.2,322.5,796.2,322.1,798.3,322.1L798.3,322.1z M816.1,338.9c0-3.1,0.6-6.2,1.9-9.1c1.1-2.5,3-4.5,5.3-5.9
						c2.2-1.4,4.8-2.2,7.5-2c2,0,4.1,0.4,5.9,1.4c1.7,0.8,3.1,2,4.2,3.7v-15.5h10.2v44h-10.2v-4.7c-1,1.6-2.4,3-4.1,3.7
						c-1.9,1-4.1,1.4-6.1,1.4c-2.7,0-5.1-0.6-7.5-2.2c-2.4-1.4-4.1-3.6-5.3-5.9C816.7,345.2,815.9,342.2,816.1,338.9L816.1,338.9z
						 M840.9,339.1c0.1-2.2-0.6-4.4-2.2-5.9c-1.3-1.4-3.1-2.2-5.1-2.2c-1.9,0-3.7,0.8-5.1,2.2c-1.4,1.6-2.2,3.7-2.2,5.9
						c-0.1,2.2,0.6,4.4,2.2,6.1c2.7,2.8,7.2,3,10,0.3c0.1-0.1,0.1-0.1,0.3-0.3C840.3,343.5,841.1,341.2,840.9,339.1L840.9,339.1z
						 M889.8,338.4c0,1,0,2-0.1,3h-23.1c0,1.7,0.8,3.4,2,4.7c1.1,1.1,2.7,1.7,4.4,1.6c2.4,0.1,4.4-1.1,5.3-3.3h10.8
						c-0.4,2.2-1.6,4.2-3,5.9c-1.4,1.7-3.3,3.1-5.5,4.1c-2.4,1.1-4.8,1.6-7.4,1.6c-3,0-5.9-0.6-8.8-2c-2.5-1.4-4.5-3.4-5.9-5.9
						c-1.4-2.8-2.2-5.9-2.2-9.1s0.6-6.2,2.2-9.1c1.4-2.5,3.4-4.5,5.9-5.9c5.5-2.8,11.9-2.8,17.3,0c2.5,1.3,4.5,3.3,5.9,5.8
						C889.1,332.5,889.9,335.5,889.8,338.4L889.8,338.4z M879.3,335.8c0-1.6-0.6-3.1-1.7-4.2c-1.3-1.1-2.8-1.6-4.5-1.6
						c-1.6,0-3.1,0.4-4.4,1.6s-2,2.7-2.2,4.2H879.3z M905.2,328c1.1-1.7,2.7-3.3,4.5-4.4c1.9-1.1,3.9-1.6,5.9-1.6v10.8h-2.8
						c-2.5,0-4.4,0.4-5.8,1.6c-1.3,1.1-1.9,3-1.9,5.8v15.5H895v-33.1h10.2V328z"/>
					<path id="Vereinigungsmenge_1" class="st2" d="M407.4,296h-58.8c-5.3,0-9.7,4.4-9.7,9.7v58.8c0,5.3,4.2,9.5,9.5,9.5h25.8
						c0.8-7.8,7.7-13.4,15.5-12.6c1.9,0.1,3.6,0.8,5.1,1.6c0-0.1,0-0.4,0-0.6c0-7.8,6.2-14,14-14c2.8,0,5.6,1,7.9,2.5v-45.1
						C417,300.4,412.8,296,407.4,296z"/>
					<g id="Gruppe_1">
						<g id="Gruppe_1-2">
							<path id="Pfad_1-2" class="st3" d="M355,307.6c1.3,0,2.4,0.3,3.4,0.8c1,0.5,2,1.3,2.8,2.2c1.9,2.4,2.8,5.5,2.7,8.4
								c0,2.2-0.3,4.2-1.1,6.2c-0.6,2.2-1.6,4.4-2.7,6.2c-1.9,3.1-3.7,4.5-5.8,4.5c-1,0-1.7-0.3-2.4-0.8c-0.8-0.1-1.1-0.8-1.3-1.6
								c0.3-1,0.8-1.9,1.4-2.7c0.6-1,1.1-1.9,1.4-2.8c0.3-0.8,0.4-1.6,0.6-2.4c0-0.8-0.4-1.6-1.3-1.7c-1.3-0.4-2.4-1-3.3-1.7
								c-1.9-1.6-3-4.1-3-6.5c0-2,0.8-3.9,2-5.5C350.4,308.5,352.7,307.6,355,307.6z"/>
						</g>
						<g id="Gruppe_2" class="st4">
							<path id="Pfad_2" class="st3" d="M367.2,303.8c1.6,0,3,0.3,4.2,1.1c1.4,0.6,2.7,1.6,3.6,2.8c2.2,2.8,3.4,6.2,3.4,10.6
								c0,2.7-0.4,5.3-1.3,7.9c-0.8,2.8-2,5.5-3.4,7.9c-2.4,3.9-4.7,5.8-7.4,5.8c-1.1,0-2.2-0.3-3-1.1c-0.8-0.4-1.3-1.4-1.4-2.4
								c0-0.4,0.6-1.6,1.7-3.4c0.8-1.1,1.3-2.4,1.7-3.6c0.4-1,0.6-2,0.8-3c0-1-0.6-1.9-1.6-2.2c-1.6-0.4-3-1.3-4.2-2.2
								c-2.4-2-3.7-5-3.7-8.1c0-2.5,1-5,2.7-6.8C361.4,305.1,364.3,303.8,367.2,303.8z"/>
						</g>
					</g>
				</g>
			</g>
		</g>
	</g>
</g>
</svg>
