<?xml version="1.0" encoding="utf-8"?>
<svg version="1.1" id="Ebene_1" xmlns="http://www.w3.org/2000/svg" xmlns:xlink="http://www.w3.org/1999/xlink" x="0px" y="0px"
	 width="1017.9px" height="682.6px" viewBox="0 0 1017.9 682.6" style="enable-background:new 0 0 1017.9 682.6;">
<style type="text/css">
	.st0{fill:#E5E5E5;}
	.st1{clip-path:url(#SVGID_00000084497296500699405860000004781979476792936069_);}
	.st2{fill:#00C8D6;}
	.st3{fill:#FFFFFF;}
	.st4{opacity:0.4;}
</style>
<rect class="st0" width="1017.9" height="682.6"/>
<g>
	<g>
		<g>
			<g>
				<defs>
					<rect id="SVGID_1_" x="220.3" y="296" width="577.3" height="78"/>
				</defs>
				<clipPath id="SVGID_00000087412459022533745150000014413239977775628985_">
					<use xlink:href="#SVGID_1_"  style="overflow:visible;"/>
				</clipPath>
				<g style="clip-path:url(#SVGID_00000087412459022533745150000014413239977775628985_);">
					<g id="chocfair-gender-logo">
						<path id="Pfad_1" class="st2" d="M315.7,339.2c0-3.1,0.6-6.1,2-8.9c1.3-2.5,3.3-4.5,5.6-5.9c2.5-1.4,5.3-2.2,8.2-2
							c4.1,0,7.4,1,9.8,3c2.7,2,4.5,4.8,5.1,8.1h-5.8c-0.4-1.9-1.7-3.6-3.3-4.7c-1.7-1.3-3.9-1.9-5.9-1.7c-2.8-0.1-5.6,1.1-7.5,3.1
							c-1.9,2.2-2.8,5.1-2.8,9.1s1,6.8,2.8,9.1s4.7,3.3,7.5,3.3c2.2,0,4.2-0.4,5.9-1.7c1.6-1.1,2.8-2.8,3.3-4.7h5.8
							c-0.8,3.1-2.7,5.9-5.3,7.9c-2.8,2-6.2,3.1-9.8,3c-2.8,0-5.8-0.6-8.2-2c-2.4-1.4-4.4-3.4-5.6-5.9
							C316.3,345.5,315.7,342.4,315.7,339.2z M370,322.5c2.4,0,4.5,0.4,6.7,1.6c2,1.1,3.6,2.7,4.7,4.7c1.3,2.4,1.7,5,1.7,7.7v19.2
							h-5.3v-18.3c0-3.3-0.8-5.8-2.5-7.5s-4.2-2.7-6.7-2.7c-2.5-0.1-5,0.8-6.8,2.7c-1.7,1.7-2.5,4.4-2.5,7.8v18h-5.5v-43.8h5.5v16
							c1.1-1.7,2.7-3,4.4-3.9C365.6,322.8,367.8,322.4,370,322.5z M406,356.2c-3,0-5.8-0.6-8.2-2c-2.5-1.4-4.5-3.4-5.8-5.9
							c-1.4-2.8-2.2-5.8-2-8.9c0-3.1,0.6-6.1,2.2-8.9c1.4-2.5,3.4-4.5,5.9-5.9c5.3-2.7,11.5-2.7,16.7,0c2.5,1.4,4.5,3.4,5.9,5.9
							c1.6,2.7,2.2,5.8,2.2,8.9s-0.8,6.2-2.2,8.9c-1.4,2.5-3.6,4.5-6.1,5.9C412,355.4,409,356.2,406,356.2L406,356.2z M406,351.4
							c1.9,0,3.7-0.4,5.5-1.4c1.7-1,3.1-2.4,4.1-4.1c1.1-2,1.7-4.4,1.6-6.7c0-2.4-0.4-4.7-1.6-6.7c-1-1.7-2.4-3.1-4.1-4.1
							c-3.4-1.7-7.5-1.7-10.9,0c-1.7,1-3.1,2.4-3.9,4.1c-1.1,2-1.6,4.4-1.6,6.7c0,2.3,0.4,4.7,1.4,6.7c1,1.7,2.2,3.1,3.9,4.1
							C402.3,350.9,404.2,351.4,406,351.4L406,351.4z M427.9,339.4c0-3.1,0.6-6.1,2-8.9c1.3-2.5,3.3-4.5,5.6-5.9
							c2.5-1.4,5.3-2.2,8.2-2c4.1,0,7.4,1,9.8,3c2.7,2,4.5,4.8,5.1,8.1h-5.8c-0.4-1.9-1.6-3.6-3.3-4.7c-1.7-1.3-3.9-1.9-5.9-1.7
							c-2.8-0.1-5.6,1.1-7.5,3.1s-2.8,5.1-2.8,9.1s1,6.8,2.8,9.1c1.9,2.2,4.7,3.3,7.5,3.3c2.2,0.1,4.2-0.4,5.9-1.7
							c1.6-1.1,2.8-2.8,3.3-4.7h5.8c-0.8,3.3-2.7,6.1-5.3,7.9c-2.8,2-6.2,3.1-9.8,3c-2.8,0-5.8-0.6-8.2-2s-4.4-3.4-5.6-5.9
							C428.5,345.5,427.9,342.4,427.9,339.4L427.9,339.4z M481.7,331h-5.5v24.7H466V331h-3.7v-8.4h3.7v-1c0-4.1,1.1-7.2,3.4-9.4
							c2.4-2.2,5.8-3.1,10.3-3.1c0.6,0,1.1,0,1.7,0v8.6c-1.9-0.1-3.3,0.1-4.1,0.8s-1.3,1.9-1.3,3.6v0.3h5.5L481.7,331L481.7,331z
							 M484.5,339.1c0-3.1,0.6-6.2,1.9-9.1c1.1-2.5,3-4.5,5.3-5.9c2.2-1.4,4.8-2.2,7.5-2c2.2,0,4.2,0.4,6.1,1.4
							c1.7,1,3.1,2.2,4.1,3.7v-4.7h10.2v33.3h-10.2v-4.7c-1.1,1.6-2.5,2.8-4.2,3.7c-1.9,1-4.1,1.4-6.1,1.4c-2.7,0-5.1-0.8-7.4-2.2
							c-2.4-1.4-4.1-3.4-5.3-5.9C485.2,345.2,484.3,342.2,484.5,339.1z M509.3,339.1c0.1-2.2-0.6-4.4-2.2-6.1
							c-2.8-2.8-7.4-3-10.2-0.1l-0.1,0.1c-1.4,1.6-2.2,3.7-2.2,5.9c-0.1,2.2,0.6,4.4,2.2,6.1c1.3,1.4,3.1,2.2,5.1,2.2
							c1.9,0,3.7-0.8,5.1-2.2C508.7,343.5,509.4,341.2,509.3,339.1L509.3,339.1z M532,319.1c-1.6,0-3.1-0.4-4.4-1.6
							c-1.1-1-1.7-2.4-1.7-3.9s0.6-3,1.7-3.9c2.5-2,6.1-2,8.8,0c1.1,1,1.7,2.5,1.7,3.9c0,1.6-0.6,3-1.7,3.9
							C535.1,318.5,533.5,319.1,532,319.1L532,319.1z M536.9,322.5v33.3h-10.2v-33.2L536.9,322.5L536.9,322.5z M554.5,328
							c1.1-1.7,2.7-3.3,4.5-4.4c1.9-1.1,3.9-1.6,5.9-1.6v10.8h-2.8c-2.5,0-4.4,0.4-5.8,1.6c-1.3,1.1-1.9,3-1.9,5.8v15.5h-10v-33.1
							h10.2v5.4H554.5z M594.9,321.9c2.2,0,4.2,0.4,6.1,1.4c1.7,1,3.1,2.2,4.1,3.7v-4.7h10.2v33.1c0,2.8-0.6,5.8-1.9,8.2
							c-1.3,2.5-3.1,4.5-5.5,5.9c-2.8,1.6-6.1,2.4-9.2,2.4c-4.8,0-8.9-1.1-12-3.4c-3-2.2-5-5.6-5.3-9.5h10c0.3,1.3,1.1,2.4,2.2,3
							c1.4,0.8,2.8,1.1,4.4,1.1c1.9,0.1,3.6-0.6,5-1.9c1.3-1.3,1.9-3.1,1.9-5.8v-4.7c-1.1,1.6-2.5,2.8-4.1,3.7
							c-1.9,1-4.1,1.6-6.1,1.4c-2.7,0-5.1-0.6-7.5-2.2c-2.4-1.4-4.1-3.4-5.3-5.9c-1.4-2.8-2-5.9-1.9-9.1c0-3.1,0.6-6.2,1.9-9.1
							c1.1-2.5,3-4.5,5.3-5.9C589.8,322.7,592.3,322.1,594.9,321.9L594.9,321.9z M605.3,339.1c0.1-2.2-0.6-4.4-2-5.9
							c-2.8-2.8-7.4-3-10.2-0.1l-0.1,0.1c-1.4,1.6-2.2,3.7-2.2,5.9c-0.1,2.2,0.6,4.4,2.2,6.1c1.3,1.4,3.1,2.2,5.1,2.2
							s3.9-0.8,5.1-2.2C604.7,343.5,605.4,341.2,605.3,339.1L605.3,339.1z M654.2,338.4c0,1,0,2-0.1,3H631c0,1.7,0.8,3.4,2,4.7
							c1.1,1.1,2.7,1.7,4.4,1.6c2.4,0.1,4.4-1.1,5.3-3.3h10.8c-0.6,2.2-1.6,4.2-3,5.9c-1.4,1.7-3.3,3.1-5.5,4.1
							c-2.4,1.1-4.8,1.6-7.4,1.4c-3,0-5.9-0.6-8.8-2c-2.5-1.4-4.5-3.4-5.9-5.9c-1.4-2.8-2.2-5.9-2.2-9.1c-0.1-3.1,0.6-6.2,2-9.1
							c1.4-2.5,3.4-4.5,5.9-5.9c2.7-1.4,5.8-2.2,8.8-2c3,0,5.9,0.6,8.6,2c2.5,1.3,4.5,3.3,5.9,5.8
							C653.3,332.5,654.2,335.5,654.2,338.4L654.2,338.4z M643.7,335.8c0-1.6-0.6-3.1-1.7-4.2c-1.3-1.1-2.8-1.6-4.5-1.6
							c-1.6,0-3.1,0.4-4.4,1.6s-2,2.7-2.2,4.2H643.7z M679.7,322.1c3.9,0,7.1,1.3,9.4,3.7c2.4,2.5,3.4,5.9,3.4,10.3v19.3h-10.1
							v-17.8c0.1-1.9-0.4-3.7-1.7-5.1c-2.7-2.5-6.7-2.5-9.2,0c-1.3,1.4-1.9,3.3-1.7,5.1v18h-10.2v-33.1h10.2v4.4
							c1.1-1.6,2.5-2.7,4.2-3.4C675.6,322.5,677.6,322.1,679.7,322.1L679.7,322.1z M697.5,338.9c0-3.1,0.6-6.2,1.9-9.1
							c1.1-2.5,3-4.5,5.3-5.9c2.2-1.4,4.8-2.2,7.5-2c2,0,4.1,0.4,5.9,1.4c1.7,0.8,3.1,2,4.2,3.7v-15.5h10.2v44h-10.2v-4.7
							c-1,1.6-2.4,3-4.1,3.7c-1.9,1-4.1,1.4-6.1,1.4c-2.7,0-5.1-0.6-7.5-2.2c-2.4-1.4-4.1-3.6-5.3-5.9
							C698.1,345.2,697.3,342.2,697.5,338.9L697.5,338.9z M722.3,339.1c0.1-2.2-0.6-4.4-2.2-5.9c-1.3-1.4-3.1-2.2-5.1-2.2
							c-1.9,0-3.7,0.8-5.1,2.2c-1.4,1.6-2.2,3.7-2.2,5.9c-0.1,2.2,0.6,4.4,2.2,6.1c2.7,2.8,7.2,3,10,0.3c0.1-0.1,0.1-0.1,0.3-0.3
							C721.7,343.5,722.5,341.2,722.3,339.1L722.3,339.1z M771.2,338.4c0,1,0,2-0.1,3H748c0,1.7,0.8,3.4,2,4.7
							c1.1,1.1,2.7,1.7,4.4,1.6c2.4,0.1,4.4-1.1,5.3-3.3h10.8c-0.4,2.2-1.6,4.2-3,5.9c-1.4,1.7-3.3,3.1-5.5,4.1
							c-2.4,1.1-4.8,1.6-7.4,1.6c-3,0-5.9-0.6-8.8-2c-2.5-1.4-4.5-3.4-5.9-5.9c-1.4-2.8-2.2-5.9-2.2-9.1s0.6-6.2,2.2-9.1
							c1.4-2.5,3.4-4.5,5.9-5.9c5.5-2.8,11.9-2.8,17.3,0c2.5,1.3,4.5,3.3,5.9,5.8C770.5,332.5,771.3,335.5,771.2,338.4L771.2,338.4z
							 M760.7,335.8c0-1.6-0.6-3.1-1.7-4.2c-1.3-1.1-2.8-1.6-4.5-1.6c-1.6,0-3.1,0.4-4.4,1.6s-2,2.7-2.2,4.2H760.7z M786.6,328
							c1.1-1.7,2.7-3.3,4.5-4.4c1.9-1.1,3.9-1.6,5.9-1.6v10.8h-2.8c-2.5,0-4.4,0.4-5.8,1.6c-1.3,1.1-1.9,3-1.9,5.8v15.5h-10.1v-33.1
							h10.2V328z"/>
						<path id="Vereinigungsmenge_1" class="st2" d="M288.8,296H230c-5.3,0-9.7,4.4-9.7,9.7v58.8c0,5.3,4.2,9.5,9.5,9.5h25.8
							c0.8-7.8,7.7-13.4,15.5-12.6c1.9,0.1,3.6,0.8,5.1,1.6c0-0.1,0-0.4,0-0.6c0-7.8,6.2-14,14-14c2.8,0,5.6,1,7.9,2.5v-45.1
							C298.4,300.4,294.2,296,288.8,296z"/>
						<g id="Gruppe_1">
							<g id="Gruppe_1-2">
								<path id="Pfad_1-2" class="st3" d="M236.4,307.6c1.3,0,2.4,0.3,3.4,0.8s2,1.3,2.8,2.2c1.9,2.4,2.8,5.5,2.7,8.4
									c0,2.2-0.3,4.2-1.1,6.2c-0.6,2.2-1.6,4.4-2.7,6.2c-1.9,3.1-3.7,4.5-5.8,4.5c-1,0-1.7-0.3-2.4-0.8c-0.8-0.1-1.1-0.8-1.3-1.6
									c0.3-1,0.8-1.9,1.4-2.7c0.6-1,1.1-1.9,1.4-2.8c0.3-0.8,0.4-1.6,0.6-2.4c0-0.8-0.4-1.6-1.3-1.7c-1.3-0.4-2.4-1-3.3-1.7
									c-1.9-1.6-3-4.1-3-6.5c0-2,0.8-3.9,2-5.5C231.8,308.5,234.1,307.6,236.4,307.6z"/>
							</g>
							<g id="Gruppe_2" class="st4">
								<path id="Pfad_2" class="st3" d="M248.6,303.8c1.6,0,3,0.3,4.2,1.1c1.4,0.6,2.7,1.6,3.6,2.8c2.2,2.8,3.4,6.2,3.4,10.6
									c0,2.7-0.4,5.3-1.3,7.9c-0.8,2.8-2,5.5-3.4,7.9c-2.4,3.9-4.7,5.8-7.4,5.8c-1.1,0-2.2-0.3-3-1.1c-0.8-0.4-1.3-1.4-1.4-2.4
									c0-0.4,0.6-1.6,1.7-3.4c0.8-1.1,1.3-2.4,1.7-3.6c0.4-1,0.6-2,0.8-3c0-1-0.6-1.9-1.6-2.2c-1.6-0.4-3-1.3-4.2-2.2
									c-2.4-2-3.7-5-3.7-8.1c0-2.5,1-5,2.7-6.8C242.8,305.1,245.7,303.8,248.6,303.8z"/>
							</g>
						</g>
					</g>
				</g>
			</g>
		</g>
	</g>
</g>
</svg>
