<svg xmlns="http://www.w3.org/2000/svg" viewBox="0 0 345.44 63.03"><defs><style>.cls-1{fill:#0075bf;}.cls-2{fill:#fff;}.cls-3,.cls-4{fill:#8ab3e0;stroke:#0072bb;stroke-width:1.31px;}.cls-4{stroke-linecap:round;stroke-miterlimit:5;}.cls-5{fill:#0072bb;}</style></defs><g id="Ebene_2" data-name="Ebene 2"><g id="w"><rect class="cls-1" width="44.36" height="44.36"/><path class="cls-2" d="M29.76,1.35a6.88,6.88,0,1,0,1.55,13.58l1.52,4.14a7,7,0,0,0-2.89,3l-4.16-1.47a6.46,6.46,0,0,0,.13-1.4,6.87,6.87,0,1,0-6.82,6.93,6.67,6.67,0,0,0,1.43-.16l1.57,4.13A6.89,6.89,0,0,0,19.21,33L15,31.51a7.39,7.39,0,0,0,.12-1.33,6.89,6.89,0,1,0-.73,3.12l4.15,1.45a7.64,7.64,0,0,0-.14,1.44,6.88,6.88,0,1,0,6.82-6.92,6.43,6.43,0,0,0-1.39.15L22.3,25.28a7,7,0,0,0,2.86-2.93l4.18,1.49a6.52,6.52,0,0,0-.13,1.33A6.88,6.88,0,1,0,36,18.25a6.74,6.74,0,0,0-1.43.16l-1.52-4.14A6.88,6.88,0,0,0,29.76,1.35Z"/><path class="cls-3" d="M86.53,9.69a8.05,8.05,0,0,0-2.17-.4l-14.78.06L63.35,39.11H78.2c9.53,0,16.54-7.24,16.54-17.67C94.74,15.09,92.06,11.19,86.53,9.69Zm-.79,15.69C83.94,31.55,81.58,32,76.27,32h-3L76.58,16.2H80a6.51,6.51,0,0,1,4.78,1.62,5.52,5.52,0,0,1,1.46,4.06A12.65,12.65,0,0,1,85.74,25.38Z"/><path class="cls-3" d="M132.74,39.14l-6.86,0,1.87-7h6.83Z"/><path class="cls-3" d="M207.25,20.71l-1.32,6.22H192.11L191,32.32l16.46-.1-1.41,7-25-.06,6.25-29.77h24L210,15.94H194.42l-.9,4.77Z"/><path class="cls-3" d="M283,20.71l-1.32,6.22h-14l-1.15,5.6,16.71-.2-1.41,6.79-25.16.05L263,9.37h24l-1.31,6.57H269.85l-.9,4.77Z"/><path class="cls-3" d="M218.37,39.16h-8.64l6.39-29.76h8.44Z"/><path class="cls-3" d="M252.39,39.16h-5.62l.43-4-1,.89a15.17,15.17,0,0,1-9.78,3.63,11.44,11.44,0,0,1-8.18-3.29,11.62,11.62,0,0,1-3.33-8.31,20,20,0,0,1,5.45-14.36,18,18,0,0,1,13.13-5.1c5,0,11.23,2.13,12.13,8.1a12.35,12.35,0,0,1,.09,1.81h-8.07a4.48,4.48,0,0,0-.9-1.94A5.55,5.55,0,0,0,242.91,15c-4.56,0-7.48,2.81-8.69,8.36-.85,3.9-.61,6.59.71,8.22a5.17,5.17,0,0,0,4.26,1.72c3.38,0,5.18-1.48,7.14-4.05l.58-.85-5.39,0,1.12-5.22h13.15Z"/><path class="cls-3" d="M343.14,16.2h-7.57l-4.88,22.94h-8.54l5-22.94-8.05-.08,1.55-6.76h24Z"/><path class="cls-4" d="M171.11,39.16h-9L161.2,23l-6.55,16.17H146L143.11,9.37h8.45l1.29,18.23,6.93-18.23,7.57,0,.69,18.1,7.17-18.09h8.62Z"/><path class="cls-3" d="M126.16,16.46a6.29,6.29,0,0,0-1.82-4.66c-2.23-2.24-6.35-2.45-9.25-2.45H101.34L95.05,39.19h8.59L106,28.49h3.27c3.12.08,5,0,5,3.11a27.59,27.59,0,0,1-.23,3c-.1,1-.21,1.95-.21,2.84a4.73,4.73,0,0,0,.45,1.73H123a5.6,5.6,0,0,1-.43-1.91c0-1.3.07-2.63.15-3.91s.15-2.61.15-3.91c0-1.64-.69-2.73-2.56-3.76l-.83-.48.76-.31C123.68,23.49,126.16,20.79,126.16,16.46Zm-9.8,4.73c-1,1-2.22,1.31-4.38,1.34h-4.93l1.62-7.35h4.15c1.37,0,2.9.12,3.82,1.05a2.79,2.79,0,0,1,.77,2.06A4.15,4.15,0,0,1,116.36,21.19Z"/><path class="cls-3" d="M316.38,16.46a6.22,6.22,0,0,0-1.69-4.66c-2.23-2.24-6.35-2.45-9.25-2.45H291.69L285.4,39.19H294l2.31-10.7h3.61c4.09,0,4.33.38,4.66,3.11a13.05,13.05,0,0,1-.22,3c-.1,1-.21,1.95-.21,2.84a4.73,4.73,0,0,0,.45,1.73h8.78a5.6,5.6,0,0,1-.43-1.91c0-1.3.07-2.63.15-3.91s.15-2.61.15-3.91c0-1.64-.69-2.69-2.56-3.72l-.83-.52.76-.31A8.54,8.54,0,0,0,316.38,16.46Zm-9.67,4.73c-1,1-2.35,1.31-4.51,1.34h-4.81L299,15.18h4.15c1.37,0,2.89.12,3.82,1.05a2.79,2.79,0,0,1,.77,2.06A4.15,4.15,0,0,1,306.71,21.19Z"/><path class="cls-5" d="M174.34,59.24V46.35H176v5.3h6.7v-5.3h1.71V59.24h-1.71V53.17H176v6.07Z"/><path class="cls-5" d="M187,62.83l-.17-1.48a3.6,3.6,0,0,0,.9.14,1.69,1.69,0,0,0,.84-.18,1.29,1.29,0,0,0,.52-.49,8.33,8.33,0,0,0,.49-1.18c0-.08.07-.21.14-.38l-3.54-9.35h1.7l1.94,5.4c.25.69.48,1.41.68,2.16a21.66,21.66,0,0,1,.65-2.12l2-5.44h1.58l-3.55,9.49a21.62,21.62,0,0,1-.89,2.12,3.11,3.11,0,0,1-1,1.14A2.23,2.23,0,0,1,188,63,3.21,3.21,0,0,1,187,62.83Z"/><path class="cls-5" d="M195.79,60l1.54.23a1.43,1.43,0,0,0,.54,1,2.62,2.62,0,0,0,1.6.44,2.85,2.85,0,0,0,1.7-.44,2.13,2.13,0,0,0,.81-1.23,10,10,0,0,0,.11-2,3.26,3.26,0,0,1-2.58,1.22,3.51,3.51,0,0,1-3-1.39,5.34,5.34,0,0,1-1.05-3.33,6.29,6.29,0,0,1,.48-2.47,3.87,3.87,0,0,1,1.4-1.74,3.78,3.78,0,0,1,2.16-.62A3.34,3.34,0,0,1,202.24,51V49.91h1.46V58a7.73,7.73,0,0,1-.44,3.09,3.27,3.27,0,0,1-1.41,1.44,4.89,4.89,0,0,1-2.37.53,4.44,4.44,0,0,1-2.69-.75A2.56,2.56,0,0,1,195.79,60Zm1.31-5.6a4,4,0,0,0,.73,2.68,2.41,2.41,0,0,0,3.66,0,3.93,3.93,0,0,0,.74-2.63,3.89,3.89,0,0,0-.76-2.59,2.36,2.36,0,0,0-1.84-.87,2.29,2.29,0,0,0-1.79.86A3.82,3.82,0,0,0,197.1,54.41Z"/><path class="cls-5" d="M206.1,48.17V46.35h1.58v1.82Zm0,11.07V49.91h1.58v9.33Z"/><path class="cls-5" d="M216.48,56.23l1.64.21a4,4,0,0,1-1.44,2.22,4.86,4.86,0,0,1-5.92-.47,4.93,4.93,0,0,1-1.2-3.54A5.13,5.13,0,0,1,210.78,51a4.09,4.09,0,0,1,3.14-1.31A4,4,0,0,1,217,51a5.07,5.07,0,0,1,1.19,3.59c0,.09,0,.23,0,.42h-7a3.59,3.59,0,0,0,.87,2.35,2.57,2.57,0,0,0,2,.82,2.4,2.4,0,0,0,1.49-.46A3,3,0,0,0,216.48,56.23Zm-5.19-2.55h5.21a3.14,3.14,0,0,0-.6-1.77,2.42,2.42,0,0,0-2-.91,2.48,2.48,0,0,0-1.83.73A2.83,2.83,0,0,0,211.29,53.68Z"/><path class="cls-5" d="M220.1,59.24V49.91h1.43v1.32a3.36,3.36,0,0,1,3-1.54,3.93,3.93,0,0,1,1.55.31,2.53,2.53,0,0,1,1.06.79A3.25,3.25,0,0,1,227.6,52a9,9,0,0,1,.09,1.54v5.74H226.1V53.56a4.34,4.34,0,0,0-.18-1.44,1.49,1.49,0,0,0-.66-.77,2.07,2.07,0,0,0-1.1-.28,2.55,2.55,0,0,0-1.74.64,3.16,3.16,0,0,0-.74,2.43v5.1Z"/><path class="cls-5" d="M236.5,56.23l1.64.21a4,4,0,0,1-1.44,2.22,4.84,4.84,0,0,1-5.91-.47,4.93,4.93,0,0,1-1.2-3.54A5.12,5.12,0,0,1,230.8,51,4.11,4.11,0,0,1,234,49.69,4,4,0,0,1,237,51a5.07,5.07,0,0,1,1.19,3.59c0,.09,0,.23,0,.42h-7a3.59,3.59,0,0,0,.87,2.35,2.57,2.57,0,0,0,1.95.82,2.4,2.4,0,0,0,1.49-.46A3,3,0,0,0,236.5,56.23Zm-5.19-2.55h5.21a3.14,3.14,0,0,0-.6-1.77,2.4,2.4,0,0,0-2-.91,2.5,2.5,0,0,0-1.83.73A2.83,2.83,0,0,0,231.31,53.68Z"/><path class="cls-5" d="M245.12,59.24V49.91h1.42v1.31a3.29,3.29,0,0,1,2.83-1.53,3,3,0,0,1,1.7.44,2.26,2.26,0,0,1,.94,1.2,3.36,3.36,0,0,1,2.88-1.64,2.86,2.86,0,0,1,2.14.77,3.35,3.35,0,0,1,.74,2.37v6.41H256.2V53.36a4.48,4.48,0,0,0-.15-1.37,1.39,1.39,0,0,0-.56-.67,1.75,1.75,0,0,0-1-.25,2.21,2.21,0,0,0-1.64.65,2.92,2.92,0,0,0-.65,2.1v5.42h-1.58V53.18a2.66,2.66,0,0,0-.39-1.59,1.45,1.45,0,0,0-1.26-.52,2.26,2.26,0,0,0-1.24.35,2,2,0,0,0-.82,1,5.79,5.79,0,0,0-.25,1.95v4.84Z"/><path class="cls-5" d="M260.13,48.17V46.35h1.58v1.82Zm0,11.07V49.91h1.58v9.33Z"/><path class="cls-5" d="M267.57,57.82l.23,1.4a5.47,5.47,0,0,1-1.2.14,2.7,2.7,0,0,1-1.33-.27,1.5,1.5,0,0,1-.67-.72,5.58,5.58,0,0,1-.19-1.86V51.14h-1.16V49.91h1.16V47.59l1.57-.94v3.26h1.59v1.23H266v5.45a2.9,2.9,0,0,0,.08.87.65.65,0,0,0,.28.31,1,1,0,0,0,.54.12A4.19,4.19,0,0,0,267.57,57.82Z"/><path class="cls-5" d="M273.74,55.1l1.61-.14a3.64,3.64,0,0,0,.53,1.59,3,3,0,0,0,1.3,1,5,5,0,0,0,2,.38,4.81,4.81,0,0,0,1.72-.29,2.37,2.37,0,0,0,1.11-.79,1.89,1.89,0,0,0,.36-1.11,1.65,1.65,0,0,0-.35-1.06,2.63,2.63,0,0,0-1.16-.76c-.34-.13-1.11-.34-2.29-.63a11.86,11.86,0,0,1-2.49-.8,3.46,3.46,0,0,1-1.37-1.2,2.88,2.88,0,0,1-.46-1.6,3.31,3.31,0,0,1,.56-1.83,3.54,3.54,0,0,1,1.61-1.29,6.21,6.21,0,0,1,2.37-.43,6.45,6.45,0,0,1,2.53.46A3.66,3.66,0,0,1,283,48a4,4,0,0,1,.63,2l-1.63.13a2.65,2.65,0,0,0-.9-1.85,3.48,3.48,0,0,0-2.24-.62,3.7,3.7,0,0,0-2.26.56,1.71,1.71,0,0,0-.7,1.37,1.43,1.43,0,0,0,.5,1.14,6.68,6.68,0,0,0,2.57.92,18.16,18.16,0,0,1,2.85.82,4,4,0,0,1,1.66,1.32A3.18,3.18,0,0,1,284,55.6a3.53,3.53,0,0,1-.59,1.94A3.81,3.81,0,0,1,281.72,59a5.9,5.9,0,0,1-2.49.51A7.43,7.43,0,0,1,276.3,59a4.1,4.1,0,0,1-1.85-1.53A4.34,4.34,0,0,1,273.74,55.1Z"/><path class="cls-5" d="M286.05,62.83l-.17-1.48a3.67,3.67,0,0,0,.9.14,1.7,1.7,0,0,0,.85-.18,1.43,1.43,0,0,0,.52-.49,7.56,7.56,0,0,0,.48-1.18l.14-.38-3.54-9.35h1.7l1.95,5.4c.25.69.47,1.41.67,2.16a21.66,21.66,0,0,1,.65-2.12l2-5.44h1.58l-3.55,9.49a19.35,19.35,0,0,1-.89,2.12,3,3,0,0,1-1,1.14,2.21,2.21,0,0,1-1.3.37A3.21,3.21,0,0,1,286.05,62.83Z"/><path class="cls-5" d="M294.49,56.45l1.57-.24a2.16,2.16,0,0,0,.73,1.44,2.57,2.57,0,0,0,1.68.5,2.51,2.51,0,0,0,1.62-.44,1.35,1.35,0,0,0,.53-1.05,1,1,0,0,0-.47-.84,6.78,6.78,0,0,0-1.61-.54,13.8,13.8,0,0,1-2.42-.76,2.27,2.27,0,0,1-1-.88,2.5,2.5,0,0,1-.06-2.41,2.45,2.45,0,0,1,.78-.88,3.17,3.17,0,0,1,1-.47,5,5,0,0,1,1.36-.19,5.42,5.42,0,0,1,1.93.32,2.69,2.69,0,0,1,1.23.86,3.39,3.39,0,0,1,.54,1.44l-1.54.21a1.71,1.71,0,0,0-.61-1.12,2.25,2.25,0,0,0-1.43-.4,2.6,2.6,0,0,0-1.56.36,1,1,0,0,0-.46.84.86.86,0,0,0,.19.55,1.5,1.5,0,0,0,.6.43c.16,0,.63.19,1.4.4a20.65,20.65,0,0,1,2.35.73,2.45,2.45,0,0,1,1,.83,2.36,2.36,0,0,1,.37,1.36,2.66,2.66,0,0,1-.46,1.49,3,3,0,0,1-1.33,1.08,4.94,4.94,0,0,1-2,.38,4.33,4.33,0,0,1-2.77-.76A3.5,3.5,0,0,1,294.49,56.45Z"/><path class="cls-5" d="M307.58,57.82l.23,1.4a5.54,5.54,0,0,1-1.2.14,2.7,2.7,0,0,1-1.33-.27,1.5,1.5,0,0,1-.67-.72,5.49,5.49,0,0,1-.2-1.86V51.14h-1.16V49.91h1.16V47.59l1.58-.94v3.26h1.59v1.23H306v5.45a2.9,2.9,0,0,0,.08.87.68.68,0,0,0,.27.31,1,1,0,0,0,.54.12A4.2,4.2,0,0,0,307.58,57.82Z"/><path class="cls-5" d="M315.52,56.23l1.63.21a4,4,0,0,1-1.43,2.22,4.86,4.86,0,0,1-5.92-.47,4.93,4.93,0,0,1-1.2-3.54A5.12,5.12,0,0,1,309.81,51,4.11,4.11,0,0,1,313,49.69,4,4,0,0,1,316,51a5.06,5.06,0,0,1,1.18,3.59V55h-7a3.59,3.59,0,0,0,.87,2.35,2.6,2.6,0,0,0,2,.82,2.37,2.37,0,0,0,1.48-.46A3,3,0,0,0,315.52,56.23Zm-5.2-2.55h5.21a3.21,3.21,0,0,0-.59-1.77,2.43,2.43,0,0,0-2-.91,2.52,2.52,0,0,0-1.84.73A2.87,2.87,0,0,0,310.32,53.68Z"/><path class="cls-5" d="M319.14,59.24V49.91h1.41v1.31a3.29,3.29,0,0,1,2.83-1.53,3,3,0,0,1,1.7.44,2.26,2.26,0,0,1,.94,1.2,3.36,3.36,0,0,1,2.88-1.64,2.86,2.86,0,0,1,2.14.77,3.3,3.3,0,0,1,.74,2.37v6.41h-1.57V53.36a4.48,4.48,0,0,0-.15-1.37,1.39,1.39,0,0,0-.56-.67,1.75,1.75,0,0,0-.95-.25,2.21,2.21,0,0,0-1.64.65,2.92,2.92,0,0,0-.65,2.1v5.42h-1.58V53.18a2.74,2.74,0,0,0-.38-1.59,1.47,1.47,0,0,0-1.27-.52,2.2,2.2,0,0,0-1.23.35,2,2,0,0,0-.83,1,5.79,5.79,0,0,0-.25,1.95v4.84Z"/></g></g></svg>