<svg xmlns="http://www.w3.org/2000/svg" xmlns:xlink="http://www.w3.org/1999/xlink" width="545" height="455" viewBox="0 0 545 455">
  <defs>
    <clipPath id="clip-path">
      <rect id="Rechteck_62" data-name="Rechteck 62" width="200" height="373.056" fill="none"/>
    </clipPath>
    <clipPath id="clip-path-2">
      <path id="Pfad_27" data-name="Pfad 27" d="M27.967,208.729c3.224,9.721,19.176,39.738,19.176,39.738l10.1-6.781L32.64,187.617s-7.9,11.387-4.672,21.112" transform="translate(-27.193 -187.617)" fill="none"/>
    </clipPath>
    <linearGradient id="linear-gradient" x1="-0.842" y1="3.903" x2="-0.802" y2="3.903" gradientUnits="objectBoundingBox">
      <stop offset="0" stop-color="#7c4572"/>
      <stop offset="0.652" stop-color="#6a2c63"/>
      <stop offset="1" stop-color="#601e5a"/>
    </linearGradient>
    <clipPath id="clip-path-4">
      <rect id="Rechteck_80" data-name="Rechteck 80" width="545" height="453" fill="#1f96b7"/>
    </clipPath>
    <filter id="Rechteck_47" x="158" y="46" width="336" height="719" filterUnits="userSpaceOnUse">
      <feOffset dy="3"/>
      <feGaussianBlur stdDeviation="3" result="blur"/>
      <feFlood flood-opacity="0.161"/>
      <feComposite operator="in" in2="blur"/>
      <feComposite in="SourceGraphic"/>
    </filter>
    <clipPath id="clip-path-5">
      <rect id="Rechteck_61" data-name="Rechteck 61" width="233.235" height="52.025" fill="none"/>
    </clipPath>
    <clipPath id="clip-path-6">
      <rect id="Rechteck_81" data-name="Rechteck 81" width="217.104" height="152.245" fill="none"/>
    </clipPath>
  </defs>
  <g id="Gruppe_26" data-name="Gruppe 26" transform="translate(-385 -1536)">
    <rect id="Rechteck_45" data-name="Rechteck 45" width="545" height="453" transform="translate(385 1536)" fill="#1f96b7"/>
    <g id="Gruppe_18" data-name="Gruppe 18" transform="translate(385 1617.944)">
      <path id="Pfad_18" data-name="Pfad 18" d="M13.8,219.392,0,230.627V241.6l19.141-14.35,10.727-16.362-7.67-3.841Z" transform="translate(0 -54.579)" fill="#fff"/>
      <g id="Gruppe_13" data-name="Gruppe 13">
        <g id="Gruppe_12" data-name="Gruppe 12" clip-path="url(#clip-path)">
          <path id="Pfad_19" data-name="Pfad 19" d="M82.8,276.228c-8.341,6.332-100.311,62.846-100.311,62.846l5.552-8.124c14.425-8.408,32.471-23.938,44.788-36.892S49.087,278.67,52.2,277.2s12.817-5.365,12.817-5.365Z" transform="translate(-22.613 29.104)" fill="#fff" fill-rule="evenodd"/>
          <path id="Pfad_20" data-name="Pfad 20" d="M-4.582,297.25s-2.042-2.06-4.386-1.9c-2.328,3.364-10.09,9.716-10.09,9.716l.779,1.091Z" transform="translate(-24.614 59.461)" fill="#601e5b"/>
          <path id="Pfad_21" data-name="Pfad 21" d="M-17.507,302.1l4.668,7.865-2.046-9.505Z" transform="translate(-22.611 66.074)" fill="#601e5b"/>
          <path id="Pfad_22" data-name="Pfad 22" d="M41.983,271.837c.307,10.468-5.543,106.23-5.543,106.23l-3.387-9.235c1.54-16.63-.616-40.338-4-57.889s-3.078-22.171-2.463-25.558,3.08-13.548,3.08-13.548Z" transform="translate(33.837 29.104)" fill="#fff" fill-rule="evenodd"/>
          <path id="Pfad_23" data-name="Pfad 23" d="M31.673,311.408s-2.864.465-4.1,2.466c1.384,3.85,2.046,13.857,2.046,13.857h1.341Z" transform="translate(35.618 80.212)" fill="#601e5b"/>
          <path id="Pfad_24" data-name="Pfad 24" d="M30.668,319.934l9.111.77-8.923-3.857Z" transform="translate(39.61 87.237)" fill="#601e5b"/>
          <path id="Pfad_25" data-name="Pfad 25" d="M42.882,240.849,49,254.117l9.922-41.09-7.1-11.868,0-9.863a1.594,1.594,0,1,1,3.188,0v5.348h12.23l8.967-8.653-.018-2.014a1.605,1.605,0,1,1,3.21-.016L79.4,193.2l-5.321,14.565L67.823,209.2l-14.7,63.7-17.5-24.139Z" transform="translate(46.008 -83.884)" fill="#fff" fill-rule="evenodd"/>
          <path id="Pfad_26" data-name="Pfad 26" d="M30.487,233.843c-3.341,5.924-12.8,9.79-16.428,26.211s2.929,66.5,2.929,66.5l42.529,6.412s-3.135-86.981-4.794-97.114-22.421-5.225-24.235-2.007" transform="translate(16.745 -25.211)" fill="#601e5b"/>
        </g>
      </g>
      <g id="Gruppe_15" data-name="Gruppe 15" transform="translate(62.314 107.946)">
        <g id="Gruppe_14" data-name="Gruppe 14" clip-path="url(#clip-path-2)">
          <rect id="Rechteck_63" data-name="Rechteck 63" width="56.713" height="68.979" transform="matrix(0.89, -0.457, 0.457, 0.89, -27.179, 12.698)" fill="url(#linear-gradient)"/>
        </g>
      </g>
      <g id="Gruppe_17" data-name="Gruppe 17">
        <g id="Gruppe_16" data-name="Gruppe 16" clip-path="url(#clip-path)">
          <path id="Pfad_28" data-name="Pfad 28" d="M39.963,187.665c-3.623,0-12.617.03-16.731.03C10.005,217.98,40.847,265.8,19.426,291.459h22.6c-3.994-9.036,3.385-51.856,5.316-68.511,4.324-2.333-4.9-25.952-7.379-35.283" transform="translate(25.09 -79.609)" fill="#35bac6"/>
          <path id="Pfad_29" data-name="Pfad 29" d="M34.772,186.415H23.919l-1.038,2.864H32.939Z" transform="translate(29.552 -81.224)" fill="#35bac6"/>
          <path id="Pfad_30" data-name="Pfad 30" d="M29.987,161.686C37.2,164.2,44.161,179.173,44.4,187.31c.266,9.178-.348,24.185,3.9,29.213-9.563-.946-17.242-2.61-26.736-8.22-4.29-29.483-.335-49.665,8.431-46.617" transform="translate(25.594 -113.555)" fill="#601e5b"/>
          <path id="Pfad_31" data-name="Pfad 31" d="M25.124,196.616c-6.279-4.986-12.189-23.919-5.25-30.276,5.594-5.124,10.782-5.154,14.687-3.93,6.361,2,18.7,18.035,18.7,18.035l-3.465.548s2.044,8.208.3,12.6c-4.178,10.523-11.6,10.081-11.336,27.444.108,7.365-6.022,5.484-5.857.108.362-11.877-3.985-21.511-7.78-24.524" transform="translate(21.635 -113.085)" fill="#fff"/>
          <path id="Pfad_32" data-name="Pfad 32" d="M38.893,164.96a22.443,22.443,0,0,1-6.437,17.308c-.328,10.523,2.672,32.141,7.026,37.565-5.678,0-13.985-2.958-18.509-6.144-6.739-14.146-11.79-46.564,1.909-52.367,5.314-2.25,16.043-.36,23.381,9.045-2.145-1.687-3-2.374-7.37-5.408" transform="translate(18.364 -114.74)" fill="#601e5b"/>
          <path id="Pfad_33" data-name="Pfad 33" d="M34.932,174.209c-1.141.589-6.5,1.418-9.182-1l.222-.775c2.677,2.14,7.677,1.609,8.967.972Z" transform="translate(33.258 -99.285)" fill="#601e5b"/>
          <path id="Pfad_34" data-name="Pfad 34" d="M30.292,166.758a1.85,1.85,0,1,1-2.589-.284,1.84,1.84,0,0,1,2.589.284" transform="translate(34.88 -107.505)" fill="#601e5b"/>
          <path id="Pfad_35" data-name="Pfad 35" d="M28.563,167.45a1.848,1.848,0,1,1-2.589-.275,1.851,1.851,0,0,1,2.589.275" transform="translate(32.649 -106.605)" fill="#601e5b"/>
          <path id="Pfad_36" data-name="Pfad 36" d="M41.326,187.665c-5,0-35.909,51.842-35.909,51.842l12.39,8.648s21.983-32.593,23.342-36.042,5.174-24.449.176-24.449" transform="translate(6.996 -79.609)" fill="#601e5b"/>
          <path id="Pfad_37" data-name="Pfad 37" d="M32.939,187.665l7.766,34.428-8.877-26.057-8.946-8.371Z" transform="translate(29.553 -79.609)" fill="#fff"/>
          <path id="Pfad_38" data-name="Pfad 38" d="M28.872,187.755l4.111-.03,20,35.283L45.6,187.726l2.711-.108s7.525,30.918,12.157,36.271c-2.578,7.163-7.546,20.791-5.023,70.323H15.059c15.271-11.35,15.55-49.582,0-74.734,2.608-17.59,13.813-31.722,13.813-31.722" transform="translate(19.45 -79.67)" fill="#601e5b"/>
          <rect id="Rechteck_64" data-name="Rechteck 64" width="21.163" height="36.296" transform="translate(101.009 92.24)" fill="#601e5b"/>
          <rect id="Rechteck_65" data-name="Rechteck 65" width="16.985" height="27.641" transform="translate(103.099 94.749)" fill="#fff"/>
          <path id="Pfad_39" data-name="Pfad 39" d="M46.479,181.489a.267.267,0,0,0,.268.268h9.627a.268.268,0,1,0,0-.536H46.747a.267.267,0,0,0-.268.268" transform="translate(60.03 -87.932)" fill="#7b4573" fill-rule="evenodd"/>
          <rect id="Rechteck_66" data-name="Rechteck 66" width="3.518" height="3.295" transform="translate(114.417 97.176)" fill="#0093ad"/>
          <rect id="Rechteck_67" data-name="Rechteck 67" width="3.515" height="3.295" transform="translate(109.832 97.176)" fill="#bace00"/>
          <rect id="Rechteck_68" data-name="Rechteck 68" width="3.518" height="3.295" transform="translate(105.249 97.176)" fill="#601e5b"/>
          <rect id="Rechteck_69" data-name="Rechteck 69" width="3.518" height="3.295" transform="translate(114.415 103.319)" fill="#601e5b"/>
          <rect id="Rechteck_70" data-name="Rechteck 70" width="3.518" height="3.295" transform="translate(109.832 103.319)" fill="#0093ad"/>
          <rect id="Rechteck_71" data-name="Rechteck 71" width="3.518" height="3.295" transform="translate(105.249 103.319)" fill="#bace00"/>
          <rect id="Rechteck_72" data-name="Rechteck 72" width="3.518" height="3.295" transform="translate(114.417 115.607)" fill="#bace00"/>
          <rect id="Rechteck_73" data-name="Rechteck 73" width="3.515" height="3.295" transform="translate(109.832 115.607)" fill="#601e5b"/>
          <rect id="Rechteck_74" data-name="Rechteck 74" width="3.518" height="3.295" transform="translate(105.249 115.607)" fill="#0093ad"/>
          <rect id="Rechteck_75" data-name="Rechteck 75" width="3.518" height="3.295" transform="translate(114.415 109.463)" fill="#0093ad"/>
          <rect id="Rechteck_76" data-name="Rechteck 76" width="3.518" height="3.295" transform="translate(109.832 109.463)" fill="#bace00"/>
          <rect id="Rechteck_77" data-name="Rechteck 77" width="3.518" height="3.295" transform="translate(105.249 109.463)" fill="#601e5b"/>
          <path id="Pfad_40" data-name="Pfad 40" d="M49.464,198.145a.509.509,0,0,0,.72,0l1.471-1.471a.509.509,0,0,0,0-.72l-1.471-1.469a.508.508,0,0,0-.72,0l-1.471,1.469a.512.512,0,0,0,0,.72Z" transform="translate(61.795 -70.993)" fill="#fff"/>
          <path id="Pfad_41" data-name="Pfad 41" d="M50.727,195.994h1.595a.509.509,0,0,0,0-1.017H50.727a.509.509,0,1,0,0,1.017" transform="translate(64.859 -70.165)" fill="#fff"/>
          <path id="Pfad_42" data-name="Pfad 42" d="M46.627,195.994h1.595a.509.509,0,1,0,0-1.017H46.627a.509.509,0,0,0,0,1.017" transform="translate(59.564 -70.165)" fill="#fff"/>
          <path id="Pfad_43" data-name="Pfad 43" d="M24.215,186.415l-1.038,2.864-.525,23.388,9.469-15.014Z" transform="translate(29.257 -81.224)" fill="#35bac6"/>
          <path id="Pfad_44" data-name="Pfad 44" d="M33.221,215.667l.367-12.365,5.078,4.636L29.1,186.415l-1.833,2.864Z" transform="translate(35.221 -81.223)" fill="#35bac6"/>
          <path id="Pfad_45" data-name="Pfad 45" d="M30.027,195.826V192.2l5.078,8.259Z" transform="translate(38.782 -73.748)" fill="#0093ad"/>
          <path id="Pfad_46" data-name="Pfad 46" d="M30.553,211.207c0,.878-.227,1.588-.509,1.588s-.509-.71-.509-1.588.229-1.588.509-1.588.509.71.509,1.588" transform="translate(38.147 -51.254)" fill="#fff"/>
          <path id="Pfad_47" data-name="Pfad 47" d="M30.553,217.839c0,.878-.227,1.588-.509,1.588s-.509-.71-.509-1.588.229-1.588.509-1.588.509.71.509,1.588" transform="translate(38.147 -42.689)" fill="#fff"/>
          <path id="Pfad_48" data-name="Pfad 48" d="M30.553,224.471c0,.878-.227,1.588-.509,1.588s-.509-.71-.509-1.588.229-1.588.509-1.588.509.71.509,1.588" transform="translate(38.147 -34.123)" fill="#fff"/>
        </g>
      </g>
    </g>
    <g id="Gruppe_maskieren_1" data-name="Gruppe maskieren 1" transform="translate(385 1536)" clip-path="url(#clip-path-4)">
      <g id="Gruppe_19" data-name="Gruppe 19" transform="translate(162 52.37)">
        <g transform="matrix(1, 0, 0, 1, -162, -52.37)" filter="url(#Rechteck_47)">
          <rect id="Rechteck_47-2" data-name="Rechteck 47" width="318" height="701" rx="33" transform="translate(167 52)" fill="#3e3e3e"/>
        </g>
        <rect id="Rechteck_48" data-name="Rechteck 48" width="296" height="639" rx="24" transform="translate(16 40.63)" fill="#fff"/>
        <circle id="Ellipse_9" data-name="Ellipse 9" cx="5.5" cy="5.5" r="5.5" transform="translate(149 14.63)" fill="#505050"/>
        <circle id="Ellipse_10" data-name="Ellipse 10" cx="7.5" cy="7.5" r="7.5" transform="translate(165 12.63)" fill="#1a1a1a"/>
        <rect id="Rechteck_50" data-name="Rechteck 50" width="9" height="122" rx="4" transform="translate(319 142.63)" fill="#3e3e3e"/>
        <rect id="Rechteck_51" data-name="Rechteck 51" width="9" height="39" rx="4" transform="translate(0 184.63)" fill="#3e3e3e"/>
      </g>
    </g>
    <g id="Gruppe_11" data-name="Gruppe 11" transform="translate(597.883 1696.978)">
      <g id="Gruppe_10" data-name="Gruppe 10" clip-path="url(#clip-path-5)">
        <path id="Pfad_11" data-name="Pfad 11" d="M286.256,70.789c3.726,0,6.88-1.577,6.88-5.923V63.433a11.849,11.849,0,0,1,.095-1.289h-.095c-1.435,2.15-3.535,3.3-6.783,3.3-6.974,0-10.939-5.638-10.939-12.325s3.774-12.134,10.8-12.134c5.3,0,7.213,3.106,7.213,3.106h.144a4.57,4.57,0,0,1-.047-.669V41.557H299.2V64.435c0,8.36-6.5,11.512-12.848,11.512a19.41,19.41,0,0,1-8.646-2.1l1.813-4.634a16.38,16.38,0,0,0,6.736,1.577m7.022-17.626c0-5.541-2.722-7.022-6.018-7.022-3.679,0-5.732,2.675-5.732,6.783,0,4.25,2.2,7.4,6.114,7.4,2.913,0,5.636-1.673,5.636-7.165" transform="translate(-271.71 -26.472)" fill="#9fa0a0"/>
        <path id="Pfad_12" data-name="Pfad 12" d="M303.947,40.982c7.451,0,13.423,5.3,13.423,12.752,0,7.5-5.972,12.756-13.376,12.756-7.451,0-13.421-5.256-13.421-12.756,0-7.451,5.97-12.752,13.374-12.752m.047,20.348a7.241,7.241,0,0,0,7.213-7.6,7.245,7.245,0,1,0-14.472,0,7.251,7.251,0,0,0,7.26,7.6" transform="translate(-258.21 -26.472)" fill="#9fa0a0"/>
        <rect id="Rechteck_52" data-name="Rechteck 52" width="14.378" height="5.301" transform="translate(64.412 23.156)" fill="#9fa0a0"/>
        <path id="Pfad_13" data-name="Pfad 13" d="M329.019,45.213c5.348,0,7.022,3.1,7.022,3.1h.095s-.049-.62-.049-1.386v-10.7h6.067V70.146h-5.73V68.14a12.494,12.494,0,0,1,.095-1.577h-.095a8.462,8.462,0,0,1-7.644,4.155c-6.592,0-10.8-5.207-10.8-12.754,0-7.736,4.587-12.752,11.035-12.752m1.146,20.4c3.152,0,6.114-2.293,6.114-7.691,0-3.772-2.006-7.5-6.067-7.5-3.344,0-6.114,2.722-6.114,7.545,0,4.634,2.484,7.644,6.067,7.644" transform="translate(-233.798 -30.701)" fill="#101010"/>
        <path id="Pfad_14" data-name="Pfad 14" d="M351.034,70.789c3.726,0,6.878-1.577,6.878-5.923V63.433a11.621,11.621,0,0,1,.1-1.289h-.1c-1.433,2.15-3.533,3.3-6.781,3.3-6.974,0-10.939-5.638-10.939-12.325s3.774-12.134,10.8-12.134c5.3,0,7.213,3.106,7.213,3.106h.144a4.4,4.4,0,0,1-.049-.669V41.557h5.685V64.435c0,8.36-6.5,11.512-12.848,11.512a19.412,19.412,0,0,1-8.648-2.1l1.815-4.634a16.38,16.38,0,0,0,6.736,1.577m7.022-17.626c0-5.541-2.722-7.022-6.018-7.022-3.679,0-5.732,2.675-5.732,6.783,0,4.25,2.2,7.4,6.114,7.4,2.913,0,5.636-1.673,5.636-7.165" transform="translate(-214.021 -26.472)" fill="#101010"/>
        <path id="Pfad_15" data-name="Pfad 15" d="M365.1,49.62h-3.155V44.8h3.3V37.774h5.923V44.8H376.7V49.62h-5.539v9.457c0,4.014,3.152,4.587,4.823,4.587a5.624,5.624,0,0,0,1.1-.095v5.3a10.443,10.443,0,0,1-1.862.144c-3.392,0-10.124-1-10.124-9.171Z" transform="translate(-194.65 -29.329)" fill="#101010"/>
        <path id="Pfad_16" data-name="Pfad 16" d="M385.919,50.631h.811V50.3c0-3.2-2.006-4.3-4.681-4.3a13.039,13.039,0,0,0-6.687,2.341l-2.293-4.348a16.43,16.43,0,0,1,9.553-3.01c6.4,0,10.128,3.537,10.128,9.7V65.917h-5.589V63.911a15.661,15.661,0,0,1,.094-1.72h-.094a7.886,7.886,0,0,1-7.4,4.3c-4.346,0-8.264-2.722-8.264-7.594,0-7.738,10.462-8.264,14.425-8.264m-4.634,11.13c3.2,0,5.494-3.439,5.494-6.4v-.575h-1.051c-3.106,0-8.12.431-8.12,3.823,0,1.622,1.193,3.152,3.677,3.152" transform="translate(-186.144 -26.472)" fill="#101010"/>
        <path id="Pfad_17" data-name="Pfad 17" d="M385.894,36.232h6.018V61.643c0,2.675.907,3.344,2.484,3.344a8.993,8.993,0,0,0,.908-.049v5.3a13.787,13.787,0,0,1-1.91.144c-3.344,0-7.5-.86-7.5-7.835Z" transform="translate(-173.319 -30.702)" fill="#101010"/>
        <rect id="Rechteck_53" data-name="Rechteck 53" width="6.309" height="8.094" transform="translate(115.265 15.179)" fill="#101010"/>
        <rect id="Rechteck_54" data-name="Rechteck 54" width="6.309" height="8.094" transform="translate(115.265 23.256)" fill="#d11112"/>
        <rect id="Rechteck_55" data-name="Rechteck 55" width="6.309" height="8.095" transform="translate(115.265 31.363)" fill="#f8c100"/>
        <rect id="Rechteck_56" data-name="Rechteck 56" width="6.309" height="8.094" transform="translate(155.674 15.179)" fill="#101010"/>
        <rect id="Rechteck_57" data-name="Rechteck 57" width="6.309" height="6.309" transform="translate(115.265 5.485)" fill="#101010"/>
        <rect id="Rechteck_58" data-name="Rechteck 58" width="6.309" height="6.309" transform="translate(155.674 5.485)" fill="#101010"/>
        <rect id="Rechteck_59" data-name="Rechteck 59" width="6.309" height="8.094" transform="translate(155.674 23.256)" fill="#d11112"/>
        <rect id="Rechteck_60" data-name="Rechteck 60" width="6.309" height="8.095" transform="translate(155.674 31.363)" fill="#f8c100"/>
      </g>
    </g>
    <g id="Gruppe_21" data-name="Gruppe 21" transform="translate(585 1774.204)">
      <g id="Gruppe_20" data-name="Gruppe 20" clip-path="url(#clip-path-6)">
        <path id="Pfad_49" data-name="Pfad 49" d="M138.277,74.758a1.412,1.412,0,0,0-1.2.627,3.422,3.422,0,0,0-.523,1.812H139.6a1.964,1.964,0,0,0,.025-.252c.005-.111.009-.229.009-.358a2.264,2.264,0,0,0-.349-1.35,1.169,1.169,0,0,0-1.01-.478m2.648,1.882c0,.36-.011.67-.034.931s-.047.491-.07.689h-4.268a3.719,3.719,0,0,0,.636,2.177,1.98,1.98,0,0,0,1.629.7,2.318,2.318,0,0,0,.662-.088,2.538,2.538,0,0,0,.514-.208,2.481,2.481,0,0,0,.365-.245c.1-.081.172-.145.218-.192l.521.994c-.057.059-.145.143-.26.252a2.375,2.375,0,0,1-.471.331,3.43,3.43,0,0,1-.732.288,3.861,3.861,0,0,1-1.028.122,3.714,3.714,0,0,1-1.42-.261,2.679,2.679,0,0,1-1.08-.811,3.9,3.9,0,0,1-.689-1.393,7.383,7.383,0,0,1-.243-2.03,6.507,6.507,0,0,1,.252-1.925,3.8,3.8,0,0,1,.689-1.332,2.735,2.735,0,0,1,1.01-.775,3.04,3.04,0,0,1,1.237-.252,2.4,2.4,0,0,1,1.882.757,3.312,3.312,0,0,1,.679,2.274M132.7,71.8a.908.908,0,0,1-.7-.279,1.03,1.03,0,0,1-.261-.732,1.006,1.006,0,0,1,.261-.714.907.907,0,0,1,.7-.278.887.887,0,0,1,.68.278,1.006,1.006,0,0,1,.261.714,1.03,1.03,0,0,1-.261.732.888.888,0,0,1-.68.279m.7,10.382h-1.411V73.816H133.4Zm-5.036-5.767a1.665,1.665,0,0,0-.426-1.289,1.447,1.447,0,0,0-1-.383,1.526,1.526,0,0,0-1.046.383,2.12,2.12,0,0,0,0,2.578,1.478,1.478,0,0,0,1.01.383,1.494,1.494,0,0,0,1.037-.383,1.662,1.662,0,0,0,.426-1.289M126.5,81.917a3.612,3.612,0,0,1-.645-.052,1.923,1.923,0,0,0-.3.209,1.488,1.488,0,0,0-.27.3,1.65,1.65,0,0,0-.2.41,1.737,1.737,0,0,0-.077.548q0,1.343,1.481,1.341a2.946,2.946,0,0,0,1.88-.5,1.444,1.444,0,0,0,.61-1.14.954.954,0,0,0-.383-.863,1.846,1.846,0,0,0-1.028-.252Zm3.885-7h-1.046a2.828,2.828,0,0,1,.4,1.5,3.126,3.126,0,0,1-.217,1.194,2.5,2.5,0,0,1-.611.9,2.653,2.653,0,0,1-.924.557,3.309,3.309,0,0,1-1.14.192h-.227a1.483,1.483,0,0,1-.226-.018,1.734,1.734,0,0,0-.435.279.629.629,0,0,0-.227.5.528.528,0,0,0,.2.428,1.035,1.035,0,0,0,.653.165h1.063a4.727,4.727,0,0,1,1.1.122,2.51,2.51,0,0,1,.879.392,1.877,1.877,0,0,1,.584.689,2.227,2.227,0,0,1,.209,1.01,2.663,2.663,0,0,1-.288,1.237,2.852,2.852,0,0,1-.809.958,3.952,3.952,0,0,1-1.273.627,5.724,5.724,0,0,1-1.672.227,3.1,3.1,0,0,1-2.037-.584,2.065,2.065,0,0,1-.7-1.681,1.831,1.831,0,0,1,.165-.811,2.608,2.608,0,0,1,.392-.591,2.128,2.128,0,0,1,.462-.4l.374-.236v-.034a1.365,1.365,0,0,1-.541-1.167,1.215,1.215,0,0,1,.131-.575,1.547,1.547,0,0,1,.3-.4,1.785,1.785,0,0,1,.331-.252,1.938,1.938,0,0,1,.252-.131v-.034a2.365,2.365,0,0,1-1.037-.933,3.062,3.062,0,0,1-.392-1.629,3.125,3.125,0,0,1,.226-1.228,2.5,2.5,0,0,1,.61-.879,2.525,2.525,0,0,1,.9-.523,3.412,3.412,0,0,1,1.106-.174,2.976,2.976,0,0,1,1.115.208h2.542Zm-7.247.14a.948.948,0,0,0-.226-.086,1.659,1.659,0,0,0-.471-.054,1.444,1.444,0,0,0-1.037.358,2.107,2.107,0,0,0-.532.775v6.132h-1.411V73.816h1.289v1.133h.036a2.708,2.708,0,0,1,.226-.48,1.725,1.725,0,0,1,.349-.417,1.525,1.525,0,0,1,.5-.288,2.017,2.017,0,0,1,.689-.1,1.749,1.749,0,0,1,.478.052c.122.034.218.064.288.088Zm-8.2-.3a1.414,1.414,0,0,0-1.2.627,3.422,3.422,0,0,0-.523,1.812h3.049a1.968,1.968,0,0,0,.025-.252c.007-.111.009-.229.009-.358a2.277,2.277,0,0,0-.347-1.35,1.174,1.174,0,0,0-1.012-.478m2.648,1.882c0,.36-.011.67-.034.931s-.047.491-.07.689h-4.268a3.719,3.719,0,0,0,.636,2.177,1.98,1.98,0,0,0,1.629.7,2.318,2.318,0,0,0,.662-.088,2.4,2.4,0,0,0,.879-.453c.1-.081.172-.145.218-.192l.523.994c-.059.059-.145.143-.261.252a2.375,2.375,0,0,1-.471.331,3.392,3.392,0,0,1-.732.288,3.861,3.861,0,0,1-1.028.122,3.714,3.714,0,0,1-1.42-.261,2.679,2.679,0,0,1-1.08-.811,3.872,3.872,0,0,1-.687-1.393,7.378,7.378,0,0,1-.245-2.03,6.507,6.507,0,0,1,.252-1.925,3.83,3.83,0,0,1,.689-1.332,2.735,2.735,0,0,1,1.01-.775,3.04,3.04,0,0,1,1.237-.252,2.4,2.4,0,0,1,1.882.757,3.312,3.312,0,0,1,.679,2.274M108.7,82.179V76.8a2.526,2.526,0,0,0-.358-1.524,1.288,1.288,0,0,0-1.089-.462,1.694,1.694,0,0,0-1.046.313,3.785,3.785,0,0,0-.661.61v6.445h-1.413V73.816h1.289v.942h.036a1.746,1.746,0,0,1,.226-.306,2.252,2.252,0,0,1,.453-.383,3.215,3.215,0,0,1,.662-.322,2.539,2.539,0,0,1,.872-.138,2.914,2.914,0,0,1,1.01.165,1.821,1.821,0,0,1,.766.532,2.565,2.565,0,0,1,.489.949,5.083,5.083,0,0,1,.174,1.438v5.487ZM101.973,71.36H97.687v4.146h3.937v1.2H97.687v4.214h4.721l-.088,1.255H96.172V70.159h5.9ZM87.043,81.133a1.847,1.847,0,0,0,1.046-.3,2,2,0,0,0,.322-.27,2.1,2.1,0,0,0,.2-.243V75.159a2.016,2.016,0,0,0-.446-.209,1.943,1.943,0,0,0-.636-.088,2.5,2.5,0,0,0-.915.166,1.765,1.765,0,0,0-.739.548,2.838,2.838,0,0,0-.5.994,5.218,5.218,0,0,0-.184,1.5,6.032,6.032,0,0,0,.149,1.454,2.691,2.691,0,0,0,.41.94,1.583,1.583,0,0,0,.593.516,1.615,1.615,0,0,0,.7.156m-3.31-3.013a5.918,5.918,0,0,1,.331-2.125,3.909,3.909,0,0,1,.854-1.377,2.964,2.964,0,0,1,1.183-.741,4.224,4.224,0,0,1,1.325-.217,3.45,3.45,0,0,1,.7.061,2.353,2.353,0,0,1,.489.147v-4l1.411-.158V82.179H88.733v-.888H88.7a1.907,1.907,0,0,1-.192.286,2,2,0,0,1-.383.367,2.332,2.332,0,0,1-.609.313,2.579,2.579,0,0,1-.854.131,2.735,2.735,0,0,1-1.124-.236,2.412,2.412,0,0,1-.931-.748,3.888,3.888,0,0,1-.637-1.325,7.129,7.129,0,0,1-.235-1.959M80.6,82.179V76.8a2.526,2.526,0,0,0-.358-1.524,1.291,1.291,0,0,0-1.089-.462,1.691,1.691,0,0,0-1.046.313,3.8,3.8,0,0,0-.662.61v6.445H76.033V73.816h1.289v.942h.036a1.655,1.655,0,0,1,.226-.306,2.2,2.2,0,0,1,.453-.383,3.215,3.215,0,0,1,.662-.322,2.536,2.536,0,0,1,.87-.138,2.917,2.917,0,0,1,1.012.165,1.821,1.821,0,0,1,.766.532,2.537,2.537,0,0,1,.487.949,5.077,5.077,0,0,1,.175,1.438v5.487Zm-6.724,0H72.585v-.942h-.036a1.746,1.746,0,0,1-.226.306,2.3,2.3,0,0,1-.446.383,2.987,2.987,0,0,1-.652.322,2.484,2.484,0,0,1-.854.14,2.844,2.844,0,0,1-1-.167,1.805,1.805,0,0,1-.757-.532,2.478,2.478,0,0,1-.48-.949,5.39,5.39,0,0,1-.165-1.438V73.816h1.411V79.2a2.494,2.494,0,0,0,.34,1.49,1.244,1.244,0,0,0,1.054.444,1.7,1.7,0,0,0,1.028-.3,3.635,3.635,0,0,0,.661-.6V73.816h1.413ZM152.8,57.4h-1.828v4.635a2.274,2.274,0,0,0,.226,1.21.87.87,0,0,0,.766.322,1.482,1.482,0,0,0,.541-.088,1.777,1.777,0,0,0,.331-.156l.192,1.131a2.364,2.364,0,0,1-.419.218,2.21,2.21,0,0,1-.888.147,2.066,2.066,0,0,1-1.62-.6,2.96,2.96,0,0,1-.541-1.994V57.4h-1.01v-.94l1.01-.209.158-2.335h1.255V56.25h2Zm-4.964,0h-1.706v7.213h-1.413V57.4h-1.01v-.94l1.01-.192V54.6a3.2,3.2,0,0,1,.192-1.167,2.324,2.324,0,0,1,.507-.8,1.84,1.84,0,0,1,.73-.453,2.79,2.79,0,0,1,.89-.14,2.143,2.143,0,0,1,.766.122,2.851,2.851,0,0,1,.417.192l-.3,1.167a1.693,1.693,0,0,0-.3-.147,1.213,1.213,0,0,0-.469-.079.938.938,0,0,0-.766.313,1.849,1.849,0,0,0-.261,1.149v1.5h1.88Zm-8.431,6.22a1.435,1.435,0,0,0,.523-.088,1.638,1.638,0,0,0,.39-.208,1.387,1.387,0,0,0,.279-.27c.075-.1.143-.183.2-.252V60.953l-.453.018a3.236,3.236,0,0,0-1.533.349,1.086,1.086,0,0,0-.523,1.01,1.388,1.388,0,0,0,.3.967,1.06,1.06,0,0,0,.82.322m-2.526-1.131a2.449,2.449,0,0,1,.277-1.221,2.285,2.285,0,0,1,.75-.791,3.189,3.189,0,0,1,1.106-.437,6.772,6.772,0,0,1,1.35-.131h.435v-.8a2.165,2.165,0,0,0-.374-1.463,1.37,1.37,0,0,0-1.054-.4,1.9,1.9,0,0,0-1.046.269,6.268,6.268,0,0,0-.661.48l-.593-.94a4.1,4.1,0,0,1,.356-.313,2.923,2.923,0,0,1,.532-.331,3.572,3.572,0,0,1,1.62-.367,2.533,2.533,0,0,1,1.951.714,3.323,3.323,0,0,1,.661,2.3V62.87c0,.36.013.711.036,1.053a6.561,6.561,0,0,0,.07.689H140.96l-.054-.924h-.034a2.211,2.211,0,0,1-.209.356,1.763,1.763,0,0,1-.347.367,2.1,2.1,0,0,1-.507.286,1.8,1.8,0,0,1-.7.122,2.213,2.213,0,0,1-.879-.174,2.158,2.158,0,0,1-1.185-1.228,2.576,2.576,0,0,1-.165-.931m-3.031,2.125V59.229a2.518,2.518,0,0,0-.358-1.524,1.291,1.291,0,0,0-1.089-.462,1.691,1.691,0,0,0-1.046.313,3.87,3.87,0,0,0-.662.609v6.447h-1.411V52.295l1.411-.156V57.1h.036a3.013,3.013,0,0,1,.218-.279,1.909,1.909,0,0,1,.408-.347,2.84,2.84,0,0,1,.636-.306,2.716,2.716,0,0,1,.881-.131,2.231,2.231,0,0,1,1.742.714,3.506,3.506,0,0,1,.645,2.37v5.487Zm-6.638-6.742c-.034-.034-.09-.088-.165-.158a1.855,1.855,0,0,0-.288-.208,2.065,2.065,0,0,0-.417-.184,1.84,1.84,0,0,0-.559-.077,2.175,2.175,0,0,0-.845.165,1.72,1.72,0,0,0-.679.532,2.738,2.738,0,0,0-.453.949,5.251,5.251,0,0,0-.165,1.42,6.889,6.889,0,0,0,.147,1.55,2.937,2.937,0,0,0,.41,1,1.52,1.52,0,0,0,.636.539,2.02,2.02,0,0,0,.827.166,1.764,1.764,0,0,0,.985-.227,3.3,3.3,0,0,0,.48-.365l.575.976a2.759,2.759,0,0,1-.252.252,2.19,2.19,0,0,1-.428.288,2.855,2.855,0,0,1-.636.235,3.467,3.467,0,0,1-.863.095,3.731,3.731,0,0,1-1.305-.226,2.594,2.594,0,0,1-1.063-.748,3.754,3.754,0,0,1-.714-1.359,7.071,7.071,0,0,1-.261-2.073,5.869,5.869,0,0,1,.313-2.039,3.781,3.781,0,0,1,.82-1.35,3.121,3.121,0,0,1,1.123-.748,3.47,3.47,0,0,1,1.246-.236,3.552,3.552,0,0,1,.827.088,2.685,2.685,0,0,1,.611.218,1.939,1.939,0,0,1,.417.277c.111.1.2.183.27.252Zm-7.142.07a3.667,3.667,0,0,0-.5-.428,1.587,1.587,0,0,0-.96-.269,1.242,1.242,0,0,0-.852.261.8.8,0,0,0-.3.627,1.133,1.133,0,0,0,.27.775,3.856,3.856,0,0,0,.827.653l.523.313a5.115,5.115,0,0,1,1.341,1.089,2.462,2.462,0,0,1-.2,3.18,2.7,2.7,0,0,1-1.978.679,3.388,3.388,0,0,1-.888-.1,3.874,3.874,0,0,1-.671-.243,2.221,2.221,0,0,1-.478-.3,3.265,3.265,0,0,1-.315-.306l.68-1.114c.07.068.154.15.252.243a2.306,2.306,0,0,0,.358.27,2.175,2.175,0,0,0,.469.217,1.909,1.909,0,0,0,.61.088,1.448,1.448,0,0,0,.958-.279.858.858,0,0,0,.331-.679,1.52,1.52,0,0,0-.079-.514,1.185,1.185,0,0,0-.235-.392,2.21,2.21,0,0,0-.383-.331c-.152-.106-.326-.22-.523-.349l-.523-.331a5.045,5.045,0,0,1-1.228-1.062,2.218,2.218,0,0,1-.444-1.429,1.987,1.987,0,0,1,.7-1.541,2.484,2.484,0,0,1,.775-.453,2.678,2.678,0,0,1,.949-.166,3.147,3.147,0,0,1,.836.1,2.523,2.523,0,0,1,.6.243,2.647,2.647,0,0,1,.419.3c.109.1.2.184.269.254Zm-5.21-.541h-1.828v4.635a2.274,2.274,0,0,0,.226,1.21.87.87,0,0,0,.766.322,1.482,1.482,0,0,0,.541-.088,1.777,1.777,0,0,0,.331-.156l.192,1.131a2.364,2.364,0,0,1-.419.218,2.21,2.21,0,0,1-.888.147,2.066,2.066,0,0,1-1.62-.6,2.961,2.961,0,0,1-.539-1.994V57.4h-1.012v-.94l1.012-.209.156-2.335h1.255V56.25h2Zm-4.965.088a1.011,1.011,0,0,0-.226-.088,1.737,1.737,0,0,0-.471-.052,1.439,1.439,0,0,0-1.037.358,2.107,2.107,0,0,0-.532.775v6.132h-1.411V56.25h1.289v1.133h.036a2.649,2.649,0,0,1,.226-.48,1.7,1.7,0,0,1,.349-.419,1.554,1.554,0,0,1,.5-.286,2.011,2.011,0,0,1,.687-.106,1.746,1.746,0,0,1,.48.054c.122.034.218.063.286.086Zm-6.533-3.258a.913.913,0,0,1-.7-.277,1.03,1.03,0,0,1-.261-.732,1.006,1.006,0,0,1,.261-.714.908.908,0,0,1,.7-.279.891.891,0,0,1,.68.279,1.006,1.006,0,0,1,.261.714,1.03,1.03,0,0,1-.261.732.9.9,0,0,1-.68.277m.7,10.384h-1.411V56.25h1.411Zm-2.716-12.02-2.927,12.02H97.06l-1.83-7.56q-.191-.784-.331-1.464a7.1,7.1,0,0,1-.156-1.08h-.036a5.44,5.44,0,0,1-.14,1.063q-.14.661-.329,1.445l-1.866,7.6H91.014l-2.856-12.02h1.62l1.5,7.315c.116.559.218,1.083.306,1.577a9.457,9.457,0,0,1,.147,1.14h.036a7.419,7.419,0,0,1,.183-1.167q.167-.765.356-1.584l1.778-7.281h1.447l1.742,7.315c.127.559.243,1.083.347,1.577a7.549,7.549,0,0,1,.175,1.14h.034a9.4,9.4,0,0,1,.158-1.174c.091-.517.2-1.054.313-1.611l1.515-7.247ZM84.621,57.487A1.011,1.011,0,0,0,84.4,57.4a1.737,1.737,0,0,0-.471-.052,1.444,1.444,0,0,0-1.037.358,2.107,2.107,0,0,0-.532.775v6.132H80.946V56.25h1.289v1.133h.036a2.649,2.649,0,0,1,.226-.48,1.7,1.7,0,0,1,.349-.419,1.554,1.554,0,0,1,.5-.286,2.011,2.011,0,0,1,.687-.106,1.746,1.746,0,0,1,.48.054c.122.034.218.063.288.086ZM78,53.845a.869.869,0,0,1-.245.644.836.836,0,0,1-1.183,0,.975.975,0,0,1,0-1.289.841.841,0,0,1,1.183,0,.872.872,0,0,1,.245.645m-2.684,0a.868.868,0,0,1-.243.644.838.838,0,0,1-1.185,0,.975.975,0,0,1,0-1.289.843.843,0,0,1,1.185,0,.871.871,0,0,1,.243.645m3.468,10.767H77.5v-.942h-.036a1.685,1.685,0,0,1-.226.3,2.3,2.3,0,0,1-.446.385,2.986,2.986,0,0,1-.652.322,2.484,2.484,0,0,1-.854.138,2.845,2.845,0,0,1-1-.165,1.838,1.838,0,0,1-.757-.532,2.478,2.478,0,0,1-.48-.949,5.392,5.392,0,0,1-.165-1.438V56.25h1.411v5.383a2.5,2.5,0,0,0,.34,1.49,1.244,1.244,0,0,0,1.054.444,1.7,1.7,0,0,0,1.028-.3,3.634,3.634,0,0,0,.661-.6V56.25h1.413ZM71.539,57.4H69.831v7.213H68.421V57.4h-1.01v-.94l1.01-.192V54.6a3.2,3.2,0,0,1,.192-1.167,2.294,2.294,0,0,1,.5-.8,1.847,1.847,0,0,1,.732-.453,2.787,2.787,0,0,1,.888-.14,2.136,2.136,0,0,1,.766.122,2.806,2.806,0,0,1,.419.192l-.3,1.167a1.731,1.731,0,0,0-.3-.147,1.216,1.216,0,0,0-.471-.079.938.938,0,0,0-.766.313,1.861,1.861,0,0,0-.261,1.149v1.5h1.882ZM181.271,47.044V41.662a2.784,2.784,0,0,0-.3-1.481,1.056,1.056,0,0,0-.958-.453,2.035,2.035,0,0,0-.618.086,2.153,2.153,0,0,0-.48.218,2,2,0,0,0-.365.288c-.1.1-.192.2-.261.277v6.445h-1.411V38.683h1.289v.94h.034a2.829,2.829,0,0,1,.261-.338,2.4,2.4,0,0,1,.437-.385,2.512,2.512,0,0,1,.609-.3,2.387,2.387,0,0,1,.784-.122,2.1,2.1,0,0,1,2.021,1.115,2.472,2.472,0,0,1,.331-.374,2.606,2.606,0,0,1,.487-.367,2.888,2.888,0,0,1,.627-.27,2.729,2.729,0,0,1,.768-.1q2.543,0,2.542,2.961v5.609H185.66V41.662a2.367,2.367,0,0,0-.365-1.481,1.309,1.309,0,0,0-1.081-.453,1.618,1.618,0,0,0-.983.286,3.7,3.7,0,0,0-.619.55,3.839,3.839,0,0,1,.052.408c.013.145.018.3.018.462v5.609Zm-6.551,0h-1.289V46.1H173.4a1.718,1.718,0,0,1-.227.3,2.226,2.226,0,0,1-.444.383,2.963,2.963,0,0,1-.653.322,2.47,2.47,0,0,1-.854.14,2.876,2.876,0,0,1-1-.165,1.827,1.827,0,0,1-.757-.532,2.478,2.478,0,0,1-.48-.949,5.327,5.327,0,0,1-.165-1.438V38.683h1.411v5.383a2.5,2.5,0,0,0,.34,1.49,1.24,1.24,0,0,0,1.053.444,1.689,1.689,0,0,0,1.028-.306,3.585,3.585,0,0,0,.662-.6V38.683h1.411Zm-8.71-10.382a.908.908,0,0,1-.7-.279,1.025,1.025,0,0,1-.261-.73,1.006,1.006,0,0,1,.261-.714.908.908,0,0,1,.7-.279.891.891,0,0,1,.68.279,1,1,0,0,1,.26.714,1.024,1.024,0,0,1-.26.73.891.891,0,0,1-.68.279m.7,10.382H165.3V38.682h1.411Zm-2.8-7.124a.986.986,0,0,0-.227-.088,1.728,1.728,0,0,0-.471-.052,1.444,1.444,0,0,0-1.037.356,2.094,2.094,0,0,0-.53.775v6.132h-1.411V38.683h1.289v1.131h.034a2.644,2.644,0,0,1,.227-.478,1.655,1.655,0,0,1,.347-.419,1.554,1.554,0,0,1,.5-.286,2.029,2.029,0,0,1,.689-.106,1.824,1.824,0,0,1,.478.052c.124.036.218.064.288.088Zm-8.2-.3a1.414,1.414,0,0,0-1.2.628,3.428,3.428,0,0,0-.523,1.812h3.049a1.972,1.972,0,0,0,.027-.254c.005-.109.009-.229.009-.356a2.26,2.26,0,0,0-.349-1.35,1.17,1.17,0,0,0-1.01-.48m2.648,1.882c0,.36-.013.671-.036.933s-.047.491-.07.687h-4.268a3.727,3.727,0,0,0,.636,2.177,1.978,1.978,0,0,0,1.629.7,2.373,2.373,0,0,0,.662-.088,2.478,2.478,0,0,0,.879-.453,2.79,2.79,0,0,0,.218-.192l.523.994c-.059.057-.145.141-.261.252a2.4,2.4,0,0,1-.471.331,3.376,3.376,0,0,1-.73.286,3.884,3.884,0,0,1-1.029.122,3.687,3.687,0,0,1-1.42-.261,2.7,2.7,0,0,1-1.08-.809,3.941,3.941,0,0,1-.687-1.395,7.36,7.36,0,0,1-.243-2.028,6.5,6.5,0,0,1,.252-1.925,3.854,3.854,0,0,1,.687-1.334,2.755,2.755,0,0,1,1.01-.775,3.046,3.046,0,0,1,1.237-.252,2.4,2.4,0,0,1,1.882.757,3.315,3.315,0,0,1,.68,2.274M151.5,39.833h-1.83v4.633a2.277,2.277,0,0,0,.226,1.212.872.872,0,0,0,.766.322,1.52,1.52,0,0,0,.541-.088,1.88,1.88,0,0,0,.331-.158l.192,1.133a2.453,2.453,0,0,1-.417.218,2.225,2.225,0,0,1-.89.147,2.067,2.067,0,0,1-1.62-.6,2.957,2.957,0,0,1-.539-1.994V39.833h-1.012v-.94l1.012-.209.156-2.335h1.255v2.335h2Zm-6.064.541a3.542,3.542,0,0,0-.5-.428,1.578,1.578,0,0,0-.958-.27,1.253,1.253,0,0,0-.854.261.814.814,0,0,0-.3.628,1.124,1.124,0,0,0,.27.775,3.82,3.82,0,0,0,.827.653l.523.313a5.145,5.145,0,0,1,1.341,1.089,2.465,2.465,0,0,1-.2,3.18,2.694,2.694,0,0,1-1.976.679,3.392,3.392,0,0,1-.89-.1,3.907,3.907,0,0,1-.67-.243,2.215,2.215,0,0,1-.48-.306,3.03,3.03,0,0,1-.313-.3l.68-1.115c.068.07.152.152.252.245a2.28,2.28,0,0,0,.356.269,2.234,2.234,0,0,0,.471.218,1.949,1.949,0,0,0,.609.088,1.454,1.454,0,0,0,.96-.279.857.857,0,0,0,.329-.68,1.529,1.529,0,0,0-.077-.514,1.19,1.19,0,0,0-.236-.392,2.148,2.148,0,0,0-.383-.329c-.15-.106-.324-.222-.523-.349l-.523-.331a5.079,5.079,0,0,1-1.228-1.062,2.229,2.229,0,0,1-.444-1.429,2.02,2.02,0,0,1,.183-.863,2.072,2.072,0,0,1,.514-.68,2.528,2.528,0,0,1,.777-.453,2.718,2.718,0,0,1,.949-.165,3.166,3.166,0,0,1,.836.1,2.48,2.48,0,0,1,.6.243,2.623,2.623,0,0,1,.417.3c.111.1.2.183.27.252Zm-6.463-3.711a.908.908,0,0,1-.7-.279,1.025,1.025,0,0,1-.261-.73,1.006,1.006,0,0,1,.261-.714.908.908,0,0,1,.7-.279.888.888,0,0,1,.68.279,1.006,1.006,0,0,1,.261.714,1.025,1.025,0,0,1-.261.73.888.888,0,0,1-.68.279m.7,10.382H138.26V38.682h1.411Zm-4.931,0V41.662a2.528,2.528,0,0,0-.358-1.525,1.288,1.288,0,0,0-1.089-.462,1.7,1.7,0,0,0-1.046.315,3.78,3.78,0,0,0-.661.609v6.445h-1.413V38.683h1.291v.94h.034a1.75,1.75,0,0,1,.226-.3,2.2,2.2,0,0,1,.453-.383,3.261,3.261,0,0,1,.662-.322,2.538,2.538,0,0,1,.872-.14,2.957,2.957,0,0,1,1.01.165,1.821,1.821,0,0,1,.766.532,2.573,2.573,0,0,1,.489.951,5.078,5.078,0,0,1,.174,1.436v5.487ZM127.32,36.662a.914.914,0,0,1-.7-.279,1.025,1.025,0,0,1-.261-.73,1.006,1.006,0,0,1,.261-.714.914.914,0,0,1,.7-.279.887.887,0,0,1,.679.279,1.006,1.006,0,0,1,.261.714,1.025,1.025,0,0,1-.261.73.887.887,0,0,1-.679.279m.7,10.382h-1.411V38.682h1.411Zm-9.32,0V41.662a2.8,2.8,0,0,0-.3-1.481,1.061,1.061,0,0,0-.96-.453,2.043,2.043,0,0,0-.618.086,2.191,2.191,0,0,0-.48.218,2.126,2.126,0,0,0-.365.288c-.1.1-.192.2-.261.277v6.445h-1.411V38.683H115.6v.94h.036a2.788,2.788,0,0,1,.26-.338,2.4,2.4,0,0,1,.437-.385,2.545,2.545,0,0,1,.609-.3,2.387,2.387,0,0,1,.784-.122,2.1,2.1,0,0,1,2.021,1.115,2.472,2.472,0,0,1,.331-.374,2.667,2.667,0,0,1,.487-.367,2.866,2.866,0,0,1,.628-.27,2.707,2.707,0,0,1,.766-.1q2.543,0,2.542,2.961v5.609h-1.411V41.662a2.367,2.367,0,0,0-.365-1.481,1.3,1.3,0,0,0-1.08-.453,1.62,1.62,0,0,0-.985.286,3.768,3.768,0,0,0-.619.55q.035.191.054.408t.016.462v5.609Zm-6.88-6.671a3.48,3.48,0,0,0-.507-.428,1.578,1.578,0,0,0-.958-.27,1.259,1.259,0,0,0-.854.261.814.814,0,0,0-.3.628,1.124,1.124,0,0,0,.27.775,3.82,3.82,0,0,0,.827.653l.523.313a5.115,5.115,0,0,1,1.341,1.089,2.46,2.46,0,0,1-.2,3.18,2.694,2.694,0,0,1-1.976.679,3.378,3.378,0,0,1-.888-.1,3.872,3.872,0,0,1-.671-.243,2.214,2.214,0,0,1-.48-.306,3.225,3.225,0,0,1-.313-.3l.68-1.115c.07.07.154.152.252.245a2.281,2.281,0,0,0,.356.269,2.234,2.234,0,0,0,.471.218A1.952,1.952,0,0,0,110,46a1.448,1.448,0,0,0,.958-.279.859.859,0,0,0,.331-.68,1.527,1.527,0,0,0-.079-.514,1.16,1.16,0,0,0-.236-.392,2.148,2.148,0,0,0-.383-.329c-.15-.106-.324-.222-.523-.349l-.521-.331a5.045,5.045,0,0,1-1.228-1.062,2.219,2.219,0,0,1-.446-1.429,2,2,0,0,1,.7-1.543,2.5,2.5,0,0,1,.775-.453,2.718,2.718,0,0,1,.949-.165,3.156,3.156,0,0,1,.836.1,2.451,2.451,0,0,1,.6.243,2.543,2.543,0,0,1,.417.3c.111.1.2.183.27.252Zm-8.137-.75a1.411,1.411,0,0,0-1.2.628,3.412,3.412,0,0,0-.523,1.812H105a2.362,2.362,0,0,0,.027-.254c.005-.109.007-.229.007-.356a2.26,2.26,0,0,0-.347-1.35,1.171,1.171,0,0,0-1.012-.48m2.648,1.882c0,.36-.011.671-.034.933s-.047.491-.07.687h-4.268a3.714,3.714,0,0,0,.636,2.177,1.976,1.976,0,0,0,1.629.7,2.373,2.373,0,0,0,.662-.088,2.478,2.478,0,0,0,.879-.453c.1-.081.172-.145.218-.192l.523.994c-.059.057-.145.141-.261.252a2.451,2.451,0,0,1-.471.331,3.358,3.358,0,0,1-.732.286,3.861,3.861,0,0,1-1.028.122,3.68,3.68,0,0,1-1.42-.261,2.687,2.687,0,0,1-1.08-.809,3.911,3.911,0,0,1-.687-1.395,7.355,7.355,0,0,1-.245-2.028,6.437,6.437,0,0,1,.254-1.925,3.854,3.854,0,0,1,.687-1.334,2.755,2.755,0,0,1,1.01-.775,3.046,3.046,0,0,1,1.237-.252,2.4,2.4,0,0,1,1.882.757,3.315,3.315,0,0,1,.679,2.274M95.823,46a1.892,1.892,0,0,0,.593-.088,1.868,1.868,0,0,0,.453-.218,2,2,0,0,0,.322-.269,1.933,1.933,0,0,0,.2-.245V40.024a2.22,2.22,0,0,0-.444-.209,2.008,2.008,0,0,0-.637-.086,2.483,2.483,0,0,0-.913.165,1.789,1.789,0,0,0-.741.55,2.813,2.813,0,0,0-.5.992,5.287,5.287,0,0,0-.183,1.5,6.067,6.067,0,0,0,.147,1.456,2.724,2.724,0,0,0,.41.94,1.575,1.575,0,0,0,.593.514,1.617,1.617,0,0,0,.7.158m-3.31-3.015a5.931,5.931,0,0,1,.331-2.125,3.909,3.909,0,0,1,.854-1.377,2.973,2.973,0,0,1,1.185-.739,4.215,4.215,0,0,1,1.323-.218,3.586,3.586,0,0,1,.7.061,2.422,2.422,0,0,1,.489.149V34.729l1.411-.158V47.044H97.513v-.888h-.036a1.9,1.9,0,0,1-.192.288,1.938,1.938,0,0,1-.383.365,2.279,2.279,0,0,1-.609.313,2.526,2.526,0,0,1-.854.131,2.763,2.763,0,0,1-1.124-.235,2.417,2.417,0,0,1-.931-.75,3.844,3.844,0,0,1-.636-1.323,7.077,7.077,0,0,1-.236-1.96m-3.135,4.059V41.662a2.528,2.528,0,0,0-.358-1.525,1.288,1.288,0,0,0-1.088-.462,1.7,1.7,0,0,0-1.046.315,3.867,3.867,0,0,0-.662.609v6.445H84.813V38.683H86.1v.94h.036a1.658,1.658,0,0,1,.226-.3,2.2,2.2,0,0,1,.453-.383,3.215,3.215,0,0,1,.662-.322,2.538,2.538,0,0,1,.872-.14,2.957,2.957,0,0,1,1.01.165,1.821,1.821,0,0,1,.766.532,2.573,2.573,0,0,1,.489.951,5.144,5.144,0,0,1,.174,1.436v5.487Zm-6.724,0H81.365V46.1h-.036a1.6,1.6,0,0,1-.226.3,2.277,2.277,0,0,1-.444.383,3.044,3.044,0,0,1-.653.322,2.484,2.484,0,0,1-.854.14,2.886,2.886,0,0,1-1-.165,1.838,1.838,0,0,1-.757-.532,2.452,2.452,0,0,1-.478-.949,5.321,5.321,0,0,1-.166-1.438V38.683h1.411v5.383a2.511,2.511,0,0,0,.34,1.49A1.246,1.246,0,0,0,79.553,46a1.693,1.693,0,0,0,1.028-.306,3.584,3.584,0,0,0,.662-.6V38.683h1.411Zm-9.338-3.36a1.96,1.96,0,0,0-.636-1.543,2.659,2.659,0,0,0-1.821-.566H69.831v4.216h.942a2.9,2.9,0,0,0,1.942-.532,2,2,0,0,0,.6-1.575m-.226-5.541a1.788,1.788,0,0,0-.593-1.377,2.711,2.711,0,0,0-1.864-.539h-.8v4.146h.784a2.6,2.6,0,0,0,1.846-.593,2.145,2.145,0,0,0,.628-1.638m1.532-.052a3.437,3.437,0,0,1-.158,1.1,2.575,2.575,0,0,1-.426.809,2.227,2.227,0,0,1-.627.55,3.042,3.042,0,0,1-.741.313V40.9a2.676,2.676,0,0,1,.881.329,2.811,2.811,0,0,1,.714.61,2.908,2.908,0,0,1,.487.863,3.128,3.128,0,0,1,.183,1.089,3.4,3.4,0,0,1-.243,1.307,2.678,2.678,0,0,1-.757,1.028,3.683,3.683,0,0,1-1.3.679,6.3,6.3,0,0,1-1.864.243H68.317V35.024h2.317a6.672,6.672,0,0,1,1.821.218,3.394,3.394,0,0,1,1.244.619,2.3,2.3,0,0,1,.705.965,3.507,3.507,0,0,1,.218,1.264" transform="translate(10.138 -3.128)" fill="#101010"/>
        <path id="Pfad_50" data-name="Pfad 50" d="M61.9,67.7h2.2V96.983H58.971V67.7Z" transform="translate(3.468 23.057)" fill="#f8c100"/>
        <path id="Pfad_51" data-name="Pfad 51" d="M61.9,51.269h2.2V80.694H58.971V51.269Z" transform="translate(3.468 10.068)" fill="#d11112"/>
        <path id="Pfad_52" data-name="Pfad 52" d="M55.55,46.359a8.476,8.476,0,0,0,.063-1.012c0-.188,0-.408-.021-.657,2.916-.041,5.475-2.143,5.475-4.56a4.367,4.367,0,0,0-1.255-2.712c.1-.021.206-.047.308-.072a4.895,4.895,0,0,1,1.64,3.36c0,2.9-2.9,5.593-6.209,5.652m-2.94-10.1a2,2,0,0,0-.365-.868c.009-.3.131-.578.607-.346-.258.263-.059.73-.059.73s.528-.245.419-.593c.781.188.22,1.237-.6,1.076m-.679,1.488a3.06,3.06,0,0,0-.609-1.214,1.694,1.694,0,0,0-1.257-.664,3.082,3.082,0,0,0-.981.24,2.639,2.639,0,0,1-.308-.854c0-.213.358-.428,1.046-.428,1.509,0,2.413.684,2.413,1.828a2.7,2.7,0,0,1-.3,1.092m3.88,19.471a.9.9,0,0,1,.363.066A20.805,20.805,0,0,0,58.356,60.8l.016.02.023-.005a16.294,16.294,0,0,1,2.34-.226h.02a.382.382,0,0,1,.274.068.426.426,0,0,1,.084.3,1.679,1.679,0,0,1-.2.752,2.055,2.055,0,0,0-1.6-.487,2.841,2.841,0,0,0-.679.113l-.063.014-.073.018.462.462c.711.711,1.327,1.323,1.327,1.733a1.035,1.035,0,0,1-.46.709,3.91,3.91,0,0,0-1.54-2.311l-.063-.047-.013.263c-.011.179-.027.448-.027.734,0,1.425-.143,1.64-.637,1.64a.9.9,0,0,1-.265-.048,2.374,2.374,0,0,0,.388-1.593l0-.367,0-.3a5.426,5.426,0,0,1,.059-.761l.014-.111-.077-.009a7.62,7.62,0,0,0-.988-.093,2.093,2.093,0,0,0-1.527.39,1.21,1.21,0,0,1-.462-.7c0-.3.184-.32.426-.32a2.888,2.888,0,0,1,.4.038,10.563,10.563,0,0,0,1.7.111h.057l-.018-.057A11.416,11.416,0,0,0,55.3,57.781c.095-.34.186-.562.516-.562m-9.039,3.505-.018.057h.057a10.563,10.563,0,0,0,1.7-.111,2.914,2.914,0,0,1,.4-.038c.242,0,.428.021.428.32a1.21,1.21,0,0,1-.462.7,2.093,2.093,0,0,0-1.527-.39,7.558,7.558,0,0,0-.988.093l-.038,0-.041.005.014.111a5.126,5.126,0,0,1,.061.761l0,.3,0,.367a2.385,2.385,0,0,0,.387,1.593.887.887,0,0,1-.263.048c-.494,0-.639-.215-.639-1.64,0-.286-.014-.555-.025-.734l-.014-.265-.063.048a3.9,3.9,0,0,0-1.536,2.311,1.032,1.032,0,0,1-.462-.709c0-.41.614-1.022,1.325-1.733l.41-.41.052-.052-.134-.032a2.856,2.856,0,0,0-.679-.113A2.06,2.06,0,0,0,43.1,61.7a1.7,1.7,0,0,1-.2-.752.418.418,0,0,1,.084-.3.377.377,0,0,1,.272-.068h.02a16.266,16.266,0,0,1,2.34.226l.025.005.016-.02a20.8,20.8,0,0,0,2.181-3.511.891.891,0,0,1,.362-.066c.331,0,.423.222.517.562a11.436,11.436,0,0,0-1.939,2.943M42.246,40.707a4.9,4.9,0,0,1,1.642-3.36c.1.025.2.05.306.072a4.367,4.367,0,0,0-1.255,2.712c0,2.442,2.61,4.562,5.562,4.562-.018.209-.029.43-.029.655a8.953,8.953,0,0,0,.056,1.012c-3.341-.02-6.282-2.73-6.282-5.652M64.654,45.85c1.5,2.37,2.671,2.331,4.444,2.331a12.646,12.646,0,0,1-2.9-3.3L63.462,40.5a6.479,6.479,0,0,0-2.014-3.559,3.551,3.551,0,0,0,.822-.408c-1.787,0-3.559-.908-4.533-.908a.918.918,0,0,0-1.031.87c.041.551.609,1.114,1.658,1.114a5.8,5.8,0,0,0,.875-.086,4.158,4.158,0,0,1,1.026,2.528c0,1.917-2.292,3.412-4.606,3.412-.131,0-.256,0-.387-.014a5.193,5.193,0,0,1-.906-2.181c0-1.524.994-2.77.994-4.279a2.826,2.826,0,0,0-.634-1.76,2.672,2.672,0,0,0,.668-.809,1.675,1.675,0,0,1-.648.081c-1.108,0-2.012-.29-2.895-.29-.5,0-.637.156-.637.3a.342.342,0,0,0,.021.136,3.068,3.068,0,0,0-.573-.161,4.59,4.59,0,0,0-.838-.073c-1.072,0-1.454.449-1.454.834a3.277,3.277,0,0,0,.548,1.373,3.284,3.284,0,0,1,1.149-.353c.568,0,1.074.542,1.343,1.183a5.114,5.114,0,0,1-.843.063,6.411,6.411,0,0,1-1.9-.374c-.014,0-.041.007-.041.03,0,.147.3.534.879.747a11.451,11.451,0,0,0,2.111.43.917.917,0,0,1-.414.467.243.243,0,0,1-.134.005,9.547,9.547,0,0,1-2.045-.614c-.032-.011-.05.009-.05.041,0,.4,1.042,1.291,1.976,1.631a10.447,10.447,0,0,0-2.215,3.568c-.129.011-.254.014-.387.014-2.313,0-4.606-1.495-4.606-3.412a4.16,4.16,0,0,1,1.028-2.528,5.783,5.783,0,0,0,.874.086c1.049,0,1.618-.562,1.66-1.114a.918.918,0,0,0-1.031-.87c-.976,0-2.745.908-4.535.908a3.589,3.589,0,0,0,.822.408A6.479,6.479,0,0,0,40.544,40.5l-2.737,4.379a12.625,12.625,0,0,1-2.9,3.3c1.772,0,2.947.039,4.445-2.331l1.4-2.247a6.04,6.04,0,0,0,.381.854l-2.791,4.467a12.652,12.652,0,0,1-2.9,3.3c1.771,0,2.945.041,4.444-2.327l2.4-3.847c.179.192.369.38.568.559l-3.391,5.428a12.554,12.554,0,0,1-2.9,3.294c1.772,0,2.947.043,4.444-2.327L44.325,47.7c.217.138.44.272.671.4L40.961,54.56a12.553,12.553,0,0,1-2.9,3.292c1.772,0,2.947.043,4.445-2.327l4.153-6.649c.247.093.5.184.75.265l-4.7,7.514a12.655,12.655,0,0,1-2.9,3.294c1.771,0,2.945.039,4.444-2.327l5-8.008c.05.009.1.016.15.027a4.1,4.1,0,0,1,.233,1.239c0,2.517-1.652,4.739-3.634,6.456a1.586,1.586,0,0,0,.553.073,5.143,5.143,0,0,0,.858-.054,20.306,20.306,0,0,1-1.944,3.088,14.543,14.543,0,0,0-2.211-.208c-.646,0-.72.378-.72.716a1.694,1.694,0,0,0,.6,1.314c.118-.3.36-.7,1.556-.7.023,0,.064,0,.12.007-.349.39-1.443,1.273-1.443,1.985a1.306,1.306,0,0,0,1.2,1.178,1.5,1.5,0,0,1-.034-.4,3.067,3.067,0,0,1,.942-1.722,2.143,2.143,0,0,0-.007.29c0,1.362.124,1.989.99,1.989a1.386,1.386,0,0,0,.818-.3A1.856,1.856,0,0,1,46.7,62.9c0-.2,0-.394,0-.662a3.377,3.377,0,0,0-.029-.573,3.938,3.938,0,0,1,.673-.043s1.23-.1,1.525.542c.335-.306.818-.739.818-1.214,0-.315-.149-.671-.782-.671-.24,0-.994.147-1.624.147a15.818,15.818,0,0,1,1.577-2.281,1.812,1.812,0,0,0,.6.92,6.471,6.471,0,0,1,1.155-3.1,15.22,15.22,0,0,1,.22,2.7c0,3.385-.815,5.888-2.544,6.365a1.482,1.482,0,0,0,1.2.745c.63,0,.976-.716,1.327-1.391.184.5.689,1.719,1.194,1.719s1.013-1.221,1.2-1.719c.351.675.7,1.391,1.328,1.391a1.477,1.477,0,0,0,1.194-.745c-1.728-.476-2.544-2.979-2.544-6.365a15.218,15.218,0,0,1,.22-2.7,6.471,6.471,0,0,1,1.155,3.1,1.828,1.828,0,0,0,.6-.92,15.969,15.969,0,0,1,1.577,2.281c-.632,0-1.386-.147-1.626-.147-.632,0-.782.356-.782.671,0,.474.485.908.82,1.214.3-.639,1.525-.542,1.525-.542a3.949,3.949,0,0,1,.673.043,3.789,3.789,0,0,0-.03.573c0,.269,0,.464.005.662a1.856,1.856,0,0,1-.591,1.688,1.381,1.381,0,0,0,.818.3c.865,0,.988-.627.988-1.989a2.511,2.511,0,0,0-.005-.29,3.067,3.067,0,0,1,.942,1.722,1.435,1.435,0,0,1-.036.4,1.306,1.306,0,0,0,1.2-1.178c0-.713-1.094-1.6-1.445-1.985.057,0,.1-.007.122-.007,1.2,0,1.436.4,1.556.7a1.693,1.693,0,0,0,.594-1.314c0-.338-.072-.716-.72-.716a14.586,14.586,0,0,0-2.211.208,20.448,20.448,0,0,1-1.944-3.088,5.184,5.184,0,0,0,.859.054,1.581,1.581,0,0,0,.551-.073c-1.982-1.717-3.633-3.939-3.633-6.456a4.15,4.15,0,0,1,.231-1.239c.05-.011.1-.018.152-.027l5,8.008c1.5,2.367,2.673,2.327,4.444,2.327a12.606,12.606,0,0,1-2.895-3.294l-4.7-7.514c.254-.081.5-.172.75-.265L61.5,55.525c1.5,2.37,2.671,2.327,4.444,2.327a12.573,12.573,0,0,1-2.9-3.292L59.011,48.1c.229-.125.453-.26.67-.4L62.987,53c1.5,2.37,2.673,2.327,4.444,2.327a12.574,12.574,0,0,1-2.9-3.294L61.143,46.6c.2-.179.389-.367.568-.559l2.4,3.847c1.5,2.369,2.671,2.327,4.444,2.327a12.618,12.618,0,0,1-2.9-3.3l-2.791-4.467a6.249,6.249,0,0,0,.381-.854Z" transform="translate(-15.549 -3.409)" fill="#101010"/>
        <path id="Pfad_53" data-name="Pfad 53" d="M64.095,35V64.274H58.971V35Z" transform="translate(3.467 -2.791)" fill="#101010"/>
      </g>
    </g>
  </g>
</svg>
