<?xml version="1.0" encoding="UTF-8"?><svg id="Ebene_1" xmlns="http://www.w3.org/2000/svg" width="545" height="455" xmlns:xlink="http://www.w3.org/1999/xlink" viewBox="0 0 545 455"><defs><style>.cls-1,.cls-2{fill:#fff;}.cls-3{fill:#1f96b7;}.cls-2,.cls-4{fill-rule:evenodd;}.cls-5{clip-path:url(#clippath-2);}.cls-6{isolation:isolate;}.cls-7{fill:#3e3e3e;}.cls-8{fill:#55b8cc;}.cls-9{fill:#b3d600;}.cls-10{fill:#d11112;}.cls-11{fill:#e30613;}.cls-12{clip-path:url(#clippath-1);}.cls-13{fill:#0094b3;}.cls-14{fill:#101010;}.cls-15{fill:#505050;}.cls-4{fill:#84567e;}.cls-16{clip-path:url(#clippath);}.cls-17{fill:none;}.cls-18{fill:#f8c100;}.cls-19{fill:#1a1a1a;}.cls-20{fill:#f8d200;}.cls-21{fill:url(#Unbenannter_Verlauf_3);}.cls-22{fill:#63295c;}.cls-23{fill:#9fa0a0;}</style><clipPath id="clippath"><rect class="cls-17" x="212.88" y="160.98" width="233.24" height="52.03"/></clipPath><clipPath id="clippath-1"><rect class="cls-17" x="185.39" y="237.28" width="248.89" height="153.93"/></clipPath><clipPath id="clippath-2"><path class="cls-17" d="m99.99,202.06c5.02,15.12,29.81,61.78,29.81,61.78l15.71-10.54-38.26-84.06s-12.28,17.7-7.27,32.82"/></clipPath><linearGradient id="Unbenannter_Verlauf_3" x1="117.22" y1="524.74" x2="118.65" y2="524.74" gradientTransform="translate(-15593.34 -3289.2) rotate(90) scale(29.95 -29.95)" gradientUnits="userSpaceOnUse"><stop offset="0" stop-color="#84567e"/><stop offset="1" stop-color="#63295c"/></linearGradient></defs><path class="cls-3" d="m0,0h545v455H0V0Z"/><path class="cls-7" d="m485,455V85c0-18.23-14.77-33-33-33h-252c-18.23,0-33,14.77-33,33v370h318Z"/><path class="cls-1" d="m474,455V117c0-13.25-10.75-24-24-24h-248c-13.25,0-24,10.75-24,24v338h296Z"/><circle class="cls-15" cx="316.5" cy="72.5" r="5.5"/><circle class="cls-19" cx="334.5" cy="72.5" r="7.5"/><rect class="cls-7" x="481" y="195" width="9" height="122" rx="4" ry="4"/><rect class="cls-7" x="162" y="237" width="9" height="39" rx="4" ry="4"/><g class="cls-16"><path class="cls-23" d="m227.43,205.29c3.73,0,6.88-1.58,6.88-5.92v-1.43c0-.43.04-.86.09-1.29h-.09c-1.43,2.15-3.53,3.3-6.78,3.3-6.97,0-10.94-5.64-10.94-12.33s3.77-12.13,10.8-12.13c5.3,0,7.21,3.11,7.21,3.11h.14c-.03-.22-.05-.45-.05-.67v-1.86h5.68v22.88c0,8.36-6.5,11.51-12.85,11.51-3.01-.02-5.97-.74-8.65-2.1l1.81-4.63c2.11,1,4.4,1.54,6.74,1.58m7.02-17.63c0-5.54-2.72-7.02-6.02-7.02-3.68,0-5.73,2.67-5.73,6.78s2.2,7.4,6.11,7.4c2.91,0,5.64-1.67,5.64-7.17"/><path class="cls-23" d="m258.62,175.49c7.45,0,13.42,5.3,13.42,12.75s-5.97,12.76-13.38,12.76-13.42-5.26-13.42-12.76,5.97-12.75,13.37-12.75m.05,20.35c4-.01,7.23-3.26,7.22-7.26,0-.11,0-.23,0-.34.2-4-2.88-7.4-6.87-7.6-4-.2-7.4,2.88-7.6,6.87-.01.24-.01.48,0,.72-.19,4,2.89,7.4,6.89,7.59.12,0,.24,0,.37,0"/><path class="cls-23" d="m277.29,184.13h14.38v5.3h-14.38v-5.3Z"/><path class="cls-14" d="m308.1,175.49c5.35,0,7.02,3.1,7.02,3.1h.1s-.05-.62-.05-1.39v-10.7h6.07v33.92h-5.73v-2.01c0-.53.03-1.05.1-1.58h-.1c-1.59,2.69-4.52,4.29-7.64,4.15-6.59,0-10.8-5.21-10.8-12.75s4.59-12.75,11.03-12.75m1.15,20.4c3.15,0,6.11-2.29,6.11-7.69,0-3.77-2.01-7.5-6.07-7.5-3.34,0-6.11,2.72-6.11,7.55s2.48,7.64,6.07,7.64"/><path class="cls-14" d="m349.9,205.29c3.73,0,6.88-1.58,6.88-5.92v-1.43c0-.43.04-.86.1-1.29h-.1c-1.43,2.15-3.53,3.3-6.78,3.3-6.97,0-10.94-5.64-10.94-12.33s3.77-12.13,10.8-12.13c5.3,0,7.21,3.11,7.21,3.11h.14c-.03-.22-.05-.45-.05-.67v-1.86h5.68v22.88c0,8.36-6.5,11.51-12.85,11.51-3.01-.02-5.97-.74-8.65-2.1l1.82-4.63c2.11,1,4.4,1.54,6.74,1.58m7.02-17.63c0-5.54-2.72-7.02-6.02-7.02-3.68,0-5.73,2.67-5.73,6.78s2.2,7.4,6.11,7.4c2.91,0,5.64-1.67,5.64-7.17"/><path class="cls-14" d="m383.33,181.27h-3.15v-4.82h3.3v-7.03h5.92v7.03h5.53v4.82h-5.54v9.46c0,4.01,3.15,4.59,4.82,4.59.37,0,.74-.03,1.1-.1v5.3c-.62.1-1.24.15-1.86.14-3.39,0-10.12-1-10.12-9.17v-10.22Z"/><path class="cls-14" d="m412.66,185.14h.81v-.33c0-3.2-2.01-4.3-4.68-4.3-2.4.15-4.72.96-6.69,2.34l-2.29-4.35c2.79-1.97,6.13-3.03,9.55-3.01,6.4,0,10.13,3.54,10.13,9.7v15.23h-5.59v-2.01c0-.57.03-1.15.09-1.72h-.09c-1.41,2.76-4.3,4.45-7.4,4.3-4.35,0-8.26-2.72-8.26-7.59,0-7.74,10.46-8.26,14.43-8.26m-4.63,11.13c3.2,0,5.49-3.44,5.49-6.4v-.58h-1.05c-3.11,0-8.12.43-8.12,3.82,0,1.62,1.19,3.15,3.68,3.15"/><path class="cls-14" d="m425.46,166.51h6.02v25.41c0,2.68.91,3.34,2.48,3.34.3,0,.61-.02.91-.05v5.3c-.63.09-1.27.14-1.91.14-3.34,0-7.5-.86-7.5-7.83v-26.32Z"/><path class="cls-14" d="m328.15,176.16h6.31v8.09h-6.31v-8.09Z"/><path class="cls-10" d="m328.15,184.23h6.31v8.09h-6.31v-8.09Z"/><path class="cls-18" d="m328.15,192.34h6.31v8.09h-6.31v-8.09Z"/><path class="cls-14" d="m368.56,176.16h6.31v8.09h-6.31v-8.09Z"/><path class="cls-14" d="m328.15,166.46h6.31v6.31h-6.31v-6.31Z"/><path class="cls-14" d="m368.56,166.46h6.31v6.31h-6.31v-6.31Z"/><path class="cls-10" d="m368.56,184.23h6.31v8.09h-6.31v-8.09Z"/><path class="cls-18" d="m368.56,192.34h6.31v8.09h-6.31v-8.09Z"/></g><g class="cls-12"><path d="m382.98,309.77l-3.42,6.3v.03h3.65l-.12,1.22h-5.38v-.92l3.53-6.35v-.04h-3.33v-1.16h5.08m-6.35,1.16h-1.85v4.69c0,.6.08,1.01.23,1.23.15.22.41.33.78.33.21,0,.39-.03.55-.09.15-.06.27-.11.33-.16l.2,1.15c-.06.05-.2.12-.42.22-.22.1-.52.15-.9.15-.73,0-1.28-.2-1.64-.61-.36-.4-.55-1.08-.55-2.02v-4.89h-1.02v-.95l1.02-.21.16-2.36h1.27v2.36h2.03m-5.98,8.47h-1.3v-.95h-.03c-.04.07-.11.17-.23.31-.12.13-.27.27-.45.39-.18.12-.4.23-.66.33-.26.09-.55.14-.86.14-.38,0-.71-.06-1.01-.17-.3-.11-.56-.29-.77-.54-.21-.25-.37-.57-.49-.96-.11-.39-.17-.88-.17-1.46v-5.56h1.43v5.45c0,.71.11,1.21.34,1.51.23.3.58.45,1.07.45.41,0,.76-.1,1.04-.31.28-.21.51-.41.67-.61v-6.49h1.43m-9.49,8.47v-5.45c0-.72-.12-1.23-.36-1.55-.24-.31-.61-.47-1.1-.47-.42,0-.78.11-1.06.32-.28.21-.51.42-.67.62v6.53h-1.43v-12.47l1.43-.16v5.03h.03c.05-.07.12-.17.22-.28.1-.12.24-.24.42-.35.18-.12.39-.22.64-.31.25-.09.55-.13.89-.13.74,0,1.33.24,1.76.72.44.48.65,1.28.65,2.4v5.56m-8.15-6.83s-.09-.09-.17-.16c-.08-.07-.17-.14-.29-.21-.12-.07-.26-.13-.42-.18-.17-.05-.35-.08-.56-.08-.31,0-.59.06-.85.17-.27.11-.5.29-.69.54-.19.25-.35.57-.46.96-.11.39-.17.87-.17,1.44,0,.62.05,1.15.15,1.57s.24.76.42,1.01c.18.25.39.44.64.55.25.11.53.17.84.17.44,0,.77-.08,1-.23.23-.15.39-.28.48-.37l.58.99c-.06.07-.14.16-.26.25-.11.1-.26.2-.43.29-.18.09-.39.17-.64.24-.25.06-.54.1-.87.1-.47,0-.91-.08-1.32-.23-.41-.15-.77-.41-1.08-.76-.31-.35-.55-.81-.72-1.38-.18-.57-.27-1.26-.27-2.1s.11-1.5.32-2.06c.21-.56.49-1.02.83-1.37.34-.35.72-.6,1.14-.76.42-.16.84-.24,1.26-.24.32,0,.6.03.84.09s.45.13.62.22c.17.09.31.18.42.28.11.1.2.19.27.26m-7.83,1.08c-.09-.11-.26-.25-.51-.43-.25-.18-.57-.27-.97-.27-.38,0-.66.09-.86.27-.2.18-.3.39-.3.63,0,.32.09.58.27.78.18.21.46.43.84.66l.53.32c.58.34,1.03.71,1.36,1.1.33.39.49.9.49,1.53,0,.67-.23,1.23-.7,1.69-.46.46-1.13.69-2,.69-.34,0-.64-.03-.9-.1-.26-.07-.49-.15-.68-.25-.19-.09-.36-.2-.48-.31-.13-.11-.24-.21-.32-.31l.69-1.13c.07.07.16.15.26.25s.22.19.36.27c.14.09.3.16.48.22.18.06.38.09.62.09.42,0,.75-.09.97-.28.22-.19.33-.42.33-.69,0-.2-.03-.37-.08-.52-.05-.15-.13-.28-.24-.4-.11-.12-.24-.23-.39-.33-.15-.11-.33-.22-.53-.35l-.53-.33c-.53-.34-.95-.7-1.25-1.08-.3-.38-.45-.86-.45-1.45,0-.32.06-.61.19-.87s.3-.49.52-.69c.22-.2.48-.35.78-.46.3-.11.62-.17.96-.17s.61.03.85.1c.24.06.44.15.61.25.17.1.31.2.42.3.11.1.2.18.27.25m-9.24,6.77c.2,0,.38-.03.53-.09.15-.06.28-.13.4-.21.11-.08.21-.17.28-.27.08-.1.14-.18.2-.26v-1.87l-.46.02c-.68.02-1.2.14-1.55.35-.35.21-.53.55-.53,1.02,0,.43.1.76.3.98.2.22.48.33.83.33m-2.56-1.15c0-.49.09-.91.28-1.23.19-.33.44-.6.76-.8s.69-.35,1.12-.44c.43-.09.88-.13,1.37-.13h.44v-.81c0-.72-.13-1.21-.38-1.48-.25-.27-.61-.41-1.07-.41-.42,0-.78.09-1.06.27-.28.18-.51.34-.67.48l-.6-.95c.09-.09.21-.2.36-.32s.33-.23.54-.33c.21-.11.45-.19.72-.27.27-.07.58-.11.92-.11.87,0,1.53.24,1.98.72.45.48.67,1.26.67,2.33v3.86c0,.36.01.72.03,1.07.02.35.05.58.07.7h-1.36l-.05-.93h-.03c-.05.11-.12.23-.21.36-.09.14-.21.26-.35.37s-.31.21-.51.29c-.2.08-.44.12-.71.12-.32,0-.61-.06-.89-.18-.28-.12-.52-.28-.72-.49-.21-.21-.36-.46-.48-.75-.11-.29-.17-.6-.17-.94m-7.51,2.15v-5.45c0-.69-.1-1.19-.3-1.5-.2-.31-.52-.46-.97-.46-.24,0-.44.03-.63.09-.18.06-.34.13-.48.22-.14.09-.27.18-.37.29-.11.1-.2.2-.27.28v6.53h-1.43v-8.47h1.3v.95h.03c.06-.09.15-.21.27-.34.12-.14.27-.27.44-.39.18-.12.38-.23.62-.31.24-.08.5-.12.79-.12.96,0,1.65.38,2.05,1.13.08-.12.2-.24.34-.38.14-.13.31-.26.49-.37s.4-.2.63-.27c.24-.07.49-.11.78-.11,1.72,0,2.58,1,2.58,3v5.68h-1.43v-5.45c0-.69-.12-1.19-.37-1.5-.25-.31-.61-.46-1.09-.46-.4,0-.73.1-1,.29-.27.19-.47.38-.63.55.02.13.04.27.05.41.01.15.02.3.02.47v5.68m-8.77-10.51c-.29,0-.53-.09-.71-.28-.18-.19-.27-.44-.27-.74s.09-.54.27-.72.41-.28.71-.28.51.09.69.28c.18.19.27.43.27.72s-.09.55-.27.74c-.18.19-.4.28-.69.28m.7,10.51h-1.43v-8.47h1.43v8.47Zm-4.04-1.98c0,.35.05.6.15.74s.27.21.52.21c.13,0,.24-.01.33-.03.09-.02.16-.05.2-.07l.12,1.06c-.07.03-.2.08-.39.14-.19.06-.44.09-.76.09-.48,0-.87-.15-1.16-.44-.29-.29-.44-.82-.44-1.57v-10.62l1.43-.16m-6.65,6.4l4.13,6.23h-1.89l-3.53-5.54h-.92v5.54h-1.53v-12.17h1.53v5.41h.93l3.41-5.41h1.71m-16.83,11.11c.22,0,.42-.03.6-.09.18-.06.33-.13.46-.22.13-.09.24-.18.33-.27s.16-.18.2-.25v-5.22c-.13-.08-.28-.15-.45-.21-.17-.06-.38-.09-.64-.09-.33,0-.64.06-.93.17-.29.11-.54.3-.75.56-.21.26-.38.59-.5,1-.12.41-.18.92-.18,1.52s.05,1.08.15,1.47c.1.39.24.71.41.95.18.24.38.41.6.52.22.11.46.16.71.16m-3.35-3.05c0-.86.11-1.57.33-2.15.22-.58.51-1.04.86-1.39.35-.35.75-.6,1.2-.75.45-.15.89-.22,1.34-.22.27,0,.5.02.7.06.2.04.36.09.49.15v-4.06l1.43-.16v12.63h-1.31v-.9h-.03c-.03.07-.1.17-.19.29-.09.12-.22.25-.39.37-.16.12-.37.23-.62.32-.25.09-.54.13-.86.13-.4,0-.78-.08-1.14-.24s-.67-.41-.94-.76c-.27-.35-.48-.79-.64-1.34-.16-.55-.24-1.21-.24-1.98m-3.18,4.11v-5.45c0-.72-.12-1.23-.36-1.55-.24-.31-.61-.47-1.1-.47-.42,0-.78.11-1.06.32-.28.21-.51.42-.67.62v6.53h-1.43v-8.47h1.31v.95h.03c.03-.07.11-.17.23-.31.12-.13.27-.27.46-.39.19-.12.41-.23.67-.33.26-.09.55-.14.88-.14.37,0,.72.06,1.02.17.31.11.56.29.78.54.21.25.38.57.5.96.12.39.18.88.18,1.46v5.56m-8.24,0h-1.3v-.95h-.04c-.03.07-.11.17-.23.31-.12.13-.27.27-.45.39-.18.12-.4.23-.66.33-.26.09-.55.14-.86.14-.38,0-.71-.06-1.01-.17-.3-.11-.55-.29-.77-.54-.21-.25-.37-.57-.48-.96-.11-.39-.17-.88-.17-1.46v-5.56h1.43v5.45c0,.71.12,1.21.35,1.51.23.3.58.45,1.07.45.41,0,.76-.1,1.04-.31.28-.21.51-.41.67-.61v-6.49h1.43m79.92-16.62h-1.85v4.69c0,.6.08,1.01.23,1.23.15.22.41.33.78.33.21,0,.39-.03.55-.09.15-.06.27-.11.33-.16l.2,1.15c-.06.05-.2.12-.42.22-.22.1-.52.15-.9.15-.73,0-1.28-.2-1.64-.61-.36-.4-.55-1.08-.55-2.02v-4.89h-1.02v-.95l1.02-.21.16-2.36h1.27v2.36h2.03m-5.2,1.16h-1.73v7.3h-1.43v-7.3h-1.02v-.95l1.02-.19v-1.69c0-.46.06-.85.19-1.18.13-.33.3-.6.51-.81.21-.21.46-.36.74-.46.28-.09.58-.14.9-.14s.57.04.78.12c.21.08.35.15.42.19l-.3,1.18c-.07-.05-.17-.1-.3-.15-.13-.05-.29-.08-.48-.08-.34,0-.6.11-.78.32-.18.21-.27.6-.27,1.16v1.52h1.9m-8.71,7.46c.2,0,.37-.03.53-.09s.29-.13.4-.21c.11-.08.21-.17.28-.27.07-.1.14-.18.2-.26v-1.87l-.46.02c-.68.02-1.2.14-1.55.35-.35.21-.53.55-.53,1.02,0,.43.1.76.3.98.2.22.48.33.83.33m-2.56-1.15c0-.49.09-.91.28-1.23.19-.33.44-.6.76-.8.32-.21.69-.35,1.12-.44.43-.09.88-.13,1.37-.13h.44v-.81c0-.72-.13-1.21-.38-1.48-.25-.27-.61-.41-1.07-.41-.42,0-.78.09-1.06.27-.28.18-.51.34-.67.48l-.6-.95c.09-.09.21-.2.36-.32.15-.12.33-.23.54-.33.21-.11.45-.19.72-.27.27-.07.58-.11.92-.11.87,0,1.53.24,1.98.72.45.48.67,1.26.67,2.33v3.86c0,.36.01.72.03,1.07.02.35.05.58.07.7h-1.36l-.05-.93h-.04c-.05.11-.12.23-.21.36-.09.14-.21.26-.35.37-.14.11-.31.21-.51.29-.2.08-.43.12-.7.12-.32,0-.62-.06-.89-.18-.28-.12-.52-.28-.72-.49-.21-.21-.36-.46-.48-.75-.11-.29-.17-.6-.17-.94m-3.07,2.15v-5.45c0-.72-.12-1.23-.36-1.55-.24-.31-.61-.47-1.1-.47-.42,0-.78.11-1.06.32-.28.21-.51.42-.67.62v6.53h-1.43v-12.47l1.43-.16v5.03h.03c.05-.07.12-.17.22-.28.1-.12.24-.24.42-.35.18-.12.39-.22.64-.31.25-.09.55-.13.89-.13.74,0,1.33.24,1.76.72.44.48.65,1.28.65,2.4v5.56m-8.15-6.83s-.09-.09-.17-.16c-.08-.07-.17-.14-.29-.21-.12-.07-.26-.13-.42-.18-.16-.05-.35-.08-.56-.08-.31,0-.59.06-.86.17-.27.11-.49.29-.69.54-.2.25-.35.57-.46.96-.11.39-.17.87-.17,1.44,0,.62.05,1.15.15,1.57.1.42.24.76.41,1.01.18.25.39.44.65.55.25.11.53.17.84.17.43,0,.77-.08,1-.23.23-.15.39-.28.49-.37l.58.99c-.06.07-.14.16-.25.25-.11.1-.26.2-.43.29-.18.09-.39.17-.64.24-.25.06-.54.1-.87.1-.47,0-.91-.07-1.32-.23s-.77-.41-1.08-.76c-.31-.35-.55-.81-.72-1.38-.18-.57-.27-1.26-.27-2.1s.11-1.5.32-2.06c.21-.56.49-1.02.83-1.37.34-.35.72-.6,1.14-.76.42-.16.84-.24,1.26-.24.32,0,.6.03.84.09.24.06.45.13.62.22.17.09.31.18.42.28.11.1.2.19.27.26m-7.83,1.08c-.09-.11-.27-.25-.51-.43-.25-.18-.57-.27-.97-.27-.37,0-.66.09-.86.27-.2.18-.3.39-.3.63,0,.32.09.58.27.78.18.21.46.43.84.66l.53.32c.58.34,1.03.71,1.36,1.1.33.39.5.9.5,1.53,0,.67-.23,1.23-.7,1.69s-1.13.69-2,.69c-.34,0-.64-.03-.9-.1-.26-.07-.48-.15-.68-.25-.2-.09-.36-.2-.48-.31-.13-.11-.24-.21-.32-.31l.69-1.13c.07.07.16.15.26.25.1.09.22.19.36.27.14.09.3.16.48.22.18.06.38.09.62.09.42,0,.75-.09.97-.28.22-.19.34-.42.34-.69,0-.2-.03-.37-.08-.52-.05-.15-.13-.28-.24-.4-.11-.12-.24-.23-.39-.33-.15-.11-.33-.22-.53-.35l-.53-.33c-.53-.34-.94-.7-1.24-1.08-.3-.38-.45-.86-.45-1.45,0-.32.06-.61.18-.87s.3-.49.52-.69c.22-.2.48-.35.78-.46.3-.11.62-.17.96-.17s.61.03.85.1c.23.06.44.15.61.25.17.1.31.2.42.3.11.1.2.18.27.25m-5.89.48h-1.85v4.69c0,.6.07,1.01.23,1.23s.41.33.78.33c.21,0,.39-.03.55-.09.15-.06.26-.11.33-.16l.19,1.15c-.06.05-.2.12-.42.22-.22.1-.52.15-.9.15-.73,0-1.28-.2-1.64-.61-.36-.4-.55-1.08-.55-2.02v-4.89h-1.02v-.95l1.02-.21.16-2.36h1.27v2.36h2.03m-5.2,1.25s-.11-.05-.23-.09c-.12-.03-.28-.05-.48-.05-.45,0-.8.12-1.05.36-.25.24-.43.5-.54.79v6.21h-1.43v-8.47h1.3v1.15h.03c.06-.16.14-.33.23-.48.09-.16.21-.3.35-.42.14-.12.31-.22.5-.29.2-.07.43-.11.7-.11.2,0,.36.02.48.05s.22.06.29.09m-6.79-2.03c-.29,0-.53-.09-.71-.28-.18-.19-.27-.44-.27-.74s.09-.54.27-.72c.18-.19.41-.28.71-.28s.51.09.69.28c.18.19.27.43.27.72s-.09.55-.27.74c-.18.19-.4.28-.69.28m.7,10.51h-1.43v-8.47h1.43v8.47Zm-2.75-12.17l-2.96,12.17h-1.38l-1.85-7.66c-.13-.53-.24-1.02-.33-1.48-.09-.46-.15-.82-.16-1.09h-.03c0,.27-.05.63-.14,1.08-.09.45-.21.93-.34,1.46l-1.89,7.69h-1.38l-2.89-12.17h1.64l1.52,7.41c.12.56.22,1.1.31,1.6.09.5.14.89.15,1.16h.03c.01-.27.07-.66.18-1.18.11-.52.23-1.05.36-1.6l1.8-7.37h1.46l1.76,7.41c.13.56.25,1.1.35,1.6.1.5.16.89.18,1.16h.03c.01-.27.06-.67.16-1.19.09-.52.2-1.07.32-1.63l1.53-7.34m-15.38,4.96s-.11-.05-.23-.09c-.12-.03-.28-.05-.48-.05-.45,0-.8.12-1.05.36-.25.24-.43.5-.54.79v6.21h-1.43v-8.47h1.3v1.15h.03c.06-.16.14-.33.23-.48s.21-.3.35-.42c.14-.12.31-.22.5-.29.2-.07.43-.11.7-.11.2,0,.36.02.48.05s.22.06.29.09m-6.88-2.42c0,.27-.08.49-.25.65-.17.17-.36.25-.6.25s-.44-.08-.6-.25c-.17-.16-.25-.38-.25-.65s.08-.49.25-.65c.16-.17.36-.25.6-.25s.43.08.6.25c.16.16.25.38.25.65m-2.72,0c0,.27-.08.49-.25.65-.16.17-.36.25-.6.25s-.43-.08-.6-.25c-.16-.16-.25-.38-.25-.65s.08-.49.25-.65c.17-.17.36-.25.6-.25s.44.08.6.25c.16.16.25.38.25.65m3.51,10.9h-1.3v-.95h-.03c-.03.07-.11.17-.23.31-.12.13-.27.27-.45.39-.18.12-.4.23-.66.33-.26.09-.55.14-.86.14-.37,0-.71-.06-1.01-.17-.3-.11-.56-.29-.77-.54-.21-.25-.37-.57-.48-.96-.11-.39-.17-.88-.17-1.46v-5.56h1.43v5.45c0,.71.12,1.21.34,1.51.23.3.58.45,1.07.45.41,0,.76-.1,1.04-.31.28-.21.51-.41.67-.61v-6.49h1.43m-7.34,1.16h-1.73v7.3h-1.43v-7.3h-1.02v-.95l1.02-.19v-1.69c0-.46.06-.85.19-1.18.13-.33.3-.6.51-.81.21-.21.46-.36.74-.46.28-.09.58-.14.9-.14s.56.04.78.12c.21.08.35.15.42.19l-.3,1.18c-.07-.05-.17-.1-.3-.15-.13-.05-.29-.08-.48-.08-.34,0-.6.11-.78.32-.18.21-.27.6-.27,1.16v1.52h1.91m110.93-9.32v-5.45c0-.69-.1-1.19-.3-1.5-.2-.31-.52-.46-.97-.46-.24,0-.44.03-.63.09-.18.06-.35.13-.49.22-.14.09-.26.18-.37.29-.11.1-.19.2-.27.28v6.53h-1.43v-8.47h1.31v.95h.03c.06-.09.15-.21.27-.34.12-.14.26-.27.44-.39.18-.12.38-.23.62-.31.24-.08.5-.12.8-.12.96,0,1.65.37,2.05,1.13.08-.12.19-.24.33-.38.14-.13.31-.26.49-.37.19-.11.4-.2.63-.27.24-.07.5-.1.78-.1,1.72,0,2.57,1,2.57,3v5.68h-1.43v-5.45c0-.69-.12-1.19-.37-1.5-.25-.31-.61-.46-1.1-.46-.4,0-.73.1-1,.29-.27.19-.47.38-.63.55.02.13.04.27.05.41.01.15.02.3.02.47v5.68m-8.06,0h-1.31v-.95h-.03c-.03.07-.11.17-.23.31-.12.13-.27.27-.45.39-.18.12-.4.23-.66.33-.26.09-.55.14-.86.14-.38,0-.71-.06-1.01-.17-.3-.11-.56-.29-.77-.54-.21-.25-.37-.57-.48-.96-.11-.39-.17-.88-.17-1.46v-5.56h1.43v5.45c0,.71.12,1.21.34,1.51.23.3.59.45,1.07.45.41,0,.76-.1,1.04-.31.28-.21.51-.41.67-.61v-6.49h1.43m-8.82-2.05c-.29,0-.53-.09-.7-.28-.18-.19-.27-.44-.27-.74s.09-.54.27-.72c.18-.19.41-.28.7-.28s.51.09.69.28c.18.19.26.43.26.72s-.09.55-.26.74c-.18.19-.41.28-.69.28m.71,10.51h-1.43v-8.47h1.43v8.47Zm-2.84-7.21s-.11-.05-.23-.09c-.12-.03-.28-.05-.48-.05-.45,0-.8.12-1.05.36-.25.24-.43.5-.54.79v6.21h-1.43v-8.47h1.31v1.15h.03c.06-.16.13-.33.23-.48s.21-.3.35-.42c.14-.12.31-.22.5-.29.19-.07.43-.11.7-.11.2,0,.36.02.49.05.12.03.22.06.29.09m-8.49.97c-.51,0-.91.21-1.22.63-.31.42-.48,1.04-.53,1.83h3.09c.01-.06.02-.14.03-.26,0-.11,0-.23,0-.36,0-.59-.12-1.04-.35-1.37-.24-.32-.58-.48-1.02-.48m2.68,1.91c0,.36-.01.68-.04.94-.02.26-.05.5-.07.7h-4.32c.05,1,.26,1.74.64,2.21.38.47.93.7,1.65.7.25,0,.47-.03.67-.09.2-.06.37-.13.52-.21.15-.08.27-.16.37-.25.1-.08.17-.15.22-.2l.53,1.01c-.06.06-.15.14-.27.26-.12.11-.28.22-.48.33-.2.11-.45.21-.74.29-.29.08-.64.12-1.04.12-.53,0-1.01-.09-1.44-.26-.43-.18-.79-.45-1.09-.82-.3-.37-.53-.84-.7-1.41-.16-.57-.25-1.26-.25-2.05,0-.75.09-1.4.25-1.95.17-.55.4-1,.7-1.35.29-.35.63-.61,1.02-.78.39-.17.81-.25,1.25-.25.81,0,1.45.25,1.9.77.46.51.69,1.28.69,2.3m-6.93-1.69h-1.85v4.69c0,.6.08,1.01.23,1.23.15.22.41.33.78.33.21,0,.39-.03.55-.09.15-.06.26-.11.33-.16l.19,1.15c-.06.05-.2.12-.42.22-.22.1-.52.15-.9.15-.73,0-1.27-.2-1.64-.61-.36-.4-.55-1.08-.55-2.02v-4.89h-1.02v-.95l1.02-.21.16-2.36h1.27v2.36h2.03m-6.32,1.71c-.09-.11-.26-.25-.51-.43-.25-.18-.57-.27-.97-.27-.38,0-.66.09-.86.27-.2.18-.3.39-.3.63,0,.32.09.58.27.78.18.21.46.43.84.66l.53.32c.58.34,1.03.71,1.36,1.1.33.39.49.9.49,1.53,0,.67-.23,1.23-.7,1.69-.46.46-1.13.69-2,.69-.34,0-.64-.03-.9-.1-.26-.07-.49-.15-.68-.25s-.36-.2-.48-.31c-.13-.11-.24-.21-.32-.31l.69-1.13c.07.07.16.15.26.25.1.09.22.19.36.27.14.09.3.16.48.22.18.06.38.09.62.09.42,0,.75-.09.97-.28.22-.19.33-.42.33-.69,0-.2-.03-.37-.08-.52-.05-.15-.13-.28-.24-.4-.11-.12-.24-.23-.39-.33-.15-.11-.33-.22-.53-.35l-.53-.33c-.53-.34-.95-.7-1.25-1.08-.3-.38-.45-.86-.45-1.45,0-.32.06-.61.19-.87.12-.27.3-.49.52-.69.22-.2.48-.35.78-.46.3-.11.62-.17.96-.17s.61.03.85.1.44.15.61.25c.17.1.31.2.42.3.11.1.2.18.27.25m-7.16-2.73c-.29,0-.53-.09-.71-.28-.18-.19-.27-.44-.27-.74s.09-.54.27-.72c.18-.19.41-.28.71-.28s.51.09.69.28c.18.19.27.43.27.72s-.09.55-.27.74c-.18.19-.4.28-.69.28m.7,10.51h-1.43v-8.47h1.43v8.47Zm-4.99,0v-5.45c0-.72-.12-1.23-.36-1.55-.24-.31-.61-.47-1.1-.47-.42,0-.78.11-1.06.32-.28.21-.51.42-.67.62v6.53h-1.43v-8.47h1.3v.95h.03c.04-.07.11-.17.23-.31s.27-.27.46-.39c.19-.12.41-.23.67-.33.26-.09.55-.14.88-.14.38,0,.72.06,1.02.17.31.11.56.29.78.54.21.25.38.57.49.96s.18.88.18,1.46v5.56m-8.94-10.51c-.29,0-.53-.09-.71-.28-.18-.19-.26-.44-.26-.74s.09-.54.26-.72c.18-.19.41-.28.71-.28s.51.09.69.28c.18.19.27.43.27.72s-.09.55-.27.74c-.18.19-.4.28-.69.28m.7,10.51h-1.43v-8.47h1.43v8.47Zm-9.44,0v-5.45c0-.69-.1-1.19-.3-1.5-.2-.31-.52-.46-.97-.46-.24,0-.44.03-.63.09-.18.06-.35.13-.49.22-.14.09-.26.18-.37.29-.11.1-.19.2-.27.28v6.53h-1.43v-8.47h1.3v.95h.04c.06-.09.15-.21.26-.34.12-.14.27-.27.44-.39s.38-.23.62-.31c.24-.08.5-.12.79-.12.96,0,1.65.37,2.05,1.13.08-.12.19-.24.33-.38.14-.13.31-.26.49-.37.19-.11.4-.2.63-.27.24-.07.5-.1.78-.1,1.72,0,2.58,1,2.58,3v5.68h-1.43v-5.45c0-.69-.12-1.19-.37-1.5-.25-.31-.61-.46-1.1-.46-.4,0-.73.1-1,.29-.27.19-.47.38-.63.55.02.13.04.27.05.41.01.15.02.3.02.47v5.68m-8.39-6.76c-.09-.11-.27-.25-.51-.43-.25-.18-.57-.27-.97-.27-.38,0-.66.09-.86.27-.2.18-.3.39-.3.63,0,.32.09.58.27.78.18.21.46.43.84.66l.53.32c.58.34,1.03.71,1.36,1.1s.49.9.49,1.53c0,.67-.23,1.23-.7,1.69-.47.46-1.13.69-2,.69-.34,0-.64-.03-.9-.1-.26-.07-.49-.15-.68-.25s-.36-.2-.48-.31c-.13-.11-.24-.21-.32-.31l.69-1.13c.07.07.16.15.26.25.1.09.22.19.36.27.14.09.3.16.48.22.18.06.38.09.62.09.42,0,.75-.09.97-.28.22-.19.33-.42.33-.69,0-.2-.03-.37-.08-.52-.05-.15-.13-.28-.24-.4-.11-.12-.24-.23-.39-.33-.15-.11-.33-.22-.53-.35l-.53-.33c-.53-.34-.95-.7-1.24-1.08-.3-.38-.45-.86-.45-1.45,0-.32.06-.61.18-.87.12-.27.3-.49.52-.69.22-.2.48-.35.78-.46.3-.11.62-.17.96-.17s.61.03.85.1.44.15.61.25c.17.1.31.2.42.3.11.1.2.18.27.25m-8.86.27c-.51,0-.91.21-1.22.63s-.48,1.04-.53,1.83h3.09c.01-.06.02-.14.03-.26,0-.11,0-.23,0-.36,0-.59-.12-1.04-.35-1.37-.23-.32-.58-.48-1.02-.48m2.68,1.91c0,.36-.01.68-.03.94-.02.26-.05.5-.07.7h-4.32c.05,1,.26,1.74.65,2.21.38.47.93.7,1.65.7.25,0,.47-.03.67-.09.2-.06.37-.13.52-.21s.27-.16.37-.25c.1-.08.17-.15.22-.2l.53,1.01c-.06.06-.15.14-.26.26-.12.11-.28.22-.48.33-.2.11-.45.21-.74.29-.29.08-.64.12-1.04.12-.53,0-1.01-.09-1.44-.26-.43-.18-.79-.45-1.09-.82-.3-.37-.53-.84-.7-1.41-.16-.57-.25-1.26-.25-2.05,0-.75.09-1.4.26-1.95.17-.55.4-1,.7-1.35.29-.35.63-.61,1.02-.78.39-.17.81-.25,1.25-.25.81,0,1.45.25,1.91.77.46.51.69,1.28.69,2.3m-10.64,4.55c.22,0,.42-.03.6-.09.18-.06.33-.13.46-.22.13-.09.24-.18.33-.27.09-.09.16-.18.2-.25v-5.22c-.13-.08-.28-.15-.45-.21-.17-.06-.39-.09-.64-.09-.33,0-.64.06-.93.17-.29.11-.54.3-.75.55-.21.26-.38.59-.5,1.01-.12.41-.18.92-.18,1.52s.05,1.08.15,1.47c.1.39.24.71.41.95.18.24.38.41.6.52.22.11.46.16.71.16m-3.35-3.05c0-.86.11-1.57.33-2.15.22-.58.51-1.04.86-1.39.35-.35.75-.6,1.2-.75.45-.15.89-.22,1.34-.22.27,0,.51.02.71.06.2.04.36.09.49.15v-4.06l1.43-.16v12.63h-1.31v-.9h-.03c-.03.07-.1.17-.19.29s-.22.25-.39.37c-.16.12-.37.23-.62.32-.25.09-.54.13-.86.13-.4,0-.78-.08-1.14-.24s-.67-.41-.94-.76c-.27-.35-.48-.79-.64-1.34-.16-.55-.24-1.21-.24-1.98m-3.18,4.11v-5.45c0-.72-.12-1.23-.36-1.55-.24-.31-.61-.47-1.1-.47-.42,0-.78.11-1.06.32-.28.21-.51.42-.67.62v6.53h-1.43v-8.47h1.31v.95h.03c.03-.07.11-.17.23-.31.12-.14.27-.27.46-.39.19-.12.41-.23.67-.33s.55-.14.88-.14c.37,0,.72.06,1.02.17.31.11.56.29.78.54.21.25.38.57.5.96.12.39.18.88.18,1.46v5.56m-8.24,0h-1.3v-.95h-.04c-.03.07-.11.17-.23.31-.12.13-.27.27-.45.39-.18.12-.4.23-.66.33-.26.09-.55.14-.86.14-.38,0-.71-.06-1.01-.17-.3-.11-.55-.29-.77-.54-.21-.25-.37-.57-.48-.96-.11-.39-.17-.88-.17-1.46v-5.56h1.43v5.45c0,.71.12,1.21.35,1.51.23.3.58.45,1.07.45.41,0,.76-.1,1.04-.31.28-.21.51-.41.67-.61v-6.49h1.43m-9.46,5.06c0-.66-.21-1.18-.64-1.56-.43-.38-1.04-.57-1.84-.57h-1.04v4.27h.95c.91,0,1.56-.18,1.97-.54.41-.36.61-.89.61-1.6m-.23-5.61c0-.56-.2-1.03-.6-1.39-.4-.36-1.03-.55-1.89-.55h-.81v4.2h.8c.82,0,1.45-.2,1.87-.6.42-.4.63-.95.63-1.66m1.55-.05c0,.42-.05.79-.16,1.11s-.25.59-.43.82c-.18.23-.39.41-.63.56s-.49.25-.75.32v.03c.32.06.61.17.89.34.28.16.52.37.72.62.21.25.37.54.49.87.12.34.18.7.18,1.1,0,.48-.08.92-.25,1.32-.16.4-.42.75-.77,1.04-.35.29-.78.52-1.31.69-.53.17-1.16.25-1.89.25h-2.49v-12.17h2.35c.72,0,1.33.07,1.84.22.51.15.93.36,1.26.63.33.27.57.6.71.98.15.38.22.81.22,1.28"/><polyline class="cls-20" points="266.17 329.18 268.4 329.18 268.4 358.83 263.21 358.83 263.21 329.18"/><polyline class="cls-11" points="266.17 299.39 268.4 299.39 268.4 329.18 263.21 329.18 263.21 299.39"/><path d="m240.49,280.77c.04-.33.06-.67.06-1.03,0-.19,0-.41-.02-.66,2.95-.04,5.54-2.17,5.54-4.62,0-1.25-.81-2.19-1.27-2.75.1-.02.21-.05.31-.07.43.37,1.66,1.71,1.66,3.4,0,2.94-2.93,5.66-6.29,5.72m-2.98-10.23c-.06-.33-.18-.62-.37-.88.01-.3.13-.59.62-.35-.26.27-.06.74-.06.74,0,0,.53-.25.42-.6.79.19.22,1.25-.61,1.09m-.69,1.51c-.1-.44-.33-.89-.62-1.23-.26-.31-.69-.67-1.27-.67-.27,0-.71.12-.99.24-.11-.19-.31-.66-.31-.86s.36-.43,1.06-.43c1.53,0,2.44.69,2.44,1.85,0,.41-.16.78-.31,1.11m3.93,19.72c.18,0,.26.03.37.07.44,1.2,2.14,3.46,2.21,3.56l.02.02h.02c.42-.07,1.48-.23,2.37-.23h.02c.1,0,.21,0,.28.07.06.06.09.16.09.3,0,.22-.09.6-.21.76-.31-.34-.82-.49-1.63-.49-.24,0-.53.07-.69.11l-.06.02-.07.02.47.47c.72.72,1.34,1.34,1.34,1.75,0,.25-.24.57-.47.72-.05-.76-.81-1.77-1.56-2.34l-.06-.05v.27c-.02.18-.04.45-.04.74,0,1.44-.15,1.66-.65,1.66-.08,0-.2-.02-.27-.05.28-.35.39-.81.39-1.61v-.37s0-.3,0-.3c0-.33.03-.58.06-.77v-.11s-.06-.01-.06-.01c-.23-.03-.67-.09-1-.09-.71,0-1.19.06-1.55.39-.23-.19-.47-.51-.47-.71,0-.3.19-.32.43-.32.13,0,.24.02.4.04.31.04.77.11,1.72.11h.06l-.02-.06c-.24-.69-.9-1.69-1.96-2.98.1-.35.19-.57.52-.57m-9.15,3.55l-.02.06h.06c.95,0,1.41-.07,1.72-.11.16-.02.28-.04.4-.04.25,0,.43.02.43.32,0,.2-.24.52-.47.71-.35-.33-.84-.39-1.55-.39-.33,0-.77.06-1,.09h-.04s-.04.01-.04.01v.11c.04.2.07.44.07.77v.3s0,.37,0,.37c0,.81.11,1.27.39,1.61-.07.03-.19.05-.27.05-.5,0-.65-.22-.65-1.66,0-.29-.02-.56-.03-.74v-.27s-.08.05-.08.05c-.74.57-1.51,1.58-1.56,2.34-.22-.14-.47-.47-.47-.72,0-.41.62-1.03,1.34-1.75l.41-.41.05-.05-.14-.03c-.15-.04-.44-.11-.69-.11-.81,0-1.31.15-1.63.49-.11-.16-.21-.54-.21-.76,0-.14.03-.24.09-.3.07-.07.18-.07.28-.07h.02c.89,0,1.95.16,2.37.23h.02s.02-.01.02-.01c.07-.1,1.77-2.36,2.21-3.56.1-.04.19-.07.37-.07.33,0,.43.23.52.57-1.06,1.29-1.72,2.29-1.96,2.98m-4.58-20.27c0-1.69,1.23-3.03,1.66-3.4.1.02.21.05.31.07-.46.56-1.27,1.5-1.27,2.75,0,2.47,2.64,4.62,5.63,4.62-.02.21-.03.43-.03.66,0,.36.02.7.06,1.03-3.38-.02-6.36-2.77-6.36-5.72m22.69,5.21c1.52,2.4,2.7,2.36,4.5,2.36-1.48-1.14-2.47-2.59-2.93-3.34l-2.77-4.43c-.27-1.37-.98-2.65-2.04-3.6.36-.13.65-.28.83-.41-1.81,0-3.6-.92-4.59-.92-.63,0-1.04.38-1.04.88.04.56.62,1.13,1.68,1.13.24,0,.55-.03.89-.09.58.8,1.04,1.53,1.04,2.56,0,1.94-2.32,3.46-4.67,3.46-.13,0-.26,0-.39-.02-.21-.48-.92-1.29-.92-2.21,0-1.54,1-2.8,1-4.33,0-.95-.46-1.54-.64-1.78.29-.27.6-.6.67-.82-.17.07-.36.08-.65.08-1.12,0-2.04-.29-2.93-.29-.51,0-.65.16-.65.31,0,.05,0,.11.02.14-.19-.07-.37-.12-.58-.16-.26-.05-.55-.08-.85-.08-1.08,0-1.47.46-1.47.84,0,.33.26.93.55,1.39.42-.21.93-.36,1.16-.36.58,0,1.09.55,1.36,1.2-.39.05-.46.06-.85.06-1.06,0-1.78-.38-1.92-.38-.01,0-.04,0-.04.03,0,.15.3.54.89.76.78.28,1.94.4,2.14.43,0,.03-.2.4-.42.47-.05.01-.08.02-.14,0-.81-.16-1.04-.23-2.07-.62-.03-.01-.05,0-.05.04,0,.41,1.06,1.31,2,1.65-.79,1.01-1.78,2.04-2.24,3.61-.13.01-.26.02-.39.02-2.34,0-4.67-1.51-4.67-3.46,0-1.03.47-1.76,1.04-2.56.34.06.64.09.89.09,1.06,0,1.64-.57,1.68-1.13,0-.5-.41-.88-1.04-.88-.99,0-2.78.92-4.59.92.18.13.48.28.83.41-1.06.95-1.77,2.23-2.04,3.6l-2.77,4.43c-.47.74-1.45,2.2-2.93,3.34,1.79,0,2.98.04,4.5-2.36l1.42-2.27c.11.29.24.58.39.86l-2.83,4.52c-.47.75-1.44,2.19-2.93,3.34,1.79,0,2.98.04,4.5-2.36l2.43-3.89c.18.19.37.38.58.56l-3.43,5.5c-.47.75-1.44,2.19-2.93,3.34,1.79,0,2.98.04,4.5-2.36l3.35-5.36c.22.14.45.28.68.4l-4.09,6.54c-.47.75-1.44,2.19-2.93,3.33,1.79,0,2.98.04,4.5-2.36l4.21-6.73c.25.1.5.19.76.27l-4.75,7.61c-.46.74-1.46,2.2-2.93,3.33,1.79,0,2.98.04,4.5-2.36l5.07-8.11c.05,0,.1.02.15.03.14.44.24.85.24,1.25,0,2.55-1.67,4.8-3.68,6.54.13.06.35.08.56.08.42,0,.68-.02.87-.05-.47,1.06-1.46,2.42-1.97,3.13-.66-.12-1.61-.21-2.24-.21s-.73.38-.73.73c0,.59.28,1.07.6,1.33.12-.31.37-.71,1.57-.71.02,0,.07,0,.12,0-.35.39-1.46,1.29-1.46,2.01,0,.48.52,1.19,1.21,1.19-.04-.15-.03-.29-.03-.4,0-.59.52-1.27.95-1.75-.01.14,0,.13,0,.29,0,1.38.13,2.01,1,2.01.43,0,.73-.24.83-.31-.57-.52-.6-.94-.6-1.71,0-.2,0-.4,0-.67,0-.18,0-.41-.03-.58.31-.04.44-.04.68-.04,0,0,1.25-.1,1.55.55.34-.31.83-.75.83-1.23,0-.32-.15-.68-.79-.68-.24,0-1,.15-1.64.15.17-.38.94-1.5,1.6-2.31.1.31.26.66.61.93.05-.52.35-2.17,1.17-3.14.09.65.22,1.32.22,2.73,0,3.43-.82,5.96-2.58,6.45.23.4.71.75,1.21.75.64,0,.99-.72,1.34-1.41.18.5.7,1.74,1.21,1.74s1.03-1.24,1.21-1.74c.36.68.7,1.41,1.34,1.41.5,0,.98-.36,1.21-.75-1.75-.48-2.58-3.02-2.58-6.45,0-1.41.13-2.08.22-2.73.81.96,1.12,2.61,1.17,3.14.35-.28.5-.62.61-.93.66.81,1.42,1.93,1.6,2.31-.64,0-1.4-.15-1.65-.15-.64,0-.79.36-.79.68,0,.48.49.92.83,1.23.3-.65,1.54-.55,1.54-.55.24,0,.37,0,.68.04-.03.17-.03.4-.03.58,0,.27,0,.47,0,.67,0,.77-.03,1.19-.6,1.71.1.07.4.31.83.31.88,0,1-.63,1-2.01,0-.17,0-.15,0-.29.44.48.95,1.16.95,1.75,0,.1,0,.25-.03.4.69,0,1.21-.72,1.21-1.19,0-.72-1.11-1.61-1.46-2.01.06,0,.1,0,.12,0,1.21,0,1.46.41,1.58.71.32-.26.6-.74.6-1.33,0-.34-.07-.73-.73-.73s-1.58.09-2.24.21c-.51-.71-1.5-2.07-1.97-3.13.19.03.46.05.87.05.21,0,.43-.02.56-.08-2.01-1.74-3.68-3.99-3.68-6.54,0-.41.1-.82.24-1.25.05-.01.1-.02.15-.03l5.07,8.11c1.52,2.4,2.71,2.36,4.5,2.36-1.48-1.13-2.47-2.59-2.93-3.33l-4.76-7.61c.26-.08.51-.17.76-.27l4.21,6.73c1.52,2.4,2.71,2.36,4.5,2.36-1.49-1.15-2.46-2.58-2.93-3.33l-4.09-6.54c.23-.13.46-.26.68-.4l3.35,5.36c1.52,2.4,2.7,2.36,4.5,2.36-1.49-1.14-2.46-2.58-2.93-3.34l-3.43-5.5c.2-.18.4-.37.58-.56l2.43,3.89c1.52,2.4,2.7,2.36,4.5,2.36-1.49-1.14-2.46-2.59-2.93-3.34l-2.83-4.52c.15-.28.28-.57.39-.86"/><polyline points="268.4 269.89 268.4 299.54 266.17 299.54 263.21 299.54 263.21 269.89"/></g><g class="cls-6"><g><polygon class="cls-1" points="36.42 238.45 23.36 257.65 0 276.67 0 293.6 31.66 269.86 48.34 244.42 36.42 238.45"/><g><path class="cls-2" d="m140.1,245.45l9.51,20.63,15.43-63.89-11.04-18.45v-15.34c0-1.36,1.1-2.47,2.47-2.48.66,0,1.29.26,1.76.72.47.46.73,1.1.73,1.75v8.31h19.01l13.95-13.45-.03-3.13c0-.67.25-1.31.72-1.78.47-.47,1.11-.74,1.77-.74,1.38,0,2.5,1.12,2.5,2.49v11.26s-8.27,22.64-8.27,22.64l-9.72,2.24-22.85,99.04-27.21-37.53,11.28-12.31Z"/><path class="cls-22" d="m75.34,325.78c-5.2,9.21-19.9,15.22-25.54,40.75-5.64,25.53,2.76,88.22,2.76,88.22l67.68.25s-4.64-110.35-7.22-126.1c-2.58-15.75-34.86-8.12-37.68-3.12"/></g><g class="cls-5"><rect class="cls-21" x="76.16" y="162.92" width="88.17" height="107.24" transform="translate(-85.64 78.84) rotate(-27.18)"/></g><g><path class="cls-8" d="m103.04,169.41c-5.63,0-19.62.05-26.01.05-20.57,47.09,27.39,121.44-5.92,161.32h35.14c-6.21-14.05,5.27-80.62,8.27-106.52,6.73-3.63-7.63-40.35-11.48-54.85"/><polygon class="cls-8" points="101.91 164.95 85.04 164.95 83.42 169.41 99.06 169.41 101.91 164.95"/><path class="cls-22" d="m88.32,76.24c11.22,3.9,22.04,27.19,22.4,39.84.41,14.27-.54,37.6,6.06,45.42-14.86-1.47-26.81-4.06-41.56-12.78-6.67-45.84-.52-77.22,13.11-72.48"/><path class="cls-1" d="m74.6,131.28c-9.76-7.75-18.95-37.19-8.16-47.07,8.69-7.97,16.76-8.01,22.83-6.11,9.89,3.11,29.08,28.04,29.08,28.04l-5.39.85s3.18,12.76.47,19.59c-6.5,16.36-18.03,15.67-17.63,42.67.17,11.45-9.36,8.53-9.1.17.56-18.47-6.2-33.44-12.09-38.13"/><path class="cls-22" d="m90.92,79.49c1.04,9.85-3.82,21.21-10.01,26.91-.51,16.36,4.15,49.97,10.92,58.4-8.83,0-21.74-4.6-28.78-9.55-10.48-21.99-18.33-72.4,2.97-81.42,8.26-3.5,24.94-.56,36.35,14.06-3.33-2.63-4.66-3.69-11.46-8.41"/><path class="cls-22" d="m103.23,93.53c1,1.23.82,3.04-.43,4.05-1.24,1-3.05.8-4.05-.43-1-1.24-.8-3.05.45-4.06,1.22-.99,3.04-.8,4.02.44"/><path class="cls-22" d="m97.07,96.01c1.01,1.24.82,3.05-.42,4.06-1.24,1-3.04.8-4.05-.44-1-1.23-.81-3.05.44-4.04,1.22-1,3.04-.81,4.03.43"/><path class="cls-22" d="m107.94,117.82c-1.77.91-10.11,2.2-14.27-1.56l.35-1.2c4.16,3.32,11.93,2.5,13.93,1.51v1.25Z"/><path class="cls-22" d="m77.03,169.41c-7.77,0-55.83,80.6-55.83,80.6l19.27,13.45s34.18-50.67,36.29-56.03c2.11-5.36,8.05-38.01.27-38.01"/><polygon class="cls-1" points="99.06 169.41 111.13 222.94 97.33 182.42 83.42 169.41 99.06 169.41"/><path class="cls-22" d="m77.03,169.45l6.39-.05,31.09,54.85-11.48-54.85,4.21-.17s11.7,48.07,18.9,56.4c-4.01,11.14-11.73,32.32-7.81,109.33h-62.8c23.74-17.64,24.18-77.09,0-116.19,4.05-27.35,21.48-49.32,21.48-49.32"/><rect class="cls-22" x="158.95" y="144.82" width="32.9" height="56.43"/><rect class="cls-1" x="162.2" y="148.72" width="26.41" height="42.97"/><path class="cls-4" d="m167.5,146.86c0,.23.19.42.42.42h14.96c.23,0,.42-.19.42-.42s-.19-.42-.42-.42h-14.96c-.23,0-.42.19-.42.42"/><rect class="cls-13" x="179.79" y="152.49" width="5.47" height="5.12"/><rect class="cls-9" x="172.66" y="152.49" width="5.47" height="5.12"/><rect class="cls-22" x="165.54" y="152.49" width="5.47" height="5.12"/><rect class="cls-22" x="179.79" y="162.04" width="5.47" height="5.13"/><rect class="cls-13" x="172.66" y="162.04" width="5.47" height="5.13"/><rect class="cls-9" x="165.54" y="162.04" width="5.47" height="5.13"/><rect class="cls-9" x="179.79" y="181.15" width="5.47" height="5.12"/><rect class="cls-22" x="172.66" y="181.15" width="5.47" height="5.12"/><rect class="cls-13" x="165.54" y="181.15" width="5.47" height="5.12"/><rect class="cls-13" x="179.79" y="171.59" width="5.47" height="5.13"/><rect class="cls-9" x="172.66" y="171.59" width="5.47" height="5.13"/><rect class="cls-22" x="165.54" y="171.59" width="5.47" height="5.13"/><path class="cls-1" d="m174.89,199.1c.15.15.35.23.56.23s.41-.08.56-.23l2.29-2.29c.15-.15.23-.35.23-.56s-.08-.41-.23-.56l-2.29-2.29c-.31-.31-.81-.31-1.12,0l-2.29,2.29c-.31.31-.31.81,0,1.12l2.29,2.29Z"/><path class="cls-1" d="m181.61,197.04h2.48c.44,0,.79-.35.79-.79s-.35-.79-.79-.79h-2.48c-.44,0-.79.35-.79.79s.35.79.79.79"/><path class="cls-1" d="m167,197.04h2.48c.44,0,.79-.35.79-.79s-.35-.79-.79-.79h-2.48c-.44,0-.79.35-.79.79s.35.79.79.79"/></g><g><path class="cls-1" d="m109.73,318.55h-1.43c-1.57,0-2.85-1.28-2.85-2.85s1.28-2.85,2.85-2.85h1.43c1.57,0,2.85,1.28,2.85,2.85s-1.28,2.85-2.85,2.85"/><polygon class="cls-1" points="103.27 325.61 86.11 315.7 103.27 305.79 103.27 325.61"/></g><g><polygon class="cls-8" points="85.04 164.95 83.42 169.41 82.61 205.77 97.33 182.42 85.04 164.95"/><polygon class="cls-8" points="108.32 210.43 108.89 191.21 116.78 198.42 101.91 164.95 99.06 169.41 108.32 210.43"/><polygon class="cls-13" points="108.89 191.21 108.89 185.58 116.78 198.42 108.89 191.21"/><path class="cls-1" d="m108.72,250.09c0,1.36-.35,2.47-.79,2.47s-.79-1.11-.79-2.47.35-2.47.79-2.47.79,1.11.79,2.47"/><path class="cls-1" d="m108.72,273.72c0,1.36-.35,2.47-.79,2.47s-.79-1.11-.79-2.47.35-2.47.79-2.47.79,1.11.79,2.47"/><path class="cls-1" d="m108.72,297.35c0,1.36-.35,2.47-.79,2.47s-.79-1.11-.79-2.47.35-2.47.79-2.47.79,1.11.79,2.47"/></g></g></g></svg>