<?xml version="1.0" encoding="utf-8"?>
<!-- Generator: Adobe Illustrator 25.1.0, SVG Export Plug-In . SVG Version: 6.00 Build 0)  -->
<svg version="1.1" id="Ebene_1" xmlns="http://www.w3.org/2000/svg" xmlns:xlink="http://www.w3.org/1999/xlink" x="0px" y="0px"
	 width="64.2px" height="65px" viewBox="0 0 64.2 65">
<style type="text/css">
	.st0{fill:#FF8700;}
</style>
<g>
	<path class="st0" d="M25.4,6.7c0-3.5,0.8-4.7,2-5.7C17.3,2.2,5.2,5.9,1.3,10.6C0.5,11.8,0,13.6,0,16c0,15,16,49,27.3,49
		c5.2,0,14-8.6,21.3-20.2c-1,0.3-1.7,0.4-2.7,0.4C37.5,45.2,25.4,16.3,25.4,6.7z"/>
	<path class="st0" d="M43.3,0c-4.4,0-6.1,0.8-6.1,5.2c0,9.6,8.6,28.8,15.5,28.8c3.9,0,11.5-14.5,11.5-26.4C64.2,1.7,53.7,0,43.3,0z"
		/>
</g>
</svg>
