<svg xmlns="http://www.w3.org/2000/svg" width="443" height="443"><defs><filter id="a" x="0" y="0" width="443" height="443" filterUnits="userSpaceOnUse"><feOffset dy="6"/><feGaussianBlur stdDeviation="12" result="blur"/><feFlood flood-opacity=".239"/><feComposite operator="in" in2="blur"/><feComposite in="SourceGraphic"/></filter></defs><g transform="translate(-.001 -.001)" filter="url(#a)"><circle data-name="Ellipse 4" cx="185.5" cy="185.5" r="185.5" transform="translate(36 30)" fill="#f8b600"/></g><g data-name="Gruppe 113" transform="translate(113.09 97.663)" fill="#472600"><path data-name="Pfad 104" d="M63.62 0c9.1 0 23.186 8.863 23.186 19.8S72.724 35.822 63.62 35.822 47.135 30.73 47.135 19.8 54.515 0 63.62 0Z"/><ellipse data-name="Ellipse 6" cx="20" cy="27" rx="20" ry="27" transform="translate(-.09 98.337)"/><path data-name="Pfad 101" d="M172.512 152.716a27.338 27.338 0 1 1 0 54.676c-15.1 0-20.424-12.24-20.424-27.338s5.326-27.338 20.424-27.338Z"/><path data-name="Pfad 102" d="M84.842 180.857c19.29 1.17 24.51 16.77 24.51 30.306a24.51 24.51 0 0 1-49.02 0c0-13.536 5.22-31.475 24.51-30.306Z"/><path data-name="Pfad 103" d="M91.441 96.643c9.892 0 17.911 1.874 17.911 11.766a17.911 17.911 0 0 1-35.822 0c0-9.892 8.019-11.766 17.911-11.766Z"/><path data-name="Pfad 100" d="M187.596 45.179c20.3 0 36.765 7.1 36.765 27.408a36.765 36.765 0 0 1-73.53 0c0-20.305 16.46-27.408 36.765-27.408Z"/></g></svg>